<svg xmlns="http://www.w3.org/2000/svg" xmlns:xlink="http://www.w3.org/1999/xlink" width="600" height="400" viewBox="0 0 2400 1600">
<defs>
  <clipPath id="clip480">
    <rect x="0" y="0" width="2400" height="1600"></rect>
  </clipPath>
</defs>
<path clip-path="url(#clip480)" d="M0 1600 L2400 1600 L2400 0 L0 0  Z" fill="#ffffff" fill-rule="evenodd" fill-opacity="1"></path>
<defs>
  <clipPath id="clip481">
    <rect x="480" y="0" width="1681" height="1600"></rect>
  </clipPath>
</defs>
<path clip-path="url(#clip480)" d="M193.936 1486.45 L2352.76 1486.45 L2352.76 47.2441 L193.936 47.2441  Z" fill="#ffffff" fill-rule="evenodd" fill-opacity="1"></path>
<defs>
  <clipPath id="clip482">
    <rect x="193" y="47" width="2160" height="1440"></rect>
  </clipPath>
</defs>
<path clip-path="url(#clip482)" d="M1273.22 766.764 L1952.31 766.764 L1952.29 762.18 L1952.24 757.596 L1952.17 753.013 L1952.06 748.431 L1951.92 743.849 L1951.75 739.268 L1951.55 734.689 L1951.32 730.111 L1951.05 725.535 L1950.76 720.961 L1950.43 716.388 L1950.08 711.818 L1949.69 707.251 L1949.28 702.686 L1948.83 698.124 L1948.35 693.565 L1947.84 689.01 L1947.3 684.458 L1946.73 679.91 L1946.13 675.366 L1945.49 670.826 L1944.83 666.29 L1944.14 661.759 L1943.41 657.233 L1942.66 652.712 L1941.87 648.196 L1941.06 643.685 L1940.21 639.18 L1939.34 634.681 L1938.43 630.188 L1937.49 625.701 L1936.53 621.22 L1935.53 616.746 L1934.5 612.279 L1933.44 607.819 L1932.35 603.366 L1931.24 598.921 L1930.09 594.483 L1928.91 590.053 L1927.7 585.632 L1926.47 581.218 L1925.2 576.813 L1923.9 572.416 L1922.57 568.029 L1921.22 563.65 L1919.83 559.281 L1918.42 554.921 L1916.97 550.571 L1915.5 546.231 L1273.22 766.764  Z" fill="#009af9" fill-rule="evenodd" fill-opacity="1"></path>
<polyline clip-path="url(#clip482)" style="stroke:#000000; stroke-linecap:round; stroke-linejoin:round; stroke-width:4; stroke-opacity:1; fill:none" points="1273.22,766.764 1952.31,766.764 1952.29,762.18 1952.24,757.596 1952.17,753.013 1952.06,748.431 1951.92,743.849 1951.75,739.268 1951.55,734.689 1951.32,730.111 1951.05,725.535 1950.76,720.961 1950.43,716.388 1950.08,711.818 1949.69,707.251 1949.28,702.686 1948.83,698.124 1948.35,693.565 1947.84,689.01 1947.3,684.458 1946.73,679.91 1946.13,675.366 1945.49,670.826 1944.83,666.29 1944.14,661.759 1943.41,657.233 1942.66,652.712 1941.87,648.196 1941.06,643.685 1940.21,639.18 1939.34,634.681 1938.43,630.188 1937.49,625.701 1936.53,621.22 1935.53,616.746 1934.5,612.279 1933.44,607.819 1932.35,603.366 1931.24,598.921 1930.09,594.483 1928.91,590.053 1927.7,585.632 1926.47,581.218 1925.2,576.813 1923.9,572.416 1922.57,568.029 1921.22,563.65 1919.83,559.281 1918.42,554.921 1916.97,550.571 1915.5,546.231 1273.22,766.764 "></polyline>
<path clip-path="url(#clip482)" d="M1273.22 766.764 L1915.5 546.231 L1897.25 498.917 L1875.52 453.097 L1850.44 409.026 L1822.13 366.95 L1790.77 327.103 L1756.52 289.709 L1719.57 254.974 L1680.14 223.093 L1638.43 194.244 L1594.69 168.587 L1549.16 146.266 L1502.08 127.405 L1453.74 112.109 L1404.38 100.464 L1354.29 92.5337 L1303.75 88.3635 L1253.05 87.9763 L1202.45 91.3741 L1152.25 98.5381 L1102.72 109.428 L1054.14 123.984 L1006.79 142.124 L960.92 163.747 L916.792 188.733 L874.652 216.942 L834.734 248.216 L797.262 282.383 L762.443 319.25 L730.473 358.613 L701.529 400.252 L675.773 443.935 L653.348 489.418 L634.381 536.447 L618.975 584.761 L607.218 634.089 L599.174 684.157 L594.889 734.686 L594.387 785.394 L597.67 835.998 L604.72 886.216 L615.497 935.768 L629.943 984.378 L647.975 1031.77 L669.494 1077.69 L694.379 1121.88 L722.492 1164.08 L753.676 1204.07 L787.758 1241.62 L824.546 1276.52 L1273.22 766.764  Z" fill="#e26f46" fill-rule="evenodd" fill-opacity="1"></path>
<polyline clip-path="url(#clip482)" style="stroke:#000000; stroke-linecap:round; stroke-linejoin:round; stroke-width:4; stroke-opacity:1; fill:none" points="1273.22,766.764 1915.5,546.231 1897.25,498.917 1875.52,453.097 1850.44,409.026 1822.13,366.95 1790.77,327.103 1756.52,289.709 1719.57,254.974 1680.14,223.093 1638.43,194.244 1594.69,168.587 1549.16,146.266 1502.08,127.405 1453.74,112.109 1404.38,100.464 1354.29,92.5337 1303.75,88.3635 1253.05,87.9763 1202.45,91.3741 1152.25,98.5381 1102.72,109.428 1054.14,123.984 1006.79,142.124 960.92,163.747 916.792,188.733 874.652,216.942 834.734,248.216 797.262,282.383 762.443,319.25 730.473,358.613 701.529,400.252 675.773,443.935 653.348,489.418 634.381,536.447 618.975,584.761 607.218,634.089 599.174,684.157 594.889,734.686 594.387,785.394 597.67,835.998 604.72,886.216 615.497,935.768 629.943,984.378 647.975,1031.77 669.494,1077.69 694.379,1121.88 722.492,1164.08 753.676,1204.07 787.758,1241.62 824.546,1276.52 1273.22,766.764 "></polyline>
<path clip-path="url(#clip482)" d="M1273.22 766.764 L824.546 1276.52 L848.878 1296.95 L874.139 1316.21 L900.273 1334.28 L927.224 1351.1 L954.931 1366.64 L983.336 1380.87 L1012.37 1393.76 L1041.98 1405.27 L1072.1 1415.39 L1102.66 1424.08 L1133.58 1431.34 L1164.82 1437.14 L1196.29 1441.48 L1227.93 1444.34 L1259.67 1445.72 L1291.44 1445.61 L1323.17 1444.01 L1354.79 1440.93 L1386.23 1436.38 L1417.43 1430.36 L1448.3 1422.89 L1478.8 1413.99 L1508.84 1403.66 L1538.37 1391.95 L1567.32 1378.86 L1595.63 1364.43 L1623.23 1348.7 L1650.06 1331.7 L1676.07 1313.45 L1701.2 1294.01 L1725.39 1273.42 L1748.59 1251.72 L1770.75 1228.95 L1791.82 1205.18 L1811.76 1180.44 L1830.52 1154.8 L1848.06 1128.31 L1864.34 1101.03 L1879.33 1073.02 L1892.99 1044.34 L1905.29 1015.05 L1916.21 985.215 L1925.72 954.903 L1933.81 924.18 L1940.45 893.112 L1945.63 861.768 L1949.33 830.215 L1951.56 798.524 L1952.31 766.764 L1273.22 766.764  Z" fill="#3da44d" fill-rule="evenodd" fill-opacity="1"></path>
<polyline clip-path="url(#clip482)" style="stroke:#000000; stroke-linecap:round; stroke-linejoin:round; stroke-width:4; stroke-opacity:1; fill:none" points="1273.22,766.764 824.546,1276.52 848.878,1296.95 874.139,1316.21 900.273,1334.28 927.224,1351.1 954.931,1366.64 983.336,1380.87 1012.37,1393.76 1041.98,1405.27 1072.1,1415.39 1102.66,1424.08 1133.58,1431.34 1164.82,1437.14 1196.29,1441.48 1227.93,1444.34 1259.67,1445.72 1291.44,1445.61 1323.17,1444.01 1354.79,1440.93 1386.23,1436.38 1417.43,1430.36 1448.3,1422.89 1478.8,1413.99 1508.84,1403.66 1538.37,1391.95 1567.32,1378.86 1595.63,1364.43 1623.23,1348.7 1650.06,1331.7 1676.07,1313.45 1701.2,1294.01 1725.39,1273.42 1748.59,1251.72 1770.75,1228.95 1791.82,1205.18 1811.76,1180.44 1830.52,1154.8 1848.06,1128.31 1864.34,1101.03 1879.33,1073.02 1892.99,1044.34 1905.29,1015.05 1916.21,985.215 1925.72,954.903 1933.81,924.18 1940.45,893.112 1945.63,861.768 1949.33,830.215 1951.56,798.524 1952.31,766.764 1273.22,766.764 "></polyline>
<path clip-path="url(#clip480)" d="M265.897 1438.47 L1023.28 1438.47 L1023.28 1231.11 L265.897 1231.11  Z" fill="#ffffff" fill-rule="evenodd" fill-opacity="1"></path>
<polyline clip-path="url(#clip480)" style="stroke:#000000; stroke-linecap:round; stroke-linejoin:round; stroke-width:4; stroke-opacity:1; fill:none" points="265.897,1438.47 1023.28,1438.47 1023.28,1231.11 265.897,1231.11 265.897,1438.47 "></polyline>
<path clip-path="url(#clip480)" d="M289.884 1303.69 L433.805 1303.69 L433.805 1262.22 L289.884 1262.22 L289.884 1303.69  Z" fill="#009af9" fill-rule="evenodd" fill-opacity="1"></path>
<polyline clip-path="url(#clip480)" style="stroke:#000000; stroke-linecap:round; stroke-linejoin:round; stroke-width:4; stroke-opacity:1; fill:none" points="289.884,1303.69 433.805,1303.69 433.805,1262.22 289.884,1262.22 289.884,1303.69 "></polyline>
<path clip-path="url(#clip480)" d="M457.792 1274.31 L462.051 1274.31 L462.051 1300.23 L457.792 1300.23 L457.792 1274.31 M457.792 1264.22 L462.051 1264.22 L462.051 1269.61 L457.792 1269.61 L457.792 1264.22 Z" fill="#000000" fill-rule="nonzero" fill-opacity="1"></path><path clip-path="url(#clip480)" d="M492.514 1284.59 L492.514 1300.23 L488.255 1300.23 L488.255 1284.73 Q488.255 1281.04 486.819 1279.22 Q485.384 1277.39 482.514 1277.39 Q479.065 1277.39 477.074 1279.59 Q475.083 1281.79 475.083 1285.58 L475.083 1300.23 L470.801 1300.23 L470.801 1274.31 L475.083 1274.31 L475.083 1278.34 Q476.611 1276 478.671 1274.84 Q480.755 1273.68 483.463 1273.68 Q487.93 1273.68 490.222 1276.46 Q492.514 1279.22 492.514 1284.59 Z" fill="#000000" fill-rule="nonzero" fill-opacity="1"></path><path clip-path="url(#clip480)" d="M517.537 1275.07 L517.537 1279.1 Q515.731 1278.17 513.787 1277.71 Q511.842 1277.25 509.759 1277.25 Q506.588 1277.25 504.991 1278.22 Q503.417 1279.19 503.417 1281.14 Q503.417 1282.62 504.551 1283.48 Q505.685 1284.31 509.111 1285.07 L510.569 1285.4 Q515.106 1286.37 517.004 1288.15 Q518.926 1289.91 518.926 1293.08 Q518.926 1296.69 516.055 1298.8 Q513.208 1300.91 508.208 1300.91 Q506.125 1300.91 503.856 1300.49 Q501.611 1300.1 499.111 1299.29 L499.111 1294.89 Q501.472 1296.11 503.764 1296.74 Q506.055 1297.34 508.301 1297.34 Q511.31 1297.34 512.93 1296.32 Q514.551 1295.28 514.551 1293.41 Q514.551 1291.67 513.37 1290.74 Q512.213 1289.82 508.254 1288.96 L506.773 1288.61 Q502.815 1287.78 501.055 1286.07 Q499.296 1284.33 499.296 1281.32 Q499.296 1277.67 501.889 1275.67 Q504.481 1273.68 509.25 1273.68 Q511.611 1273.68 513.694 1274.03 Q515.778 1274.38 517.537 1275.07 Z" fill="#000000" fill-rule="nonzero" fill-opacity="1"></path><path clip-path="url(#clip480)" d="M525.708 1274.31 L529.967 1274.31 L529.967 1300.23 L525.708 1300.23 L525.708 1274.31 M525.708 1264.22 L529.967 1264.22 L529.967 1269.61 L525.708 1269.61 L525.708 1264.22 Z" fill="#000000" fill-rule="nonzero" fill-opacity="1"></path><path clip-path="url(#clip480)" d="M555.939 1278.24 L555.939 1264.22 L560.199 1264.22 L560.199 1300.23 L555.939 1300.23 L555.939 1296.35 Q554.597 1298.66 552.537 1299.79 Q550.5 1300.91 547.629 1300.91 Q542.93 1300.91 539.967 1297.16 Q537.027 1293.41 537.027 1287.29 Q537.027 1281.18 539.967 1277.43 Q542.93 1273.68 547.629 1273.68 Q550.5 1273.68 552.537 1274.82 Q554.597 1275.93 555.939 1278.24 M541.426 1287.29 Q541.426 1291.99 543.347 1294.68 Q545.291 1297.34 548.671 1297.34 Q552.051 1297.34 553.995 1294.68 Q555.939 1291.99 555.939 1287.29 Q555.939 1282.6 553.995 1279.93 Q552.051 1277.25 548.671 1277.25 Q545.291 1277.25 543.347 1279.93 Q541.426 1282.6 541.426 1287.29 Z" fill="#000000" fill-rule="nonzero" fill-opacity="1"></path><path clip-path="url(#clip480)" d="M591.148 1286.21 L591.148 1288.29 L571.564 1288.29 Q571.842 1292.69 574.203 1295 Q576.587 1297.29 580.824 1297.29 Q583.277 1297.29 585.569 1296.69 Q587.884 1296.09 590.152 1294.89 L590.152 1298.91 Q587.861 1299.89 585.453 1300.4 Q583.046 1300.91 580.569 1300.91 Q574.365 1300.91 570.731 1297.29 Q567.12 1293.68 567.12 1287.53 Q567.12 1281.16 570.546 1277.43 Q573.995 1273.68 579.828 1273.68 Q585.06 1273.68 588.092 1277.06 Q591.148 1280.42 591.148 1286.21 M586.888 1284.96 Q586.842 1281.46 584.921 1279.38 Q583.023 1277.29 579.874 1277.29 Q576.31 1277.29 574.157 1279.31 Q572.027 1281.32 571.703 1284.98 L586.888 1284.96 Z" fill="#000000" fill-rule="nonzero" fill-opacity="1"></path><path clip-path="url(#clip480)" d="M613.161 1278.29 Q612.444 1277.87 611.587 1277.69 Q610.754 1277.48 609.735 1277.48 Q606.124 1277.48 604.18 1279.84 Q602.259 1282.18 602.259 1286.58 L602.259 1300.23 L597.976 1300.23 L597.976 1274.31 L602.259 1274.31 L602.259 1278.34 Q603.601 1275.98 605.754 1274.84 Q607.907 1273.68 610.985 1273.68 Q611.425 1273.68 611.958 1273.75 Q612.49 1273.8 613.138 1273.92 L613.161 1278.29 Z" fill="#000000" fill-rule="nonzero" fill-opacity="1"></path><path clip-path="url(#clip480)" d="M634.157 1275.07 L634.157 1279.1 Q632.351 1278.17 630.407 1277.71 Q628.462 1277.25 626.379 1277.25 Q623.208 1277.25 621.61 1278.22 Q620.036 1279.19 620.036 1281.14 Q620.036 1282.62 621.171 1283.48 Q622.305 1284.31 625.731 1285.07 L627.189 1285.4 Q631.726 1286.37 633.624 1288.15 Q635.545 1289.91 635.545 1293.08 Q635.545 1296.69 632.675 1298.8 Q629.828 1300.91 624.828 1300.91 Q622.745 1300.91 620.476 1300.49 Q618.231 1300.1 615.731 1299.29 L615.731 1294.89 Q618.092 1296.11 620.383 1296.74 Q622.675 1297.34 624.92 1297.34 Q627.93 1297.34 629.55 1296.32 Q631.17 1295.28 631.17 1293.41 Q631.17 1291.67 629.99 1290.74 Q628.833 1289.82 624.874 1288.96 L623.393 1288.61 Q619.434 1287.78 617.675 1286.07 Q615.916 1284.33 615.916 1281.32 Q615.916 1277.67 618.508 1275.67 Q621.101 1273.68 625.87 1273.68 Q628.231 1273.68 630.314 1274.03 Q632.397 1274.38 634.157 1275.07 Z" fill="#000000" fill-rule="nonzero" fill-opacity="1"></path><path clip-path="url(#clip480)" d="M647.189 1269.52 L647.189 1282.5 L653.068 1282.5 Q656.332 1282.5 658.115 1280.81 Q659.897 1279.12 659.897 1276 Q659.897 1272.9 658.115 1271.21 Q656.332 1269.52 653.068 1269.52 L647.189 1269.52 M642.513 1265.67 L653.068 1265.67 Q658.879 1265.67 661.842 1268.31 Q664.828 1270.93 664.828 1276 Q664.828 1281.11 661.842 1283.73 Q658.879 1286.35 653.068 1286.35 L647.189 1286.35 L647.189 1300.23 L642.513 1300.23 L642.513 1265.67 Z" fill="#000000" fill-rule="nonzero" fill-opacity="1"></path><path clip-path="url(#clip480)" d="M691.402 1286.21 L691.402 1288.29 L671.818 1288.29 Q672.096 1292.69 674.457 1295 Q676.842 1297.29 681.078 1297.29 Q683.531 1297.29 685.823 1296.69 Q688.138 1296.09 690.406 1294.89 L690.406 1298.91 Q688.115 1299.89 685.707 1300.4 Q683.3 1300.91 680.823 1300.91 Q674.619 1300.91 670.985 1297.29 Q667.374 1293.68 667.374 1287.53 Q667.374 1281.16 670.8 1277.43 Q674.249 1273.68 680.082 1273.68 Q685.314 1273.68 688.346 1277.06 Q691.402 1280.42 691.402 1286.21 M687.142 1284.96 Q687.096 1281.46 685.175 1279.38 Q683.277 1277.29 680.129 1277.29 Q676.564 1277.29 674.411 1279.31 Q672.281 1281.32 671.957 1284.98 L687.142 1284.96 Z" fill="#000000" fill-rule="nonzero" fill-opacity="1"></path><path clip-path="url(#clip480)" d="M713.415 1278.29 Q712.698 1277.87 711.841 1277.69 Q711.008 1277.48 709.989 1277.48 Q706.378 1277.48 704.434 1279.84 Q702.513 1282.18 702.513 1286.58 L702.513 1300.23 L698.23 1300.23 L698.23 1274.31 L702.513 1274.31 L702.513 1278.34 Q703.855 1275.98 706.008 1274.84 Q708.161 1273.68 711.239 1273.68 Q711.679 1273.68 712.212 1273.75 Q712.744 1273.8 713.392 1273.92 L713.415 1278.29 Z" fill="#000000" fill-rule="nonzero" fill-opacity="1"></path><path clip-path="url(#clip480)" d="M735.499 1275.3 L735.499 1279.29 Q733.693 1278.29 731.864 1277.8 Q730.059 1277.29 728.207 1277.29 Q724.063 1277.29 721.772 1279.93 Q719.48 1282.55 719.48 1287.29 Q719.48 1292.04 721.772 1294.68 Q724.063 1297.29 728.207 1297.29 Q730.059 1297.29 731.864 1296.81 Q733.693 1296.3 735.499 1295.3 L735.499 1299.24 Q733.716 1300.07 731.795 1300.49 Q729.897 1300.91 727.744 1300.91 Q721.888 1300.91 718.439 1297.23 Q714.989 1293.54 714.989 1287.29 Q714.989 1280.95 718.462 1277.32 Q721.957 1273.68 728.022 1273.68 Q729.989 1273.68 731.864 1274.1 Q733.739 1274.49 735.499 1275.3 Z" fill="#000000" fill-rule="nonzero" fill-opacity="1"></path><path clip-path="url(#clip480)" d="M765.082 1286.21 L765.082 1288.29 L745.499 1288.29 Q745.776 1292.69 748.137 1295 Q750.522 1297.29 754.758 1297.29 Q757.211 1297.29 759.503 1296.69 Q761.818 1296.09 764.086 1294.89 L764.086 1298.91 Q761.795 1299.89 759.387 1300.4 Q756.98 1300.91 754.503 1300.91 Q748.299 1300.91 744.665 1297.29 Q741.054 1293.68 741.054 1287.53 Q741.054 1281.16 744.48 1277.43 Q747.929 1273.68 753.762 1273.68 Q758.994 1273.68 762.026 1277.06 Q765.082 1280.42 765.082 1286.21 M760.823 1284.96 Q760.776 1281.46 758.855 1279.38 Q756.957 1277.29 753.809 1277.29 Q750.244 1277.29 748.091 1279.31 Q745.962 1281.32 745.637 1284.98 L760.823 1284.96 Z" fill="#000000" fill-rule="nonzero" fill-opacity="1"></path><path clip-path="url(#clip480)" d="M793.623 1284.59 L793.623 1300.23 L789.364 1300.23 L789.364 1284.73 Q789.364 1281.04 787.929 1279.22 Q786.494 1277.39 783.623 1277.39 Q780.174 1277.39 778.184 1279.59 Q776.193 1281.79 776.193 1285.58 L776.193 1300.23 L771.91 1300.23 L771.91 1274.31 L776.193 1274.31 L776.193 1278.34 Q777.721 1276 779.781 1274.84 Q781.864 1273.68 784.572 1273.68 Q789.04 1273.68 791.332 1276.46 Q793.623 1279.22 793.623 1284.59 Z" fill="#000000" fill-rule="nonzero" fill-opacity="1"></path><path clip-path="url(#clip480)" d="M806.332 1266.95 L806.332 1274.31 L815.105 1274.31 L815.105 1277.62 L806.332 1277.62 L806.332 1291.69 Q806.332 1294.86 807.188 1295.77 Q808.068 1296.67 810.73 1296.67 L815.105 1296.67 L815.105 1300.23 L810.73 1300.23 Q805.799 1300.23 803.924 1298.41 Q802.049 1296.55 802.049 1291.69 L802.049 1277.62 L798.924 1277.62 L798.924 1274.31 L802.049 1274.31 L802.049 1266.95 L806.332 1266.95 Z" fill="#000000" fill-rule="nonzero" fill-opacity="1"></path><path clip-path="url(#clip480)" d="M820.892 1265.67 L825.568 1265.67 L825.568 1279.84 L842.558 1279.84 L842.558 1265.67 L847.234 1265.67 L847.234 1300.23 L842.558 1300.23 L842.558 1283.78 L825.568 1283.78 L825.568 1300.23 L820.892 1300.23 L820.892 1265.67 Z" fill="#000000" fill-rule="nonzero" fill-opacity="1"></path><path clip-path="url(#clip480)" d="M878.53 1286.21 L878.53 1288.29 L858.947 1288.29 Q859.225 1292.69 861.586 1295 Q863.97 1297.29 868.206 1297.29 Q870.66 1297.29 872.952 1296.69 Q875.266 1296.09 877.535 1294.89 L877.535 1298.91 Q875.243 1299.89 872.836 1300.4 Q870.428 1300.91 867.952 1300.91 Q861.748 1300.91 858.114 1297.29 Q854.503 1293.68 854.503 1287.53 Q854.503 1281.16 857.929 1277.43 Q861.378 1273.68 867.211 1273.68 Q872.442 1273.68 875.475 1277.06 Q878.53 1280.42 878.53 1286.21 M874.271 1284.96 Q874.225 1281.46 872.303 1279.38 Q870.405 1277.29 867.257 1277.29 Q863.692 1277.29 861.54 1279.31 Q859.41 1281.32 859.086 1284.98 L874.271 1284.96 Z" fill="#000000" fill-rule="nonzero" fill-opacity="1"></path><path clip-path="url(#clip480)" d="M885.521 1264.22 L889.78 1264.22 L889.78 1300.23 L885.521 1300.23 L885.521 1264.22 Z" fill="#000000" fill-rule="nonzero" fill-opacity="1"></path><path clip-path="url(#clip480)" d="M915.752 1278.24 L915.752 1264.22 L920.012 1264.22 L920.012 1300.23 L915.752 1300.23 L915.752 1296.35 Q914.41 1298.66 912.35 1299.79 Q910.312 1300.91 907.442 1300.91 Q902.743 1300.91 899.78 1297.16 Q896.84 1293.41 896.84 1287.29 Q896.84 1281.18 899.78 1277.43 Q902.743 1273.68 907.442 1273.68 Q910.312 1273.68 912.35 1274.82 Q914.41 1275.93 915.752 1278.24 M901.238 1287.29 Q901.238 1291.99 903.16 1294.68 Q905.104 1297.34 908.484 1297.34 Q911.863 1297.34 913.808 1294.68 Q915.752 1291.99 915.752 1287.29 Q915.752 1282.6 913.808 1279.93 Q911.863 1277.25 908.484 1277.25 Q905.104 1277.25 903.16 1279.93 Q901.238 1282.6 901.238 1287.29 Z" fill="#000000" fill-rule="nonzero" fill-opacity="1"></path><path clip-path="url(#clip480)" d="M289.884 1355.53 L433.805 1355.53 L433.805 1314.06 L289.884 1314.06 L289.884 1355.53  Z" fill="#e26f46" fill-rule="evenodd" fill-opacity="1"></path>
<polyline clip-path="url(#clip480)" style="stroke:#000000; stroke-linecap:round; stroke-linejoin:round; stroke-width:4; stroke-opacity:1; fill:none" points="289.884,1355.53 433.805,1355.53 433.805,1314.06 289.884,1314.06 289.884,1355.53 "></polyline>
<path clip-path="url(#clip480)" d="M457.792 1326.15 L462.051 1326.15 L462.051 1352.07 L457.792 1352.07 L457.792 1326.15 M457.792 1316.06 L462.051 1316.06 L462.051 1321.45 L457.792 1321.45 L457.792 1316.06 Z" fill="#000000" fill-rule="nonzero" fill-opacity="1"></path><path clip-path="url(#clip480)" d="M492.514 1336.43 L492.514 1352.07 L488.255 1352.07 L488.255 1336.57 Q488.255 1332.88 486.819 1331.06 Q485.384 1329.23 482.514 1329.23 Q479.065 1329.23 477.074 1331.43 Q475.083 1333.63 475.083 1337.42 L475.083 1352.07 L470.801 1352.07 L470.801 1326.15 L475.083 1326.15 L475.083 1330.18 Q476.611 1327.84 478.671 1326.68 Q480.755 1325.52 483.463 1325.52 Q487.93 1325.52 490.222 1328.3 Q492.514 1331.06 492.514 1336.43 Z" fill="#000000" fill-rule="nonzero" fill-opacity="1"></path><path clip-path="url(#clip480)" d="M517.537 1326.91 L517.537 1330.94 Q515.731 1330.01 513.787 1329.55 Q511.842 1329.09 509.759 1329.09 Q506.588 1329.09 504.991 1330.06 Q503.417 1331.03 503.417 1332.98 Q503.417 1334.46 504.551 1335.32 Q505.685 1336.15 509.111 1336.91 L510.569 1337.24 Q515.106 1338.21 517.004 1339.99 Q518.926 1341.75 518.926 1344.92 Q518.926 1348.53 516.055 1350.64 Q513.208 1352.75 508.208 1352.75 Q506.125 1352.75 503.856 1352.33 Q501.611 1351.94 499.111 1351.13 L499.111 1346.73 Q501.472 1347.95 503.764 1348.58 Q506.055 1349.18 508.301 1349.18 Q511.31 1349.18 512.93 1348.16 Q514.551 1347.12 514.551 1345.25 Q514.551 1343.51 513.37 1342.58 Q512.213 1341.66 508.254 1340.8 L506.773 1340.45 Q502.815 1339.62 501.055 1337.91 Q499.296 1336.17 499.296 1333.16 Q499.296 1329.51 501.889 1327.51 Q504.481 1325.52 509.25 1325.52 Q511.611 1325.52 513.694 1325.87 Q515.778 1326.22 517.537 1326.91 Z" fill="#000000" fill-rule="nonzero" fill-opacity="1"></path><path clip-path="url(#clip480)" d="M529.921 1318.79 L529.921 1326.15 L538.694 1326.15 L538.694 1329.46 L529.921 1329.46 L529.921 1343.53 Q529.921 1346.7 530.777 1347.61 Q531.657 1348.51 534.319 1348.51 L538.694 1348.51 L538.694 1352.07 L534.319 1352.07 Q529.389 1352.07 527.514 1350.25 Q525.639 1348.39 525.639 1343.53 L525.639 1329.46 L522.514 1329.46 L522.514 1326.15 L525.639 1326.15 L525.639 1318.79 L529.921 1318.79 Z" fill="#000000" fill-rule="nonzero" fill-opacity="1"></path><path clip-path="url(#clip480)" d="M544.296 1326.15 L548.555 1326.15 L548.555 1352.07 L544.296 1352.07 L544.296 1326.15 M544.296 1316.06 L548.555 1316.06 L548.555 1321.45 L544.296 1321.45 L544.296 1316.06 Z" fill="#000000" fill-rule="nonzero" fill-opacity="1"></path><path clip-path="url(#clip480)" d="M561.68 1318.79 L561.68 1326.15 L570.453 1326.15 L570.453 1329.46 L561.68 1329.46 L561.68 1343.53 Q561.68 1346.7 562.537 1347.61 Q563.416 1348.51 566.078 1348.51 L570.453 1348.51 L570.453 1352.07 L566.078 1352.07 Q561.148 1352.07 559.273 1350.25 Q557.398 1348.39 557.398 1343.53 L557.398 1329.46 L554.273 1329.46 L554.273 1326.15 L557.398 1326.15 L557.398 1318.79 L561.68 1318.79 Z" fill="#000000" fill-rule="nonzero" fill-opacity="1"></path><path clip-path="url(#clip480)" d="M575.615 1341.84 L575.615 1326.15 L579.874 1326.15 L579.874 1341.68 Q579.874 1345.36 581.31 1347.21 Q582.745 1349.04 585.615 1349.04 Q589.064 1349.04 591.055 1346.84 Q593.069 1344.64 593.069 1340.85 L593.069 1326.15 L597.328 1326.15 L597.328 1352.07 L593.069 1352.07 L593.069 1348.09 Q591.518 1350.45 589.458 1351.61 Q587.421 1352.75 584.712 1352.75 Q580.245 1352.75 577.93 1349.97 Q575.615 1347.19 575.615 1341.84 M586.333 1325.52 L586.333 1325.52 Z" fill="#000000" fill-rule="nonzero" fill-opacity="1"></path><path clip-path="url(#clip480)" d="M610.314 1318.79 L610.314 1326.15 L619.087 1326.15 L619.087 1329.46 L610.314 1329.46 L610.314 1343.53 Q610.314 1346.7 611.171 1347.61 Q612.05 1348.51 614.712 1348.51 L619.087 1348.51 L619.087 1352.07 L614.712 1352.07 Q609.782 1352.07 607.907 1350.25 Q606.032 1348.39 606.032 1343.53 L606.032 1329.46 L602.907 1329.46 L602.907 1326.15 L606.032 1326.15 L606.032 1318.79 L610.314 1318.79 Z" fill="#000000" fill-rule="nonzero" fill-opacity="1"></path><path clip-path="url(#clip480)" d="M624.689 1326.15 L628.948 1326.15 L628.948 1352.07 L624.689 1352.07 L624.689 1326.15 M624.689 1316.06 L628.948 1316.06 L628.948 1321.45 L624.689 1321.45 L624.689 1316.06 Z" fill="#000000" fill-rule="nonzero" fill-opacity="1"></path><path clip-path="url(#clip480)" d="M647.906 1329.13 Q644.481 1329.13 642.49 1331.82 Q640.499 1334.48 640.499 1339.13 Q640.499 1343.79 642.467 1346.47 Q644.457 1349.13 647.906 1349.13 Q651.309 1349.13 653.3 1346.45 Q655.291 1343.76 655.291 1339.13 Q655.291 1334.53 653.3 1331.84 Q651.309 1329.13 647.906 1329.13 M647.906 1325.52 Q653.462 1325.52 656.633 1329.13 Q659.805 1332.75 659.805 1339.13 Q659.805 1345.5 656.633 1349.13 Q653.462 1352.75 647.906 1352.75 Q642.328 1352.75 639.157 1349.13 Q636.008 1345.5 636.008 1339.13 Q636.008 1332.75 639.157 1329.13 Q642.328 1325.52 647.906 1325.52 Z" fill="#000000" fill-rule="nonzero" fill-opacity="1"></path><path clip-path="url(#clip480)" d="M688.416 1336.43 L688.416 1352.07 L684.156 1352.07 L684.156 1336.57 Q684.156 1332.88 682.721 1331.06 Q681.286 1329.23 678.416 1329.23 Q674.967 1329.23 672.976 1331.43 Q670.985 1333.63 670.985 1337.42 L670.985 1352.07 L666.703 1352.07 L666.703 1326.15 L670.985 1326.15 L670.985 1330.18 Q672.513 1327.84 674.573 1326.68 Q676.656 1325.52 679.365 1325.52 Q683.832 1325.52 686.124 1328.3 Q688.416 1331.06 688.416 1336.43 Z" fill="#000000" fill-rule="nonzero" fill-opacity="1"></path><path clip-path="url(#clip480)" d="M713.439 1326.91 L713.439 1330.94 Q711.633 1330.01 709.689 1329.55 Q707.744 1329.09 705.661 1329.09 Q702.49 1329.09 700.892 1330.06 Q699.318 1331.03 699.318 1332.98 Q699.318 1334.46 700.453 1335.32 Q701.587 1336.15 705.013 1336.91 L706.471 1337.24 Q711.008 1338.21 712.906 1339.99 Q714.827 1341.75 714.827 1344.92 Q714.827 1348.53 711.957 1350.64 Q709.11 1352.75 704.11 1352.75 Q702.027 1352.75 699.758 1352.33 Q697.513 1351.94 695.013 1351.13 L695.013 1346.73 Q697.374 1347.95 699.665 1348.58 Q701.957 1349.18 704.202 1349.18 Q707.212 1349.18 708.832 1348.16 Q710.452 1347.12 710.452 1345.25 Q710.452 1343.51 709.272 1342.58 Q708.114 1341.66 704.156 1340.8 L702.675 1340.45 Q698.716 1339.62 696.957 1337.91 Q695.198 1336.17 695.198 1333.16 Q695.198 1329.51 697.79 1327.51 Q700.383 1325.52 705.152 1325.52 Q707.513 1325.52 709.596 1325.87 Q711.679 1326.22 713.439 1326.91 Z" fill="#000000" fill-rule="nonzero" fill-opacity="1"></path><path clip-path="url(#clip480)" d="M726.471 1321.36 L726.471 1334.34 L732.35 1334.34 Q735.614 1334.34 737.397 1332.65 Q739.179 1330.96 739.179 1327.84 Q739.179 1324.74 737.397 1323.05 Q735.614 1321.36 732.35 1321.36 L726.471 1321.36 M721.795 1317.51 L732.35 1317.51 Q738.161 1317.51 741.124 1320.15 Q744.11 1322.77 744.11 1327.84 Q744.11 1332.95 741.124 1335.57 Q738.161 1338.19 732.35 1338.19 L726.471 1338.19 L726.471 1352.07 L721.795 1352.07 L721.795 1317.51 Z" fill="#000000" fill-rule="nonzero" fill-opacity="1"></path><path clip-path="url(#clip480)" d="M770.684 1338.05 L770.684 1340.13 L751.1 1340.13 Q751.378 1344.53 753.739 1346.84 Q756.123 1349.13 760.36 1349.13 Q762.813 1349.13 765.105 1348.53 Q767.42 1347.93 769.688 1346.73 L769.688 1350.75 Q767.397 1351.73 764.989 1352.24 Q762.582 1352.75 760.105 1352.75 Q753.901 1352.75 750.267 1349.13 Q746.656 1345.52 746.656 1339.37 Q746.656 1333 750.082 1329.27 Q753.531 1325.52 759.364 1325.52 Q764.596 1325.52 767.628 1328.9 Q770.684 1332.26 770.684 1338.05 M766.424 1336.8 Q766.378 1333.3 764.457 1331.22 Q762.559 1329.13 759.411 1329.13 Q755.846 1329.13 753.693 1331.15 Q751.563 1333.16 751.239 1336.82 L766.424 1336.8 Z" fill="#000000" fill-rule="nonzero" fill-opacity="1"></path><path clip-path="url(#clip480)" d="M792.697 1330.13 Q791.98 1329.71 791.123 1329.53 Q790.29 1329.32 789.271 1329.32 Q785.66 1329.32 783.716 1331.68 Q781.795 1334.02 781.795 1338.42 L781.795 1352.07 L777.512 1352.07 L777.512 1326.15 L781.795 1326.15 L781.795 1330.18 Q783.137 1327.82 785.29 1326.68 Q787.443 1325.52 790.521 1325.52 Q790.961 1325.52 791.494 1325.59 Q792.026 1325.64 792.674 1325.76 L792.697 1330.13 Z" fill="#000000" fill-rule="nonzero" fill-opacity="1"></path><path clip-path="url(#clip480)" d="M814.781 1327.14 L814.781 1331.13 Q812.975 1330.13 811.146 1329.64 Q809.341 1329.13 807.489 1329.13 Q803.345 1329.13 801.054 1331.77 Q798.762 1334.39 798.762 1339.13 Q798.762 1343.88 801.054 1346.52 Q803.345 1349.13 807.489 1349.13 Q809.341 1349.13 811.146 1348.65 Q812.975 1348.14 814.781 1347.14 L814.781 1351.08 Q812.998 1351.91 811.077 1352.33 Q809.179 1352.75 807.026 1352.75 Q801.17 1352.75 797.72 1349.07 Q794.271 1345.38 794.271 1339.13 Q794.271 1332.79 797.744 1329.16 Q801.239 1325.52 807.304 1325.52 Q809.271 1325.52 811.146 1325.94 Q813.021 1326.33 814.781 1327.14 Z" fill="#000000" fill-rule="nonzero" fill-opacity="1"></path><path clip-path="url(#clip480)" d="M844.364 1338.05 L844.364 1340.13 L824.781 1340.13 Q825.058 1344.53 827.419 1346.84 Q829.804 1349.13 834.04 1349.13 Q836.493 1349.13 838.785 1348.53 Q841.1 1347.93 843.368 1346.73 L843.368 1350.75 Q841.077 1351.73 838.669 1352.24 Q836.262 1352.75 833.785 1352.75 Q827.581 1352.75 823.947 1349.13 Q820.336 1345.52 820.336 1339.37 Q820.336 1333 823.762 1329.27 Q827.211 1325.52 833.044 1325.52 Q838.276 1325.52 841.308 1328.9 Q844.364 1332.26 844.364 1338.05 M840.105 1336.8 Q840.058 1333.3 838.137 1331.22 Q836.239 1329.13 833.091 1329.13 Q829.526 1329.13 827.373 1331.15 Q825.243 1333.16 824.919 1336.82 L840.105 1336.8 Z" fill="#000000" fill-rule="nonzero" fill-opacity="1"></path><path clip-path="url(#clip480)" d="M872.905 1336.43 L872.905 1352.07 L868.646 1352.07 L868.646 1336.57 Q868.646 1332.88 867.211 1331.06 Q865.776 1329.23 862.905 1329.23 Q859.456 1329.23 857.466 1331.43 Q855.475 1333.63 855.475 1337.42 L855.475 1352.07 L851.192 1352.07 L851.192 1326.15 L855.475 1326.15 L855.475 1330.18 Q857.003 1327.84 859.063 1326.68 Q861.146 1325.52 863.854 1325.52 Q868.322 1325.52 870.614 1328.3 Q872.905 1331.06 872.905 1336.43 Z" fill="#000000" fill-rule="nonzero" fill-opacity="1"></path><path clip-path="url(#clip480)" d="M885.614 1318.79 L885.614 1326.15 L894.387 1326.15 L894.387 1329.46 L885.614 1329.46 L885.614 1343.53 Q885.614 1346.7 886.47 1347.61 Q887.35 1348.51 890.012 1348.51 L894.387 1348.51 L894.387 1352.07 L890.012 1352.07 Q885.081 1352.07 883.206 1350.25 Q881.331 1348.39 881.331 1343.53 L881.331 1329.46 L878.206 1329.46 L878.206 1326.15 L881.331 1326.15 L881.331 1318.79 L885.614 1318.79 Z" fill="#000000" fill-rule="nonzero" fill-opacity="1"></path><path clip-path="url(#clip480)" d="M900.174 1317.51 L904.85 1317.51 L904.85 1331.68 L921.84 1331.68 L921.84 1317.51 L926.516 1317.51 L926.516 1352.07 L921.84 1352.07 L921.84 1335.62 L904.85 1335.62 L904.85 1352.07 L900.174 1352.07 L900.174 1317.51 Z" fill="#000000" fill-rule="nonzero" fill-opacity="1"></path><path clip-path="url(#clip480)" d="M957.812 1338.05 L957.812 1340.13 L938.229 1340.13 Q938.507 1344.53 940.868 1346.84 Q943.252 1349.13 947.488 1349.13 Q949.942 1349.13 952.234 1348.53 Q954.548 1347.93 956.817 1346.73 L956.817 1350.75 Q954.525 1351.73 952.118 1352.24 Q949.71 1352.75 947.234 1352.75 Q941.03 1352.75 937.396 1349.13 Q933.785 1345.52 933.785 1339.37 Q933.785 1333 937.21 1329.27 Q940.66 1325.52 946.493 1325.52 Q951.724 1325.52 954.757 1328.9 Q957.812 1332.26 957.812 1338.05 M953.553 1336.8 Q953.507 1333.3 951.585 1331.22 Q949.687 1329.13 946.539 1329.13 Q942.974 1329.13 940.822 1331.15 Q938.692 1333.16 938.368 1336.82 L953.553 1336.8 Z" fill="#000000" fill-rule="nonzero" fill-opacity="1"></path><path clip-path="url(#clip480)" d="M964.803 1316.06 L969.062 1316.06 L969.062 1352.07 L964.803 1352.07 L964.803 1316.06 Z" fill="#000000" fill-rule="nonzero" fill-opacity="1"></path><path clip-path="url(#clip480)" d="M995.034 1330.08 L995.034 1316.06 L999.293 1316.06 L999.293 1352.07 L995.034 1352.07 L995.034 1348.19 Q993.692 1350.5 991.631 1351.63 Q989.594 1352.75 986.724 1352.75 Q982.025 1352.75 979.062 1349 Q976.122 1345.25 976.122 1339.13 Q976.122 1333.02 979.062 1329.27 Q982.025 1325.52 986.724 1325.52 Q989.594 1325.52 991.631 1326.66 Q993.692 1327.77 995.034 1330.08 M980.52 1339.13 Q980.52 1343.83 982.442 1346.52 Q984.386 1349.18 987.766 1349.18 Q991.145 1349.18 993.09 1346.52 Q995.034 1343.83 995.034 1339.13 Q995.034 1334.44 993.09 1331.77 Q991.145 1329.09 987.766 1329.09 Q984.386 1329.09 982.442 1331.77 Q980.52 1334.44 980.52 1339.13 Z" fill="#000000" fill-rule="nonzero" fill-opacity="1"></path><path clip-path="url(#clip480)" d="M289.884 1407.37 L433.805 1407.37 L433.805 1365.9 L289.884 1365.9 L289.884 1407.37  Z" fill="#3da44d" fill-rule="evenodd" fill-opacity="1"></path>
<polyline clip-path="url(#clip480)" style="stroke:#000000; stroke-linecap:round; stroke-linejoin:round; stroke-width:4; stroke-opacity:1; fill:none" points="289.884,1407.37 433.805,1407.37 433.805,1365.9 289.884,1365.9 289.884,1407.37 "></polyline>
<path clip-path="url(#clip480)" d="M474.181 1387.71 Q475.685 1388.22 477.097 1389.89 Q478.532 1391.55 479.968 1394.47 L484.713 1403.91 L479.69 1403.91 L475.269 1395.05 Q473.556 1391.58 471.935 1390.44 Q470.338 1389.31 467.56 1389.31 L462.468 1389.31 L462.468 1403.91 L457.792 1403.91 L457.792 1369.35 L468.347 1369.35 Q474.273 1369.35 477.19 1371.83 Q480.106 1374.31 480.106 1379.31 Q480.106 1382.57 478.579 1384.72 Q477.074 1386.88 474.181 1387.71 M462.468 1373.2 L462.468 1385.47 L468.347 1385.47 Q471.727 1385.47 473.44 1383.91 Q475.176 1382.34 475.176 1379.31 Q475.176 1376.28 473.44 1374.75 Q471.727 1373.2 468.347 1373.2 L462.468 1373.2 Z" fill="#000000" fill-rule="nonzero" fill-opacity="1"></path><path clip-path="url(#clip480)" d="M510.592 1389.89 L510.592 1391.97 L491.009 1391.97 Q491.287 1396.37 493.648 1398.68 Q496.032 1400.97 500.268 1400.97 Q502.722 1400.97 505.014 1400.37 Q507.329 1399.77 509.597 1398.57 L509.597 1402.59 Q507.305 1403.57 504.898 1404.08 Q502.491 1404.59 500.014 1404.59 Q493.81 1404.59 490.176 1400.97 Q486.565 1397.36 486.565 1391.21 Q486.565 1384.84 489.991 1381.11 Q493.44 1377.36 499.273 1377.36 Q504.504 1377.36 507.537 1380.74 Q510.592 1384.1 510.592 1389.89 M506.333 1388.64 Q506.287 1385.14 504.366 1383.06 Q502.467 1380.97 499.319 1380.97 Q495.755 1380.97 493.602 1382.99 Q491.472 1385 491.148 1388.66 L506.333 1388.64 Z" fill="#000000" fill-rule="nonzero" fill-opacity="1"></path><path clip-path="url(#clip480)" d="M534.111 1378.75 L534.111 1382.78 Q532.305 1381.85 530.361 1381.39 Q528.416 1380.93 526.333 1380.93 Q523.162 1380.93 521.565 1381.9 Q519.991 1382.87 519.991 1384.82 Q519.991 1386.3 521.125 1387.16 Q522.259 1387.99 525.685 1388.75 L527.143 1389.08 Q531.68 1390.05 533.578 1391.83 Q535.5 1393.59 535.5 1396.76 Q535.5 1400.37 532.629 1402.48 Q529.782 1404.59 524.782 1404.59 Q522.699 1404.59 520.43 1404.17 Q518.185 1403.78 515.685 1402.97 L515.685 1398.57 Q518.046 1399.79 520.338 1400.42 Q522.629 1401.02 524.875 1401.02 Q527.884 1401.02 529.504 1400 Q531.125 1398.96 531.125 1397.09 Q531.125 1395.35 529.944 1394.42 Q528.787 1393.5 524.828 1392.64 L523.347 1392.29 Q519.389 1391.46 517.629 1389.75 Q515.87 1388.01 515.87 1385 Q515.87 1381.35 518.463 1379.35 Q521.055 1377.36 525.824 1377.36 Q528.185 1377.36 530.268 1377.71 Q532.352 1378.06 534.111 1378.75 Z" fill="#000000" fill-rule="nonzero" fill-opacity="1"></path><path clip-path="url(#clip480)" d="M546.495 1370.63 L546.495 1377.99 L555.268 1377.99 L555.268 1381.3 L546.495 1381.3 L546.495 1395.37 Q546.495 1398.54 547.351 1399.45 Q548.231 1400.35 550.893 1400.35 L555.268 1400.35 L555.268 1403.91 L550.893 1403.91 Q545.963 1403.91 544.088 1402.09 Q542.213 1400.23 542.213 1395.37 L542.213 1381.3 L539.088 1381.3 L539.088 1377.99 L542.213 1377.99 L542.213 1370.63 L546.495 1370.63 Z" fill="#000000" fill-rule="nonzero" fill-opacity="1"></path></svg>