<svg xmlns="http://www.w3.org/2000/svg" xmlns:xlink="http://www.w3.org/1999/xlink" width="800" height="500" viewBox="0 0 3200 2000">
<defs>
  <clipPath id="clip080">
    <rect x="0" y="0" width="3200" height="2000"></rect>
  </clipPath>
</defs>
<path clip-path="url(#clip080)" d="M0 2000 L3200 2000 L3200 0 L0 0  Z" fill="#ffffff" fill-rule="evenodd" fill-opacity="1"></path>
<defs>
  <clipPath id="clip081">
    <rect x="640" y="0" width="2241" height="2000"></rect>
  </clipPath>
</defs>
<path clip-path="url(#clip080)" d="M164.598 1884.61 L3152.76 1884.61 L3152.76 47.2441 L164.598 47.2441  Z" fill="#ffffff" fill-rule="evenodd" fill-opacity="1"></path>
<defs>
  <clipPath id="clip082">
    <rect x="164" y="47" width="2989" height="1838"></rect>
  </clipPath>
</defs>
<polyline clip-path="url(#clip082)" style="stroke:#000000; stroke-linecap:round; stroke-linejoin:round; stroke-width:2; stroke-opacity:0.1; fill:none" points="787.214,1884.61 787.214,47.2441 "></polyline>
<polyline clip-path="url(#clip082)" style="stroke:#000000; stroke-linecap:round; stroke-linejoin:round; stroke-width:2; stroke-opacity:0.1; fill:none" points="1487.07,1884.61 1487.07,47.2441 "></polyline>
<polyline clip-path="url(#clip082)" style="stroke:#000000; stroke-linecap:round; stroke-linejoin:round; stroke-width:2; stroke-opacity:0.1; fill:none" points="2186.92,1884.61 2186.92,47.2441 "></polyline>
<polyline clip-path="url(#clip082)" style="stroke:#000000; stroke-linecap:round; stroke-linejoin:round; stroke-width:2; stroke-opacity:0.1; fill:none" points="2886.78,1884.61 2886.78,47.2441 "></polyline>
<polyline clip-path="url(#clip080)" style="stroke:#000000; stroke-linecap:round; stroke-linejoin:round; stroke-width:4; stroke-opacity:1; fill:none" points="164.598,1884.61 3152.76,1884.61 "></polyline>
<polyline clip-path="url(#clip080)" style="stroke:#000000; stroke-linecap:round; stroke-linejoin:round; stroke-width:4; stroke-opacity:1; fill:none" points="787.214,1884.61 787.214,1865.71 "></polyline>
<polyline clip-path="url(#clip080)" style="stroke:#000000; stroke-linecap:round; stroke-linejoin:round; stroke-width:4; stroke-opacity:1; fill:none" points="1487.07,1884.61 1487.07,1865.71 "></polyline>
<polyline clip-path="url(#clip080)" style="stroke:#000000; stroke-linecap:round; stroke-linejoin:round; stroke-width:4; stroke-opacity:1; fill:none" points="2186.92,1884.61 2186.92,1865.71 "></polyline>
<polyline clip-path="url(#clip080)" style="stroke:#000000; stroke-linecap:round; stroke-linejoin:round; stroke-width:4; stroke-opacity:1; fill:none" points="2886.78,1884.61 2886.78,1865.71 "></polyline>
<path clip-path="url(#clip080)" d="M659.008 1949.47 L675.328 1949.47 L675.328 1953.41 L653.383 1953.41 L653.383 1949.47 Q656.045 1946.72 660.629 1942.09 Q665.235 1937.44 666.416 1936.09 Q668.661 1933.57 669.541 1931.83 Q670.443 1930.07 670.443 1928.38 Q670.443 1925.63 668.499 1923.89 Q666.578 1922.16 663.476 1922.16 Q661.277 1922.16 658.823 1922.92 Q656.393 1923.69 653.615 1925.24 L653.615 1920.51 Q656.439 1919.38 658.892 1918.8 Q661.346 1918.22 663.383 1918.22 Q668.754 1918.22 671.948 1920.91 Q675.142 1923.59 675.142 1928.08 Q675.142 1930.21 674.332 1932.13 Q673.545 1934.03 671.439 1936.63 Q670.86 1937.3 667.758 1940.51 Q664.656 1943.71 659.008 1949.47 Z" fill="#000000" fill-rule="nonzero" fill-opacity="1"></path><path clip-path="url(#clip080)" d="M695.142 1921.93 Q691.531 1921.93 689.703 1925.49 Q687.897 1929.03 687.897 1936.16 Q687.897 1943.27 689.703 1946.83 Q691.531 1950.38 695.142 1950.38 Q698.777 1950.38 700.582 1946.83 Q702.411 1943.27 702.411 1936.16 Q702.411 1929.03 700.582 1925.49 Q698.777 1921.93 695.142 1921.93 M695.142 1918.22 Q700.952 1918.22 704.008 1922.83 Q707.087 1927.41 707.087 1936.16 Q707.087 1944.89 704.008 1949.5 Q700.952 1954.08 695.142 1954.08 Q689.332 1954.08 686.253 1949.5 Q683.198 1944.89 683.198 1936.16 Q683.198 1927.41 686.253 1922.83 Q689.332 1918.22 695.142 1918.22 Z" fill="#000000" fill-rule="nonzero" fill-opacity="1"></path><path clip-path="url(#clip080)" d="M719.332 1949.47 L735.651 1949.47 L735.651 1953.41 L713.707 1953.41 L713.707 1949.47 Q716.369 1946.72 720.952 1942.09 Q725.559 1937.44 726.739 1936.09 Q728.985 1933.57 729.864 1931.83 Q730.767 1930.07 730.767 1928.38 Q730.767 1925.63 728.823 1923.89 Q726.901 1922.16 723.8 1922.16 Q721.6 1922.16 719.147 1922.92 Q716.716 1923.69 713.938 1925.24 L713.938 1920.51 Q716.763 1919.38 719.216 1918.8 Q721.67 1918.22 723.707 1918.22 Q729.077 1918.22 732.272 1920.91 Q735.466 1923.59 735.466 1928.08 Q735.466 1930.21 734.656 1932.13 Q733.869 1934.03 731.762 1936.63 Q731.184 1937.3 728.082 1940.51 Q724.98 1943.71 719.332 1949.47 Z" fill="#000000" fill-rule="nonzero" fill-opacity="1"></path><path clip-path="url(#clip080)" d="M746.276 1949.47 L753.915 1949.47 L753.915 1923.11 L745.605 1924.77 L745.605 1920.51 L753.869 1918.85 L758.545 1918.85 L758.545 1949.47 L766.184 1949.47 L766.184 1953.41 L746.276 1953.41 L746.276 1949.47 Z" fill="#000000" fill-rule="nonzero" fill-opacity="1"></path><path clip-path="url(#clip080)" d="M772.873 1938.52 L785.35 1938.52 L785.35 1942.32 L772.873 1942.32 L772.873 1938.52 Z" fill="#000000" fill-rule="nonzero" fill-opacity="1"></path><path clip-path="url(#clip080)" d="M802.734 1921.93 Q799.123 1921.93 797.295 1925.49 Q795.489 1929.03 795.489 1936.16 Q795.489 1943.27 797.295 1946.83 Q799.123 1950.38 802.734 1950.38 Q806.369 1950.38 808.174 1946.83 Q810.003 1943.27 810.003 1936.16 Q810.003 1929.03 808.174 1925.49 Q806.369 1921.93 802.734 1921.93 M802.734 1918.22 Q808.544 1918.22 811.6 1922.83 Q814.679 1927.41 814.679 1936.16 Q814.679 1944.89 811.6 1949.5 Q808.544 1954.08 802.734 1954.08 Q796.924 1954.08 793.845 1949.5 Q790.79 1944.89 790.79 1936.16 Q790.79 1927.41 793.845 1922.83 Q796.924 1918.22 802.734 1918.22 Z" fill="#000000" fill-rule="nonzero" fill-opacity="1"></path><path clip-path="url(#clip080)" d="M823.706 1949.47 L831.345 1949.47 L831.345 1923.11 L823.035 1924.77 L823.035 1920.51 L831.299 1918.85 L835.975 1918.85 L835.975 1949.47 L843.614 1949.47 L843.614 1953.41 L823.706 1953.41 L823.706 1949.47 Z" fill="#000000" fill-rule="nonzero" fill-opacity="1"></path><path clip-path="url(#clip080)" d="M850.304 1938.52 L862.78 1938.52 L862.78 1942.32 L850.304 1942.32 L850.304 1938.52 Z" fill="#000000" fill-rule="nonzero" fill-opacity="1"></path><path clip-path="url(#clip080)" d="M880.164 1921.93 Q876.553 1921.93 874.725 1925.49 Q872.919 1929.03 872.919 1936.16 Q872.919 1943.27 874.725 1946.83 Q876.553 1950.38 880.164 1950.38 Q883.799 1950.38 885.604 1946.83 Q887.433 1943.27 887.433 1936.16 Q887.433 1929.03 885.604 1925.49 Q883.799 1921.93 880.164 1921.93 M880.164 1918.22 Q885.975 1918.22 889.03 1922.83 Q892.109 1927.41 892.109 1936.16 Q892.109 1944.89 889.03 1949.5 Q885.975 1954.08 880.164 1954.08 Q874.354 1954.08 871.276 1949.5 Q868.22 1944.89 868.22 1936.16 Q868.22 1927.41 871.276 1922.83 Q874.354 1918.22 880.164 1918.22 Z" fill="#000000" fill-rule="nonzero" fill-opacity="1"></path><path clip-path="url(#clip080)" d="M901.137 1949.47 L908.775 1949.47 L908.775 1923.11 L900.465 1924.77 L900.465 1920.51 L908.729 1918.85 L913.405 1918.85 L913.405 1949.47 L921.044 1949.47 L921.044 1953.41 L901.137 1953.41 L901.137 1949.47 Z" fill="#000000" fill-rule="nonzero" fill-opacity="1"></path><path clip-path="url(#clip080)" d="M1358.86 1949.47 L1375.18 1949.47 L1375.18 1953.41 L1353.24 1953.41 L1353.24 1949.47 Q1355.9 1946.72 1360.48 1942.09 Q1365.09 1937.44 1366.27 1936.09 Q1368.52 1933.57 1369.4 1931.83 Q1370.3 1930.07 1370.3 1928.38 Q1370.3 1925.63 1368.35 1923.89 Q1366.43 1922.16 1363.33 1922.16 Q1361.13 1922.16 1358.68 1922.92 Q1356.25 1923.69 1353.47 1925.24 L1353.47 1920.51 Q1356.29 1919.38 1358.75 1918.8 Q1361.2 1918.22 1363.24 1918.22 Q1368.61 1918.22 1371.8 1920.91 Q1375 1923.59 1375 1928.08 Q1375 1930.21 1374.19 1932.13 Q1373.4 1934.03 1371.29 1936.63 Q1370.72 1937.3 1367.61 1940.51 Q1364.51 1943.71 1358.86 1949.47 Z" fill="#000000" fill-rule="nonzero" fill-opacity="1"></path><path clip-path="url(#clip080)" d="M1395 1921.93 Q1391.39 1921.93 1389.56 1925.49 Q1387.75 1929.03 1387.75 1936.16 Q1387.75 1943.27 1389.56 1946.83 Q1391.39 1950.38 1395 1950.38 Q1398.63 1950.38 1400.44 1946.83 Q1402.27 1943.27 1402.27 1936.16 Q1402.27 1929.03 1400.44 1925.49 Q1398.63 1921.93 1395 1921.93 M1395 1918.22 Q1400.81 1918.22 1403.86 1922.83 Q1406.94 1927.41 1406.94 1936.16 Q1406.94 1944.89 1403.86 1949.5 Q1400.81 1954.08 1395 1954.08 Q1389.19 1954.08 1386.11 1949.5 Q1383.05 1944.89 1383.05 1936.16 Q1383.05 1927.41 1386.11 1922.83 Q1389.19 1918.22 1395 1918.22 Z" fill="#000000" fill-rule="nonzero" fill-opacity="1"></path><path clip-path="url(#clip080)" d="M1419.19 1949.47 L1435.51 1949.47 L1435.51 1953.41 L1413.56 1953.41 L1413.56 1949.47 Q1416.22 1946.72 1420.81 1942.09 Q1425.41 1937.44 1426.59 1936.09 Q1428.84 1933.57 1429.72 1931.83 Q1430.62 1930.07 1430.62 1928.38 Q1430.62 1925.63 1428.68 1923.89 Q1426.76 1922.16 1423.65 1922.16 Q1421.46 1922.16 1419 1922.92 Q1416.57 1923.69 1413.79 1925.24 L1413.79 1920.51 Q1416.62 1919.38 1419.07 1918.8 Q1421.53 1918.22 1423.56 1918.22 Q1428.93 1918.22 1432.13 1920.91 Q1435.32 1923.59 1435.32 1928.08 Q1435.32 1930.21 1434.51 1932.13 Q1433.72 1934.03 1431.62 1936.63 Q1431.04 1937.3 1427.94 1940.51 Q1424.84 1943.71 1419.19 1949.47 Z" fill="#000000" fill-rule="nonzero" fill-opacity="1"></path><path clip-path="url(#clip080)" d="M1449.35 1949.47 L1465.67 1949.47 L1465.67 1953.41 L1443.72 1953.41 L1443.72 1949.47 Q1446.39 1946.72 1450.97 1942.09 Q1455.58 1937.44 1456.76 1936.09 Q1459 1933.57 1459.88 1931.83 Q1460.78 1930.07 1460.78 1928.38 Q1460.78 1925.63 1458.84 1923.89 Q1456.92 1922.16 1453.82 1922.16 Q1451.62 1922.16 1449.16 1922.92 Q1446.73 1923.69 1443.96 1925.24 L1443.96 1920.51 Q1446.78 1919.38 1449.23 1918.8 Q1451.69 1918.22 1453.72 1918.22 Q1459.09 1918.22 1462.29 1920.91 Q1465.48 1923.59 1465.48 1928.08 Q1465.48 1930.21 1464.67 1932.13 Q1463.89 1934.03 1461.78 1936.63 Q1461.2 1937.3 1458.1 1940.51 Q1455 1943.71 1449.35 1949.47 Z" fill="#000000" fill-rule="nonzero" fill-opacity="1"></path><path clip-path="url(#clip080)" d="M1472.73 1938.52 L1485.21 1938.52 L1485.21 1942.32 L1472.73 1942.32 L1472.73 1938.52 Z" fill="#000000" fill-rule="nonzero" fill-opacity="1"></path><path clip-path="url(#clip080)" d="M1502.59 1921.93 Q1498.98 1921.93 1497.15 1925.49 Q1495.34 1929.03 1495.34 1936.16 Q1495.34 1943.27 1497.15 1946.83 Q1498.98 1950.38 1502.59 1950.38 Q1506.22 1950.38 1508.03 1946.83 Q1509.86 1943.27 1509.86 1936.16 Q1509.86 1929.03 1508.03 1925.49 Q1506.22 1921.93 1502.59 1921.93 M1502.59 1918.22 Q1508.4 1918.22 1511.46 1922.83 Q1514.53 1927.41 1514.53 1936.16 Q1514.53 1944.89 1511.46 1949.5 Q1508.4 1954.08 1502.59 1954.08 Q1496.78 1954.08 1493.7 1949.5 Q1490.65 1944.89 1490.65 1936.16 Q1490.65 1927.41 1493.7 1922.83 Q1496.78 1918.22 1502.59 1918.22 Z" fill="#000000" fill-rule="nonzero" fill-opacity="1"></path><path clip-path="url(#clip080)" d="M1523.56 1949.47 L1531.2 1949.47 L1531.2 1923.11 L1522.89 1924.77 L1522.89 1920.51 L1531.15 1918.85 L1535.83 1918.85 L1535.83 1949.47 L1543.47 1949.47 L1543.47 1953.41 L1523.56 1953.41 L1523.56 1949.47 Z" fill="#000000" fill-rule="nonzero" fill-opacity="1"></path><path clip-path="url(#clip080)" d="M1550.16 1938.52 L1562.64 1938.52 L1562.64 1942.32 L1550.16 1942.32 L1550.16 1938.52 Z" fill="#000000" fill-rule="nonzero" fill-opacity="1"></path><path clip-path="url(#clip080)" d="M1580.02 1921.93 Q1576.41 1921.93 1574.58 1925.49 Q1572.77 1929.03 1572.77 1936.16 Q1572.77 1943.27 1574.58 1946.83 Q1576.41 1950.38 1580.02 1950.38 Q1583.65 1950.38 1585.46 1946.83 Q1587.29 1943.27 1587.29 1936.16 Q1587.29 1929.03 1585.46 1925.49 Q1583.65 1921.93 1580.02 1921.93 M1580.02 1918.22 Q1585.83 1918.22 1588.89 1922.83 Q1591.96 1927.41 1591.96 1936.16 Q1591.96 1944.89 1588.89 1949.5 Q1585.83 1954.08 1580.02 1954.08 Q1574.21 1954.08 1571.13 1949.5 Q1568.08 1944.89 1568.08 1936.16 Q1568.08 1927.41 1571.13 1922.83 Q1574.21 1918.22 1580.02 1918.22 Z" fill="#000000" fill-rule="nonzero" fill-opacity="1"></path><path clip-path="url(#clip080)" d="M1600.99 1949.47 L1608.63 1949.47 L1608.63 1923.11 L1600.32 1924.77 L1600.32 1920.51 L1608.58 1918.85 L1613.26 1918.85 L1613.26 1949.47 L1620.9 1949.47 L1620.9 1953.41 L1600.99 1953.41 L1600.99 1949.47 Z" fill="#000000" fill-rule="nonzero" fill-opacity="1"></path><path clip-path="url(#clip080)" d="M2058.72 1949.47 L2075.04 1949.47 L2075.04 1953.41 L2053.09 1953.41 L2053.09 1949.47 Q2055.76 1946.72 2060.34 1942.09 Q2064.95 1937.44 2066.13 1936.09 Q2068.37 1933.57 2069.25 1931.83 Q2070.15 1930.07 2070.15 1928.38 Q2070.15 1925.63 2068.21 1923.89 Q2066.29 1922.16 2063.19 1922.16 Q2060.99 1922.16 2058.53 1922.92 Q2056.1 1923.69 2053.33 1925.24 L2053.33 1920.51 Q2056.15 1919.38 2058.6 1918.8 Q2061.06 1918.22 2063.09 1918.22 Q2068.46 1918.22 2071.66 1920.91 Q2074.85 1923.59 2074.85 1928.08 Q2074.85 1930.21 2074.04 1932.13 Q2073.26 1934.03 2071.15 1936.63 Q2070.57 1937.3 2067.47 1940.51 Q2064.37 1943.71 2058.72 1949.47 Z" fill="#000000" fill-rule="nonzero" fill-opacity="1"></path><path clip-path="url(#clip080)" d="M2094.85 1921.93 Q2091.24 1921.93 2089.41 1925.49 Q2087.61 1929.03 2087.61 1936.16 Q2087.61 1943.27 2089.41 1946.83 Q2091.24 1950.38 2094.85 1950.38 Q2098.49 1950.38 2100.29 1946.83 Q2102.12 1943.27 2102.12 1936.16 Q2102.12 1929.03 2100.29 1925.49 Q2098.49 1921.93 2094.85 1921.93 M2094.85 1918.22 Q2100.66 1918.22 2103.72 1922.83 Q2106.8 1927.41 2106.8 1936.16 Q2106.8 1944.89 2103.72 1949.5 Q2100.66 1954.08 2094.85 1954.08 Q2089.04 1954.08 2085.96 1949.5 Q2082.91 1944.89 2082.91 1936.16 Q2082.91 1927.41 2085.96 1922.83 Q2089.04 1918.22 2094.85 1918.22 Z" fill="#000000" fill-rule="nonzero" fill-opacity="1"></path><path clip-path="url(#clip080)" d="M2119.04 1949.47 L2135.36 1949.47 L2135.36 1953.41 L2113.42 1953.41 L2113.42 1949.47 Q2116.08 1946.72 2120.66 1942.09 Q2125.27 1937.44 2126.45 1936.09 Q2128.7 1933.57 2129.57 1931.83 Q2130.48 1930.07 2130.48 1928.38 Q2130.48 1925.63 2128.53 1923.89 Q2126.61 1922.16 2123.51 1922.16 Q2121.31 1922.16 2118.86 1922.92 Q2116.43 1923.69 2113.65 1925.24 L2113.65 1920.51 Q2116.47 1919.38 2118.93 1918.8 Q2121.38 1918.22 2123.42 1918.22 Q2128.79 1918.22 2131.98 1920.91 Q2135.18 1923.59 2135.18 1928.08 Q2135.18 1930.21 2134.37 1932.13 Q2133.58 1934.03 2131.47 1936.63 Q2130.89 1937.3 2127.79 1940.51 Q2124.69 1943.71 2119.04 1949.47 Z" fill="#000000" fill-rule="nonzero" fill-opacity="1"></path><path clip-path="url(#clip080)" d="M2159.34 1934.77 Q2162.7 1935.49 2164.57 1937.76 Q2166.47 1940.03 2166.47 1943.36 Q2166.47 1948.48 2162.95 1951.28 Q2159.44 1954.08 2152.95 1954.08 Q2150.78 1954.08 2148.46 1953.64 Q2146.17 1953.22 2143.72 1952.37 L2143.72 1947.85 Q2145.66 1948.99 2147.98 1949.57 Q2150.29 1950.14 2152.82 1950.14 Q2157.21 1950.14 2159.51 1948.41 Q2161.82 1946.67 2161.82 1943.36 Q2161.82 1940.31 2159.67 1938.59 Q2157.54 1936.86 2153.72 1936.86 L2149.69 1936.86 L2149.69 1933.01 L2153.9 1933.01 Q2157.35 1933.01 2159.18 1931.65 Q2161.01 1930.26 2161.01 1927.67 Q2161.01 1925.01 2159.11 1923.59 Q2157.24 1922.16 2153.72 1922.16 Q2151.8 1922.16 2149.6 1922.57 Q2147.4 1922.99 2144.76 1923.87 L2144.76 1919.7 Q2147.42 1918.96 2149.74 1918.59 Q2152.07 1918.22 2154.13 1918.22 Q2159.46 1918.22 2162.56 1920.65 Q2165.66 1923.06 2165.66 1927.18 Q2165.66 1930.05 2164.02 1932.04 Q2162.38 1934.01 2159.34 1934.77 Z" fill="#000000" fill-rule="nonzero" fill-opacity="1"></path><path clip-path="url(#clip080)" d="M2172.58 1938.52 L2185.06 1938.52 L2185.06 1942.32 L2172.58 1942.32 L2172.58 1938.52 Z" fill="#000000" fill-rule="nonzero" fill-opacity="1"></path><path clip-path="url(#clip080)" d="M2202.44 1921.93 Q2198.83 1921.93 2197 1925.49 Q2195.2 1929.03 2195.2 1936.16 Q2195.2 1943.27 2197 1946.83 Q2198.83 1950.38 2202.44 1950.38 Q2206.08 1950.38 2207.88 1946.83 Q2209.71 1943.27 2209.71 1936.16 Q2209.71 1929.03 2207.88 1925.49 Q2206.08 1921.93 2202.44 1921.93 M2202.44 1918.22 Q2208.25 1918.22 2211.31 1922.83 Q2214.39 1927.41 2214.39 1936.16 Q2214.39 1944.89 2211.31 1949.5 Q2208.25 1954.08 2202.44 1954.08 Q2196.63 1954.08 2193.56 1949.5 Q2190.5 1944.89 2190.5 1936.16 Q2190.5 1927.41 2193.56 1922.83 Q2196.63 1918.22 2202.44 1918.22 Z" fill="#000000" fill-rule="nonzero" fill-opacity="1"></path><path clip-path="url(#clip080)" d="M2223.42 1949.47 L2231.06 1949.47 L2231.06 1923.11 L2222.75 1924.77 L2222.75 1920.51 L2231.01 1918.85 L2235.69 1918.85 L2235.69 1949.47 L2243.32 1949.47 L2243.32 1953.41 L2223.42 1953.41 L2223.42 1949.47 Z" fill="#000000" fill-rule="nonzero" fill-opacity="1"></path><path clip-path="url(#clip080)" d="M2250.01 1938.52 L2262.49 1938.52 L2262.49 1942.32 L2250.01 1942.32 L2250.01 1938.52 Z" fill="#000000" fill-rule="nonzero" fill-opacity="1"></path><path clip-path="url(#clip080)" d="M2279.87 1921.93 Q2276.26 1921.93 2274.44 1925.49 Q2272.63 1929.03 2272.63 1936.16 Q2272.63 1943.27 2274.44 1946.83 Q2276.26 1950.38 2279.87 1950.38 Q2283.51 1950.38 2285.31 1946.83 Q2287.14 1943.27 2287.14 1936.16 Q2287.14 1929.03 2285.31 1925.49 Q2283.51 1921.93 2279.87 1921.93 M2279.87 1918.22 Q2285.68 1918.22 2288.74 1922.83 Q2291.82 1927.41 2291.82 1936.16 Q2291.82 1944.89 2288.74 1949.5 Q2285.68 1954.08 2279.87 1954.08 Q2274.06 1954.08 2270.99 1949.5 Q2267.93 1944.89 2267.93 1936.16 Q2267.93 1927.41 2270.99 1922.83 Q2274.06 1918.22 2279.87 1918.22 Z" fill="#000000" fill-rule="nonzero" fill-opacity="1"></path><path clip-path="url(#clip080)" d="M2300.85 1949.47 L2308.49 1949.47 L2308.49 1923.11 L2300.18 1924.77 L2300.18 1920.51 L2308.44 1918.85 L2313.12 1918.85 L2313.12 1949.47 L2320.75 1949.47 L2320.75 1953.41 L2300.85 1953.41 L2300.85 1949.47 Z" fill="#000000" fill-rule="nonzero" fill-opacity="1"></path><path clip-path="url(#clip080)" d="M2758.57 1949.47 L2774.89 1949.47 L2774.89 1953.41 L2752.95 1953.41 L2752.95 1949.47 Q2755.61 1946.72 2760.19 1942.09 Q2764.8 1937.44 2765.98 1936.09 Q2768.23 1933.57 2769.11 1931.83 Q2770.01 1930.07 2770.01 1928.38 Q2770.01 1925.63 2768.06 1923.89 Q2766.14 1922.16 2763.04 1922.16 Q2760.84 1922.16 2758.39 1922.92 Q2755.96 1923.69 2753.18 1925.24 L2753.18 1920.51 Q2756 1919.38 2758.46 1918.8 Q2760.91 1918.22 2762.95 1918.22 Q2768.32 1918.22 2771.51 1920.91 Q2774.71 1923.59 2774.71 1928.08 Q2774.71 1930.21 2773.9 1932.13 Q2773.11 1934.03 2771 1936.63 Q2770.43 1937.3 2767.32 1940.51 Q2764.22 1943.71 2758.57 1949.47 Z" fill="#000000" fill-rule="nonzero" fill-opacity="1"></path><path clip-path="url(#clip080)" d="M2794.71 1921.93 Q2791.1 1921.93 2789.27 1925.49 Q2787.46 1929.03 2787.46 1936.16 Q2787.46 1943.27 2789.27 1946.83 Q2791.1 1950.38 2794.71 1950.38 Q2798.34 1950.38 2800.15 1946.83 Q2801.98 1943.27 2801.98 1936.16 Q2801.98 1929.03 2800.15 1925.49 Q2798.34 1921.93 2794.71 1921.93 M2794.71 1918.22 Q2800.52 1918.22 2803.57 1922.83 Q2806.65 1927.41 2806.65 1936.16 Q2806.65 1944.89 2803.57 1949.5 Q2800.52 1954.08 2794.71 1954.08 Q2788.9 1954.08 2785.82 1949.5 Q2782.76 1944.89 2782.76 1936.16 Q2782.76 1927.41 2785.82 1922.83 Q2788.9 1918.22 2794.71 1918.22 Z" fill="#000000" fill-rule="nonzero" fill-opacity="1"></path><path clip-path="url(#clip080)" d="M2818.9 1949.47 L2835.22 1949.47 L2835.22 1953.41 L2813.27 1953.41 L2813.27 1949.47 Q2815.93 1946.72 2820.52 1942.09 Q2825.12 1937.44 2826.3 1936.09 Q2828.55 1933.57 2829.43 1931.83 Q2830.33 1930.07 2830.33 1928.38 Q2830.33 1925.63 2828.39 1923.89 Q2826.47 1922.16 2823.37 1922.16 Q2821.17 1922.16 2818.71 1922.92 Q2816.28 1923.69 2813.5 1925.24 L2813.5 1920.51 Q2816.33 1919.38 2818.78 1918.8 Q2821.24 1918.22 2823.27 1918.22 Q2828.64 1918.22 2831.84 1920.91 Q2835.03 1923.59 2835.03 1928.08 Q2835.03 1930.21 2834.22 1932.13 Q2833.43 1934.03 2831.33 1936.63 Q2830.75 1937.3 2827.65 1940.51 Q2824.55 1943.71 2818.9 1949.47 Z" fill="#000000" fill-rule="nonzero" fill-opacity="1"></path><path clip-path="url(#clip080)" d="M2857.88 1922.92 L2846.07 1941.37 L2857.88 1941.37 L2857.88 1922.92 M2856.65 1918.85 L2862.53 1918.85 L2862.53 1941.37 L2867.46 1941.37 L2867.46 1945.26 L2862.53 1945.26 L2862.53 1953.41 L2857.88 1953.41 L2857.88 1945.26 L2842.28 1945.26 L2842.28 1940.75 L2856.65 1918.85 Z" fill="#000000" fill-rule="nonzero" fill-opacity="1"></path><path clip-path="url(#clip080)" d="M2872.44 1938.52 L2884.92 1938.52 L2884.92 1942.32 L2872.44 1942.32 L2872.44 1938.52 Z" fill="#000000" fill-rule="nonzero" fill-opacity="1"></path><path clip-path="url(#clip080)" d="M2902.3 1921.93 Q2898.69 1921.93 2896.86 1925.49 Q2895.05 1929.03 2895.05 1936.16 Q2895.05 1943.27 2896.86 1946.83 Q2898.69 1950.38 2902.3 1950.38 Q2905.93 1950.38 2907.74 1946.83 Q2909.57 1943.27 2909.57 1936.16 Q2909.57 1929.03 2907.74 1925.49 Q2905.93 1921.93 2902.3 1921.93 M2902.3 1918.22 Q2908.11 1918.22 2911.17 1922.83 Q2914.24 1927.41 2914.24 1936.16 Q2914.24 1944.89 2911.17 1949.5 Q2908.11 1954.08 2902.3 1954.08 Q2896.49 1954.08 2893.41 1949.5 Q2890.36 1944.89 2890.36 1936.16 Q2890.36 1927.41 2893.41 1922.83 Q2896.49 1918.22 2902.3 1918.22 Z" fill="#000000" fill-rule="nonzero" fill-opacity="1"></path><path clip-path="url(#clip080)" d="M2923.27 1949.47 L2930.91 1949.47 L2930.91 1923.11 L2922.6 1924.77 L2922.6 1920.51 L2930.86 1918.85 L2935.54 1918.85 L2935.54 1949.47 L2943.18 1949.47 L2943.18 1953.41 L2923.27 1953.41 L2923.27 1949.47 Z" fill="#000000" fill-rule="nonzero" fill-opacity="1"></path><path clip-path="url(#clip080)" d="M2949.87 1938.52 L2962.35 1938.52 L2962.35 1942.32 L2949.87 1942.32 L2949.87 1938.52 Z" fill="#000000" fill-rule="nonzero" fill-opacity="1"></path><path clip-path="url(#clip080)" d="M2979.73 1921.93 Q2976.12 1921.93 2974.29 1925.49 Q2972.48 1929.03 2972.48 1936.16 Q2972.48 1943.27 2974.29 1946.83 Q2976.12 1950.38 2979.73 1950.38 Q2983.36 1950.38 2985.17 1946.83 Q2987 1943.27 2987 1936.16 Q2987 1929.03 2985.17 1925.49 Q2983.36 1921.93 2979.73 1921.93 M2979.73 1918.22 Q2985.54 1918.22 2988.6 1922.83 Q2991.67 1927.41 2991.67 1936.16 Q2991.67 1944.89 2988.6 1949.5 Q2985.54 1954.08 2979.73 1954.08 Q2973.92 1954.08 2970.84 1949.5 Q2967.79 1944.89 2967.79 1936.16 Q2967.79 1927.41 2970.84 1922.83 Q2973.92 1918.22 2979.73 1918.22 Z" fill="#000000" fill-rule="nonzero" fill-opacity="1"></path><path clip-path="url(#clip080)" d="M3000.7 1949.47 L3008.34 1949.47 L3008.34 1923.11 L3000.03 1924.77 L3000.03 1920.51 L3008.29 1918.85 L3012.97 1918.85 L3012.97 1949.47 L3020.61 1949.47 L3020.61 1953.41 L3000.7 1953.41 L3000.7 1949.47 Z" fill="#000000" fill-rule="nonzero" fill-opacity="1"></path><polyline clip-path="url(#clip082)" style="stroke:#000000; stroke-linecap:round; stroke-linejoin:round; stroke-width:2; stroke-opacity:0.1; fill:none" points="164.598,1884.61 3152.76,1884.61 "></polyline>
<polyline clip-path="url(#clip082)" style="stroke:#000000; stroke-linecap:round; stroke-linejoin:round; stroke-width:2; stroke-opacity:0.1; fill:none" points="164.598,1468.27 3152.76,1468.27 "></polyline>
<polyline clip-path="url(#clip082)" style="stroke:#000000; stroke-linecap:round; stroke-linejoin:round; stroke-width:2; stroke-opacity:0.1; fill:none" points="164.598,1051.92 3152.76,1051.92 "></polyline>
<polyline clip-path="url(#clip082)" style="stroke:#000000; stroke-linecap:round; stroke-linejoin:round; stroke-width:2; stroke-opacity:0.1; fill:none" points="164.598,635.582 3152.76,635.582 "></polyline>
<polyline clip-path="url(#clip082)" style="stroke:#000000; stroke-linecap:round; stroke-linejoin:round; stroke-width:2; stroke-opacity:0.1; fill:none" points="164.598,219.24 3152.76,219.24 "></polyline>
<polyline clip-path="url(#clip080)" style="stroke:#000000; stroke-linecap:round; stroke-linejoin:round; stroke-width:4; stroke-opacity:1; fill:none" points="164.598,1884.61 164.598,47.2441 "></polyline>
<polyline clip-path="url(#clip080)" style="stroke:#000000; stroke-linecap:round; stroke-linejoin:round; stroke-width:4; stroke-opacity:1; fill:none" points="164.598,1884.61 183.496,1884.61 "></polyline>
<polyline clip-path="url(#clip080)" style="stroke:#000000; stroke-linecap:round; stroke-linejoin:round; stroke-width:4; stroke-opacity:1; fill:none" points="164.598,1468.27 183.496,1468.27 "></polyline>
<polyline clip-path="url(#clip080)" style="stroke:#000000; stroke-linecap:round; stroke-linejoin:round; stroke-width:4; stroke-opacity:1; fill:none" points="164.598,1051.92 183.496,1051.92 "></polyline>
<polyline clip-path="url(#clip080)" style="stroke:#000000; stroke-linecap:round; stroke-linejoin:round; stroke-width:4; stroke-opacity:1; fill:none" points="164.598,635.582 183.496,635.582 "></polyline>
<polyline clip-path="url(#clip080)" style="stroke:#000000; stroke-linecap:round; stroke-linejoin:round; stroke-width:4; stroke-opacity:1; fill:none" points="164.598,219.24 183.496,219.24 "></polyline>
<path clip-path="url(#clip080)" d="M59.4226 1870.41 Q55.8115 1870.41 53.9828 1873.97 Q52.1773 1877.51 52.1773 1884.64 Q52.1773 1891.75 53.9828 1895.31 Q55.8115 1898.86 59.4226 1898.86 Q63.0569 1898.86 64.8624 1895.31 Q66.6911 1891.75 66.6911 1884.64 Q66.6911 1877.51 64.8624 1873.97 Q63.0569 1870.41 59.4226 1870.41 M59.4226 1866.7 Q65.2328 1866.7 68.2883 1871.31 Q71.367 1875.89 71.367 1884.64 Q71.367 1893.37 68.2883 1897.98 Q65.2328 1902.56 59.4226 1902.56 Q53.6125 1902.56 50.5338 1897.98 Q47.4782 1893.37 47.4782 1884.64 Q47.4782 1875.89 50.5338 1871.31 Q53.6125 1866.7 59.4226 1866.7 Z" fill="#000000" fill-rule="nonzero" fill-opacity="1"></path><path clip-path="url(#clip080)" d="M79.5845 1896.01 L84.4688 1896.01 L84.4688 1901.89 L79.5845 1901.89 L79.5845 1896.01 Z" fill="#000000" fill-rule="nonzero" fill-opacity="1"></path><path clip-path="url(#clip080)" d="M104.654 1870.41 Q101.043 1870.41 99.2141 1873.97 Q97.4085 1877.51 97.4085 1884.64 Q97.4085 1891.75 99.2141 1895.31 Q101.043 1898.86 104.654 1898.86 Q108.288 1898.86 110.094 1895.31 Q111.922 1891.75 111.922 1884.64 Q111.922 1877.51 110.094 1873.97 Q108.288 1870.41 104.654 1870.41 M104.654 1866.7 Q110.464 1866.7 113.52 1871.31 Q116.598 1875.89 116.598 1884.64 Q116.598 1893.37 113.52 1897.98 Q110.464 1902.56 104.654 1902.56 Q98.8437 1902.56 95.765 1897.98 Q92.7095 1893.37 92.7095 1884.64 Q92.7095 1875.89 95.765 1871.31 Q98.8437 1866.7 104.654 1866.7 Z" fill="#000000" fill-rule="nonzero" fill-opacity="1"></path><path clip-path="url(#clip080)" d="M60.6495 1454.06 Q57.0384 1454.06 55.2097 1457.63 Q53.4041 1461.17 53.4041 1468.3 Q53.4041 1475.41 55.2097 1478.97 Q57.0384 1482.51 60.6495 1482.51 Q64.2837 1482.51 66.0892 1478.97 Q67.9179 1475.41 67.9179 1468.3 Q67.9179 1461.17 66.0892 1457.63 Q64.2837 1454.06 60.6495 1454.06 M60.6495 1450.36 Q66.4596 1450.36 69.5152 1454.97 Q72.5938 1459.55 72.5938 1468.3 Q72.5938 1477.03 69.5152 1481.63 Q66.4596 1486.22 60.6495 1486.22 Q54.8393 1486.22 51.7606 1481.63 Q48.7051 1477.03 48.7051 1468.3 Q48.7051 1459.55 51.7606 1454.97 Q54.8393 1450.36 60.6495 1450.36 Z" fill="#000000" fill-rule="nonzero" fill-opacity="1"></path><path clip-path="url(#clip080)" d="M80.8114 1479.67 L85.6956 1479.67 L85.6956 1485.55 L80.8114 1485.55 L80.8114 1479.67 Z" fill="#000000" fill-rule="nonzero" fill-opacity="1"></path><path clip-path="url(#clip080)" d="M96.6909 1481.61 L104.33 1481.61 L104.33 1455.25 L96.0196 1456.91 L96.0196 1452.65 L104.283 1450.99 L108.959 1450.99 L108.959 1481.61 L116.598 1481.61 L116.598 1485.55 L96.6909 1485.55 L96.6909 1481.61 Z" fill="#000000" fill-rule="nonzero" fill-opacity="1"></path><path clip-path="url(#clip080)" d="M61.0198 1037.72 Q57.4087 1037.72 55.58 1041.29 Q53.7745 1044.83 53.7745 1051.96 Q53.7745 1059.07 55.58 1062.63 Q57.4087 1066.17 61.0198 1066.17 Q64.6541 1066.17 66.4596 1062.63 Q68.2883 1059.07 68.2883 1051.96 Q68.2883 1044.83 66.4596 1041.29 Q64.6541 1037.72 61.0198 1037.72 M61.0198 1034.02 Q66.83 1034.02 69.8855 1038.63 Q72.9642 1043.21 72.9642 1051.96 Q72.9642 1060.69 69.8855 1065.29 Q66.83 1069.88 61.0198 1069.88 Q55.2097 1069.88 52.131 1065.29 Q49.0754 1060.69 49.0754 1051.96 Q49.0754 1043.21 52.131 1038.63 Q55.2097 1034.02 61.0198 1034.02 Z" fill="#000000" fill-rule="nonzero" fill-opacity="1"></path><path clip-path="url(#clip080)" d="M81.1818 1063.32 L86.066 1063.32 L86.066 1069.2 L81.1818 1069.2 L81.1818 1063.32 Z" fill="#000000" fill-rule="nonzero" fill-opacity="1"></path><path clip-path="url(#clip080)" d="M100.279 1065.27 L116.598 1065.27 L116.598 1069.2 L94.6539 1069.2 L94.6539 1065.27 Q97.3159 1062.51 101.899 1057.88 Q106.506 1053.23 107.686 1051.89 Q109.932 1049.37 110.811 1047.63 Q111.714 1045.87 111.714 1044.18 Q111.714 1041.43 109.77 1039.69 Q107.848 1037.95 104.746 1037.95 Q102.547 1037.95 100.094 1038.72 Q97.6632 1039.48 94.8854 1041.03 L94.8854 1036.31 Q97.7094 1035.18 100.163 1034.6 Q102.617 1034.02 104.654 1034.02 Q110.024 1034.02 113.219 1036.7 Q116.413 1039.39 116.413 1043.88 Q116.413 1046.01 115.603 1047.93 Q114.816 1049.83 112.709 1052.42 Q112.131 1053.09 109.029 1056.31 Q105.927 1059.51 100.279 1065.27 Z" fill="#000000" fill-rule="nonzero" fill-opacity="1"></path><path clip-path="url(#clip080)" d="M60.0708 621.381 Q56.4597 621.381 54.631 624.946 Q52.8254 628.487 52.8254 635.617 Q52.8254 642.723 54.631 646.288 Q56.4597 649.83 60.0708 649.83 Q63.705 649.83 65.5105 646.288 Q67.3392 642.723 67.3392 635.617 Q67.3392 628.487 65.5105 624.946 Q63.705 621.381 60.0708 621.381 M60.0708 617.677 Q65.8809 617.677 68.9365 622.284 Q72.0151 626.867 72.0151 635.617 Q72.0151 644.344 68.9365 648.95 Q65.8809 653.534 60.0708 653.534 Q54.2606 653.534 51.1819 648.95 Q48.1264 644.344 48.1264 635.617 Q48.1264 626.867 51.1819 622.284 Q54.2606 617.677 60.0708 617.677 Z" fill="#000000" fill-rule="nonzero" fill-opacity="1"></path><path clip-path="url(#clip080)" d="M80.2327 646.983 L85.1169 646.983 L85.1169 652.862 L80.2327 652.862 L80.2327 646.983 Z" fill="#000000" fill-rule="nonzero" fill-opacity="1"></path><path clip-path="url(#clip080)" d="M109.469 634.228 Q112.825 634.946 114.7 637.214 Q116.598 639.483 116.598 642.816 Q116.598 647.932 113.08 650.733 Q109.561 653.534 103.08 653.534 Q100.904 653.534 98.5891 653.094 Q96.2974 652.677 93.8437 651.821 L93.8437 647.307 Q95.7882 648.441 98.103 649.02 Q100.418 649.598 102.941 649.598 Q107.339 649.598 109.631 647.862 Q111.945 646.126 111.945 642.816 Q111.945 639.76 109.793 638.047 Q107.663 636.311 103.844 636.311 L99.8159 636.311 L99.8159 632.469 L104.029 632.469 Q107.478 632.469 109.307 631.103 Q111.135 629.714 111.135 627.122 Q111.135 624.46 109.237 623.048 Q107.362 621.612 103.844 621.612 Q101.922 621.612 99.7233 622.029 Q97.5243 622.446 94.8854 623.325 L94.8854 619.159 Q97.5474 618.418 99.8622 618.048 Q102.2 617.677 104.26 617.677 Q109.584 617.677 112.686 620.108 Q115.788 622.515 115.788 626.635 Q115.788 629.506 114.145 631.497 Q112.501 633.464 109.469 634.228 Z" fill="#000000" fill-rule="nonzero" fill-opacity="1"></path><path clip-path="url(#clip080)" d="M58.9365 205.039 Q55.3254 205.039 53.4967 208.604 Q51.6912 212.145 51.6912 219.275 Q51.6912 226.381 53.4967 229.946 Q55.3254 233.488 58.9365 233.488 Q62.5707 233.488 64.3763 229.946 Q66.205 226.381 66.205 219.275 Q66.205 212.145 64.3763 208.604 Q62.5707 205.039 58.9365 205.039 M58.9365 201.335 Q64.7467 201.335 67.8022 205.942 Q70.8809 210.525 70.8809 219.275 Q70.8809 228.002 67.8022 232.608 Q64.7467 237.192 58.9365 237.192 Q53.1264 237.192 50.0477 232.608 Q46.9921 228.002 46.9921 219.275 Q46.9921 210.525 50.0477 205.942 Q53.1264 201.335 58.9365 201.335 Z" fill="#000000" fill-rule="nonzero" fill-opacity="1"></path><path clip-path="url(#clip080)" d="M79.0984 230.641 L83.9827 230.641 L83.9827 236.52 L79.0984 236.52 L79.0984 230.641 Z" fill="#000000" fill-rule="nonzero" fill-opacity="1"></path><path clip-path="url(#clip080)" d="M107.015 206.034 L95.2095 224.483 L107.015 224.483 L107.015 206.034 M105.788 201.96 L111.668 201.96 L111.668 224.483 L116.598 224.483 L116.598 228.372 L111.668 228.372 L111.668 236.52 L107.015 236.52 L107.015 228.372 L91.4132 228.372 L91.4132 223.858 L105.788 201.96 Z" fill="#000000" fill-rule="nonzero" fill-opacity="1"></path><path clip-path="url(#clip082)" d="M328.952 292.798 L328.952 1884.61 L888.836 1884.61 L888.836 292.798 L328.952 292.798 L328.952 292.798  Z" fill="#009af9" fill-rule="evenodd" fill-opacity="1"></path>
<polyline clip-path="url(#clip082)" style="stroke:#000000; stroke-linecap:round; stroke-linejoin:round; stroke-width:4; stroke-opacity:1; fill:none" points="328.952,292.798 328.952,1884.61 888.836,1884.61 888.836,292.798 328.952,292.798 "></polyline>
<path clip-path="url(#clip082)" d="M1028.81 145.158 L1028.81 1884.61 L1588.69 1884.61 L1588.69 145.158 L1028.81 145.158 L1028.81 145.158  Z" fill="#009af9" fill-rule="evenodd" fill-opacity="1"></path>
<polyline clip-path="url(#clip082)" style="stroke:#000000; stroke-linecap:round; stroke-linejoin:round; stroke-width:4; stroke-opacity:1; fill:none" points="1028.81,145.158 1028.81,1884.61 1588.69,1884.61 1588.69,145.158 1028.81,145.158 "></polyline>
<path clip-path="url(#clip082)" d="M1728.66 81.4465 L1728.66 1884.61 L2288.55 1884.61 L2288.55 81.4465 L1728.66 81.4465 L1728.66 81.4465  Z" fill="#009af9" fill-rule="evenodd" fill-opacity="1"></path>
<polyline clip-path="url(#clip082)" style="stroke:#000000; stroke-linecap:round; stroke-linejoin:round; stroke-width:4; stroke-opacity:1; fill:none" points="1728.66,81.4465 1728.66,1884.61 2288.55,1884.61 2288.55,81.4465 1728.66,81.4465 "></polyline>
<path clip-path="url(#clip082)" d="M2428.52 47.2441 L2428.52 1884.61 L2988.4 1884.61 L2988.4 47.2441 L2428.52 47.2441 L2428.52 47.2441  Z" fill="#009af9" fill-rule="evenodd" fill-opacity="1"></path>
<polyline clip-path="url(#clip082)" style="stroke:#000000; stroke-linecap:round; stroke-linejoin:round; stroke-width:4; stroke-opacity:1; fill:none" points="2428.52,47.2441 2428.52,1884.61 2988.4,1884.61 2988.4,47.2441 2428.52,47.2441 "></polyline>
<circle clip-path="url(#clip082)" style="fill:#009af9; stroke:none; fill-opacity:0" cx="608.894" cy="292.798" r="2"></circle>
<circle clip-path="url(#clip082)" style="fill:#009af9; stroke:none; fill-opacity:0" cx="1308.75" cy="145.158" r="2"></circle>
<circle clip-path="url(#clip082)" style="fill:#009af9; stroke:none; fill-opacity:0" cx="2008.6" cy="81.4465" r="2"></circle>
<circle clip-path="url(#clip082)" style="fill:#009af9; stroke:none; fill-opacity:0" cx="2708.46" cy="47.2441" r="2"></circle>
<path clip-path="url(#clip082)" d="M328.952 879.254 L328.952 1884.61 L888.836 1884.61 L888.836 879.254 L328.952 879.254 L328.952 879.254  Z" fill="#e26f46" fill-rule="evenodd" fill-opacity="1"></path>
<polyline clip-path="url(#clip082)" style="stroke:#000000; stroke-linecap:round; stroke-linejoin:round; stroke-width:4; stroke-opacity:1; fill:none" points="328.952,879.254 328.952,1884.61 888.836,1884.61 888.836,879.254 328.952,879.254 "></polyline>
<path clip-path="url(#clip082)" d="M1028.81 644.643 L1028.81 1884.61 L1588.69 1884.61 L1588.69 644.643 L1028.81 644.643 L1028.81 644.643  Z" fill="#e26f46" fill-rule="evenodd" fill-opacity="1"></path>
<polyline clip-path="url(#clip082)" style="stroke:#000000; stroke-linecap:round; stroke-linejoin:round; stroke-width:4; stroke-opacity:1; fill:none" points="1028.81,644.643 1028.81,1884.61 1588.69,1884.61 1588.69,644.643 1028.81,644.643 "></polyline>
<path clip-path="url(#clip082)" d="M1728.66 623.561 L1728.66 1884.61 L2288.55 1884.61 L2288.55 623.561 L1728.66 623.561 L1728.66 623.561  Z" fill="#e26f46" fill-rule="evenodd" fill-opacity="1"></path>
<polyline clip-path="url(#clip082)" style="stroke:#000000; stroke-linecap:round; stroke-linejoin:round; stroke-width:4; stroke-opacity:1; fill:none" points="1728.66,623.561 1728.66,1884.61 2288.55,1884.61 2288.55,623.561 1728.66,623.561 "></polyline>
<path clip-path="url(#clip082)" d="M2428.52 643.018 L2428.52 1884.61 L2988.4 1884.61 L2988.4 643.018 L2428.52 643.018 L2428.52 643.018  Z" fill="#e26f46" fill-rule="evenodd" fill-opacity="1"></path>
<polyline clip-path="url(#clip082)" style="stroke:#000000; stroke-linecap:round; stroke-linejoin:round; stroke-width:4; stroke-opacity:1; fill:none" points="2428.52,643.018 2428.52,1884.61 2988.4,1884.61 2988.4,643.018 2428.52,643.018 "></polyline>
<circle clip-path="url(#clip082)" style="fill:#e26f46; stroke:none; fill-opacity:0" cx="608.894" cy="879.254" r="2"></circle>
<circle clip-path="url(#clip082)" style="fill:#e26f46; stroke:none; fill-opacity:0" cx="1308.75" cy="644.643" r="2"></circle>
<circle clip-path="url(#clip082)" style="fill:#e26f46; stroke:none; fill-opacity:0" cx="2008.6" cy="623.561" r="2"></circle>
<circle clip-path="url(#clip082)" style="fill:#e26f46; stroke:none; fill-opacity:0" cx="2708.46" cy="643.018" r="2"></circle>
<path clip-path="url(#clip082)" d="M328.952 1013.89 L328.952 1884.61 L888.836 1884.61 L888.836 1013.89 L328.952 1013.89 L328.952 1013.89  Z" fill="#3da44d" fill-rule="evenodd" fill-opacity="1"></path>
<polyline clip-path="url(#clip082)" style="stroke:#000000; stroke-linecap:round; stroke-linejoin:round; stroke-width:4; stroke-opacity:1; fill:none" points="328.952,1013.89 328.952,1884.61 888.836,1884.61 888.836,1013.89 328.952,1013.89 "></polyline>
<path clip-path="url(#clip082)" d="M1028.81 807.04 L1028.81 1884.61 L1588.69 1884.61 L1588.69 807.04 L1028.81 807.04 L1028.81 807.04  Z" fill="#3da44d" fill-rule="evenodd" fill-opacity="1"></path>
<polyline clip-path="url(#clip082)" style="stroke:#000000; stroke-linecap:round; stroke-linejoin:round; stroke-width:4; stroke-opacity:1; fill:none" points="1028.81,807.04 1028.81,1884.61 1588.69,1884.61 1588.69,807.04 1028.81,807.04 "></polyline>
<path clip-path="url(#clip082)" d="M1728.66 830.862 L1728.66 1884.61 L2288.55 1884.61 L2288.55 830.862 L1728.66 830.862 L1728.66 830.862  Z" fill="#3da44d" fill-rule="evenodd" fill-opacity="1"></path>
<polyline clip-path="url(#clip082)" style="stroke:#000000; stroke-linecap:round; stroke-linejoin:round; stroke-width:4; stroke-opacity:1; fill:none" points="1728.66,830.862 1728.66,1884.61 2288.55,1884.61 2288.55,830.862 1728.66,830.862 "></polyline>
<path clip-path="url(#clip082)" d="M2428.52 831.003 L2428.52 1884.61 L2988.4 1884.61 L2988.4 831.003 L2428.52 831.003 L2428.52 831.003  Z" fill="#3da44d" fill-rule="evenodd" fill-opacity="1"></path>
<polyline clip-path="url(#clip082)" style="stroke:#000000; stroke-linecap:round; stroke-linejoin:round; stroke-width:4; stroke-opacity:1; fill:none" points="2428.52,831.003 2428.52,1884.61 2988.4,1884.61 2988.4,831.003 2428.52,831.003 "></polyline>
<circle clip-path="url(#clip082)" style="fill:#3da44d; stroke:none; fill-opacity:0" cx="608.894" cy="1013.89" r="2"></circle>
<circle clip-path="url(#clip082)" style="fill:#3da44d; stroke:none; fill-opacity:0" cx="1308.75" cy="807.04" r="2"></circle>
<circle clip-path="url(#clip082)" style="fill:#3da44d; stroke:none; fill-opacity:0" cx="2008.6" cy="830.862" r="2"></circle>
<circle clip-path="url(#clip082)" style="fill:#3da44d; stroke:none; fill-opacity:0" cx="2708.46" cy="831.003" r="2"></circle>
<path clip-path="url(#clip080)" d="M264.203 315.85 L853.874 315.85 L853.874 108.49 L264.203 108.49  Z" fill="#ffffff" fill-rule="evenodd" fill-opacity="1"></path>
<polyline clip-path="url(#clip080)" style="stroke:#000000; stroke-linecap:round; stroke-linejoin:round; stroke-width:4; stroke-opacity:1; fill:none" points="264.203,315.85 853.874,315.85 853.874,108.49 264.203,108.49 264.203,315.85 "></polyline>
<path clip-path="url(#clip080)" d="M297.405 181.066 L496.616 181.066 L496.616 139.594 L297.405 139.594 L297.405 181.066  Z" fill="#009af9" fill-rule="evenodd" fill-opacity="1"></path>
<polyline clip-path="url(#clip080)" style="stroke:#000000; stroke-linecap:round; stroke-linejoin:round; stroke-width:4; stroke-opacity:1; fill:none" points="297.405,181.066 496.616,181.066 496.616,139.594 297.405,139.594 297.405,181.066 "></polyline>
<path clip-path="url(#clip080)" d="M555.373 172.679 L555.373 163.397 L547.734 163.397 L547.734 159.554 L560.003 159.554 L560.003 174.392 Q557.294 176.313 554.03 177.309 Q550.766 178.281 547.063 178.281 Q538.961 178.281 534.378 173.559 Q529.818 168.813 529.818 160.364 Q529.818 151.892 534.378 147.17 Q538.961 142.425 547.063 142.425 Q550.442 142.425 553.475 143.258 Q556.53 144.091 559.1 145.712 L559.1 150.688 Q556.507 148.489 553.591 147.378 Q550.674 146.267 547.456 146.267 Q541.114 146.267 537.919 149.809 Q534.748 153.35 534.748 160.364 Q534.748 167.355 537.919 170.897 Q541.114 174.438 547.456 174.438 Q549.933 174.438 551.878 174.022 Q553.822 173.582 555.373 172.679 Z" fill="#000000" fill-rule="nonzero" fill-opacity="1"></path><path clip-path="url(#clip080)" d="M583.382 155.665 Q582.664 155.249 581.808 155.063 Q580.975 154.855 579.956 154.855 Q576.345 154.855 574.401 157.216 Q572.479 159.554 572.479 163.952 L572.479 177.61 L568.197 177.61 L568.197 151.684 L572.479 151.684 L572.479 155.712 Q573.822 153.35 575.975 152.216 Q578.127 151.059 581.206 151.059 Q581.646 151.059 582.178 151.128 Q582.711 151.175 583.359 151.29 L583.382 155.665 Z" fill="#000000" fill-rule="nonzero" fill-opacity="1"></path><path clip-path="url(#clip080)" d="M596.854 154.67 Q593.428 154.67 591.438 157.355 Q589.447 160.017 589.447 164.67 Q589.447 169.323 591.414 172.008 Q593.405 174.67 596.854 174.67 Q600.257 174.67 602.248 171.985 Q604.238 169.299 604.238 164.67 Q604.238 160.063 602.248 157.378 Q600.257 154.67 596.854 154.67 M596.854 151.059 Q602.41 151.059 605.581 154.67 Q608.752 158.281 608.752 164.67 Q608.752 171.036 605.581 174.67 Q602.41 178.281 596.854 178.281 Q591.276 178.281 588.104 174.67 Q584.956 171.036 584.956 164.67 Q584.956 158.281 588.104 154.67 Q591.276 151.059 596.854 151.059 Z" fill="#000000" fill-rule="nonzero" fill-opacity="1"></path><path clip-path="url(#clip080)" d="M632.34 152.448 L632.34 156.475 Q630.535 155.549 628.59 155.087 Q626.646 154.624 624.562 154.624 Q621.391 154.624 619.794 155.596 Q618.22 156.568 618.22 158.512 Q618.22 159.994 619.354 160.85 Q620.488 161.684 623.914 162.448 L625.373 162.772 Q629.91 163.744 631.808 165.526 Q633.729 167.286 633.729 170.457 Q633.729 174.068 630.859 176.174 Q628.011 178.281 623.011 178.281 Q620.928 178.281 618.66 177.864 Q616.414 177.471 613.914 176.66 L613.914 172.262 Q616.275 173.489 618.567 174.114 Q620.859 174.716 623.104 174.716 Q626.113 174.716 627.734 173.698 Q629.354 172.656 629.354 170.781 Q629.354 169.045 628.173 168.119 Q627.016 167.193 623.058 166.336 L621.576 165.989 Q617.618 165.156 615.859 163.443 Q614.099 161.707 614.099 158.698 Q614.099 155.04 616.692 153.05 Q619.285 151.059 624.053 151.059 Q626.414 151.059 628.498 151.406 Q630.581 151.753 632.34 152.448 Z" fill="#000000" fill-rule="nonzero" fill-opacity="1"></path><path clip-path="url(#clip080)" d="M657.039 152.448 L657.039 156.475 Q655.234 155.549 653.289 155.087 Q651.345 154.624 649.261 154.624 Q646.09 154.624 644.493 155.596 Q642.919 156.568 642.919 158.512 Q642.919 159.994 644.053 160.85 Q645.187 161.684 648.613 162.448 L650.071 162.772 Q654.609 163.744 656.507 165.526 Q658.428 167.286 658.428 170.457 Q658.428 174.068 655.558 176.174 Q652.71 178.281 647.71 178.281 Q645.627 178.281 643.359 177.864 Q641.113 177.471 638.613 176.66 L638.613 172.262 Q640.974 173.489 643.266 174.114 Q645.558 174.716 647.803 174.716 Q650.812 174.716 652.433 173.698 Q654.053 172.656 654.053 170.781 Q654.053 169.045 652.872 168.119 Q651.715 167.193 647.757 166.336 L646.275 165.989 Q642.317 165.156 640.558 163.443 Q638.798 161.707 638.798 158.698 Q638.798 155.04 641.391 153.05 Q643.984 151.059 648.752 151.059 Q651.113 151.059 653.196 151.406 Q655.28 151.753 657.039 152.448 Z" fill="#000000" fill-rule="nonzero" fill-opacity="1"></path><path clip-path="url(#clip080)" d="M670.071 146.892 L670.071 159.878 L675.951 159.878 Q679.215 159.878 680.997 158.188 Q682.78 156.499 682.78 153.374 Q682.78 150.272 680.997 148.582 Q679.215 146.892 675.951 146.892 L670.071 146.892 M665.395 143.05 L675.951 143.05 Q681.761 143.05 684.724 145.688 Q687.71 148.304 687.71 153.374 Q687.71 158.489 684.724 161.105 Q681.761 163.721 675.951 163.721 L670.071 163.721 L670.071 177.61 L665.395 177.61 L665.395 143.05 Z" fill="#000000" fill-rule="nonzero" fill-opacity="1"></path><path clip-path="url(#clip080)" d="M707.988 155.665 Q707.27 155.249 706.414 155.063 Q705.58 154.855 704.562 154.855 Q700.951 154.855 699.006 157.216 Q697.085 159.554 697.085 163.952 L697.085 177.61 L692.803 177.61 L692.803 151.684 L697.085 151.684 L697.085 155.712 Q698.428 153.35 700.58 152.216 Q702.733 151.059 705.812 151.059 Q706.252 151.059 706.784 151.128 Q707.317 151.175 707.965 151.29 L707.988 155.665 Z" fill="#000000" fill-rule="nonzero" fill-opacity="1"></path><path clip-path="url(#clip080)" d="M721.46 154.67 Q718.034 154.67 716.043 157.355 Q714.053 160.017 714.053 164.67 Q714.053 169.323 716.02 172.008 Q718.011 174.67 721.46 174.67 Q724.863 174.67 726.853 171.985 Q728.844 169.299 728.844 164.67 Q728.844 160.063 726.853 157.378 Q724.863 154.67 721.46 154.67 M721.46 151.059 Q727.016 151.059 730.187 154.67 Q733.358 158.281 733.358 164.67 Q733.358 171.036 730.187 174.67 Q727.016 178.281 721.46 178.281 Q715.881 178.281 712.71 174.67 Q709.562 171.036 709.562 164.67 Q709.562 158.281 712.71 154.67 Q715.881 151.059 721.46 151.059 Z" fill="#000000" fill-rule="nonzero" fill-opacity="1"></path><path clip-path="url(#clip080)" d="M753.543 141.591 L753.543 145.133 L749.469 145.133 Q747.177 145.133 746.275 146.059 Q745.395 146.985 745.395 149.392 L745.395 151.684 L752.409 151.684 L752.409 154.994 L745.395 154.994 L745.395 177.61 L741.113 177.61 L741.113 154.994 L737.039 154.994 L737.039 151.684 L741.113 151.684 L741.113 149.878 Q741.113 145.55 743.127 143.582 Q745.14 141.591 749.515 141.591 L753.543 141.591 Z" fill="#000000" fill-rule="nonzero" fill-opacity="1"></path><path clip-path="url(#clip080)" d="M757.108 151.684 L761.367 151.684 L761.367 177.61 L757.108 177.61 L757.108 151.684 M757.108 141.591 L761.367 141.591 L761.367 146.985 L757.108 146.985 L757.108 141.591 Z" fill="#000000" fill-rule="nonzero" fill-opacity="1"></path><path clip-path="url(#clip080)" d="M774.492 144.323 L774.492 151.684 L783.265 151.684 L783.265 154.994 L774.492 154.994 L774.492 169.068 Q774.492 172.239 775.349 173.142 Q776.228 174.045 778.89 174.045 L783.265 174.045 L783.265 177.61 L778.89 177.61 Q773.96 177.61 772.085 175.781 Q770.21 173.929 770.21 169.068 L770.21 154.994 L767.085 154.994 L767.085 151.684 L770.21 151.684 L770.21 144.323 L774.492 144.323 Z" fill="#000000" fill-rule="nonzero" fill-opacity="1"></path><path clip-path="url(#clip080)" d="M789.052 143.05 L796.02 143.05 L804.839 166.568 L813.705 143.05 L820.672 143.05 L820.672 177.61 L816.112 177.61 L816.112 147.262 L807.2 170.966 L802.501 170.966 L793.589 147.262 L793.589 177.61 L789.052 177.61 L789.052 143.05 Z" fill="#000000" fill-rule="nonzero" fill-opacity="1"></path><path clip-path="url(#clip080)" d="M297.405 232.906 L496.616 232.906 L496.616 191.434 L297.405 191.434 L297.405 232.906  Z" fill="#e26f46" fill-rule="evenodd" fill-opacity="1"></path>
<polyline clip-path="url(#clip080)" style="stroke:#000000; stroke-linecap:round; stroke-linejoin:round; stroke-width:4; stroke-opacity:1; fill:none" points="297.405,232.906 496.616,232.906 496.616,191.434 297.405,191.434 297.405,232.906 "></polyline>
<path clip-path="url(#clip080)" d="M545.836 198.061 Q540.743 198.061 537.734 201.857 Q534.748 205.653 534.748 212.204 Q534.748 218.732 537.734 222.528 Q540.743 226.325 545.836 226.325 Q550.929 226.325 553.891 222.528 Q556.878 218.732 556.878 212.204 Q556.878 205.653 553.891 201.857 Q550.929 198.061 545.836 198.061 M545.836 194.265 Q553.104 194.265 557.456 199.149 Q561.808 204.01 561.808 212.204 Q561.808 220.376 557.456 225.26 Q553.104 230.121 545.836 230.121 Q538.544 230.121 534.169 225.26 Q529.818 220.399 529.818 212.204 Q529.818 204.01 534.169 199.149 Q538.544 194.265 545.836 194.265 Z" fill="#000000" fill-rule="nonzero" fill-opacity="1"></path><path clip-path="url(#clip080)" d="M573.058 225.561 L573.058 239.311 L568.776 239.311 L568.776 203.524 L573.058 203.524 L573.058 207.459 Q574.401 205.144 576.438 204.033 Q578.498 202.899 581.345 202.899 Q586.067 202.899 589.007 206.649 Q591.97 210.399 591.97 216.51 Q591.97 222.621 589.007 226.371 Q586.067 230.121 581.345 230.121 Q578.498 230.121 576.438 229.01 Q574.401 227.875 573.058 225.561 M587.549 216.51 Q587.549 211.811 585.604 209.149 Q583.683 206.464 580.303 206.464 Q576.924 206.464 574.979 209.149 Q573.058 211.811 573.058 216.51 Q573.058 221.209 574.979 223.894 Q576.924 226.556 580.303 226.556 Q583.683 226.556 585.604 223.894 Q587.549 221.209 587.549 216.51 Z" fill="#000000" fill-rule="nonzero" fill-opacity="1"></path><path clip-path="url(#clip080)" d="M621.206 215.422 L621.206 217.505 L601.623 217.505 Q601.9 221.903 604.262 224.218 Q606.646 226.51 610.882 226.51 Q613.336 226.51 615.627 225.908 Q617.942 225.306 620.211 224.102 L620.211 228.13 Q617.919 229.102 615.511 229.612 Q613.104 230.121 610.627 230.121 Q604.424 230.121 600.789 226.51 Q597.178 222.899 597.178 216.741 Q597.178 210.376 600.604 206.649 Q604.053 202.899 609.887 202.899 Q615.118 202.899 618.15 206.278 Q621.206 209.635 621.206 215.422 M616.947 214.172 Q616.9 210.677 614.979 208.593 Q613.081 206.51 609.933 206.51 Q606.368 206.51 604.215 208.524 Q602.086 210.538 601.762 214.195 L616.947 214.172 Z" fill="#000000" fill-rule="nonzero" fill-opacity="1"></path><path clip-path="url(#clip080)" d="M643.22 207.505 Q642.502 207.089 641.646 206.903 Q640.812 206.695 639.794 206.695 Q636.183 206.695 634.238 209.056 Q632.317 211.394 632.317 215.792 L632.317 229.45 L628.035 229.45 L628.035 203.524 L632.317 203.524 L632.317 207.552 Q633.66 205.19 635.812 204.056 Q637.965 202.899 641.044 202.899 Q641.484 202.899 642.016 202.968 Q642.548 203.015 643.197 203.13 L643.22 207.505 Z" fill="#000000" fill-rule="nonzero" fill-opacity="1"></path><path clip-path="url(#clip080)" d="M647.872 194.89 L652.548 194.89 L652.548 229.45 L647.872 229.45 L647.872 194.89 Z" fill="#000000" fill-rule="nonzero" fill-opacity="1"></path><path clip-path="url(#clip080)" d="M683.219 213.801 L683.219 229.45 L678.96 229.45 L678.96 213.94 Q678.96 210.26 677.525 208.431 Q676.09 206.602 673.22 206.602 Q669.77 206.602 667.78 208.802 Q665.789 211.001 665.789 214.797 L665.789 229.45 L661.507 229.45 L661.507 203.524 L665.789 203.524 L665.789 207.552 Q667.317 205.214 669.377 204.056 Q671.46 202.899 674.169 202.899 Q678.636 202.899 680.928 205.677 Q683.219 208.431 683.219 213.801 Z" fill="#000000" fill-rule="nonzero" fill-opacity="1"></path><path clip-path="url(#clip080)" d="M710.372 204.519 L710.372 208.501 Q708.567 207.505 706.738 207.019 Q704.932 206.51 703.08 206.51 Q698.937 206.51 696.645 209.149 Q694.354 211.764 694.354 216.51 Q694.354 221.255 696.645 223.894 Q698.937 226.51 703.08 226.51 Q704.932 226.51 706.738 226.024 Q708.567 225.514 710.372 224.519 L710.372 228.454 Q708.59 229.288 706.668 229.704 Q704.77 230.121 702.618 230.121 Q696.761 230.121 693.312 226.44 Q689.863 222.76 689.863 216.51 Q689.863 210.167 693.335 206.533 Q696.83 202.899 702.895 202.899 Q704.863 202.899 706.738 203.315 Q708.613 203.709 710.372 204.519 Z" fill="#000000" fill-rule="nonzero" fill-opacity="1"></path><path clip-path="url(#clip080)" d="M717.965 194.89 L724.932 194.89 L733.752 218.408 L742.617 194.89 L749.585 194.89 L749.585 229.45 L745.025 229.45 L745.025 199.102 L736.113 222.806 L731.414 222.806 L722.502 199.102 L722.502 229.45 L717.965 229.45 L717.965 194.89 Z" fill="#000000" fill-rule="nonzero" fill-opacity="1"></path><path clip-path="url(#clip080)" d="M297.405 284.746 L496.616 284.746 L496.616 243.274 L297.405 243.274 L297.405 284.746  Z" fill="#3da44d" fill-rule="evenodd" fill-opacity="1"></path>
<polyline clip-path="url(#clip080)" style="stroke:#000000; stroke-linecap:round; stroke-linejoin:round; stroke-width:4; stroke-opacity:1; fill:none" points="297.405,284.746 496.616,284.746 496.616,243.274 297.405,243.274 297.405,284.746 "></polyline>
<path clip-path="url(#clip080)" d="M534.493 250.572 L534.493 263.558 L540.373 263.558 Q543.637 263.558 545.419 261.868 Q547.202 260.179 547.202 257.054 Q547.202 253.952 545.419 252.262 Q543.637 250.572 540.373 250.572 L534.493 250.572 M529.818 246.73 L540.373 246.73 Q546.183 246.73 549.146 249.368 Q552.132 251.984 552.132 257.054 Q552.132 262.169 549.146 264.785 Q546.183 267.401 540.373 267.401 L534.493 267.401 L534.493 281.29 L529.818 281.29 L529.818 246.73 Z" fill="#000000" fill-rule="nonzero" fill-opacity="1"></path><path clip-path="url(#clip080)" d="M572.41 259.345 Q571.692 258.929 570.836 258.743 Q570.002 258.535 568.984 258.535 Q565.373 258.535 563.428 260.896 Q561.507 263.234 561.507 267.632 L561.507 281.29 L557.225 281.29 L557.225 255.364 L561.507 255.364 L561.507 259.392 Q562.85 257.03 565.003 255.896 Q567.155 254.739 570.234 254.739 Q570.674 254.739 571.206 254.808 Q571.739 254.855 572.387 254.97 L572.41 259.345 Z" fill="#000000" fill-rule="nonzero" fill-opacity="1"></path><path clip-path="url(#clip080)" d="M585.882 258.35 Q582.456 258.35 580.465 261.035 Q578.475 263.697 578.475 268.35 Q578.475 273.003 580.442 275.688 Q582.433 278.35 585.882 278.35 Q589.285 278.35 591.276 275.665 Q593.266 272.979 593.266 268.35 Q593.266 263.743 591.276 261.058 Q589.285 258.35 585.882 258.35 M585.882 254.739 Q591.438 254.739 594.609 258.35 Q597.78 261.961 597.78 268.35 Q597.78 274.716 594.609 278.35 Q591.438 281.961 585.882 281.961 Q580.303 281.961 577.132 278.35 Q573.984 274.716 573.984 268.35 Q573.984 261.961 577.132 258.35 Q580.303 254.739 585.882 254.739 Z" fill="#000000" fill-rule="nonzero" fill-opacity="1"></path><path clip-path="url(#clip080)" d="M617.965 245.271 L617.965 248.813 L613.891 248.813 Q611.599 248.813 610.697 249.739 Q609.817 250.665 609.817 253.072 L609.817 255.364 L616.831 255.364 L616.831 258.674 L609.817 258.674 L609.817 281.29 L605.535 281.29 L605.535 258.674 L601.461 258.674 L601.461 255.364 L605.535 255.364 L605.535 253.558 Q605.535 249.23 607.549 247.262 Q609.562 245.271 613.937 245.271 L617.965 245.271 Z" fill="#000000" fill-rule="nonzero" fill-opacity="1"></path><path clip-path="url(#clip080)" d="M621.53 255.364 L625.789 255.364 L625.789 281.29 L621.53 281.29 L621.53 255.364 M621.53 245.271 L625.789 245.271 L625.789 250.665 L621.53 250.665 L621.53 245.271 Z" fill="#000000" fill-rule="nonzero" fill-opacity="1"></path><path clip-path="url(#clip080)" d="M638.914 248.003 L638.914 255.364 L647.687 255.364 L647.687 258.674 L638.914 258.674 L638.914 272.748 Q638.914 275.919 639.771 276.822 Q640.65 277.725 643.312 277.725 L647.687 277.725 L647.687 281.29 L643.312 281.29 Q638.382 281.29 636.507 279.461 Q634.632 277.609 634.632 272.748 L634.632 258.674 L631.507 258.674 L631.507 255.364 L634.632 255.364 L634.632 248.003 L638.914 248.003 Z" fill="#000000" fill-rule="nonzero" fill-opacity="1"></path><path clip-path="url(#clip080)" d="M653.474 246.73 L660.442 246.73 L669.261 270.248 L678.127 246.73 L685.094 246.73 L685.094 281.29 L680.534 281.29 L680.534 250.942 L671.622 274.646 L666.923 274.646 L658.011 250.942 L658.011 281.29 L653.474 281.29 L653.474 246.73 Z" fill="#000000" fill-rule="nonzero" fill-opacity="1"></path></svg>