<svg xmlns="http://www.w3.org/2000/svg" xmlns:xlink="http://www.w3.org/1999/xlink" width="1200" height="1200" viewBox="0 0 4800 4800">
<defs>
  <clipPath id="clip280">
    <rect x="0" y="0" width="4800" height="4800"></rect>
  </clipPath>
</defs>
<path clip-path="url(#clip280)" d="M0 4800 L4800 4800 L4800 0 L0 0  Z" fill="#ffffff" fill-rule="evenodd" fill-opacity="1"></path>
<defs>
  <clipPath id="clip281">
    <rect x="960" y="480" width="3361" height="3361"></rect>
  </clipPath>
</defs>
<path clip-path="url(#clip280)" d="M267.048 4550.14 L4752.76 4550.14 L4752.76 47.2441 L267.048 47.2441  Z" fill="#ffffff" fill-rule="evenodd" fill-opacity="1"></path>
<defs>
  <clipPath id="clip282">
    <rect x="267" y="47" width="4487" height="4504"></rect>
  </clipPath>
</defs>
<polyline clip-path="url(#clip282)" style="stroke:#000000; stroke-linecap:round; stroke-linejoin:round; stroke-width:2; stroke-opacity:0.1; fill:none" points="1237.1,4550.14 1237.1,47.2441 "></polyline>
<polyline clip-path="url(#clip282)" style="stroke:#000000; stroke-linecap:round; stroke-linejoin:round; stroke-width:2; stroke-opacity:0.1; fill:none" points="3353,4550.14 3353,47.2441 "></polyline>
<polyline clip-path="url(#clip280)" style="stroke:#000000; stroke-linecap:round; stroke-linejoin:round; stroke-width:4; stroke-opacity:1; fill:none" points="267.048,4550.14 4752.76,4550.14 "></polyline>
<polyline clip-path="url(#clip280)" style="stroke:#000000; stroke-linecap:round; stroke-linejoin:round; stroke-width:4; stroke-opacity:1; fill:none" points="1237.1,4550.14 1237.1,4531.24 "></polyline>
<polyline clip-path="url(#clip280)" style="stroke:#000000; stroke-linecap:round; stroke-linejoin:round; stroke-width:4; stroke-opacity:1; fill:none" points="3353,4550.14 3353,4531.24 "></polyline>
<path clip-path="url(#clip280)" d="M1108.9 4627.8 L1125.21 4627.8 L1125.21 4631.74 L1103.27 4631.74 L1103.27 4627.8 Q1105.93 4625.05 1110.52 4620.42 Q1115.12 4615.77 1116.3 4614.43 Q1118.55 4611.9 1119.43 4610.17 Q1120.33 4608.41 1120.33 4606.72 Q1120.33 4603.96 1118.39 4602.23 Q1116.46 4600.49 1113.36 4600.49 Q1111.16 4600.49 1108.71 4601.25 Q1106.28 4602.02 1103.5 4603.57 L1103.5 4598.85 Q1106.33 4597.71 1108.78 4597.13 Q1111.23 4596.55 1113.27 4596.55 Q1118.64 4596.55 1121.84 4599.24 Q1125.03 4601.93 1125.03 4606.42 Q1125.03 4608.55 1124.22 4610.47 Q1123.43 4612.36 1121.33 4614.96 Q1120.75 4615.63 1117.65 4618.85 Q1114.54 4622.04 1108.9 4627.8 Z" fill="#000000" fill-rule="nonzero" fill-opacity="1"></path><path clip-path="url(#clip280)" d="M1145.03 4600.26 Q1141.42 4600.26 1139.59 4603.82 Q1137.78 4607.36 1137.78 4614.49 Q1137.78 4621.6 1139.59 4625.17 Q1141.42 4628.71 1145.03 4628.71 Q1148.66 4628.71 1150.47 4625.17 Q1152.3 4621.6 1152.3 4614.49 Q1152.3 4607.36 1150.47 4603.82 Q1148.66 4600.26 1145.03 4600.26 M1145.03 4596.55 Q1150.84 4596.55 1153.9 4601.16 Q1156.97 4605.74 1156.97 4614.49 Q1156.97 4623.22 1153.9 4627.83 Q1150.84 4632.41 1145.03 4632.41 Q1139.22 4632.41 1136.14 4627.83 Q1133.09 4623.22 1133.09 4614.49 Q1133.09 4605.74 1136.14 4601.16 Q1139.22 4596.55 1145.03 4596.55 Z" fill="#000000" fill-rule="nonzero" fill-opacity="1"></path><path clip-path="url(#clip280)" d="M1169.22 4627.8 L1185.54 4627.8 L1185.54 4631.74 L1163.59 4631.74 L1163.59 4627.8 Q1166.26 4625.05 1170.84 4620.42 Q1175.45 4615.77 1176.63 4614.43 Q1178.87 4611.9 1179.75 4610.17 Q1180.65 4608.41 1180.65 4606.72 Q1180.65 4603.96 1178.71 4602.23 Q1176.79 4600.49 1173.69 4600.49 Q1171.49 4600.49 1169.03 4601.25 Q1166.6 4602.02 1163.83 4603.57 L1163.83 4598.85 Q1166.65 4597.71 1169.1 4597.13 Q1171.56 4596.55 1173.59 4596.55 Q1178.96 4596.55 1182.16 4599.24 Q1185.35 4601.93 1185.35 4606.42 Q1185.35 4608.55 1184.54 4610.47 Q1183.76 4612.36 1181.65 4614.96 Q1181.07 4615.63 1177.97 4618.85 Q1174.87 4622.04 1169.22 4627.8 Z" fill="#000000" fill-rule="nonzero" fill-opacity="1"></path><path clip-path="url(#clip280)" d="M1209.52 4613.11 Q1212.88 4613.82 1214.75 4616.09 Q1216.65 4618.36 1216.65 4621.69 Q1216.65 4626.81 1213.13 4629.61 Q1209.61 4632.41 1203.13 4632.41 Q1200.96 4632.41 1198.64 4631.97 Q1196.35 4631.55 1193.9 4630.7 L1193.9 4626.18 Q1195.84 4627.32 1198.15 4627.9 Q1200.47 4628.48 1202.99 4628.48 Q1207.39 4628.48 1209.68 4626.74 Q1212 4625 1212 4621.69 Q1212 4618.64 1209.84 4616.93 Q1207.71 4615.19 1203.89 4615.19 L1199.87 4615.19 L1199.87 4611.35 L1204.08 4611.35 Q1207.53 4611.35 1209.36 4609.98 Q1211.19 4608.59 1211.19 4606 Q1211.19 4603.34 1209.29 4601.93 Q1207.41 4600.49 1203.89 4600.49 Q1201.97 4600.49 1199.77 4600.91 Q1197.58 4601.32 1194.94 4602.2 L1194.94 4598.04 Q1197.6 4597.3 1199.91 4596.93 Q1202.25 4596.55 1204.31 4596.55 Q1209.64 4596.55 1212.74 4598.99 Q1215.84 4601.39 1215.84 4605.51 Q1215.84 4608.38 1214.2 4610.37 Q1212.55 4612.34 1209.52 4613.11 Z" fill="#000000" fill-rule="nonzero" fill-opacity="1"></path><path clip-path="url(#clip280)" d="M1222.76 4616.86 L1235.24 4616.86 L1235.24 4620.65 L1222.76 4620.65 L1222.76 4616.86 Z" fill="#000000" fill-rule="nonzero" fill-opacity="1"></path><path clip-path="url(#clip280)" d="M1252.62 4600.26 Q1249.01 4600.26 1247.18 4603.82 Q1245.38 4607.36 1245.38 4614.49 Q1245.38 4621.6 1247.18 4625.17 Q1249.01 4628.71 1252.62 4628.71 Q1256.26 4628.71 1258.06 4625.17 Q1259.89 4621.6 1259.89 4614.49 Q1259.89 4607.36 1258.06 4603.82 Q1256.26 4600.26 1252.62 4600.26 M1252.62 4596.55 Q1258.43 4596.55 1261.49 4601.16 Q1264.57 4605.74 1264.57 4614.49 Q1264.57 4623.22 1261.49 4627.83 Q1258.43 4632.41 1252.62 4632.41 Q1246.81 4632.41 1243.73 4627.83 Q1240.68 4623.22 1240.68 4614.49 Q1240.68 4605.74 1243.73 4601.16 Q1246.81 4596.55 1252.62 4596.55 Z" fill="#000000" fill-rule="nonzero" fill-opacity="1"></path><path clip-path="url(#clip280)" d="M1273.59 4627.8 L1281.23 4627.8 L1281.23 4601.44 L1272.92 4603.11 L1272.92 4598.85 L1281.19 4597.18 L1285.86 4597.18 L1285.86 4627.8 L1293.5 4627.8 L1293.5 4631.74 L1273.59 4631.74 L1273.59 4627.8 Z" fill="#000000" fill-rule="nonzero" fill-opacity="1"></path><path clip-path="url(#clip280)" d="M1300.19 4616.86 L1312.67 4616.86 L1312.67 4620.65 L1300.19 4620.65 L1300.19 4616.86 Z" fill="#000000" fill-rule="nonzero" fill-opacity="1"></path><path clip-path="url(#clip280)" d="M1330.05 4600.26 Q1326.44 4600.26 1324.61 4603.82 Q1322.81 4607.36 1322.81 4614.49 Q1322.81 4621.6 1324.61 4625.17 Q1326.44 4628.71 1330.05 4628.71 Q1333.69 4628.71 1335.49 4625.17 Q1337.32 4621.6 1337.32 4614.49 Q1337.32 4607.36 1335.49 4603.82 Q1333.69 4600.26 1330.05 4600.26 M1330.05 4596.55 Q1335.86 4596.55 1338.92 4601.16 Q1342 4605.74 1342 4614.49 Q1342 4623.22 1338.92 4627.83 Q1335.86 4632.41 1330.05 4632.41 Q1324.24 4632.41 1321.16 4627.83 Q1318.11 4623.22 1318.11 4614.49 Q1318.11 4605.74 1321.16 4601.16 Q1324.24 4596.55 1330.05 4596.55 Z" fill="#000000" fill-rule="nonzero" fill-opacity="1"></path><path clip-path="url(#clip280)" d="M1351.02 4627.8 L1358.66 4627.8 L1358.66 4601.44 L1350.35 4603.11 L1350.35 4598.85 L1358.62 4597.18 L1363.29 4597.18 L1363.29 4627.8 L1370.93 4627.8 L1370.93 4631.74 L1351.02 4631.74 L1351.02 4627.8 Z" fill="#000000" fill-rule="nonzero" fill-opacity="1"></path><path clip-path="url(#clip280)" d="M3224.8 4627.8 L3241.12 4627.8 L3241.12 4631.74 L3219.17 4631.74 L3219.17 4627.8 Q3221.83 4625.05 3226.42 4620.42 Q3231.02 4615.77 3232.2 4614.43 Q3234.45 4611.9 3235.33 4610.17 Q3236.23 4608.41 3236.23 4606.72 Q3236.23 4603.96 3234.29 4602.23 Q3232.37 4600.49 3229.26 4600.49 Q3227.06 4600.49 3224.61 4601.25 Q3222.18 4602.02 3219.4 4603.57 L3219.4 4598.85 Q3222.23 4597.71 3224.68 4597.13 Q3227.13 4596.55 3229.17 4596.55 Q3234.54 4596.55 3237.74 4599.24 Q3240.93 4601.93 3240.93 4606.42 Q3240.93 4608.55 3240.12 4610.47 Q3239.33 4612.36 3237.23 4614.96 Q3236.65 4615.63 3233.55 4618.85 Q3230.44 4622.04 3224.8 4627.8 Z" fill="#000000" fill-rule="nonzero" fill-opacity="1"></path><path clip-path="url(#clip280)" d="M3260.93 4600.26 Q3257.32 4600.26 3255.49 4603.82 Q3253.68 4607.36 3253.68 4614.49 Q3253.68 4621.6 3255.49 4625.17 Q3257.32 4628.71 3260.93 4628.71 Q3264.56 4628.71 3266.37 4625.17 Q3268.2 4621.6 3268.2 4614.49 Q3268.2 4607.36 3266.37 4603.82 Q3264.56 4600.26 3260.93 4600.26 M3260.93 4596.55 Q3266.74 4596.55 3269.8 4601.16 Q3272.87 4605.74 3272.87 4614.49 Q3272.87 4623.22 3269.8 4627.83 Q3266.74 4632.41 3260.93 4632.41 Q3255.12 4632.41 3252.04 4627.83 Q3248.99 4623.22 3248.99 4614.49 Q3248.99 4605.74 3252.04 4601.16 Q3255.12 4596.55 3260.93 4596.55 Z" fill="#000000" fill-rule="nonzero" fill-opacity="1"></path><path clip-path="url(#clip280)" d="M3285.12 4627.8 L3301.44 4627.8 L3301.44 4631.74 L3279.49 4631.74 L3279.49 4627.8 Q3282.16 4625.05 3286.74 4620.42 Q3291.35 4615.77 3292.53 4614.43 Q3294.77 4611.9 3295.65 4610.17 Q3296.55 4608.41 3296.55 4606.72 Q3296.55 4603.96 3294.61 4602.23 Q3292.69 4600.49 3289.59 4600.49 Q3287.39 4600.49 3284.93 4601.25 Q3282.5 4602.02 3279.73 4603.57 L3279.73 4598.85 Q3282.55 4597.71 3285 4597.13 Q3287.46 4596.55 3289.49 4596.55 Q3294.86 4596.55 3298.06 4599.24 Q3301.25 4601.93 3301.25 4606.42 Q3301.25 4608.55 3300.44 4610.47 Q3299.66 4612.36 3297.55 4614.96 Q3296.97 4615.63 3293.87 4618.85 Q3290.77 4622.04 3285.12 4627.8 Z" fill="#000000" fill-rule="nonzero" fill-opacity="1"></path><path clip-path="url(#clip280)" d="M3324.1 4601.25 L3312.3 4619.7 L3324.1 4619.7 L3324.1 4601.25 M3322.87 4597.18 L3328.75 4597.18 L3328.75 4619.7 L3333.68 4619.7 L3333.68 4623.59 L3328.75 4623.59 L3328.75 4631.74 L3324.1 4631.74 L3324.1 4623.59 L3308.5 4623.59 L3308.5 4619.08 L3322.87 4597.18 Z" fill="#000000" fill-rule="nonzero" fill-opacity="1"></path><path clip-path="url(#clip280)" d="M3338.66 4616.86 L3351.14 4616.86 L3351.14 4620.65 L3338.66 4620.65 L3338.66 4616.86 Z" fill="#000000" fill-rule="nonzero" fill-opacity="1"></path><path clip-path="url(#clip280)" d="M3368.52 4600.26 Q3364.91 4600.26 3363.08 4603.82 Q3361.28 4607.36 3361.28 4614.49 Q3361.28 4621.6 3363.08 4625.17 Q3364.91 4628.71 3368.52 4628.71 Q3372.16 4628.71 3373.96 4625.17 Q3375.79 4621.6 3375.79 4614.49 Q3375.79 4607.36 3373.96 4603.82 Q3372.16 4600.26 3368.52 4600.26 M3368.52 4596.55 Q3374.33 4596.55 3377.39 4601.16 Q3380.47 4605.74 3380.47 4614.49 Q3380.47 4623.22 3377.39 4627.83 Q3374.33 4632.41 3368.52 4632.41 Q3362.71 4632.41 3359.63 4627.83 Q3356.58 4623.22 3356.58 4614.49 Q3356.58 4605.74 3359.63 4601.16 Q3362.71 4596.55 3368.52 4596.55 Z" fill="#000000" fill-rule="nonzero" fill-opacity="1"></path><path clip-path="url(#clip280)" d="M3389.49 4627.8 L3397.13 4627.8 L3397.13 4601.44 L3388.82 4603.11 L3388.82 4598.85 L3397.09 4597.18 L3401.76 4597.18 L3401.76 4627.8 L3409.4 4627.8 L3409.4 4631.74 L3389.49 4631.74 L3389.49 4627.8 Z" fill="#000000" fill-rule="nonzero" fill-opacity="1"></path><path clip-path="url(#clip280)" d="M3416.09 4616.86 L3428.57 4616.86 L3428.57 4620.65 L3416.09 4620.65 L3416.09 4616.86 Z" fill="#000000" fill-rule="nonzero" fill-opacity="1"></path><path clip-path="url(#clip280)" d="M3445.95 4600.26 Q3442.34 4600.26 3440.51 4603.82 Q3438.71 4607.36 3438.71 4614.49 Q3438.71 4621.6 3440.51 4625.17 Q3442.34 4628.71 3445.95 4628.71 Q3449.59 4628.71 3451.39 4625.17 Q3453.22 4621.6 3453.22 4614.49 Q3453.22 4607.36 3451.39 4603.82 Q3449.59 4600.26 3445.95 4600.26 M3445.95 4596.55 Q3451.76 4596.55 3454.82 4601.16 Q3457.9 4605.74 3457.9 4614.49 Q3457.9 4623.22 3454.82 4627.83 Q3451.76 4632.41 3445.95 4632.41 Q3440.14 4632.41 3437.06 4627.83 Q3434.01 4623.22 3434.01 4614.49 Q3434.01 4605.74 3437.06 4601.16 Q3440.14 4596.55 3445.95 4596.55 Z" fill="#000000" fill-rule="nonzero" fill-opacity="1"></path><path clip-path="url(#clip280)" d="M3466.92 4627.8 L3474.56 4627.8 L3474.56 4601.44 L3466.25 4603.11 L3466.25 4598.85 L3474.52 4597.18 L3479.19 4597.18 L3479.19 4627.8 L3486.83 4627.8 L3486.83 4631.74 L3466.92 4631.74 L3466.92 4627.8 Z" fill="#000000" fill-rule="nonzero" fill-opacity="1"></path><path clip-path="url(#clip280)" d="M2424.44 4683.48 L2430.87 4683.48 L2430.87 4731 L2424.44 4731 L2424.44 4683.48 Z" fill="#000000" fill-rule="nonzero" fill-opacity="1"></path><path clip-path="url(#clip280)" d="M2473.04 4709.49 L2473.04 4731 L2467.19 4731 L2467.19 4709.68 Q2467.19 4704.62 2465.21 4702.1 Q2463.24 4699.59 2459.29 4699.59 Q2454.55 4699.59 2451.81 4702.61 Q2449.08 4705.64 2449.08 4710.86 L2449.08 4731 L2443.19 4731 L2443.19 4695.36 L2449.08 4695.36 L2449.08 4700.89 Q2451.18 4697.68 2454.01 4696.09 Q2456.88 4694.5 2460.6 4694.5 Q2466.74 4694.5 2469.89 4698.32 Q2473.04 4702.1 2473.04 4709.49 Z" fill="#000000" fill-rule="nonzero" fill-opacity="1"></path><path clip-path="url(#clip280)" d="M2508.18 4700.77 L2508.18 4681.48 L2514.04 4681.48 L2514.04 4731 L2508.18 4731 L2508.18 4725.66 Q2506.34 4728.84 2503.5 4730.4 Q2500.7 4731.93 2496.76 4731.93 Q2490.3 4731.93 2486.22 4726.77 Q2482.18 4721.61 2482.18 4713.21 Q2482.18 4704.81 2486.22 4699.65 Q2490.3 4694.5 2496.76 4694.5 Q2500.7 4694.5 2503.5 4696.06 Q2506.34 4697.58 2508.18 4700.77 M2488.23 4713.21 Q2488.23 4719.67 2490.87 4723.36 Q2493.54 4727.03 2498.19 4727.03 Q2502.84 4727.03 2505.51 4723.36 Q2508.18 4719.67 2508.18 4713.21 Q2508.18 4706.75 2505.51 4703.09 Q2502.84 4699.4 2498.19 4699.4 Q2493.54 4699.4 2490.87 4703.09 Q2488.23 4706.75 2488.23 4713.21 Z" fill="#000000" fill-rule="nonzero" fill-opacity="1"></path><path clip-path="url(#clip280)" d="M2556.59 4711.72 L2556.59 4714.58 L2529.67 4714.58 Q2530.05 4720.63 2533.3 4723.81 Q2536.57 4726.96 2542.4 4726.96 Q2545.77 4726.96 2548.92 4726.13 Q2552.11 4725.31 2555.23 4723.65 L2555.23 4729.19 Q2552.07 4730.53 2548.76 4731.23 Q2545.45 4731.93 2542.05 4731.93 Q2533.52 4731.93 2528.52 4726.96 Q2523.56 4722 2523.56 4713.53 Q2523.56 4704.78 2528.27 4699.65 Q2533.01 4694.5 2541.03 4694.5 Q2548.22 4694.5 2552.39 4699.14 Q2556.59 4703.76 2556.59 4711.72 M2550.74 4710 Q2550.67 4705.19 2548.03 4702.33 Q2545.42 4699.46 2541.09 4699.46 Q2536.19 4699.46 2533.23 4702.23 Q2530.3 4705 2529.86 4710.03 L2550.74 4710 Z" fill="#000000" fill-rule="nonzero" fill-opacity="1"></path><path clip-path="url(#clip280)" d="M2594.69 4695.36 L2581.8 4712.7 L2595.36 4731 L2588.45 4731 L2578.08 4717 L2567.7 4731 L2560.8 4731 L2574.64 4712.35 L2561.97 4695.36 L2568.88 4695.36 L2578.33 4708.06 L2587.79 4695.36 L2594.69 4695.36 Z" fill="#000000" fill-rule="nonzero" fill-opacity="1"></path><polyline clip-path="url(#clip282)" style="stroke:#000000; stroke-linecap:round; stroke-linejoin:round; stroke-width:2; stroke-opacity:0.1; fill:none" points="267.048,4182.46 4752.76,4182.46 "></polyline>
<polyline clip-path="url(#clip282)" style="stroke:#000000; stroke-linecap:round; stroke-linejoin:round; stroke-width:2; stroke-opacity:0.1; fill:none" points="267.048,3588.49 4752.76,3588.49 "></polyline>
<polyline clip-path="url(#clip282)" style="stroke:#000000; stroke-linecap:round; stroke-linejoin:round; stroke-width:2; stroke-opacity:0.1; fill:none" points="267.048,2994.53 4752.76,2994.53 "></polyline>
<polyline clip-path="url(#clip282)" style="stroke:#000000; stroke-linecap:round; stroke-linejoin:round; stroke-width:2; stroke-opacity:0.1; fill:none" points="267.048,2400.57 4752.76,2400.57 "></polyline>
<polyline clip-path="url(#clip282)" style="stroke:#000000; stroke-linecap:round; stroke-linejoin:round; stroke-width:2; stroke-opacity:0.1; fill:none" points="267.048,1806.61 4752.76,1806.61 "></polyline>
<polyline clip-path="url(#clip282)" style="stroke:#000000; stroke-linecap:round; stroke-linejoin:round; stroke-width:2; stroke-opacity:0.1; fill:none" points="267.048,1212.65 4752.76,1212.65 "></polyline>
<polyline clip-path="url(#clip282)" style="stroke:#000000; stroke-linecap:round; stroke-linejoin:round; stroke-width:2; stroke-opacity:0.1; fill:none" points="267.048,618.686 4752.76,618.686 "></polyline>
<polyline clip-path="url(#clip280)" style="stroke:#000000; stroke-linecap:round; stroke-linejoin:round; stroke-width:4; stroke-opacity:1; fill:none" points="267.048,4550.14 267.048,47.2441 "></polyline>
<polyline clip-path="url(#clip280)" style="stroke:#000000; stroke-linecap:round; stroke-linejoin:round; stroke-width:4; stroke-opacity:1; fill:none" points="267.048,4182.46 285.945,4182.46 "></polyline>
<polyline clip-path="url(#clip280)" style="stroke:#000000; stroke-linecap:round; stroke-linejoin:round; stroke-width:4; stroke-opacity:1; fill:none" points="267.048,3588.49 285.945,3588.49 "></polyline>
<polyline clip-path="url(#clip280)" style="stroke:#000000; stroke-linecap:round; stroke-linejoin:round; stroke-width:4; stroke-opacity:1; fill:none" points="267.048,2994.53 285.945,2994.53 "></polyline>
<polyline clip-path="url(#clip280)" style="stroke:#000000; stroke-linecap:round; stroke-linejoin:round; stroke-width:4; stroke-opacity:1; fill:none" points="267.048,2400.57 285.945,2400.57 "></polyline>
<polyline clip-path="url(#clip280)" style="stroke:#000000; stroke-linecap:round; stroke-linejoin:round; stroke-width:4; stroke-opacity:1; fill:none" points="267.048,1806.61 285.945,1806.61 "></polyline>
<polyline clip-path="url(#clip280)" style="stroke:#000000; stroke-linecap:round; stroke-linejoin:round; stroke-width:4; stroke-opacity:1; fill:none" points="267.048,1212.65 285.945,1212.65 "></polyline>
<polyline clip-path="url(#clip280)" style="stroke:#000000; stroke-linecap:round; stroke-linejoin:round; stroke-width:4; stroke-opacity:1; fill:none" points="267.048,618.686 285.945,618.686 "></polyline>
<path clip-path="url(#clip280)" d="M137.965 4168.25 Q134.353 4168.25 132.525 4171.82 Q130.719 4175.36 130.719 4182.49 Q130.719 4189.6 132.525 4193.16 Q134.353 4196.7 137.965 4196.7 Q141.599 4196.7 143.404 4193.16 Q145.233 4189.6 145.233 4182.49 Q145.233 4175.36 143.404 4171.82 Q141.599 4168.25 137.965 4168.25 M137.965 4164.55 Q143.775 4164.55 146.83 4169.16 Q149.909 4173.74 149.909 4182.49 Q149.909 4191.22 146.83 4195.82 Q143.775 4200.41 137.965 4200.41 Q132.154 4200.41 129.076 4195.82 Q126.02 4191.22 126.02 4182.49 Q126.02 4173.74 129.076 4169.16 Q132.154 4164.55 137.965 4164.55 Z" fill="#000000" fill-rule="nonzero" fill-opacity="1"></path><path clip-path="url(#clip280)" d="M158.126 4193.86 L163.011 4193.86 L163.011 4199.74 L158.126 4199.74 L158.126 4193.86 Z" fill="#000000" fill-rule="nonzero" fill-opacity="1"></path><path clip-path="url(#clip280)" d="M183.196 4183.32 Q179.862 4183.32 177.941 4185.11 Q176.043 4186.89 176.043 4190.01 Q176.043 4193.14 177.941 4194.92 Q179.862 4196.7 183.196 4196.7 Q186.529 4196.7 188.45 4194.92 Q190.372 4193.12 190.372 4190.01 Q190.372 4186.89 188.45 4185.11 Q186.552 4183.32 183.196 4183.32 M178.52 4181.33 Q175.511 4180.59 173.821 4178.53 Q172.154 4176.47 172.154 4173.51 Q172.154 4169.37 175.094 4166.96 Q178.057 4164.55 183.196 4164.55 Q188.358 4164.55 191.298 4166.96 Q194.237 4169.37 194.237 4173.51 Q194.237 4176.47 192.548 4178.53 Q190.881 4180.59 187.895 4181.33 Q191.274 4182.12 193.149 4184.41 Q195.048 4186.7 195.048 4190.01 Q195.048 4195.04 191.969 4197.72 Q188.913 4200.41 183.196 4200.41 Q177.478 4200.41 174.4 4197.72 Q171.344 4195.04 171.344 4190.01 Q171.344 4186.7 173.242 4184.41 Q175.14 4182.12 178.52 4181.33 M176.807 4173.95 Q176.807 4176.63 178.474 4178.14 Q180.163 4179.64 183.196 4179.64 Q186.205 4179.64 187.895 4178.14 Q189.608 4176.63 189.608 4173.95 Q189.608 4171.26 187.895 4169.76 Q186.205 4168.25 183.196 4168.25 Q180.163 4168.25 178.474 4169.76 Q176.807 4171.26 176.807 4173.95 Z" fill="#000000" fill-rule="nonzero" fill-opacity="1"></path><path clip-path="url(#clip280)" d="M138.057 3574.29 Q134.446 3574.29 132.617 3577.86 Q130.812 3581.4 130.812 3588.53 Q130.812 3595.64 132.617 3599.2 Q134.446 3602.74 138.057 3602.74 Q141.691 3602.74 143.497 3599.2 Q145.326 3595.64 145.326 3588.53 Q145.326 3581.4 143.497 3577.86 Q141.691 3574.29 138.057 3574.29 M138.057 3570.59 Q143.867 3570.59 146.923 3575.2 Q150.002 3579.78 150.002 3588.53 Q150.002 3597.26 146.923 3601.86 Q143.867 3606.45 138.057 3606.45 Q132.247 3606.45 129.168 3601.86 Q126.113 3597.26 126.113 3588.53 Q126.113 3579.78 129.168 3575.2 Q132.247 3570.59 138.057 3570.59 Z" fill="#000000" fill-rule="nonzero" fill-opacity="1"></path><path clip-path="url(#clip280)" d="M158.219 3599.89 L163.103 3599.89 L163.103 3605.77 L158.219 3605.77 L158.219 3599.89 Z" fill="#000000" fill-rule="nonzero" fill-opacity="1"></path><path clip-path="url(#clip280)" d="M173.427 3605.06 L173.427 3600.8 Q175.187 3601.63 176.992 3602.07 Q178.798 3602.51 180.534 3602.51 Q185.163 3602.51 187.594 3599.41 Q190.048 3596.28 190.395 3589.94 Q189.052 3591.93 186.992 3593 Q184.932 3594.06 182.432 3594.06 Q177.247 3594.06 174.214 3590.94 Q171.205 3587.79 171.205 3582.35 Q171.205 3577.02 174.353 3573.81 Q177.501 3570.59 182.733 3570.59 Q188.728 3570.59 191.876 3575.2 Q195.048 3579.78 195.048 3588.53 Q195.048 3596.7 191.159 3601.58 Q187.293 3606.45 180.742 3606.45 Q178.983 3606.45 177.177 3606.1 Q175.372 3605.75 173.427 3605.06 M182.733 3590.4 Q185.881 3590.4 187.71 3588.25 Q189.561 3586.1 189.561 3582.35 Q189.561 3578.62 187.71 3576.47 Q185.881 3574.29 182.733 3574.29 Q179.585 3574.29 177.733 3576.47 Q175.904 3578.62 175.904 3582.35 Q175.904 3586.1 177.733 3588.25 Q179.585 3590.4 182.733 3590.4 Z" fill="#000000" fill-rule="nonzero" fill-opacity="1"></path><path clip-path="url(#clip280)" d="M128.682 3007.88 L136.321 3007.88 L136.321 2981.51 L128.011 2983.18 L128.011 2978.92 L136.275 2977.25 L140.951 2977.25 L140.951 3007.88 L148.589 3007.88 L148.589 3011.81 L128.682 3011.81 L128.682 3007.88 Z" fill="#000000" fill-rule="nonzero" fill-opacity="1"></path><path clip-path="url(#clip280)" d="M158.034 3005.93 L162.918 3005.93 L162.918 3011.81 L158.034 3011.81 L158.034 3005.93 Z" fill="#000000" fill-rule="nonzero" fill-opacity="1"></path><path clip-path="url(#clip280)" d="M183.103 2980.33 Q179.492 2980.33 177.663 2983.9 Q175.858 2987.44 175.858 2994.57 Q175.858 3001.67 177.663 3005.24 Q179.492 3008.78 183.103 3008.78 Q186.737 3008.78 188.543 3005.24 Q190.372 3001.67 190.372 2994.57 Q190.372 2987.44 188.543 2983.9 Q186.737 2980.33 183.103 2980.33 M183.103 2976.63 Q188.913 2976.63 191.969 2981.23 Q195.048 2985.82 195.048 2994.57 Q195.048 3003.29 191.969 3007.9 Q188.913 3012.48 183.103 3012.48 Q177.293 3012.48 174.214 3007.9 Q171.159 3003.29 171.159 2994.57 Q171.159 2985.82 174.214 2981.23 Q177.293 2976.63 183.103 2976.63 Z" fill="#000000" fill-rule="nonzero" fill-opacity="1"></path><path clip-path="url(#clip280)" d="M129.909 2413.92 L137.548 2413.92 L137.548 2387.55 L129.238 2389.22 L129.238 2384.96 L137.502 2383.29 L142.177 2383.29 L142.177 2413.92 L149.816 2413.92 L149.816 2417.85 L129.909 2417.85 L129.909 2413.92 Z" fill="#000000" fill-rule="nonzero" fill-opacity="1"></path><path clip-path="url(#clip280)" d="M159.261 2411.97 L164.145 2411.97 L164.145 2417.85 L159.261 2417.85 L159.261 2411.97 Z" fill="#000000" fill-rule="nonzero" fill-opacity="1"></path><path clip-path="url(#clip280)" d="M175.14 2413.92 L182.779 2413.92 L182.779 2387.55 L174.469 2389.22 L174.469 2384.96 L182.733 2383.29 L187.409 2383.29 L187.409 2413.92 L195.048 2413.92 L195.048 2417.85 L175.14 2417.85 L175.14 2413.92 Z" fill="#000000" fill-rule="nonzero" fill-opacity="1"></path><path clip-path="url(#clip280)" d="M130.279 1819.95 L137.918 1819.95 L137.918 1793.59 L129.608 1795.26 L129.608 1791 L137.872 1789.33 L142.548 1789.33 L142.548 1819.95 L150.187 1819.95 L150.187 1823.89 L130.279 1823.89 L130.279 1819.95 Z" fill="#000000" fill-rule="nonzero" fill-opacity="1"></path><path clip-path="url(#clip280)" d="M159.631 1818.01 L164.515 1818.01 L164.515 1823.89 L159.631 1823.89 L159.631 1818.01 Z" fill="#000000" fill-rule="nonzero" fill-opacity="1"></path><path clip-path="url(#clip280)" d="M178.728 1819.95 L195.048 1819.95 L195.048 1823.89 L173.103 1823.89 L173.103 1819.95 Q175.765 1817.2 180.349 1812.57 Q184.955 1807.92 186.136 1806.57 Q188.381 1804.05 189.261 1802.32 Q190.163 1800.56 190.163 1798.87 Q190.163 1796.11 188.219 1794.38 Q186.298 1792.64 183.196 1792.64 Q180.997 1792.64 178.543 1793.4 Q176.112 1794.17 173.335 1795.72 L173.335 1791 Q176.159 1789.86 178.612 1789.28 Q181.066 1788.7 183.103 1788.7 Q188.474 1788.7 191.668 1791.39 Q194.862 1794.07 194.862 1798.57 Q194.862 1800.69 194.052 1802.62 Q193.265 1804.51 191.159 1807.11 Q190.58 1807.78 187.478 1811 Q184.376 1814.19 178.728 1819.95 Z" fill="#000000" fill-rule="nonzero" fill-opacity="1"></path><path clip-path="url(#clip280)" d="M129.33 1225.99 L136.969 1225.99 L136.969 1199.63 L128.659 1201.29 L128.659 1197.03 L136.923 1195.37 L141.599 1195.37 L141.599 1225.99 L149.238 1225.99 L149.238 1229.93 L129.33 1229.93 L129.33 1225.99 Z" fill="#000000" fill-rule="nonzero" fill-opacity="1"></path><path clip-path="url(#clip280)" d="M158.682 1224.05 L163.566 1224.05 L163.566 1229.93 L158.682 1229.93 L158.682 1224.05 Z" fill="#000000" fill-rule="nonzero" fill-opacity="1"></path><path clip-path="url(#clip280)" d="M187.918 1211.29 Q191.274 1212.01 193.149 1214.28 Q195.048 1216.55 195.048 1219.88 Q195.048 1225 191.529 1227.8 Q188.011 1230.6 181.529 1230.6 Q179.353 1230.6 177.038 1230.16 Q174.747 1229.74 172.293 1228.89 L172.293 1224.37 Q174.237 1225.51 176.552 1226.09 Q178.867 1226.66 181.39 1226.66 Q185.788 1226.66 188.08 1224.93 Q190.395 1223.19 190.395 1219.88 Q190.395 1216.83 188.242 1215.11 Q186.112 1213.38 182.293 1213.38 L178.265 1213.38 L178.265 1209.53 L182.478 1209.53 Q185.927 1209.53 187.756 1208.17 Q189.585 1206.78 189.585 1204.19 Q189.585 1201.52 187.686 1200.11 Q185.812 1198.68 182.293 1198.68 Q180.372 1198.68 178.173 1199.09 Q175.974 1199.51 173.335 1200.39 L173.335 1196.22 Q175.997 1195.48 178.312 1195.11 Q180.649 1194.74 182.71 1194.74 Q188.034 1194.74 191.136 1197.17 Q194.237 1199.58 194.237 1203.7 Q194.237 1206.57 192.594 1208.56 Q190.95 1210.53 187.918 1211.29 Z" fill="#000000" fill-rule="nonzero" fill-opacity="1"></path><path clip-path="url(#clip280)" d="M128.196 632.031 L135.835 632.031 L135.835 605.665 L127.525 607.332 L127.525 603.073 L135.789 601.406 L140.465 601.406 L140.465 632.031 L148.103 632.031 L148.103 635.966 L128.196 635.966 L128.196 632.031 Z" fill="#000000" fill-rule="nonzero" fill-opacity="1"></path><path clip-path="url(#clip280)" d="M157.548 630.086 L162.432 630.086 L162.432 635.966 L157.548 635.966 L157.548 630.086 Z" fill="#000000" fill-rule="nonzero" fill-opacity="1"></path><path clip-path="url(#clip280)" d="M185.464 605.48 L173.659 623.929 L185.464 623.929 L185.464 605.48 M184.237 601.406 L190.117 601.406 L190.117 623.929 L195.048 623.929 L195.048 627.818 L190.117 627.818 L190.117 635.966 L185.464 635.966 L185.464 627.818 L169.863 627.818 L169.863 623.304 L184.237 601.406 Z" fill="#000000" fill-rule="nonzero" fill-opacity="1"></path><path clip-path="url(#clip280)" d="M-1.42196 2552.32 L22.2266 2561.04 L22.2266 2543.56 L-1.42196 2552.32 M-7.75584 2555.95 L-7.75584 2548.66 L39.7642 2530.55 L39.7642 2537.23 L27.5738 2541.56 L27.5738 2562.98 L39.7642 2567.31 L39.7642 2574.09 L-7.75584 2555.95 Z" fill="#000000" fill-rule="nonzero" fill-opacity="1"></path><path clip-path="url(#clip280)" d="M-1.42196 2505.91 L22.2266 2514.63 L22.2266 2497.16 L-1.42196 2505.91 M-7.75584 2509.54 L-7.75584 2502.25 L39.7642 2484.14 L39.7642 2490.82 L27.5738 2495.15 L27.5738 2516.57 L39.7642 2520.9 L39.7642 2527.68 L-7.75584 2509.54 Z" fill="#000000" fill-rule="nonzero" fill-opacity="1"></path><path clip-path="url(#clip280)" d="M-2.47231 2470.77 L15.3835 2470.77 L15.3835 2462.69 Q15.3835 2458.2 13.06 2455.75 Q10.7365 2453.3 6.43968 2453.3 Q2.17466 2453.3 -0.148823 2455.75 Q-2.47231 2458.2 -2.47231 2462.69 L-2.47231 2470.77 M-7.75584 2477.2 L-7.75584 2462.69 Q-7.75584 2454.7 -4.12739 2450.63 Q-0.530765 2446.52 6.43968 2446.52 Q13.4738 2446.52 17.0704 2450.63 Q20.667 2454.7 20.667 2462.69 L20.667 2470.77 L39.7642 2470.77 L39.7642 2477.2 L-7.75584 2477.2 Z" fill="#000000" fill-rule="nonzero" fill-opacity="1"></path><path clip-path="url(#clip280)" d="M-7.75584 2437.89 L-7.75584 2431.46 L34.3533 2431.46 L34.3533 2408.33 L39.7642 2408.33 L39.7642 2437.89 L-7.75584 2437.89 Z" fill="#000000" fill-rule="nonzero" fill-opacity="1"></path><path clip-path="url(#clip280)" d="M31.6797 2400.34 L31.6797 2393.62 L37.1542 2393.62 L47.3393 2398.84 L47.3393 2402.95 L37.1542 2400.34 L31.6797 2400.34 Z" fill="#000000" fill-rule="nonzero" fill-opacity="1"></path><path clip-path="url(#clip280)" d="M32.9847 2327.74 L20.2214 2327.74 L20.2214 2338.24 L14.9379 2338.24 L14.9379 2321.37 L35.34 2321.37 Q37.9818 2325.09 39.3504 2329.58 Q40.6872 2334.07 40.6872 2339.16 Q40.6872 2350.3 34.1942 2356.6 Q27.6693 2362.87 16.0519 2362.87 Q4.40266 2362.87 -2.09036 2356.6 Q-8.61521 2350.3 -8.61521 2339.16 Q-8.61521 2334.51 -7.46939 2330.35 Q-6.32356 2326.14 -4.09556 2322.61 L2.74757 2322.61 Q-0.276137 2326.18 -1.80391 2330.19 Q-3.33168 2334.2 -3.33168 2338.62 Q-3.33168 2347.34 1.53809 2351.73 Q6.40785 2356.09 16.0519 2356.09 Q25.6641 2356.09 30.5339 2351.73 Q35.4036 2347.34 35.4036 2338.62 Q35.4036 2335.22 34.8307 2332.54 Q34.226 2329.87 32.9847 2327.74 Z" fill="#000000" fill-rule="nonzero" fill-opacity="1"></path><path clip-path="url(#clip280)" d="M-6.19624 2281.14 L0.0739766 2281.14 Q-1.67659 2284.8 -2.53596 2288.05 Q-3.39533 2291.29 -3.39533 2294.32 Q-3.39533 2299.57 -1.35831 2302.43 Q0.678719 2305.26 4.43449 2305.26 Q7.58551 2305.26 9.20877 2303.39 Q10.8002 2301.48 11.7869 2296.19 L12.5826 2292.31 Q13.9512 2285.12 17.4205 2281.71 Q20.858 2278.27 26.6508 2278.27 Q33.5576 2278.27 37.1224 2282.92 Q40.6872 2287.54 40.6872 2296.48 Q40.6872 2299.85 39.9233 2303.67 Q39.1594 2307.46 37.6635 2311.53 L31.0431 2311.53 Q33.2393 2307.62 34.3533 2303.86 Q35.4673 2300.11 35.4673 2296.48 Q35.4673 2290.97 33.303 2287.98 Q31.1386 2284.99 27.1282 2284.99 Q23.6271 2284.99 21.6537 2287.15 Q19.6804 2289.29 18.6937 2294.19 L17.9298 2298.1 Q16.4975 2305.3 13.442 2308.51 Q10.3864 2311.73 4.94374 2311.73 Q-1.35831 2311.73 -4.98676 2307.3 Q-8.61521 2302.85 -8.61521 2295.05 Q-8.61521 2291.71 -8.01047 2288.24 Q-7.40573 2284.77 -6.19624 2281.14 Z" fill="#000000" fill-rule="nonzero" fill-opacity="1"></path><path clip-path="url(#clip280)" d="M-2.47231 2261.82 L15.3835 2261.82 L15.3835 2253.73 Q15.3835 2249.25 13.06 2246.8 Q10.7365 2244.34 6.43968 2244.34 Q2.17466 2244.34 -0.148823 2246.8 Q-2.47231 2249.25 -2.47231 2253.73 L-2.47231 2261.82 M-7.75584 2268.25 L-7.75584 2253.73 Q-7.75584 2245.75 -4.12739 2241.67 Q-0.530765 2237.57 6.43968 2237.57 Q13.4738 2237.57 17.0704 2241.67 Q20.667 2245.75 20.667 2253.73 L20.667 2261.82 L39.7642 2261.82 L39.7642 2268.25 L-7.75584 2268.25 Z" fill="#000000" fill-rule="nonzero" fill-opacity="1"></path><path clip-path="url(#clip280)" d="M-4.09556 2193.36 L2.68392 2193.36 Q-0.339794 2196.6 -1.83574 2200.29 Q-3.33168 2203.95 -3.33168 2208.09 Q-3.33168 2216.24 1.6654 2220.57 Q6.63065 2224.9 16.0519 2224.9 Q25.4413 2224.9 30.4384 2220.57 Q35.4036 2216.24 35.4036 2208.09 Q35.4036 2203.95 33.9077 2200.29 Q32.4118 2196.6 29.3881 2193.36 L36.1039 2193.36 Q38.3955 2196.73 39.5414 2200.52 Q40.6872 2204.27 40.6872 2208.47 Q40.6872 2219.26 34.0987 2225.47 Q27.4783 2231.68 16.0519 2231.68 Q4.59363 2231.68 -1.99488 2225.47 Q-8.61521 2219.26 -8.61521 2208.47 Q-8.61521 2204.21 -7.46939 2200.45 Q-6.35539 2196.67 -4.09556 2193.36 Z" fill="#000000" fill-rule="nonzero" fill-opacity="1"></path><path clip-path="url(#clip280)" d="M31.6797 2182.18 L31.6797 2175.47 L37.1542 2175.47 L47.3393 2180.69 L47.3393 2184.79 L37.1542 2182.18 L31.6797 2182.18 Z" fill="#000000" fill-rule="nonzero" fill-opacity="1"></path><path clip-path="url(#clip280)" d="M-7.75584 2141.98 L-7.75584 2135.55 L39.7642 2135.55 L39.7642 2141.98 L-7.75584 2141.98 Z" fill="#000000" fill-rule="nonzero" fill-opacity="1"></path><path clip-path="url(#clip280)" d="M-7.75584 2125.05 L-7.75584 2118.14 L9.90899 2106.34 L-7.75584 2094.46 L-7.75584 2087.56 L15.0652 2102.84 L39.7642 2086.54 L39.7642 2093.45 L19.553 2106.81 L39.7642 2120.28 L39.7642 2127.22 L14.3968 2110.25 L-7.75584 2125.05 Z" fill="#000000" fill-rule="nonzero" fill-opacity="1"></path><path clip-path="url(#clip280)" d="M-7.75584 2078.1 L-7.75584 2071.67 L39.7642 2071.67 L39.7642 2078.1 L-7.75584 2078.1 Z" fill="#000000" fill-rule="nonzero" fill-opacity="1"></path><path clip-path="url(#clip280)" d="M-4.09556 2023.3 L2.68392 2023.3 Q-0.339794 2026.54 -1.83574 2030.23 Q-3.33168 2033.89 -3.33168 2038.03 Q-3.33168 2046.18 1.6654 2050.51 Q6.63065 2054.84 16.0519 2054.84 Q25.4413 2054.84 30.4384 2050.51 Q35.4036 2046.18 35.4036 2038.03 Q35.4036 2033.89 33.9077 2030.23 Q32.4118 2026.54 29.3881 2023.3 L36.1039 2023.3 Q38.3955 2026.67 39.5414 2030.46 Q40.6872 2034.21 40.6872 2038.41 Q40.6872 2049.2 34.0987 2055.41 Q27.4783 2061.62 16.0519 2061.62 Q4.59363 2061.62 -1.99488 2055.41 Q-8.61521 2049.2 -8.61521 2038.41 Q-8.61521 2034.15 -7.46939 2030.39 Q-6.35539 2026.61 -4.09556 2023.3 Z" fill="#000000" fill-rule="nonzero" fill-opacity="1"></path><polyline clip-path="url(#clip282)" style="stroke:#009af9; stroke-linecap:round; stroke-linejoin:round; stroke-width:4; stroke-opacity:1; fill:none" points="394.002,2994.53 399.799,2992.73 405.596,2837.1 411.393,2864.12 417.19,2734.06 434.58,2694.8 440.377,2700.56 446.174,2645.8 451.971,2660.21 457.768,2754.96 475.159,2897.26 480.956,2909.51 486.753,2898.7 492.55,2808.64 498.347,3039.56 515.738,3120.26 521.535,3209.25 527.332,3270.13 533.129,3243.47 538.926,3320.93 562.114,3367.04 567.911,3315.52 573.708,3369.56 579.505,3264.73 596.896,3046.41 602.693,3391.9 608.49,3338.94 614.287,3444.86 620.084,3505.02 637.475,3368.84 643.272,3281.66 649.069,3396.22 654.866,3431.53 660.663,3514.75 678.054,3502.5 683.851,3466.83 689.648,3536 695.445,3801.16 701.242,3955.35 718.633,3802.24 724.43,3670.74 730.227,3659.93 736.024,3694.88 741.821,3887.26 759.212,3875.37 765.009,3927.25 770.806,3950.3 776.603,3782.78 782.4,3948.86 799.791,3803.68 805.588,3755.4 811.385,3751.44 817.182,3768.37 822.979,3628.59 840.37,3550.05 846.167,3445.94 851.964,3553.66 857.761,3717.58 863.558,3323.45 880.948,3409.91 886.745,3506.82 892.542,3709.29 898.339,3930.85 904.136,3940.59 921.769,3921.11 927.566,3900.18 933.363,4067.25 939.16,3634.22 944.957,3532.1 962.348,3583.34 968.145,3519.83 973.942,3564.94 979.739,3495.29 985.536,3474.72 1002.93,3593.09 1008.72,3514.78 1014.52,3482.66 1026.11,3589.48 1043.51,3729.85 1049.3,3839.91 1055.1,3592.36 1060.9,3582.26 1066.69,3600.3 1084.08,3642.88 1089.88,3777.12 1095.68,3848.21 1101.48,3786.51 1107.27,3804.19 1124.66,3720.11 1130.46,3684.74 1136.26,3766.3 1142.05,4008.43 1147.85,4080.24 1165.24,4157.47 1171.04,4159.99 1176.84,4046.32 1182.63,4162.52 1188.43,4175.87 1211.62,4241.91 1217.42,4385.89 1223.21,4257.07 1229.01,4245.52 1252.2,4420.9 1257.99,4374.34 1263.79,4422.7 1269.59,4256.71 1286.98,4237.58 1292.78,4216.65 1298.57,4117.05 1304.37,4119.94 1310.17,4071.22 1333.35,4028.64 1339.15,4054.98 1344.95,4052.82 1350.75,3959 1368.14,3842.08 1373.93,3790.84 1379.73,3815.01 1385.53,3739.23 1391.32,3668.15 1408.72,3773.88 1414.51,3727.33 1420.31,3686.19 1426.11,3491.69 1431.9,3358.89 1449.29,3458.85 1455.09,3353.48 1460.89,3451.99 1466.69,3489.88 1472.48,3476.51 1489.87,3373.87 1495.67,3397.36 1501.47,3320.38 1507.26,3378.93 1513.06,3420.85 1536.25,3567.94 1542.05,3552.4 1547.84,3534.7 1553.64,3631.91 1571.03,3588.18 1576.83,3606.62 1582.63,3682.51 1588.42,3660.83 1594.22,3475.79 1611.61,3374.59 1617.41,3455.19 1623.2,3409.29 1629,3491.69 1634.8,3567.22 1651.95,3496.02 1657.74,3419.41 1663.54,3404.95 1669.34,3301.59 1675.14,3332.31 1692.53,3245.57 1698.32,3177.62 1704.12,3230.03 1709.92,3190.27 1715.71,3142.57 1733.11,3213.76 1738.9,3236.53 1744.7,3123.77 1750.5,3066.31 1756.29,2974.51 1773.68,2928.61 1779.48,2948.13 1785.28,3015.71 1791.08,2983.18 1814.26,3078.24 1820.06,3122.69 1825.86,3147.99 1831.65,2950.66 1837.45,2963.31 1854.84,2962.58 1860.64,2917.77 1866.44,2875.85 1872.23,2911.27 1878.03,2970.17 1895.42,2958.97 1901.22,3015.35 1907.02,3015.71 1912.81,2847.66 1918.61,2801.76 1936,2805.01 1941.8,2842.96 1947.59,2882.35 1953.39,2942.35 1959.19,2661.17 1976.58,2663.7 1982.38,2726.22 1988.17,2661.53 1993.97,2654.66 1999.77,2688.68 2017.16,2706.78 2022.95,2706.78 2028.75,2684.34 2034.55,2598.93 2040.35,2594.95 2057.74,2629.69 2063.53,2725.24 2069.33,2715.1 2075.13,2673.48 2080.92,2585.18 2104.11,2517.5 2109.91,2519.31 2115.71,2416.53 2121.5,2385.4 2138.89,2434.99 2144.69,2448.38 2150.49,2498.68 2156.29,2399.16 2162.08,2385.04 2179.47,2282.62 2185.27,2299.99 2191.07,2276.83 2196.86,2202.28 2202.66,2241.73 2225.85,2238.47 2231.65,2276.47 2237.44,2166.45 2243.24,2178.03 2260.63,2229.06 2266.43,2128.09 2272.23,2085.02 2278.02,2072.71 2283.82,1914.2 2301.21,1968.85 2312.8,2009.74 2318.6,1992.37 2324.4,2033.27 2341.79,2108.18 2347.59,2127.36 2353.38,2066.2 2359.18,2038.33 2364.98,2032.9 2382.37,1913.47 2388.17,1922.88 2393.96,1873.3 2399.76,1944.6 2405.56,1987.66 2422.95,1958.35 2428.74,1926.86 2434.54,1895.02 2440.34,1941.34 2446.13,1846.88 2463.53,1824.44 2469.32,1854.85 2475.12,1964.5 2480.92,2015.53 2486.71,2347.76 2504.1,2461.4 2509.9,2427.02 2515.7,2485.29 2521.5,2493.25 2527.29,2491.08 2544.68,2430.56 2550.48,2503.4 2556.28,2535.29 2562.07,2628.43 2567.87,2610.67 2585.26,2561.75 2591.06,2511.37 2596.86,2370.4 2602.65,2542.18 2608.45,2461.36 2625.84,2404.1 2631.64,2261.68 2637.44,2133.75 2643.23,2125.78 2649.03,2068.16 2672.22,2059.46 2678.01,2305.53 2683.81,2499.41 2689.61,2476.94 2707,2434.18 2712.8,2545.08 2718.59,2620.82 2724.39,2565.37 2730.19,2591.83 2747.58,2484.55 2753.38,2444.69 2759.17,2574.43 2764.97,2630.96 2770.77,2599.8 2788.16,2553.05 2793.95,2702.36 2799.75,2757.8 2805.55,2748.38 2811.35,2729.54 2828.74,2637.49 2834.53,2686.41 2840.33,2640.75 2846.13,2595.45 2851.92,2501.95 2869.31,2447.59 2875.11,2469.33 2880.91,2418.24 2886.71,2385.26 2892.5,2452.66 2909.89,2457.37 2915.69,2514.27 2921.49,2561.75 2927.28,2575.52 2933.08,2669.01 2950.47,2664.67 2956.27,2648.72 2962.07,2733.52 2967.86,2886.09 2973.66,2837.89 2991.05,2762.88 2996.85,2745.48 3002.65,2629.51 3008.44,2499.05 3014.24,2532.39 3031.87,2438.89 3037.67,2345.03 3043.47,2306.26 3049.26,2323.65 3055.06,2170.15 3072.45,2228.21 3078.25,2132.42 3084.04,2111.73 3089.84,2050.04 3095.64,2050.77 3113.03,1986.9 3118.83,2016.3 3124.62,1991.98 3136.22,2040.61 3153.61,2047.14 3159.41,2025 3165.2,2062.38 3171,2041.33 3176.8,1994.52 3194.19,2060.2 3199.98,1915.42 3205.78,1955.33 3211.58,1884.57 3217.38,1832.32 3234.77,1924.12 3240.56,1868.6 3246.36,1750.67 3252.16,1745.23 3257.95,1764.82 3275.35,1825.79 3281.14,1787.68 3286.94,1864.25 3292.74,1869.69 3298.53,1908.88 3321.72,1928.84 3327.52,1925.21 3333.32,1909.61 3339.11,1947.71 3362.3,2197.73 3368.1,2248.17 3373.89,2333.08 3379.69,2359.58 3397.08,2200.64 3402.88,2215.88 3408.68,2177.77 3414.47,2199.55 3420.27,2187.57 3443.46,2270.67 3449.26,2305.14 3455.05,2089.23 3460.85,1982.91 3478.24,1898.36 3484.04,1851.55 3489.83,1876.23 3495.63,1888.2 3501.43,1951.7 3518.82,1976.74 3524.62,2110.64 3530.41,2242.73 3536.21,2153.46 3542.01,2190.11 3559.4,2123.71 3565.19,2064.92 3570.99,2060.93 3576.79,2100.48 3582.59,2072.5 3599.98,2134.27 3605.77,2210.94 3611.57,2243.27 3617.37,2253.81 3623.16,2310.13 3646.35,2337.38 3652.15,2309.76 3657.95,2235.28 3663.74,2302.5 3681.13,2351.91 3686.93,2298.5 3692.73,2342.47 3698.53,2366.81 3704.32,2406.41 3721.71,2572.1 3727.51,2753.04 3733.31,2789.37 3739.1,2793.73 3744.9,2730.87 3762.05,2657.48 3767.85,2640.04 3773.64,2716.34 3779.44,2648.4 3785.24,2662.2 3802.63,2622.24 3808.43,2536.49 3814.22,2442.38 3820.02,2707.62 3825.82,2674.56 3843.21,2726.51 3849.01,2767.93 3854.8,2637.13 3860.6,2703.62 3883.79,2756.31 3889.58,2799.55 3895.38,2770.12 3901.18,2800.27 3906.98,2772.66 3924.37,2813.72 3930.16,2769.39 3935.96,2838.06 3941.76,2574.28 3947.55,2519.41 3964.95,2659.66 3970.74,2779.92 3976.54,2830.07 3982.34,2864.95 3988.13,2939.07 4005.52,2908.55 4011.32,2870.03 4017.12,2793 4022.92,2761.39 4028.71,2782.83 4046.1,2630.23 4051.9,2745.41 4057.7,2782.83 4063.49,2647.31 4069.29,2271.25 4086.68,2331.93 4092.48,2306.86 4098.28,2294.5 4104.07,2228.01 4109.87,2274.22 4127.26,2156.7 4133.06,2114.86 4138.86,2031.54 4144.65,2027.18 4150.45,2026.09 4167.84,1983.52 4173.64,1935.86 4179.43,1988.61 4185.23,2134.87 4191.03,2022.09 4214.22,2021.72 4220.01,2010.81 4225.81,1974.42 4231.61,1939.5 4249,1874.73 4254.79,1863.09 4260.59,1807.79 4266.39,1858.36 4272.19,1770.68 4289.58,1907.84 4295.37,1397.39 4301.17,1182 4306.97,1139.43 4312.76,1203.1 4330.16,1051.02 4335.95,1137.61 4347.55,1305.34 4353.34,1385.02 4370.73,1361.37 4376.53,1327.53 4382.33,1175.45 4388.13,1144.52 4393.92,1271.14 4411.31,1048.11 4417.11,920.041 4422.91,873.47 4434.5,699.195 4451.89,645.348 4457.69,614.059 4463.49,457.611 4469.28,654.444 4475.08,546.386 4492.47,405.947 4498.27,390.666 4504.07,606.782 4509.86,777.783 4515.66,773.053 4533.05,785.787 4538.85,747.585 4544.64,982.984 4550.44,1021.19 4556.24,1004.09 4573.63,993.898 4579.43,973.524 4585.22,854.187 4591.02,989.532 4596.82,934.958 4614.21,1320.25 4620,1394.48 4625.8,1300.24 "></polyline>
<polyline clip-path="url(#clip282)" style="stroke:#e26f46; stroke-linecap:round; stroke-linejoin:round; stroke-width:4; stroke-opacity:1; fill:none" points="394.002,2994.53 399.799,3019.77 405.596,2893.85 411.393,2898.11 417.19,2793.55 434.58,2769.17 440.377,2757.61 446.174,2802.32 451.971,2788.4 457.768,2867.68 475.159,2997.5 480.956,3010.79 486.753,2993.51 492.55,2909.8 498.347,3112.75 515.738,3151.56 521.535,3215.33 527.332,3260.03 533.129,3243.03 538.926,3304.13 562.114,3327.19 567.911,3224.35 573.708,3186.61 579.505,3098.83 596.896,3037.07 602.693,3292.04 608.49,3272.93 614.287,3337 620.084,3377.2 637.475,3339.1 643.272,3402.17 649.069,3496.85 654.866,3542.68 660.663,3635.59 678.054,3690.38 683.851,3701.49 689.648,3598.56 695.445,3711.28 701.242,3789.97 718.633,3656.82 724.43,3495.42 730.227,3506.39 736.024,3562 741.821,3712.44 759.212,3751.56 765.009,3785.35 770.806,3802.29 776.603,3669.04 782.4,3793.63 799.791,3657.51 805.588,3597.21 811.385,3632.82 817.182,3674.97 822.979,3550.19 840.37,3486.22 846.167,3397.6 851.964,3438.51 857.761,3471.93 863.558,3337.42 880.948,3379.14 886.745,3401.92 892.542,3540.24 898.339,3597.34 904.136,3524.66 921.769,3472.65 927.566,3442.08 933.363,3556.19 939.16,3258.07 944.957,3205.62 962.348,3256.8 968.145,3207.34 973.942,3254.6 979.739,3272.14 985.536,3245.2 1002.93,3267.29 1008.72,3190.34 1014.52,3156.36 1026.11,3158 1043.51,3247.21 1049.3,3256.26 1055.1,3080.54 1060.9,3085.62 1066.69,3092.61 1084.08,3197.14 1089.88,3279.75 1095.68,3290.28 1101.48,3247.82 1107.27,3289.62 1124.66,3209.02 1130.46,3167.28 1136.26,3202.19 1142.05,3345.04 1147.85,3407.29 1165.24,3457.07 1171.04,3451.39 1176.84,3369.87 1182.63,3450.28 1188.43,3418.1 1211.62,3440.44 1217.42,3506.48 1223.21,3411.71 1229.01,3425.74 1252.2,3447.77 1257.99,3406.41 1263.79,3470.79 1269.59,3346 1286.98,3350.29 1292.78,3311.32 1298.57,3239.07 1304.37,3219.62 1310.17,3196.78 1333.35,3208.43 1339.15,3297.53 1344.95,3340.59 1350.75,3234.77 1368.14,3167.05 1373.93,3171.16 1379.73,3172.2 1385.53,3108.78 1391.32,3094.24 1408.72,3169.98 1414.51,3085.58 1420.31,3024.45 1426.11,2937.58 1431.9,2999.67 1449.29,3036.11 1455.09,2960.19 1460.89,3026.38 1466.69,3078.55 1472.48,3065.69 1489.87,2998.51 1495.67,3000.17 1501.47,2983.72 1507.26,3065.76 1513.06,3082 1536.25,3199.29 1542.05,3208.31 1547.84,3177.8 1553.64,3238.46 1571.03,3220.95 1576.83,3238.3 1582.63,3265.21 1588.42,3222.23 1594.22,3129.99 1611.61,3126.01 1617.41,3215.03 1623.2,3206.94 1629,3312.66 1634.8,3394.05 1651.95,3402.41 1657.74,3311.26 1663.54,3350.52 1669.34,3252.46 1675.14,3315.07 1692.53,3264.95 1698.32,3191.35 1704.12,3285.9 1709.92,3269.04 1715.71,3237.09 1733.11,3227.71 1738.9,3236.69 1744.7,3155.57 1750.5,3122.55 1756.29,3038.65 1773.68,3016.84 1779.48,3051.14 1785.28,3065.81 1791.08,3044.8 1814.26,3038.94 1820.06,3039.18 1825.86,3063.55 1831.65,2985.69 1837.45,2998 1854.84,2978.38 1860.64,2973.29 1866.44,2973.79 1872.23,3009.27 1878.03,3003.92 1895.42,2998.87 1901.22,3092.71 1907.02,3115.15 1912.81,3001.29 1918.61,2952.32 1936,2954.63 1941.8,3023.91 1947.59,3065.28 1953.39,3107.64 1959.19,3000 1976.58,2997.32 1982.38,3024.5 1988.17,2998 1993.97,3008.08 1999.77,3017.46 2017.16,2999.96 2022.95,3037.8 2028.75,2967.69 2034.55,2911.34 2040.35,2920.04 2057.74,2919.11 2063.53,2986.61 2069.33,3030.14 2075.13,2978.44 2080.92,2900.72 2104.11,2900.62 2109.91,2937.48 2115.71,2878.38 2121.5,2790.36 2138.89,2802.67 2144.69,2788.24 2150.49,2811.67 2156.29,2773.78 2162.08,2766.71 2179.47,2709.22 2185.27,2666.07 2191.07,2660.93 2196.86,2584.53 2202.66,2607.85 2225.85,2637.8 2231.65,2670.83 2237.44,2647.59 2243.24,2695.73 2260.63,2723.72 2266.43,2652.58 2272.23,2654.8 2278.02,2626.71 2283.82,2549.33 2301.21,2541.85 2312.8,2554.43 2318.6,2604.98 2324.4,2623.11 2341.79,2607.93 2347.59,2565.28 2353.38,2518.08 2359.18,2463.73 2364.98,2470.36 2382.37,2445.44 2388.17,2399.26 2393.96,2383.85 2399.76,2428.11 2405.56,2426 2422.95,2399.75 2428.74,2381.36 2434.54,2382.37 2440.34,2424.47 2446.13,2360.17 2463.53,2350.51 2469.32,2368.06 2475.12,2458.93 2480.92,2475.43 2486.71,2509.66 2504.1,2451.68 2509.9,2479.03 2515.7,2524.46 2521.5,2522.86 2527.29,2529.71 2544.68,2492.89 2550.48,2567.29 2556.28,2615.39 2562.07,2664.13 2567.87,2665.06 2585.26,2621.93 2591.06,2639.47 2596.86,2569.94 2602.65,2655.59 2608.45,2613.41 2625.84,2573.82 2631.64,2481.54 2637.44,2456.8 2643.23,2467.15 2649.03,2455.51 2672.22,2482.69 2678.01,2527.66 2683.81,2548.24 2689.61,2539.13 2707,2496.13 2712.8,2532.8 2718.59,2524.85 2724.39,2470.82 2730.19,2549.41 2747.58,2544.81 2753.38,2558.55 2759.17,2618.45 2764.97,2722.03 2770.77,2736.29 2788.16,2711.36 2793.95,2803.05 2799.75,2801.64 2805.55,2765.5 2811.35,2782.22 2828.74,2781.73 2834.53,2866.29 2840.33,2817.08 2846.13,2825.06 2851.92,2752.88 2869.31,2713.91 2875.11,2681.52 2880.91,2654.67 2886.71,2693.9 2892.5,2725.22 2909.89,2659.44 2915.69,2660.05 2921.49,2744.13 2927.28,2796.63 2933.08,2873.88 2950.47,2884.09 2956.27,2840.13 2962.07,2927.52 2967.86,2998.59 2973.66,3027.09 2991.05,2956.14 2996.85,2917.43 3002.65,2854.22 3008.44,2739.56 3014.24,2681.37 3031.87,2670.41 3037.67,2652.62 3043.47,2646.31 3049.26,2697.14 3055.06,2599.74 3072.45,2605.03 3078.25,2484.31 3084.04,2474.01 3089.84,2466.32 3095.64,2458.02 3113.03,2410.16 3118.83,2423.35 3124.62,2396.91 3136.22,2393 3153.61,2405.79 3159.41,2399.39 3165.2,2405.57 3171,2380.87 3176.8,2342.38 3194.19,2378.03 3199.98,2381.76 3205.78,2407.35 3211.58,2355.34 3217.38,2328.4 3234.77,2302.48 3240.56,2271.98 3246.36,2181.03 3252.16,2163.16 3257.95,2163.67 3275.35,2133.01 3281.14,2093.12 3286.94,2193.57 3292.74,2124.13 3298.53,2112.83 3321.72,2083.96 3327.52,2074.16 3333.32,2071.62 3339.11,2091.02 3362.3,2129.76 3368.1,2184.3 3373.89,2207.44 3379.69,2195.16 3397.08,2100.05 3402.88,2110.15 3408.68,2071.48 3414.47,2076.09 3420.27,2070.94 3443.46,2096.54 3449.26,2134.95 3455.05,2075.08 3460.85,1990.62 3478.24,1975.39 3484.04,1955.06 3489.83,1949.39 3495.63,1912.65 3501.43,1917.22 3518.82,1864.2 3524.62,1868.45 3530.41,1982.24 3536.21,1895.39 3542.01,1820.18 3559.4,1842.85 3565.19,1826.47 3570.99,1767.89 3576.79,1763.8 3582.59,1722.63 3599.98,1729.47 3605.77,1827.99 3611.57,1759.91 3617.37,1718.15 3623.16,1752.81 3646.35,1795.94 3652.15,1786.91 3657.95,1635.94 3663.74,1633.4 3681.13,1661.05 3686.93,1648.64 3692.73,1660.72 3698.53,1622.69 3704.32,1564.14 3721.71,1572.93 3727.51,1647.97 3733.31,1610.51 3739.1,1535.04 3744.9,1583.35 3762.05,1591.6 3767.85,1509.35 3773.64,1523.64 3779.44,1544.91 3785.24,1592.82 3802.63,1546.44 3808.43,1504.7 3814.22,1438.55 3820.02,1414.29 3825.82,1424.83 3843.21,1447.77 3849.01,1468.73 3854.8,1404.3 3860.6,1395.9 3883.79,1411.07 3889.58,1465.53 3895.38,1457.38 3901.18,1549.61 3906.98,1467.64 3924.37,1470.44 3930.16,1459.65 3935.96,1530.34 3941.76,1475.22 3947.55,1583.75 3964.95,1672.11 3970.74,1687.05 3976.54,1728.94 3982.34,1744.85 3988.13,1807.82 4005.52,1745.6 4011.32,1659.59 4017.12,1658.04 4022.92,1691.34 4028.71,1617.39 4046.1,1594.14 4051.9,1709.6 4057.7,1734.42 4063.49,1668.7 4069.29,1577.47 4086.68,1501.5 4092.48,1491.52 4098.28,1491.56 4104.07,1453.67 4109.87,1441.33 4127.26,1443.14 4133.06,1406.9 4138.86,1318.71 4144.65,1334.56 4150.45,1325.71 4167.84,1318.74 4173.64,1299.69 4179.43,1320.35 4185.23,1376.54 4191.03,1323.63 4214.22,1321.74 4220.01,1377.82 4225.81,1422.97 4231.61,1362.67 4249,1354.22 4254.79,1342.83 4260.59,1252.89 4266.39,1254.42 4272.19,1262.99 4289.58,1243.19 4295.37,1222.34 4301.17,1156.76 4306.97,1138.53 4312.76,1141.6 4330.16,1081.87 4335.95,1062.08 4347.55,1081.96 4353.34,1094.23 4370.73,1118.26 4376.53,1087.51 4382.33,1075.17 4388.13,1068.04 4393.92,1100.17 4411.31,1079.21 4417.11,1030.54 4422.91,990.357 4434.5,947.073 4451.89,938.953 4457.69,933.028 4463.49,851.352 4469.28,922.182 4475.08,877.979 4492.47,855.211 4498.27,803.592 4504.07,916.83 4509.86,979.497 4515.66,1036.3 4533.05,951.061 4538.85,963.5 4544.64,1148.01 4550.44,1188.05 4556.24,1102.15 4573.63,1095.78 4579.43,1134.66 4585.22,1011.48 4591.02,1119.96 4596.82,1263.6 4614.21,1493.48 4620,1416.44 4625.8,1474.59 "></polyline>
<polyline clip-path="url(#clip282)" style="stroke:#3da44d; stroke-linecap:round; stroke-linejoin:round; stroke-width:4; stroke-opacity:1; fill:none" points="394.002,2994.53 399.799,3065.24 405.596,2895.73 411.393,2930.91 417.19,2805.35 434.58,2767.37 440.377,2779.35 446.174,2856.59 451.971,2843.8 457.768,2965.99 475.159,3118.02 480.956,3118.15 486.753,3094.55 492.55,2996.97 498.347,3230.69 515.738,3288.96 521.535,3352.16 527.332,3383.6 533.129,3398.2 538.926,3470.66 562.114,3511.04 567.911,3395.01 573.708,3362.02 579.505,3244.51 596.896,3172.12 602.693,3469.39 608.49,3428.94 614.287,3507.54 620.084,3556.37 637.475,3515.68 643.272,3567.34 649.069,3663.57 654.866,3735.62 660.663,3829.04 678.054,3859.58 683.851,3847.09 689.648,3742.75 695.445,3890.3 701.242,3966.35 718.633,3853.7 724.43,3684.14 730.227,3697.18 736.024,3732.57 741.821,3930.28 759.212,3982.1 765.009,4036.54 770.806,4040.81 776.603,3931.81 782.4,4085.77 799.791,3919.29 805.588,3873.92 811.385,3917.08 817.182,3947.93 822.979,3832.9 840.37,3789.26 846.167,3673.47 851.964,3780.63 857.761,3864.39 863.558,3718.88 880.948,3772.57 886.745,3818.27 892.542,3990.22 898.339,4075.65 904.136,4013.5 921.769,3971.57 927.566,3947.29 933.363,4070.84 939.16,3713.38 944.957,3615.12 962.348,3674.83 968.145,3598.64 973.942,3680.73 979.739,3698.91 985.536,3698.39 1002.93,3755.49 1008.72,3685.07 1014.52,3632.98 1026.11,3660.67 1043.51,3743.75 1049.3,3774.62 1055.1,3547.16 1060.9,3540.38 1066.69,3550.22 1084.08,3654.29 1089.88,3760.01 1095.68,3786.47 1101.48,3728.48 1107.27,3764.83 1124.66,3699.48 1130.46,3646.37 1136.26,3686.73 1142.05,3856 1147.85,3905.38 1165.24,3980.25 1171.04,3979.74 1176.84,3903.52 1182.63,4013.09 1188.43,4002.88 1211.62,4070.82 1217.42,4136.55 1223.21,4012.16 1229.01,4017.62 1252.2,4054.96 1257.99,4021.24 1263.79,4093.36 1269.59,3969.32 1286.98,3938.15 1292.78,3887.9 1298.57,3799.1 1304.37,3766.49 1310.17,3729.82 1333.35,3722.33 1339.15,3787.2 1344.95,3836.4 1350.75,3701.04 1368.14,3595.82 1373.93,3609.98 1379.73,3619.8 1385.53,3526.3 1391.32,3474.96 1408.72,3582.01 1414.51,3492.42 1420.31,3383.54 1426.11,3202.93 1431.9,3294 1449.29,3350.13 1455.09,3243.81 1460.89,3339.29 1466.69,3396.1 1472.48,3429.67 1489.87,3348.09 1495.67,3315.98 1501.47,3264.1 1507.26,3364.98 1513.06,3397.19 1536.25,3535.75 1542.05,3528.81 1547.84,3489.67 1553.64,3581.48 1571.03,3547.64 1576.83,3553.02 1582.63,3588.75 1588.42,3549.52 1594.22,3443.35 1611.61,3449.58 1617.41,3517.88 1623.2,3496.43 1629,3608.07 1634.8,3701.76 1651.95,3678.3 1657.74,3565.88 1663.54,3563.11 1669.34,3430.07 1675.14,3470.83 1692.53,3449.67 1698.32,3362.97 1704.12,3452.29 1709.92,3397.13 1715.71,3379.95 1733.11,3405.85 1738.9,3430.63 1744.7,3331.91 1750.5,3290.93 1756.29,3193.02 1773.68,3208.27 1779.48,3237.92 1785.28,3298.74 1791.08,3255.94 1814.26,3257.63 1820.06,3282.29 1825.86,3330.45 1831.65,3219.16 1837.45,3239.26 1854.84,3223.17 1860.64,3225.2 1866.44,3223.4 1872.23,3269.28 1878.03,3263.22 1895.42,3279.79 1901.22,3391.6 1907.02,3365.68 1912.81,3230.45 1918.61,3190.83 1936,3197.4 1941.8,3259.44 1947.59,3285.36 1953.39,3313.04 1959.19,3186.68 1976.58,3176.58 1982.38,3212.92 1988.17,3153.31 1993.97,3142.95 1999.77,3163.51 2017.16,3125.71 2022.95,3136.12 2028.75,3062.12 2034.55,2973.69 2040.35,2988.22 2057.74,2958.68 2063.53,3034.09 2069.33,3069.83 2075.13,2969.34 2080.92,2838.94 2104.11,2819.33 2109.91,2857.92 2115.71,2780.09 2121.5,2714.42 2138.89,2719.75 2144.69,2697.68 2150.49,2778.25 2156.29,2715.48 2162.08,2705.79 2179.47,2610.54 2185.27,2558.21 2191.07,2533.24 2196.86,2459.8 2202.66,2503.6 2225.85,2514.07 2231.65,2591.62 2237.44,2531.3 2243.24,2596.16 2260.63,2669.79 2266.43,2566.5 2272.23,2549.55 2278.02,2549.75 2283.82,2457.4 2301.21,2443.85 2312.8,2455.65 2318.6,2508.55 2324.4,2517.15 2341.79,2505.52 2347.59,2470.19 2353.38,2395.85 2359.18,2292.69 2364.98,2304.37 2382.37,2242.72 2388.17,2191.66 2393.96,2189.6 2399.76,2328.04 2405.56,2342.37 2422.95,2330.13 2428.74,2289.87 2434.54,2297.99 2440.34,2334.24 2446.13,2209.03 2463.53,2195.24 2469.32,2224.42 2475.12,2370.25 2480.92,2376.7 2486.71,2400.41 2504.1,2360.41 2509.9,2412.12 2515.7,2488.36 2521.5,2480.86 2527.29,2524.61 2544.68,2457.21 2550.48,2531.09 2556.28,2604.57 2562.07,2678.65 2567.87,2690.93 2585.26,2593.78 2591.06,2589.89 2596.86,2488.82 2602.65,2609.58 2608.45,2550.07 2625.84,2496.29 2631.64,2384.2 2637.44,2348.71 2643.23,2341.35 2649.03,2342.84 2672.22,2347.94 2678.01,2417.69 2683.81,2475.77 2689.61,2469.8 2707,2396.35 2712.8,2464.12 2718.59,2445.34 2724.39,2392.52 2730.19,2494.79 2747.58,2493.89 2753.38,2508.95 2759.17,2607.15 2764.97,2722.31 2770.77,2728.03 2788.16,2700.07 2793.95,2797.64 2799.75,2783.91 2805.55,2732.97 2811.35,2724.5 2828.74,2682.95 2834.53,2799.59 2840.33,2716.66 2846.13,2724.26 2851.92,2624.9 2869.31,2600.05 2875.11,2563.13 2880.91,2517.64 2886.71,2557.79 2892.5,2636.23 2909.89,2560.72 2915.69,2576.8 2921.49,2679.88 2927.28,2740.06 2933.08,2835.13 2950.47,2818.91 2956.27,2761.82 2962.07,2911.5 2967.86,3017.48 2973.66,2995.21 2991.05,2926.41 2996.85,2897.4 3002.65,2798.65 3008.44,2689.33 3014.24,2602.85 3031.87,2583.83 3037.67,2526.95 3043.47,2522 3049.26,2582.57 3055.06,2452.62 3072.45,2466.88 3078.25,2313.45 3084.04,2309 3089.84,2304.39 3095.64,2298.84 3113.03,2224.12 3118.83,2263.84 3124.62,2232.9 3136.22,2239.95 3153.61,2244.56 3159.41,2225.43 3165.2,2236.36 3171,2251.52 3176.8,2214.5 3194.19,2270.65 3199.98,2249.78 3205.78,2288.86 3211.58,2198.07 3217.38,2168.02 3234.77,2154.62 3240.56,2107.22 3246.36,2013.01 3252.16,2000.04 3257.95,1975.45 3275.35,1932.75 3281.14,1886.53 3286.94,1992.35 3292.74,1905.01 3298.53,1891.34 3321.72,1853.01 3327.52,1841.45 3333.32,1843.35 3339.11,1882.71 3362.3,1997.99 3368.1,2079.6 3373.89,2118.07 3379.69,2111.6 3397.08,1961.43 3402.88,1954.88 3408.68,1902.3 3414.47,1902.04 3420.27,1900.84 3443.46,1914.18 3449.26,1955.86 3455.05,1861.9 3460.85,1741.96 3478.24,1718.8 3484.04,1687.96 3489.83,1661.66 3495.63,1648.24 3501.43,1674.14 3518.82,1593.02 3524.62,1648.52 3530.41,1811 3536.21,1718.16 3542.01,1592.6 3559.4,1607.29 3565.19,1601.97 3570.99,1532.62 3576.79,1515.2 3582.59,1422.69 3599.98,1445.29 3605.77,1580.08 3611.57,1484.46 3617.37,1462.37 3623.16,1523.69 3646.35,1591.74 3652.15,1615.18 3657.95,1398.75 3663.74,1419.79 3681.13,1429.46 3686.93,1401.72 3692.73,1442.85 3698.53,1375.12 3704.32,1289.15 3721.71,1320.82 3727.51,1446.68 3733.31,1403.48 3739.1,1289.88 3744.9,1378.32 3762.05,1409.25 3767.85,1293.52 3773.64,1334.79 3779.44,1357.92 3785.24,1430.9 3802.63,1369.7 3808.43,1339.95 3814.22,1244.77 3820.02,1229.54 3825.82,1216.86 3843.21,1237.7 3849.01,1270 3854.8,1230.63 3860.6,1240.05 3883.79,1231.89 3889.58,1305.35 3895.38,1287.96 3901.18,1395.24 3906.98,1301.56 3924.37,1299 3930.16,1274.26 3935.96,1338.27 3941.76,1210.58 3947.55,1336.05 3964.95,1472.31 3970.74,1481.6 3976.54,1567.03 3982.34,1605.49 3988.13,1755.57 4005.52,1676.04 4011.32,1560.8 4017.12,1553.23 4022.92,1600.67 4028.71,1452.17 4046.1,1426.25 4051.9,1579.03 4057.7,1603.62 4063.49,1493.01 4069.29,1344.86 4086.68,1254.24 4092.48,1262.08 4098.28,1276.08 4104.07,1255.65 4109.87,1258.18 4127.26,1235.93 4133.06,1178.18 4138.86,1069.57 4144.65,1090.27 4150.45,1096.07 4167.84,1044.92 4173.64,1027.18 4179.43,1041.78 4185.23,1072.56 4191.03,985.767 4214.22,939.22 4220.01,985.865 4225.81,1072.06 4231.61,1073.03 4249,1029.04 4254.79,1015.71 4260.59,860.294 4266.39,867.237 4272.19,886.021 4289.58,858.12 4295.37,787.179 4301.17,662.75 4306.97,634.978 4312.76,624.963 4330.16,545.982 4335.95,543.534 4347.55,609.598 4353.34,624.738 4370.73,715.182 4376.53,611.449 4382.33,570.342 4388.13,545.202 4393.92,604.427 4411.31,535.515 4417.11,465.308 4422.91,390.365 4434.5,313.112 4451.89,289.165 4457.69,277.163 4463.49,174.685 4469.28,345.688 4475.08,291.65 4492.47,256.832 4498.27,239.56 4504.07,480.265 4509.86,539.311 4515.66,607.085 4533.05,475.262 4538.85,480.063 4544.64,787.714 4550.44,863.197 4556.24,780.447 4573.63,774.661 4579.43,879.309 4585.22,666.996 4591.02,857.358 4596.82,1053.71 4614.21,1324.31 4620,1245.97 4625.8,1326.32 "></polyline>
<path clip-path="url(#clip280)" d="M416.571 404.701 L988.428 404.701 L988.428 197.341 L416.571 197.341  Z" fill="#ffffff" fill-rule="evenodd" fill-opacity="1"></path>
<polyline clip-path="url(#clip280)" style="stroke:#000000; stroke-linecap:round; stroke-linejoin:round; stroke-width:4; stroke-opacity:1; fill:none" points="416.571,404.701 988.428,404.701 988.428,197.341 416.571,197.341 416.571,404.701 "></polyline>
<polyline clip-path="url(#clip280)" style="stroke:#009af9; stroke-linecap:round; stroke-linejoin:round; stroke-width:4; stroke-opacity:1; fill:none" points="466.412,249.181 765.46,249.181 "></polyline>
<path clip-path="url(#clip280)" d="M831.134 236.507 L824.791 253.706 L837.5 253.706 L831.134 236.507 M828.495 231.901 L833.796 231.901 L846.967 266.461 L842.106 266.461 L838.958 257.595 L823.379 257.595 L820.231 266.461 L815.301 266.461 L828.495 231.901 Z" fill="#000000" fill-rule="nonzero" fill-opacity="1"></path><path clip-path="url(#clip280)" d="M864.884 236.507 L858.541 253.706 L871.25 253.706 L864.884 236.507 M862.245 231.901 L867.546 231.901 L880.717 266.461 L875.856 266.461 L872.708 257.595 L857.129 257.595 L853.981 266.461 L849.051 266.461 L862.245 231.901 Z" fill="#000000" fill-rule="nonzero" fill-opacity="1"></path><path clip-path="url(#clip280)" d="M890.439 235.743 L890.439 248.729 L896.319 248.729 Q899.583 248.729 901.365 247.039 Q903.148 245.35 903.148 242.225 Q903.148 239.123 901.365 237.433 Q899.583 235.743 896.319 235.743 L890.439 235.743 M885.763 231.901 L896.319 231.901 Q902.129 231.901 905.092 234.539 Q908.078 237.155 908.078 242.225 Q908.078 247.34 905.092 249.956 Q902.129 252.572 896.319 252.572 L890.439 252.572 L890.439 266.461 L885.763 266.461 L885.763 231.901 Z" fill="#000000" fill-rule="nonzero" fill-opacity="1"></path><path clip-path="url(#clip280)" d="M914.351 231.901 L919.027 231.901 L919.027 262.525 L935.856 262.525 L935.856 266.461 L914.351 266.461 L914.351 231.901 Z" fill="#000000" fill-rule="nonzero" fill-opacity="1"></path><polyline clip-path="url(#clip280)" style="stroke:#e26f46; stroke-linecap:round; stroke-linejoin:round; stroke-width:4; stroke-opacity:1; fill:none" points="466.412,301.021 765.46,301.021 "></polyline>
<path clip-path="url(#clip280)" d="M840.856 313.37 L840.856 304.088 L833.217 304.088 L833.217 300.245 L845.486 300.245 L845.486 315.083 Q842.778 317.004 839.514 318 Q836.25 318.972 832.546 318.972 Q824.444 318.972 819.861 314.25 Q815.301 309.504 815.301 301.055 Q815.301 292.583 819.861 287.861 Q824.444 283.116 832.546 283.116 Q835.926 283.116 838.958 283.949 Q842.014 284.782 844.583 286.403 L844.583 291.379 Q841.99 289.18 839.074 288.069 Q836.157 286.958 832.94 286.958 Q826.597 286.958 823.403 290.5 Q820.231 294.041 820.231 301.055 Q820.231 308.046 823.403 311.588 Q826.597 315.129 832.94 315.129 Q835.416 315.129 837.361 314.713 Q839.305 314.273 840.856 313.37 Z" fill="#000000" fill-rule="nonzero" fill-opacity="1"></path><path clip-path="url(#clip280)" d="M874.745 284.875 L874.745 289.435 Q872.083 288.162 869.722 287.537 Q867.361 286.912 865.162 286.912 Q861.342 286.912 859.259 288.393 Q857.199 289.875 857.199 292.606 Q857.199 294.898 858.564 296.079 Q859.953 297.236 863.796 297.954 L866.62 298.532 Q871.851 299.528 874.328 302.051 Q876.828 304.551 876.828 308.764 Q876.828 313.787 873.449 316.379 Q870.092 318.972 863.588 318.972 Q861.134 318.972 858.356 318.416 Q855.602 317.861 852.639 316.773 L852.639 311.958 Q855.486 313.555 858.217 314.365 Q860.949 315.176 863.588 315.176 Q867.592 315.176 869.768 313.602 Q871.944 312.028 871.944 309.111 Q871.944 306.565 870.37 305.129 Q868.819 303.694 865.254 302.977 L862.407 302.421 Q857.176 301.379 854.838 299.157 Q852.5 296.935 852.5 292.977 Q852.5 288.393 855.717 285.754 Q858.958 283.116 864.629 283.116 Q867.06 283.116 869.583 283.555 Q872.106 283.995 874.745 284.875 Z" fill="#000000" fill-rule="nonzero" fill-opacity="1"></path><path clip-path="url(#clip280)" d="M888.796 287.583 L888.796 300.569 L894.675 300.569 Q897.939 300.569 899.722 298.879 Q901.504 297.19 901.504 294.065 Q901.504 290.963 899.722 289.273 Q897.939 287.583 894.675 287.583 L888.796 287.583 M884.12 283.741 L894.675 283.741 Q900.486 283.741 903.448 286.379 Q906.435 288.995 906.435 294.065 Q906.435 299.18 903.448 301.796 Q900.486 304.412 894.675 304.412 L888.796 304.412 L888.796 318.301 L884.12 318.301 L884.12 283.741 Z" fill="#000000" fill-rule="nonzero" fill-opacity="1"></path><path clip-path="url(#clip280)" d="M938.587 286.403 L938.587 291.333 Q936.226 289.134 933.541 288.046 Q930.879 286.958 927.87 286.958 Q921.944 286.958 918.796 290.592 Q915.647 294.204 915.647 301.055 Q915.647 307.884 918.796 311.518 Q921.944 315.129 927.87 315.129 Q930.879 315.129 933.541 314.041 Q936.226 312.953 938.587 310.754 L938.587 315.639 Q936.133 317.305 933.379 318.139 Q930.647 318.972 927.592 318.972 Q919.745 318.972 915.231 314.18 Q910.717 309.365 910.717 301.055 Q910.717 292.722 915.231 287.93 Q919.745 283.116 927.592 283.116 Q930.694 283.116 933.425 283.949 Q936.18 284.759 938.587 286.403 Z" fill="#000000" fill-rule="nonzero" fill-opacity="1"></path><polyline clip-path="url(#clip280)" style="stroke:#3da44d; stroke-linecap:round; stroke-linejoin:round; stroke-width:4; stroke-opacity:1; fill:none" points="466.412,352.861 765.46,352.861 "></polyline>
<path clip-path="url(#clip280)" d="M815.301 335.581 L819.977 335.581 L819.977 370.141 L815.301 370.141 L815.301 335.581 Z" fill="#000000" fill-rule="nonzero" fill-opacity="1"></path><path clip-path="url(#clip280)" d="M827.616 335.581 L832.639 335.581 L841.227 348.428 L849.861 335.581 L854.884 335.581 L843.773 352.178 L855.625 370.141 L850.602 370.141 L840.879 355.442 L831.088 370.141 L826.041 370.141 L838.379 351.692 L827.616 335.581 Z" fill="#000000" fill-rule="nonzero" fill-opacity="1"></path><path clip-path="url(#clip280)" d="M861.759 335.581 L866.435 335.581 L866.435 370.141 L861.759 370.141 L861.759 335.581 Z" fill="#000000" fill-rule="nonzero" fill-opacity="1"></path><path clip-path="url(#clip280)" d="M901.62 338.243 L901.62 343.173 Q899.259 340.974 896.574 339.886 Q893.911 338.798 890.902 338.798 Q884.976 338.798 881.828 342.432 Q878.68 346.044 878.68 352.895 Q878.68 359.724 881.828 363.358 Q884.976 366.969 890.902 366.969 Q893.911 366.969 896.574 365.881 Q899.259 364.793 901.62 362.594 L901.62 367.479 Q899.166 369.145 896.411 369.979 Q893.68 370.812 890.624 370.812 Q882.777 370.812 878.263 366.02 Q873.75 361.205 873.75 352.895 Q873.75 344.562 878.263 339.77 Q882.777 334.956 890.624 334.956 Q893.726 334.956 896.458 335.789 Q899.212 336.599 901.62 338.243 Z" fill="#000000" fill-rule="nonzero" fill-opacity="1"></path></svg>