<svg class="main-svg" xmlns="http://www.w3.org/2000/svg" xmlns:xlink="http://www.w3.org/1999/xlink" width="845" height="569" style=""><rect x="0" y="0" width="845" height="569" style="fill: rgb(255, 255, 255); fill-opacity: 1;"/><defs id="defs-b87e62"><g class="clips"><clipPath id="clipb87e62xyplot" class="plotclip"><rect width="670" height="359"/></clipPath><clipPath class="axesclip" id="clipb87e62x"><rect x="61" y="0" width="670" height="569"/></clipPath><clipPath class="axesclip" id="clipb87e62y"><rect x="0" y="60" width="845" height="359"/></clipPath><clipPath class="axesclip" id="clipb87e62xy"><rect x="61" y="60" width="670" height="359"/></clipPath></g><g class="gradients"/><g class="patterns"/></defs><g class="bglayer"/><g class="layer-below"><g class="imagelayer"/><g class="shapelayer"/></g><g class="cartesianlayer"><g class="subplot xy"><g class="layer-subplot"><g class="shapelayer"/><g class="imagelayer"/></g><g class="gridlayer"><g class="x"><path class="xgrid crisp" transform="translate(144.64,0)" d="M0,60v359" style="stroke: rgb(211, 211, 211); stroke-opacity: 1; stroke-width: 1px;"/><path class="xgrid crisp" transform="translate(228.27,0)" d="M0,60v359" style="stroke: rgb(211, 211, 211); stroke-opacity: 1; stroke-width: 1px;"/><path class="xgrid crisp" transform="translate(312.82,0)" d="M0,60v359" style="stroke: rgb(211, 211, 211); stroke-opacity: 1; stroke-width: 1px;"/><path class="xgrid crisp" transform="translate(397.38,0)" d="M0,60v359" style="stroke: rgb(211, 211, 211); stroke-opacity: 1; stroke-width: 1px;"/><path class="xgrid crisp" transform="translate(480.09,0)" d="M0,60v359" style="stroke: rgb(211, 211, 211); stroke-opacity: 1; stroke-width: 1px;"/><path class="xgrid crisp" transform="translate(563.73,0)" d="M0,60v359" style="stroke: rgb(211, 211, 211); stroke-opacity: 1; stroke-width: 1px;"/><path class="xgrid crisp" transform="translate(648.28,0)" d="M0,60v359" style="stroke: rgb(211, 211, 211); stroke-opacity: 1; stroke-width: 1px;"/></g><g class="y"><path class="ygrid crisp" transform="translate(0,396.9)" d="M61,0h670" style="stroke: rgb(211, 211, 211); stroke-opacity: 1; stroke-width: 1px;"/><path class="ygrid crisp" transform="translate(0,341.92)" d="M61,0h670" style="stroke: rgb(211, 211, 211); stroke-opacity: 1; stroke-width: 1px;"/><path class="ygrid crisp" transform="translate(0,286.94)" d="M61,0h670" style="stroke: rgb(211, 211, 211); stroke-opacity: 1; stroke-width: 1px;"/><path class="ygrid crisp" transform="translate(0,231.97)" d="M61,0h670" style="stroke: rgb(211, 211, 211); stroke-opacity: 1; stroke-width: 1px;"/><path class="ygrid crisp" transform="translate(0,176.99)" d="M61,0h670" style="stroke: rgb(211, 211, 211); stroke-opacity: 1; stroke-width: 1px;"/><path class="ygrid crisp" transform="translate(0,122.00999999999999)" d="M61,0h670" style="stroke: rgb(211, 211, 211); stroke-opacity: 1; stroke-width: 1px;"/><path class="ygrid crisp" transform="translate(0,67.04)" d="M61,0h670" style="stroke: rgb(211, 211, 211); stroke-opacity: 1; stroke-width: 1px;"/></g></g><g class="zerolinelayer"/><path class="xlines-below"/><path class="ylines-below"/><g class="overlines-below"/><g class="xaxislayer-below"/><g class="yaxislayer-below"/><g class="overaxes-below"/><g class="plot" transform="translate(61,60)" clip-path="url(#clipb87e62xyplot)"><g class="scatterlayer mlayer"><g class="trace scatter traceebfa3e" style="stroke-miterlimit: 2; opacity: 1;"><g class="fills"/><g class="errorbars"/><g class="lines"><path class="js-line" d="M0,226.94L3.68,240.53L4.6,233.91L5.51,252.18L6.43,234.28L7.35,229.6L10.11,242.32L11.03,243.06L11.95,234.4L13.79,249.94L17.46,247.08L20.22,200.51L22.98,184.56L23.9,183.56L24.81,188.12L26.65,229.97L29.41,220.94L30.33,217.41L31.25,221.77L32.17,207.47L33.09,209.23L35.84,208.61L36.76,212.35L38.6,216L39.52,215L43.2,224.05L44.12,233.8L45.03,238.49L45.95,237.82L48.71,253.88L49.63,254.46L50.55,256.58L51.47,274.67L52.39,273.55L55.14,246.46L57.9,278.24L58.82,272.89L61.58,293.88L62.5,274.26L63.42,278.86L64.33,270.65L65.25,274.51L68.01,262.22L68.93,255.67L69.85,259.03L70.77,276.58L71.69,278.82L74.44,264.71L75.36,268.24L76.28,278.41L77.2,276.33L78.12,273.76L80.88,273.01L81.8,279.19L82.72,269.86L87.31,254.3L88.23,253.01L90.07,235.79L90.99,224.84L93.74,232.14L94.66,218.9L95.58,228.86L96.5,218.61L97.42,220.02L100.18,217.2L101.1,224.38L102.02,222.76L102.94,229.23L103.85,219.36L106.61,217.7L107.53,219.07L108.45,222.43L109.37,222.84L110.29,231.23L113.05,226.75L113.96,246.21L114.88,245.17L116.72,235.5L119.48,249.46L120.4,253.37L121.32,266.42L123.16,246.97L125.91,251.87L126.83,257.77L127.75,258.44L128.67,247.55L129.59,255.36L132.35,248.42L133.26,249.25L134.18,249.46L135.1,255.99L136.02,258.77L139.7,260.14L140.62,256.9L141.54,263.22L142.46,253.45L145.21,253.41L147.05,248.3L147.97,252.54L151.65,234.37L152.57,237.86L153.48,235.75L154.4,228.93L155.32,234.46L158.08,226.81L159,219.83L159.92,220.99L161.76,223.44L164.51,216.5L166.35,207.44L167.27,206.15L168.19,194.97L171.87,186.41L172.78,175.81L173.7,181.34L174.62,173.56L177.38,176.1L178.3,171.36L179.22,156.77L180.14,159.56L181.06,168.24L183.81,184.62L184.73,169.24L185.65,172.36L186.57,166.54L187.49,159.22L190.25,157.44L192.09,174.1L193,171.36L193.92,170.45L196.68,171.86L197.6,164.21L198.52,165.92L199.44,165.46L200.36,168.37L203.11,168.58L204.03,170.62L204.95,169.54L205.87,156.93L206.79,156.05L209.55,147.64L210.47,151.51L211.39,167.46L212.3,166.04L213.22,159.84L215.98,153.51L216.9,153.89L218.74,162.54L219.66,158.13L222.41,139.32L223.33,144.69L229.77,124.46L230.69,131.03L231.6,135.36L232.52,156.59L235.28,154.18L236.2,160.13L237.12,156.34L238.04,157.34L238.96,168.71L241.71,181.69L242.63,179.65L243.55,169.58L244.47,165.5L245.39,165.13L248.15,171.58L249.07,185.98L249.99,182.15L250.91,187.69L251.82,182.9L254.58,197.51L256.42,185.61L257.34,180.24L258.26,181.86L261.02,182.23L262.85,190.14L263.77,178.28L264.69,173.78L267.45,166.67L269.29,155.38L270.21,154.47L271.12,157.76L273.88,157.97L274.8,155.14L275.72,157.09L276.64,141.61L277.56,153.14L280.32,156.63L281.23,152.22L282.15,146.1L283.07,148.31L283.99,146.06L286.75,149.56L287.67,148.02L288.59,160.06L289.51,160.27L290.43,151.43L293.18,151.39L294.1,147.22L295.94,118.58L296.86,107.41L299.62,105.45L300.53,103.83L301.45,101.62L303.29,123L306.05,108.7L306.97,87.61L307.89,89.82L308.81,94.03L309.73,102.03L312.48,87.53L314.32,46.84L315.24,49.01L316.16,28.62L318.92,44.09L319.84,49.97L320.75,29.25L321.67,58.6L322.59,63.26L325.35,69.06L326.27,55.55L328.11,41.84L331.78,24.95L332.7,29.29L333.62,28.91L335.46,36.46L338.22,17.95L339.14,27.58L340.05,47.51L340.97,59.68L341.89,58.97L344.65,58.89L345.57,46.84L346.49,44.96L347.41,58.89L348.33,55.22L352,68.85L353.84,90.9L354.76,99.66L357.52,102.95L358.44,110.62L359.36,111L360.27,112.96L361.19,66.64L363.95,48.09L364.87,48.8L365.79,43.67L366.71,55.93L367.63,57.14L370.38,60.19L371.3,46.95L372.22,40.9L373.14,58.27L374.06,72.79L376.82,71.79L377.74,55.47L378.66,56.47L380.49,78.38L384.17,90.82L385.09,108.56L386.01,97.42L386.93,88.61L389.68,87.48L390.6,95.5L391.52,81.47L392.44,82.85L393.36,95.62L397.04,119.54L397.96,96.54L399.79,130.85L402.55,148.01L405.31,106.27L406.23,92.24L408.98,86.4L409.9,72.04L410.82,66.24L411.74,50.13L412.66,47.41L415.42,43.74L416.34,29.71L417.26,34.68L418.18,47.87L419.09,49.12L421.85,31.88L422.77,45.99L423.69,59.48L424.61,58.18L425.53,66.74L428.29,84.85L430.12,65.44L431.04,86.77L434.72,87.69L435.64,77.97L436.56,78.68L437.48,82.06L438.4,101.38L441.15,96.83L442.07,122.21L442.99,123.17L443.91,93.66L444.83,118.66L447.59,117.37L448.5,111.03L449.42,83.73L450.34,122.34L451.26,119.24L454.02,141.07L454.94,130.82L455.86,164.31L456.78,180.78L457.7,161.76L460.45,168.32L461.37,152.85L463.21,202.56L464.13,201.55L466.89,178.48L467.81,189.97L468.72,189.31L469.64,175.68L470.56,151.18L474.24,154.53L475.16,155.07L476.08,144.62L477,168.99L479.75,165.81L480.67,155.07L481.59,158.2L483.43,203.48L486.19,225.42L487.11,221.74L488.02,210.58L488.94,233.03L489.86,226.76L493.54,208.74L494.46,210.92L496.3,184.54L499.05,184.54L499.97,202.18L500.89,194.7L501.81,205.19L502.73,195.95L506.41,184.96L507.33,179.27L509.16,162.05L511.92,171.12L512.84,166.98L513.76,168.53L515.6,148.97L518.35,161.92L520.19,136.97L521.11,127.31L522.03,132.58L524.79,137.34L525.71,142.99L526.63,121.29L527.54,118.95L528.46,97.38L531.22,101.56L532.14,107.83L533.06,82.25L533.98,83.59L537.65,86.56L538.57,86.35L539.49,68.27L540.41,71.41L541.33,56.29L544.09,51.73L545.01,52.4L545.93,46.04L546.84,47.71L547.76,58.72L551.44,76.68L552.36,75.42L553.28,64.96L554.2,91.79L556.95,101.17L557.87,111.51L558.79,118.58L559.71,115.48L560.63,124.48L564.31,129.84L565.23,123.86L566.15,130.14L567.06,117.95L569.82,92.59L570.74,132.73L571.66,126.58L573.5,145.88L576.26,130.05L577.17,119.92L578.09,133.23L579.01,137.34L579.93,147.01L582.69,145.58L583.61,141.44L584.53,149.48L585.45,180.28L586.36,198.2L589.12,180.41L590.04,165.13L590.96,163.88L591.88,167.94L592.8,190.29L595.56,188.91L596.47,194.94L597.39,197.61L598.31,178.15L599.23,197.45L601.99,180.58L602.91,174.97L603.83,174.51L604.75,176.48L605.67,160.23L608.42,151.11L609.34,139.01L611.18,170.57L612.1,124.78L614.86,134.82L615.78,146.08L617.61,195.35L618.53,196.49L621.29,194.22L622.21,191.79L623.13,211.2L624.05,160.89L624.97,149.02L627.72,154.98L628.64,147.6L629.56,152.84L631.4,142.36L634.16,156.11L635.99,143.28L637.83,155.69L640.59,172L641.51,184.79L642.43,156.02L643.35,154.85L647.02,161.89L647.94,177.49L648.86,185.75L649.78,178.58L650.7,180.64L653.46,170.87L654.38,166.76L655.29,176.23L657.13,212.71L659.89,221.69L660.81,221.98L661.73,208.77L662.65,222.27L663.57,223.82L667.24,231.5L668.16,248.23L669.08,233.26L670,231.92" style="vector-effect: non-scaling-stroke; fill: none; stroke: rgb(99, 110, 250); stroke-opacity: 1; stroke-width: 2px; opacity: 1;"/></g><g class="points"/><g class="text"/></g><g class="trace scatter tracef568fd" style="stroke-miterlimit: 2; opacity: 1;"><g class="fills"/><g class="errorbars"/><g class="lines"><path class="js-line" d="M0,226.94L3.68,235.06L4.6,231.22L5.51,228.1L6.43,219.96L7.35,216.9L10.11,220.57L11.03,220.34L11.95,219.07L12.87,221.17L13.79,225.16L17.46,220.67L18.38,212.93L19.3,212.75L20.22,214.44L22.98,212.41L23.9,213.25L24.81,227.72L25.73,222.36L26.65,233.07L29.41,224.34L30.33,216.66L31.25,216.1L33.09,207.81L35.84,203.6L37.68,204.43L38.6,203.48L39.52,200.78L43.2,201.11L44.12,201.29L45.03,203.83L45.95,204.9L48.71,209.32L49.63,208.6L50.55,202.16L52.39,218.88L55.14,205.61L56.98,217.63L57.9,225.13L58.82,214.38L61.58,217.39L64.33,200.12L65.25,199.53L68.01,195.79L68.93,196.7L69.85,195.03L70.77,203.61L71.69,203.96L74.44,199.94L76.28,207.47L77.2,204.48L78.12,194.97L80.88,195.47L81.8,197.31L82.72,195.21L83.64,188.33L87.31,179.84L88.23,180.42L89.15,179.54L90.99,172.39L93.74,172.51L94.66,170.52L95.58,172.99L97.42,164.09L100.18,167.34L101.1,171.49L102.02,165.86L102.94,171.48L103.85,164.87L107.53,163.91L108.45,164.43L109.37,160.29L110.29,164.72L113.05,163.04L113.96,167.14L114.88,166.71L115.8,161.73L116.72,157.2L119.48,163.66L120.4,168.98L121.32,182.01L123.16,165.79L125.91,167.34L127.75,174.31L128.67,167.95L129.59,168.43L132.35,162.4L133.26,163.7L134.18,162.55L136.02,161.37L139.7,161.67L140.62,160.78L141.54,163.01L142.46,157.59L145.21,158.09L146.13,157.98L147.05,159.11L148.89,155.02L151.65,153.89L152.57,155.15L153.48,158.5L154.4,158.77L155.32,166.88L159,155.17L159.92,155.84L161.76,150.16L164.51,148.7L166.35,147.7L167.27,144.41L168.19,139.67L171.87,140.96L172.78,138.82L173.7,144.28L174.62,137.15L177.38,134.94L178.3,137.2L179.22,136.46L180.14,138.54L181.06,143.35L183.81,153.41L184.73,143.96L187.49,130.97L190.25,129.43L191.17,132.48L192.09,132.6L193,129.89L193.92,133.39L196.68,134.57L197.6,129.31L198.52,132.3L199.44,128.43L200.36,127.35L203.11,127.96L204.95,126.49L205.87,123.79L206.79,122.74L209.55,121.03L211.39,132.65L212.3,131.84L213.22,126.59L215.98,121.05L217.82,118.61L218.74,122.45L219.66,116.69L222.41,113.84L223.33,114.74L224.25,114.53L225.17,112.65L226.09,112.87L230.69,116L231.6,119.04L232.52,124.12L235.28,122.63L236.2,126.39L237.12,120.88L238.04,121.9L238.96,127.86L241.71,138.88L242.63,139.4L244.47,125.52L245.39,124.57L248.15,126.38L249.07,139.63L249.99,138.63L250.91,146.23L251.82,138.98L254.58,147.26L257.34,132.73L258.26,133.96L261.93,139.92L262.85,137.99L264.69,122.25L267.45,120.04L269.29,112.76L270.21,110.77L271.12,111.48L273.88,108.33L274.8,107.11L275.72,110.49L277.56,102.63L280.32,101.42L282.15,94.55L283.07,91.7L283.99,89.14L286.75,88.53L287.67,90.94L288.59,96.58L289.51,96.21L290.43,91.29L293.18,91.3L294.1,88.65L295.02,90.44L295.94,88.12L299.62,91.28L300.53,90.14L301.45,88.57L303.29,104.21L306.05,95.33L306.97,108.25L307.89,116.15L308.81,106.77L309.73,112.43L312.48,104.64L313.4,90.72L314.32,88.61L315.24,93.55L316.16,87.02L318.92,93.32L319.84,98.43L320.75,87.34L321.67,93.37L322.59,100.4L325.35,108.1L327.19,89.29L328.11,85.01L331.78,75.44L332.7,76.14L333.62,75.16L334.54,77.26L335.46,79.1L338.22,74.65L339.14,75.09L340.05,88.7L340.97,89.36L341.89,92.15L344.65,93.13L345.57,86.87L346.49,84.93L347.41,94.78L348.33,94.22L352,106.77L353.84,120.58L354.76,132.99L357.52,131.21L358.44,139.07L359.36,140.02L360.27,143.45L361.19,128.03L363.95,115.78L365.79,104.97L366.71,121.36L367.63,117.98L370.38,120.42L372.22,105.3L373.14,117.46L374.06,129.97L376.82,132.45L377.74,122.29L378.66,121.71L380.49,140.18L384.17,146.63L385.09,158.23L386.01,148.98L386.93,134.94L389.68,136.51L390.6,146.41L391.52,134.66L393.36,143.1L396.12,161.81L397.04,166.26L397.96,150.57L398.88,153.26L399.79,161.34L402.55,165.9L403.47,152.83L405.31,130.99L406.23,123.45L408.98,123.74L409.9,116.36L410.82,124.46L411.74,115.11L412.66,111.75L415.42,107L416.34,98.79L417.26,103.06L418.18,113.61L419.09,111.34L421.85,105.96L422.77,114.38L423.69,120.82L424.61,118.03L425.53,119.77L428.29,130.86L429.2,133.07L430.12,125.87L431.04,133.78L434.72,133.91L435.64,123.59L436.56,123.99L437.48,133.62L438.4,151.46L441.15,147.9L442.07,165.6L442.99,164.31L443.91,149.16L444.83,171.93L447.59,168.5L448.5,165.56L449.42,147.31L450.34,169.74L451.26,173.19L454.02,192.52L454.94,191.09L455.86,200.73L456.78,201.47L457.7,187.74L460.45,190.07L461.37,178.24L462.29,202.41L463.21,205.76L464.13,205.68L466.89,195.08L467.81,199.81L468.72,194.35L469.64,182.77L470.56,168.08L474.24,171.9L475.16,176.42L476.08,165.36L477,175.35L479.75,173.47L480.67,167.72L481.59,174.3L483.43,205.75L486.19,227.89L487.11,229.96L488.02,221.98L488.94,240.01L489.86,238.83L493.54,225.67L494.46,226.39L495.38,221.14L496.3,204.16L499.05,205.86L499.97,217.36L500.89,217.76L501.81,222.65L502.73,216.81L506.41,215.92L507.33,213.92L508.24,205.49L509.16,205.97L511.92,212.55L513.76,220.25L514.68,221.92L515.6,211.27L518.35,216L520.19,197.11L521.11,191.39L522.03,196.86L524.79,196.09L525.71,202.8L526.63,187.78L528.46,172.17L531.22,173.88L532.14,177.89L533.06,168.53L537.65,170.74L538.57,173.31L539.49,160.47L540.41,160.9L541.33,150.24L544.09,147.75L545.01,146.57L545.93,151.13L546.84,149.71L547.76,157.8L551.44,172.4L552.36,170.64L553.28,162.1L554.2,182.8L556.95,186.76L557.87,193.27L558.79,197.83L559.71,196.09L560.63,202.33L564.31,204.68L567.06,181.38L569.82,175.08L570.74,201.09L571.66,199.14L573.5,209.78L576.26,205.89L579.93,236.14L582.69,241.73L583.61,242.87L584.53,232.36L586.36,251.89L589.12,238.31L590.04,221.84L590.96,222.96L591.88,228.63L592.8,243.98L595.56,247.97L596.47,251.42L597.39,253.15L598.31,239.56L599.23,252.27L601.99,238.38L602.91,232.23L603.83,235.86L604.75,240.16L605.67,227.43L608.42,220.9L609.34,211.86L611.18,219.45L612.1,205.72L615.78,212.3L616.69,226.41L617.61,232.24L618.53,224.82L622.21,216.4L623.13,228.04L624.05,197.63L624.97,192.28L627.72,197.5L628.64,192.45L630.48,199.06L631.4,196.31L634.16,198.57L635.08,190.72L635.99,187.25L637.83,187.42L641.51,197.44L642.43,179.52L644.27,180.75L647.02,191.41L647.94,199.84L648.86,200.91L649.78,196.58L650.7,200.85L654.38,188.36L655.29,191.93L657.13,212.85L659.89,217.93L660.81,217.35L661.73,209.03L662.65,217.24L663.57,213.95L667.24,216.23L668.16,222.97L669.08,213.3L670,214.73" style="vector-effect: non-scaling-stroke; fill: none; stroke: rgb(239, 85, 59); stroke-opacity: 1; stroke-width: 2px; opacity: 1;"/></g><g class="points"/><g class="text"/></g><g class="trace scatter trace07c63b" style="stroke-miterlimit: 2; opacity: 1;"><g class="fills"/><g class="errorbars"/><g class="lines"><path class="js-line" d="M0,226.94L3.68,235.04L4.6,229.9L5.51,233.24L6.43,219.3L7.35,213.56L10.11,220.62L11.95,216.68L12.87,217.37L13.79,222.24L17.46,213.77L19.3,199.53L20.22,199.01L22.98,195.05L23.9,195.47L24.81,210.64L25.73,207.8L26.65,219.16L29.41,204.97L30.33,196.04L31.25,196.14L33.09,185.65L35.84,180.05L36.76,179.19L37.68,180.69L39.52,175.45L43.2,177.5L45.03,185.27L45.95,184.88L49.63,202.33L50.55,196.67L51.47,217.08L52.39,213.97L55.14,197.06L56.06,206.87L57.9,233.97L58.82,225.58L61.58,238.85L62.5,219.03L63.42,219.24L64.33,205.17L65.25,208.53L68.01,202.57L68.93,202.06L69.85,199.78L70.77,217.22L71.69,213L74.44,206.07L75.36,212.47L76.28,223.8L77.2,223.13L78.12,216.26L80.88,219.63L81.8,220.24L82.72,211.65L83.64,201.7L87.31,192.08L89.15,192.8L90.07,186.8L90.99,183.78L93.74,185.92L94.66,179.69L95.58,185.59L96.5,177.87L97.42,177.29L100.18,183.16L101.1,188.64L102.02,181.65L102.94,187.27L103.85,178.81L106.61,173.6L108.45,177.35L109.37,176L110.29,181.11L113.05,184L114.88,197.33L115.8,195.18L116.72,190.09L119.48,205.04L120.4,205.57L121.32,220.83L122.24,216.85L123.16,203.84L125.91,206.01L126.83,209.23L127.75,209.39L128.67,199.33L129.59,202.09L132.35,193.98L133.26,194.15L134.18,190.7L139.7,190.76L140.62,189.92L141.54,195.97L142.46,187.44L146.13,182.73L147.05,183.29L148.89,176.56L151.65,172.09L153.48,177.83L154.4,172.64L155.32,178.23L158.08,173.49L159,168.72L159.92,167.93L160.84,163.75L161.76,164.15L165.43,156.99L166.35,158.03L167.27,157.24L168.19,152.25L172.78,151.15L173.7,155.64L174.62,149.58L177.38,148.24L180.14,156.35L181.06,161.3L183.81,167.79L184.73,158.24L187.49,143.82L190.25,143.66L191.17,151.34L192.09,146.99L193,146.32L193.92,150.83L196.68,150.47L197.6,147.05L198.52,146.23L199.44,141.34L200.36,143.87L203.11,142.83L204.95,146.88L205.87,144.7L206.79,144.42L209.55,145.66L211.39,157.09L212.3,156.41L213.22,149.04L215.98,139.31L217.82,135.08L218.74,139.18L219.66,131.34L222.41,125.52L223.33,125.81L224.25,123.67L226.09,121.36L229.77,120.9L232.52,131.94L235.28,132.36L236.2,135.25L237.12,129.98L238.04,129.11L238.96,134.99L241.71,149.07L242.63,147.68L244.47,134.64L245.39,134.83L248.15,138.15L249.07,156.2L250.91,160.39L251.82,155.35L254.58,168.62L255.5,161.02L256.42,158.11L257.34,151.62L258.26,154.8L261.02,158.78L261.93,159.65L262.85,155.14L264.69,141.24L267.45,135.94L268.37,131.36L269.29,131.68L270.21,127.66L271.12,133.02L274.8,126.81L275.72,126.81L277.56,115.61L280.32,111.45L281.23,109.16L282.15,102.25L283.99,95.42L286.75,94.96L287.67,99.05L288.59,110.3L289.51,106.82L290.43,100.14L293.18,100.44L294.1,95.32L295.02,97.55L295.94,94.48L296.86,91.76L299.62,100.4L300.53,103.8L301.45,100.81L303.29,115.89L306.05,103.47L307.89,126.03L308.81,120.6L309.73,133.22L312.48,127.26L314.32,103.3L315.24,114.8L316.16,109.97L318.92,119.24L319.84,126.73L320.75,112.74L321.67,129.17L322.59,129.63L325.35,137.68L326.27,122.32L328.11,109L331.78,99.7L333.62,104.18L334.54,105.23L335.46,109.35L338.22,101.34L339.14,110.3L340.05,132.59L340.97,133.42L341.89,139.6L344.65,139.3L345.57,130.32L346.49,128.83L347.41,145.11L348.33,141.4L352,157.9L353.84,172.95L354.76,189.38L357.52,185.7L358.44,199.17L359.36,199.05L360.27,207.13L361.19,189.31L363.95,169.29L365.79,161.71L366.71,184.69L367.63,175.34L370.38,178.85L372.22,158.6L373.14,171.6L374.06,188.43L376.82,188.44L377.74,173.56L378.66,174.23L380.49,198.8L384.17,205.9L385.09,220.58L386.01,201.98L386.93,192.55L389.68,190.13L390.6,199.47L391.52,190.1L396.12,229.39L397.04,230.9L397.96,211.28L398.88,216.64L399.79,228.84L402.55,240.04L406.23,184.05L408.98,186.41L409.9,174.88L410.82,182.82L411.74,171.34L412.66,172.3L415.42,164.38L416.34,153.09L418.18,170.12L419.09,168.37L421.85,156.81L422.77,170.81L423.69,184.26L424.61,183.9L425.53,191.85L428.29,204.61L429.2,206.33L430.12,194.73L431.04,207.2L434.72,208L435.64,195.75L436.56,202.85L438.4,229.03L441.15,221.97L442.07,243.9L442.99,243.98L443.91,227.66L444.83,250.56L448.5,240.79L449.42,223.68L451.26,258.66L454.02,280.91L454.94,276.03L455.86,291.95L456.78,291.67L457.7,273.15L460.45,279.22L461.37,265.5L462.29,289.65L463.21,290.92L464.13,292.36L466.89,284.66L467.81,296.21L468.72,288.95L470.56,259.24L474.24,261.36L475.16,265.07L476.08,251.32L477,264.29L479.75,262.22L480.67,257.36L481.59,261.16L483.43,292.99L486.19,315.63L487.11,314.81L488.02,303.26L488.94,322.59L489.86,316.09L493.54,304.54L494.46,305.23L495.38,297.59L496.3,281.57L499.05,285.12L499.97,299.75L500.89,299.9L501.81,306.27L502.73,302.04L506.41,293.75L507.33,292.06L508.24,280.99L509.16,280.39L511.92,291.6L512.84,296.2L513.76,296.93L514.68,296.78L515.6,288.19L518.35,292.13L519.27,277.07L521.11,262.29L522.03,271.91L524.79,274.11L525.71,283.49L527.54,257.9L528.46,248.17L532.14,249.96L533.06,236.33L533.98,234.1L534.9,236.79L537.65,237.34L538.57,243.77L539.49,228.37L540.41,231.57L541.33,220.17L544.09,216.72L545.01,217.8L545.93,224.82L546.84,223.66L547.76,234.75L550.52,248.56L551.44,248.57L552.36,246.43L553.28,237.57L554.2,258.79L556.95,264.08L558.79,272.68L559.71,274L560.63,280.58L564.31,284.25L567.06,260.04L569.82,253.47L570.74,280.47L571.66,276.79L573.5,288.36L576.26,284.67L577.17,289.36L578.09,298.1L579.93,313.13L582.69,315.9L583.61,314.76L584.53,305.29L586.36,325.59L589.12,315.36L590.04,299.97L590.96,301.15L591.88,304.36L592.8,322.32L595.56,327.02L596.47,331.97L597.39,332.36L598.31,322.46L599.23,336.44L601.99,321.32L602.91,317.2L603.83,321.12L604.75,323.92L605.67,313.48L608.42,309.51L609.34,299L611.18,316.34L612.1,303.12L614.86,308L615.78,312.15L617.61,335.52L618.53,329.88L622.21,323.86L623.13,335.08L624.97,293.7L627.72,299.12L628.64,292.2L629.56,299.66L630.48,301.31L631.4,301.26L634.16,306.45L635.08,300.05L635.99,295.32L637.83,297.84L641.51,308.18L642.43,287.53L643.35,286.91L644.27,287.81L647.02,297.26L647.94,306.86L648.86,309.26L649.78,303.99L650.7,307.29L653.46,301.36L654.38,296.54L655.29,300.2L657.13,320.06L659.89,326.86L660.81,326.81L661.73,319.89L662.65,329.84L663.57,328.91L667.24,335.08L668.16,341.05L669.08,329.75L670,330.25" style="vector-effect: non-scaling-stroke; fill: none; stroke: rgb(0, 204, 150); stroke-opacity: 1; stroke-width: 2px; opacity: 1;"/></g><g class="points"/><g class="text"/></g></g></g><g class="overplot"/><path class="xlines-above crisp" d="M0,0" style="fill: none;"/><path class="ylines-above crisp" d="M0,0" style="fill: none;"/><g class="overlines-above"/><g class="xaxislayer-above"><g class="xtick"><text text-anchor="middle" x="0" y="432" transform="translate(61.92,0)" style="font-family: 'Open Sans', verdana, arial, sans-serif; font-size: 12px; fill: rgb(42, 63, 95); fill-opacity: 1; white-space: pre; opacity: 1;">Jan 2021</text></g><g class="xtick"><text text-anchor="middle" x="0" y="432" style="font-family: 'Open Sans', verdana, arial, sans-serif; font-size: 12px; fill: rgb(42, 63, 95); fill-opacity: 1; white-space: pre; opacity: 1;" transform="translate(144.64,0)">Apr 2021</text></g><g class="xtick"><text text-anchor="middle" x="0" y="432" style="font-family: 'Open Sans', verdana, arial, sans-serif; font-size: 12px; fill: rgb(42, 63, 95); fill-opacity: 1; white-space: pre; opacity: 1;" transform="translate(228.27,0)">Jul 2021</text></g><g class="xtick"><text text-anchor="middle" x="0" y="432" style="font-family: 'Open Sans', verdana, arial, sans-serif; font-size: 12px; fill: rgb(42, 63, 95); fill-opacity: 1; white-space: pre; opacity: 1;" transform="translate(312.82,0)">Oct 2021</text></g><g class="xtick"><text text-anchor="middle" x="0" y="432" style="font-family: 'Open Sans', verdana, arial, sans-serif; font-size: 12px; fill: rgb(42, 63, 95); fill-opacity: 1; white-space: pre; opacity: 1;" transform="translate(397.38,0)">Jan 2022</text></g><g class="xtick"><text text-anchor="middle" x="0" y="432" style="font-family: 'Open Sans', verdana, arial, sans-serif; font-size: 12px; fill: rgb(42, 63, 95); fill-opacity: 1; white-space: pre; opacity: 1;" transform="translate(480.09,0)">Apr 2022</text></g><g class="xtick"><text text-anchor="middle" x="0" y="432" style="font-family: 'Open Sans', verdana, arial, sans-serif; font-size: 12px; fill: rgb(42, 63, 95); fill-opacity: 1; white-space: pre; opacity: 1;" transform="translate(563.73,0)">Jul 2022</text></g><g class="xtick"><text text-anchor="middle" x="0" y="432" style="font-family: 'Open Sans', verdana, arial, sans-serif; font-size: 12px; fill: rgb(42, 63, 95); fill-opacity: 1; white-space: pre; opacity: 1;" transform="translate(648.28,0)">Oct 2022</text></g></g><g class="yaxislayer-above"><g class="ytick"><text text-anchor="end" x="60" y="4.199999999999999" transform="translate(0,396.9)" style="font-family: 'Open Sans', verdana, arial, sans-serif; font-size: 12px; fill: rgb(42, 63, 95); fill-opacity: 1; white-space: pre; opacity: 1;">60</text></g><g class="ytick"><text text-anchor="end" x="60" y="4.199999999999999" style="font-family: 'Open Sans', verdana, arial, sans-serif; font-size: 12px; fill: rgb(42, 63, 95); fill-opacity: 1; white-space: pre; opacity: 1;" transform="translate(0,341.92)">80</text></g><g class="ytick"><text text-anchor="end" x="60" y="4.199999999999999" style="font-family: 'Open Sans', verdana, arial, sans-serif; font-size: 12px; fill: rgb(42, 63, 95); fill-opacity: 1; white-space: pre; opacity: 1;" transform="translate(0,286.94)">100</text></g><g class="ytick"><text text-anchor="end" x="60" y="4.199999999999999" style="font-family: 'Open Sans', verdana, arial, sans-serif; font-size: 12px; fill: rgb(42, 63, 95); fill-opacity: 1; white-space: pre; opacity: 1;" transform="translate(0,231.97)">120</text></g><g class="ytick"><text text-anchor="end" x="60" y="4.199999999999999" style="font-family: 'Open Sans', verdana, arial, sans-serif; font-size: 12px; fill: rgb(42, 63, 95); fill-opacity: 1; white-space: pre; opacity: 1;" transform="translate(0,176.99)">140</text></g><g class="ytick"><text text-anchor="end" x="60" y="4.199999999999999" style="font-family: 'Open Sans', verdana, arial, sans-serif; font-size: 12px; fill: rgb(42, 63, 95); fill-opacity: 1; white-space: pre; opacity: 1;" transform="translate(0,122.00999999999999)">160</text></g><g class="ytick"><text text-anchor="end" x="60" y="4.199999999999999" style="font-family: 'Open Sans', verdana, arial, sans-serif; font-size: 12px; fill: rgb(42, 63, 95); fill-opacity: 1; white-space: pre; opacity: 1;" transform="translate(0,67.04)">180</text></g></g><g class="overaxes-above"/></g></g><g class="polarlayer"/><g class="ternarylayer"/><g class="geolayer"/><g class="funnelarealayer"/><g class="pielayer"/><g class="iciclelayer"/><g class="treemaplayer"/><g class="sunburstlayer"/><g class="glimages"/><defs id="topdefs-b87e62"><g class="clips"/><clipPath id="legendb87e62"><rect width="89" height="67" x="0" y="0"/></clipPath><clipPath id="rangesliderx-b87e62"><rect x="0" y="0" width="670" height="68.85"/></clipPath></defs><g class="layer-above"><g class="imagelayer"/><g class="shapelayer"/></g><g class="infolayer"><g class="legend" pointer-events="all" transform="translate(744.4,60)"><rect class="bg" shape-rendering="crispEdges" width="89" height="67" x="0" y="0" style="stroke: rgb(68, 68, 68); stroke-opacity: 1; fill: rgb(255, 255, 255); fill-opacity: 1; stroke-width: 0px;"/><g class="scrollbox" transform="" clip-path="url(#legendb87e62)"><g class="groups" transform=""><g class="traces" transform="translate(0,14.5)" style="opacity: 1;"><text class="legendtext" text-anchor="start" x="40" y="4.680000000000001" style="font-family: 'Open Sans', verdana, arial, sans-serif; font-size: 12px; fill: rgb(42, 63, 95); fill-opacity: 1; white-space: pre;">AAPL</text><g class="layers" style="opacity: 1;"><g class="legendfill"/><g class="legendlines"><path class="js-line" d="M5,0h30" style="fill: none; stroke: rgb(99, 110, 250); stroke-opacity: 1; stroke-width: 2px;"/></g><g class="legendsymbols"><g class="legendpoints"/></g></g><rect class="legendtoggle" x="0" y="-9.5" width="83.564453125" height="19" style="fill: rgb(0, 0, 0); fill-opacity: 0;"/></g></g><g class="groups" transform=""><g class="traces" transform="translate(0,33.5)" style="opacity: 1;"><text class="legendtext" text-anchor="start" x="40" y="4.680000000000001" style="font-family: 'Open Sans', verdana, arial, sans-serif; font-size: 12px; fill: rgb(42, 63, 95); fill-opacity: 1; white-space: pre;">^GSPC</text><g class="layers" style="opacity: 1;"><g class="legendfill"/><g class="legendlines"><path class="js-line" d="M5,0h30" style="fill: none; stroke: rgb(239, 85, 59); stroke-opacity: 1; stroke-width: 2px;"/></g><g class="legendsymbols"><g class="legendpoints"/></g></g><rect class="legendtoggle" x="0" y="-9.5" width="83.564453125" height="19" style="fill: rgb(0, 0, 0); fill-opacity: 0;"/></g></g><g class="groups" transform=""><g class="traces" transform="translate(0,52.5)" style="opacity: 1;"><text class="legendtext" text-anchor="start" x="40" y="4.680000000000001" style="font-family: 'Open Sans', verdana, arial, sans-serif; font-size: 12px; fill: rgb(42, 63, 95); fill-opacity: 1; white-space: pre;">^IXIC</text><g class="layers" style="opacity: 1;"><g class="legendfill"/><g class="legendlines"><path class="js-line" d="M5,0h30" style="fill: none; stroke: rgb(0, 204, 150); stroke-opacity: 1; stroke-width: 2px;"/></g><g class="legendsymbols"><g class="legendpoints"/></g></g><rect class="legendtoggle" x="0" y="-9.5" width="83.564453125" height="19" style="fill: rgb(0, 0, 0); fill-opacity: 0;"/></g></g></g><rect class="scrollbar" rx="20" ry="3" width="0" height="0" x="0" y="0" style="fill: rgb(128, 139, 164); fill-opacity: 1;"/></g><g class="rangeselector" transform="translate(50,32)" style="cursor: pointer; pointer-events: all;"><g class="button" transform=""><rect class="selector-rect" shape-rendering="crispEdges" rx="3" ry="3" x="0" y="0" width="30" height="19" style="stroke: rgb(68, 68, 68); stroke-opacity: 1; fill: rgb(238, 238, 238); fill-opacity: 1; stroke-width: 0px;"/><text class="selector-text" text-anchor="middle" x="15" y="12.5" style="font-family: 'Open Sans', verdana, arial, sans-serif; font-size: 12px; fill: rgb(42, 63, 95); fill-opacity: 1; white-space: pre;">1m</text></g><g class="button" transform="translate(35,0)"><rect class="selector-rect" shape-rendering="crispEdges" rx="3" ry="3" x="0" y="0" width="30" height="19" style="stroke: rgb(68, 68, 68); stroke-opacity: 1; fill: rgb(238, 238, 238); fill-opacity: 1; stroke-width: 0px;"/><text class="selector-text" text-anchor="middle" x="15" y="12.5" style="font-family: 'Open Sans', verdana, arial, sans-serif; font-size: 12px; fill: rgb(42, 63, 95); fill-opacity: 1; white-space: pre;">6m</text></g><g class="button" transform="translate(70,0)"><rect class="selector-rect" shape-rendering="crispEdges" rx="3" ry="3" x="0" y="0" width="35.03125" height="19" style="stroke: rgb(68, 68, 68); stroke-opacity: 1; fill: rgb(238, 238, 238); fill-opacity: 1; stroke-width: 0px;"/><text class="selector-text" text-anchor="middle" x="17.515625" y="12.5" style="font-family: 'Open Sans', verdana, arial, sans-serif; font-size: 12px; fill: rgb(42, 63, 95); fill-opacity: 1; white-space: pre;">YTD</text></g><g class="button" transform="translate(110.03125,0)"><rect class="selector-rect" shape-rendering="crispEdges" rx="3" ry="3" x="0" y="0" width="30" height="19" style="stroke: rgb(68, 68, 68); stroke-opacity: 1; fill: rgb(238, 238, 238); fill-opacity: 1; stroke-width: 0px;"/><text class="selector-text" text-anchor="middle" x="15" y="12.5" style="font-family: 'Open Sans', verdana, arial, sans-serif; font-size: 12px; fill: rgb(42, 63, 95); fill-opacity: 1; white-space: pre;">1y</text></g><g class="button" transform="translate(145.03125,0)"><rect class="selector-rect" shape-rendering="crispEdges" rx="3" ry="3" x="0" y="0" width="30" height="19" style="stroke: rgb(68, 68, 68); stroke-opacity: 1; fill: rgb(212, 212, 212); fill-opacity: 1; stroke-width: 0px;"/><text class="selector-text" text-anchor="middle" x="15" y="12.5" style="font-family: 'Open Sans', verdana, arial, sans-serif; font-size: 12px; fill: rgb(42, 63, 95); fill-opacity: 1; white-space: pre;">all</text></g></g><g class="g-gtitle"><text class="gtitle" x="42.25" y="30" text-anchor="start" dy="0em" style="font-family: 'Open Sans', verdana, arial, sans-serif; font-size: 17px; fill: rgb(42, 63, 95); opacity: 1; font-weight: normal; white-space: pre;"><tspan style="font-weight:bold">Wealth Index</tspan></text></g><g class="rangeslider-container" pointer-events="all" transform="translate(61,450)"><rect class="rangeslider-bg" x="0" y="0" shape-rendering="crispEdges" width="670" height="68.85" transform="" fill="white" stroke="#444" stroke-width="0"/><g class="rangeslider-rangeplot xy" clip-path="url(#rangesliderx-b87e62)"><g class="layer-subplot"><g class="shapelayer"/><g class="imagelayer"/></g><g class="gridlayer"><g class="x"/><g class="y"/></g><g class="zerolinelayer"/><path class="xlines-below"/><path class="ylines-below"/><g class="overlines-below"/><g class="xaxislayer-below"/><g class="yaxislayer-below"/><g class="overaxes-below"/><g class="plot"><g class="scatterlayer mlayer rangeplot"><g class="trace scatter traceebfa3e" style="stroke-miterlimit: 2; opacity: 1;"><g class="fills"/><g class="errorbars"/><g class="lines"><path class="js-line" d="M0,43.62L3.68,46.23L4.6,44.96L5.51,48.47L6.43,45.03L7.35,44.13L10.11,46.57L11.03,46.72L11.95,45.05L13.79,48.04L17.46,47.49L20.22,38.54L22.98,35.47L23.9,35.28L24.81,36.16L26.65,44.2L29.41,42.46L30.33,41.79L31.25,42.62L32.17,39.88L33.09,40.21L36.76,40.81L37.68,41.31L39.52,41.32L43.2,43.06L45.03,45.84L45.95,45.71L49.63,48.91L50.55,49.31L51.47,52.79L52.39,52.58L55.14,47.37L56.06,49.5L57.9,53.48L58.82,52.45L61.58,56.48L62.5,52.71L63.42,53.6L64.33,52.02L65.25,52.76L68.01,50.4L68.93,49.14L69.85,49.79L70.77,53.16L71.69,53.59L74.44,50.88L75.36,51.56L76.28,53.51L77.2,53.11L78.12,52.62L80.88,52.47L81.8,53.66L82.72,51.87L89.15,47.28L90.07,45.32L90.99,43.21L93.74,44.62L94.66,42.07L95.58,43.99L96.5,42.02L97.42,42.29L100.18,41.75L101.1,43.13L102.02,42.81L102.94,44.06L103.85,42.16L106.61,41.84L109.37,42.83L110.29,44.44L113.05,43.58L113.96,47.32L114.88,47.12L115.8,45.81L116.72,45.26L119.48,47.95L120.4,48.7L121.32,51.21L123.16,47.47L125.91,48.41L127.75,49.67L128.67,47.58L129.59,49.08L132.35,47.75L134.18,47.95L135.1,49.2L136.02,49.74L139.7,50L140.62,49.38L141.54,50.59L142.46,48.71L145.21,48.71L147.05,47.72L147.97,48.54L151.65,45.05L152.57,45.72L153.48,45.31L154.4,44L155.32,45.06L158.08,43.59L159,42.25L159.92,42.47L161.76,42.95L164.51,41.61L166.35,39.87L167.27,39.62L168.19,37.47L171.87,35.83L172.78,33.79L173.7,34.85L174.62,33.36L177.38,33.85L178.3,32.94L179.22,30.13L180.14,30.67L181.06,32.34L183.81,35.48L184.73,32.53L185.65,33.13L186.57,32.01L187.49,30.6L190.25,30.26L192.09,33.46L193,32.94L193.92,32.76L196.68,33.03L197.6,31.56L198.52,31.89L200.36,32.36L203.11,32.4L204.95,32.59L205.87,30.16L206.79,29.99L209.55,28.38L210.47,29.12L211.39,32.19L212.3,31.91L213.22,30.72L216.9,29.58L217.82,30.59L218.74,31.24L219.66,30.39L222.41,26.78L223.33,27.81L229.77,23.92L230.69,25.18L231.6,26.02L232.52,30.1L235.28,29.63L236.2,30.78L238.04,30.24L238.96,32.43L241.71,34.92L242.63,34.53L244.47,31.81L245.39,31.74L248.15,32.98L249.07,35.75L249.99,35.01L250.91,36.07L251.82,35.15L254.58,37.96L257.34,34.64L258.26,34.95L261.02,35.03L261.93,36.07L262.85,36.55L263.77,34.27L264.69,33.4L267.45,32.03L269.29,29.87L270.21,29.69L271.12,30.32L273.88,30.36L274.8,29.82L275.72,30.19L276.64,27.22L277.56,29.43L280.32,30.11L281.23,29.26L282.15,28.08L283.07,28.5L283.99,28.07L286.75,28.75L287.67,28.45L288.59,30.76L289.51,30.8L290.43,29.11L293.18,29.1L294.1,28.3L296.86,20.64L299.62,20.27L301.45,19.53L303.29,23.64L306.05,20.89L306.97,16.84L308.81,18.07L309.73,19.61L312.48,16.82L313.4,12.13L314.32,9L315.24,9.42L316.16,5.5L318.92,8.47L319.84,9.6L320.75,5.62L321.67,11.26L322.59,12.16L325.35,13.27L326.27,10.68L328.11,8.04L331.78,4.8L334.54,6.5L335.46,7.01L338.22,3.45L339.14,5.3L340.97,11.47L341.89,11.33L344.65,11.32L345.57,9L346.49,8.64L347.41,11.32L348.33,10.61L352,13.23L353.84,17.47L354.76,19.15L357.52,19.79L358.44,21.26L360.27,21.71L361.19,12.81L363.95,9.24L364.87,9.38L365.79,8.39L366.71,10.75L370.38,11.57L371.3,9.02L372.22,7.86L373.14,11.2L374.06,13.99L376.82,13.8L377.74,10.66L378.66,10.85L380.49,15.07L384.17,17.46L385.09,20.87L386.01,18.72L386.93,17.03L389.68,16.81L390.6,18.35L391.52,15.66L392.44,15.92L393.36,18.38L397.04,22.98L397.96,18.56L399.79,25.15L402.55,28.45L405.31,20.42L406.23,17.73L408.98,16.61L409.9,13.85L410.82,12.73L411.74,9.63L415.42,8.41L416.34,5.71L417.26,6.67L418.18,9.2L419.09,9.44L421.85,6.13L423.69,11.43L424.61,11.18L428.29,16.31L429.2,14.78L430.12,12.58L431.04,16.68L434.72,16.85L435.64,14.99L437.48,15.77L438.4,19.49L441.15,18.61L442.07,23.49L442.99,23.67L443.91,18L444.83,22.81L447.59,22.56L448.5,21.34L449.42,16.09L450.34,23.51L451.26,22.92L454.02,27.11L454.94,25.14L456.78,34.75L457.7,31.09L460.45,32.35L461.37,29.38L463.21,38.93L464.13,38.74L466.89,34.3L467.81,36.51L468.72,36.38L469.64,33.77L470.56,29.06L474.24,29.7L475.16,29.8L476.08,27.8L477,32.48L479.75,31.87L480.67,29.8L481.59,30.41L483.43,39.11L486.19,43.33L487.11,42.62L488.02,40.47L488.94,44.79L489.86,43.58L493.54,40.12L494.46,40.54L496.3,35.47L499.05,35.47L499.97,38.86L500.89,37.42L501.81,39.44L502.73,37.66L507.33,34.46L508.24,31.7L509.16,31.15L511.92,32.89L512.84,32.09L513.76,32.39L515.6,28.63L518.35,31.12L520.19,26.33L521.11,24.47L522.03,25.48L524.79,26.4L525.71,27.48L526.63,23.31L527.54,22.86L528.46,18.72L531.22,19.52L532.14,20.73L533.06,15.81L533.98,16.07L538.57,16.6L539.49,13.12L540.41,13.72L541.33,10.82L545.01,10.07L545.93,8.85L546.84,9.17L547.76,11.29L551.44,14.74L552.36,14.5L553.28,12.49L554.2,17.64L556.95,19.44L557.87,21.43L558.79,22.79L559.71,22.2L560.63,23.93L564.31,24.96L565.23,23.81L566.15,25.01L567.06,22.67L569.82,17.8L570.74,25.51L571.66,24.33L573.5,28.04L576.26,25L577.17,23.05L578.09,25.61L579.01,26.4L579.93,28.25L583.61,27.18L584.53,28.73L586.36,38.09L589.12,34.67L590.04,31.74L590.96,31.5L591.88,32.28L592.8,36.57L595.56,36.31L596.47,37.47L597.39,37.98L598.31,34.24L599.23,37.95L601.99,34.71L603.83,33.54L604.75,33.92L605.67,30.8L608.42,29.04L609.34,26.72L610.26,29.12L611.18,32.78L612.1,23.98L614.86,25.91L615.78,28.08L617.61,37.55L618.53,37.76L622.21,36.86L623.13,40.59L624.97,28.64L627.72,29.79L628.64,28.37L629.56,29.38L631.4,27.36L634.16,30L635.99,27.54L637.83,29.92L640.59,33.06L641.51,35.52L642.43,29.99L643.35,29.76L647.02,31.12L647.94,34.11L648.86,35.7L649.78,34.32L650.7,34.72L653.46,32.84L654.38,32.05L655.29,33.87L657.13,40.88L659.89,42.61L660.81,42.66L661.73,40.13L662.65,42.72L663.57,43.02L667.24,44.49L668.16,47.71L669.08,44.83L670,44.57" style="vector-effect: non-scaling-stroke; fill: none; stroke: rgb(99, 110, 250); stroke-opacity: 1; stroke-width: 2px; opacity: 1;"/></g><g class="points"/><g class="text"/></g><g class="trace scatter tracef568fd" style="stroke-miterlimit: 2; opacity: 1;"><g class="fills"/><g class="errorbars"/><g class="lines"><path class="js-line" d="M0,43.62L3.68,45.18L4.6,44.44L5.51,43.84L6.43,42.28L7.35,41.69L10.11,42.39L12.87,42.51L13.79,43.28L17.46,42.41L18.38,40.92L23.9,40.99L24.81,43.77L25.73,42.74L26.65,44.8L29.41,43.12L30.33,41.64L31.25,41.53L32.17,40.36L35.84,39.13L36.76,39.25L38.6,39.11L39.52,38.59L45.95,39.38L48.71,40.23L49.63,40.09L50.55,38.85L52.39,42.07L55.14,39.52L56.98,41.83L57.9,43.27L58.82,41.2L61.58,41.78L64.33,38.46L65.25,38.35L69.85,37.48L70.77,39.13L71.69,39.2L74.44,38.43L76.28,39.88L77.2,39.3L78.12,37.47L80.88,37.57L82.72,37.52L83.64,36.2L90.99,33.13L93.74,33.16L94.66,32.77L95.58,33.25L97.42,31.54L100.18,32.16L101.1,32.96L102.02,31.88L102.94,32.96L103.85,31.69L109.37,30.81L110.29,31.66L113.05,31.34L113.96,32.12L114.88,32.04L115.8,31.08L116.72,30.21L119.48,31.46L120.4,32.48L121.32,34.98L123.16,31.87L125.91,32.16L127.75,33.5L128.67,32.28L129.59,32.37L132.35,31.21L134.18,31.24L135.1,31.11L140.62,30.9L141.54,31.33L142.46,30.29L145.21,30.38L148.89,29.8L151.65,29.58L154.4,30.52L155.32,32.07L161.76,28.86L164.51,28.58L167.27,27.76L168.19,26.84L172.78,26.68L173.7,27.73L174.62,26.36L177.38,25.94L181.06,27.55L183.81,29.48L185.65,26.67L186.57,26.42L187.49,25.17L190.25,24.88L192.09,25.49L193,24.97L193.92,25.64L196.68,25.86L197.6,24.85L198.52,25.43L200.36,24.48L203.11,24.59L209.55,23.26L210.47,24.15L211.39,25.5L212.3,25.34L213.22,24.33L215.98,23.27L217.82,22.8L218.74,23.53L219.66,22.43L222.41,21.88L225.17,21.65L226.09,21.69L231.6,22.88L232.52,23.86L235.28,23.57L236.2,24.29L237.12,23.23L238.04,23.43L238.96,24.58L241.71,26.69L242.63,26.79L243.55,25.63L245.39,23.94L248.15,24.29L249.07,26.84L249.99,26.64L250.91,28.1L251.82,26.71L254.58,28.3L255.5,27.03L258.26,25.75L261.02,26.6L262.85,26.52L263.77,24.43L264.69,23.5L267.45,23.07L270.21,21.29L271.12,21.43L274.8,20.59L275.72,21.24L277.56,19.73L280.32,19.49L283.99,17.13L286.75,17.02L289.51,18.49L290.43,17.55L301.45,17.02L303.29,20.03L306.05,18.32L306.97,20.81L307.89,22.32L308.81,20.52L309.73,21.61L312.48,20.11L314.32,17.03L315.24,17.98L316.16,16.73L318.92,17.94L319.84,18.92L320.75,16.79L322.59,19.3L325.35,20.78L327.19,17.16L328.11,16.34L332.7,14.63L333.62,14.45L335.46,15.2L338.22,14.35L339.14,14.43L340.05,17.05L344.65,17.9L345.57,16.7L346.49,16.32L347.41,18.22L348.33,18.11L352,20.52L353.84,23.18L354.76,25.56L357.52,25.22L358.44,26.73L360.27,27.57L361.19,24.61L365.79,20.18L366.71,23.33L367.63,22.68L370.38,23.14L372.22,20.24L373.14,22.58L374.06,24.98L376.82,25.46L377.74,23.5L378.66,23.39L380.49,26.94L384.17,28.18L385.09,30.41L386.01,28.63L386.93,25.94L389.68,26.24L390.6,28.14L391.52,25.88L393.36,27.5L396.12,31.1L397.04,31.95L397.96,28.94L398.88,29.46L399.79,31.01L402.55,31.89L403.47,29.37L405.31,25.18L406.23,23.73L408.98,23.78L409.9,22.36L410.82,23.92L411.74,22.12L412.66,21.48L415.42,20.57L416.34,18.99L417.26,19.81L418.18,21.84L419.09,21.4L421.85,20.37L422.77,21.98L423.69,23.22L424.61,22.68L425.53,23.02L428.29,25.15L429.2,25.58L430.12,24.19L431.04,25.71L434.72,25.74L435.64,23.75L436.56,23.83L438.4,29.11L441.15,28.43L442.07,31.83L442.99,31.58L443.91,28.67L444.83,33.05L448.5,31.82L449.42,28.31L450.34,32.62L451.26,33.29L454.02,37L454.94,36.73L455.86,38.58L456.78,38.72L457.7,36.08L460.45,36.53L461.37,34.26L462.29,38.9L464.13,39.53L466.89,37.5L467.81,38.4L468.72,37.35L470.56,32.3L474.24,33.04L475.16,33.91L476.08,31.78L477,33.7L479.75,33.34L480.67,32.24L481.59,33.5L483.43,39.55L486.19,43.8L487.11,44.2L488.02,42.66L488.94,46.13L489.86,45.9L495.38,42.5L496.3,39.24L499.05,39.57L499.97,41.78L500.89,41.85L501.81,42.79L502.73,41.67L506.41,41.5L507.33,41.11L508.24,39.5L509.16,39.59L511.92,40.85L513.76,42.33L514.68,42.65L515.6,40.61L518.35,41.52L520.19,37.88L521.11,36.79L522.03,37.84L524.79,37.69L525.71,38.98L526.63,36.09L528.46,33.09L531.22,33.42L532.14,34.19L533.06,32.39L538.57,33.31L539.49,30.84L540.41,30.93L541.33,28.88L545.01,28.17L545.93,29.05L546.84,28.77L547.76,30.33L551.44,33.14L552.36,32.8L553.28,31.15L554.2,35.13L556.95,35.9L557.87,37.15L558.79,38.02L559.71,37.69L560.63,38.89L564.31,39.34L567.06,34.86L569.82,33.65L570.74,38.65L571.66,38.28L573.5,40.32L576.26,39.57L579.93,45.39L582.69,46.46L583.61,46.68L584.53,44.66L586.36,48.41L589.12,45.8L590.04,42.64L590.96,42.85L591.88,43.94L592.8,46.89L597.39,48.66L598.31,46.04L599.23,48.49L601.99,45.82L602.91,44.63L603.83,45.33L604.75,46.16L605.67,43.71L608.42,42.46L609.34,40.72L611.18,42.18L612.1,39.54L615.78,40.8L616.69,43.52L617.61,44.64L618.53,43.21L622.21,41.59L623.13,43.83L624.05,37.98L624.97,36.96L627.72,37.96L628.64,36.99L630.48,38.26L631.4,37.73L634.16,38.16L635.08,36.66L635.99,35.99L637.83,36.02L641.51,37.95L642.43,34.5L644.27,34.74L647.02,36.79L648.86,38.62L649.78,37.78L650.7,38.6L653.46,37.02L654.38,36.2L655.29,36.89L657.13,40.91L659.89,41.89L660.81,41.77L661.73,40.18L662.65,41.75L663.57,41.12L667.24,41.56L668.16,42.86L669.08,41L670,41.27" style="vector-effect: non-scaling-stroke; fill: none; stroke: rgb(239, 85, 59); stroke-opacity: 1; stroke-width: 2px; opacity: 1;"/></g><g class="points"/><g class="text"/></g><g class="trace scatter trace07c63b" style="stroke-miterlimit: 2; opacity: 1;"><g class="fills"/><g class="errorbars"/><g class="lines"><path class="js-line" d="M0,43.62L3.68,45.18L4.6,44.19L5.51,44.83L6.43,42.15L7.35,41.05L10.11,42.4L12.87,41.78L13.79,42.72L17.46,41.09L18.38,38.95L20.22,38.25L22.98,37.49L23.9,37.57L24.81,40.48L25.73,39.94L26.65,42.12L33.09,35.68L35.84,34.61L39.52,33.72L43.2,34.11L49.63,38.89L50.55,37.8L51.47,41.72L52.39,41.13L55.14,37.88L56.06,39.76L57.9,44.97L58.82,43.36L61.58,45.91L62.5,42.1L63.42,42.14L64.33,39.43L65.25,40.08L68.01,38.93L69.85,38.4L70.77,41.75L71.69,40.94L74.44,39.61L76.28,43.02L77.2,42.89L78.12,41.57L80.88,42.21L81.8,42.33L82.72,40.68L83.64,38.77L87.31,36.92L89.15,37.06L90.07,35.9L90.99,35.32L93.74,35.73L94.66,34.54L95.58,35.67L97.42,34.08L100.18,35.2L101.1,36.26L102.02,34.91L102.94,35.99L103.85,34.37L107.53,33.76L108.45,34.09L109.37,33.83L110.29,34.81L113.05,35.36L113.96,37.51L114.88,37.93L115.8,37.51L116.72,36.54L119.48,39.41L120.4,39.51L121.32,42.44L122.24,41.68L123.16,39.18L127.75,40.25L128.67,38.31L129.59,38.84L132.35,37.28L135.1,36.67L136.02,36.56L140.62,36.5L141.54,37.66L142.46,36.03L145.21,35.47L151.65,33.08L152.57,33.91L153.48,34.18L154.4,33.18L155.32,34.26L158.08,33.34L160.84,31.47L161.76,31.55L166.35,30.37L167.27,30.22L168.19,29.26L171.87,29.06L172.78,29.05L173.7,29.91L174.62,28.75L177.38,28.49L180.14,30.05L181.06,31L183.81,32.25L184.73,30.41L187.49,27.64L190.25,27.61L191.17,29.09L192.09,28.25L193,28.12L193.92,28.99L197.6,28.26L198.52,28.11L199.44,27.17L200.36,27.65L204.03,28.04L204.95,28.23L206.79,27.76L209.55,28L211.39,30.19L212.3,30.06L213.22,28.65L215.98,26.78L217.82,25.96L218.74,26.75L219.66,25.24L222.41,24.13L225.17,23.59L226.09,23.33L230.69,23.96L231.6,24.27L232.52,25.36L235.28,25.44L236.2,26L237.12,24.98L238.04,24.81L238.96,25.95L241.71,28.65L242.63,28.38L244.47,25.88L245.39,25.91L248.15,26.55L249.07,30.02L250.91,30.83L251.82,29.86L254.58,32.41L255.5,30.95L257.34,29.14L258.26,29.75L261.93,30.68L262.85,29.82L264.69,27.15L267.45,26.13L269.29,25.31L270.21,24.54L271.12,25.57L273.88,24.45L275.72,24.37L276.64,22.63L281.23,20.98L282.15,19.65L283.99,18.34L286.75,18.25L287.67,19.04L288.59,21.2L290.43,19.25L293.18,19.31L294.1,18.32L295.02,18.75L296.86,17.64L299.62,19.3L300.53,19.95L301.45,19.38L303.29,22.27L306.05,19.89L307.89,24.22L308.81,23.18L309.73,25.6L312.48,24.46L314.32,19.85L315.24,22.06L316.16,21.14L318.92,22.92L319.84,24.36L320.75,21.67L321.67,24.83L322.59,24.91L325.35,26.46L326.27,23.51L328.11,20.95L331.78,19.16L333.62,20.02L334.54,20.23L335.46,21.02L338.22,19.48L339.14,21.2L340.05,25.48L340.97,25.64L341.89,26.83L344.65,26.77L345.57,25.05L346.49,24.76L347.41,27.89L348.33,27.18L352,30.35L353.84,33.24L354.76,36.4L357.52,35.69L358.44,38.28L359.36,38.26L360.27,39.81L361.19,36.39L363.95,32.54L365.79,31.08L366.71,35.5L367.63,33.7L370.38,34.38L372.22,30.48L373.14,32.98L374.06,36.22L376.82,36.22L377.74,33.36L378.66,33.49L380.49,38.21L384.17,39.57L385.09,42.4L386.01,38.82L386.93,37.01L389.68,36.54L390.6,38.34L391.52,36.54L396.12,44.09L397.04,44.38L397.96,40.61L398.88,41.64L399.79,43.98L402.55,46.14L406.23,35.37L408.98,35.83L409.9,33.61L410.82,35.14L411.74,32.93L412.66,33.12L415.42,31.59L416.34,29.42L418.18,32.7L419.09,32.36L421.85,30.14L422.77,32.83L423.69,35.42L424.61,35.35L425.53,36.87L428.29,39.33L429.2,39.66L430.12,37.43L431.04,39.82L434.72,39.98L435.64,37.62L436.56,38.99L438.4,44.02L441.15,42.66L442.07,46.88L442.99,46.89L443.91,43.76L444.83,48.16L448.5,46.28L449.42,42.99L451.26,49.72L454.02,53.99L454.94,53.05L455.86,56.11L456.78,56.06L457.7,52.5L460.45,53.67L461.37,51.03L462.29,55.67L463.21,55.91L464.13,56.19L466.89,54.71L467.81,56.93L468.72,55.54L470.56,49.83L474.24,50.23L475.16,50.95L476.08,48.3L477,50.8L479.75,50.4L480.67,49.46L481.59,50.19L483.43,56.31L486.19,60.66L487.11,60.51L488.02,58.29L488.94,62L489.86,60.75L494.46,58.66L495.38,57.2L496.3,54.12L499.05,54.8L499.97,57.61L500.89,57.64L501.81,58.86L502.73,58.05L507.33,56.13L508.24,54.01L509.16,53.89L511.92,56.05L513.76,57.07L514.68,57.04L515.6,55.39L518.35,56.15L520.19,51.74L521.11,50.41L522.03,52.26L524.79,52.68L525.71,54.49L526.63,50.64L528.46,47.7L531.22,47.88L532.14,48.04L533.06,45.42L533.98,44.99L534.9,45.51L537.65,45.62L538.57,46.85L539.49,43.89L540.41,44.51L541.33,42.32L544.09,41.65L545.01,41.86L545.93,43.21L546.84,42.99L547.76,45.12L551.44,47.78L552.36,47.36L553.28,45.66L554.2,49.74L557.87,51.86L558.79,52.41L559.71,52.66L560.63,53.93L564.31,54.63L565.23,52.61L566.15,52.03L567.06,49.98L569.82,48.72L570.74,53.91L571.66,53.2L572.58,54.57L573.5,55.42L576.26,54.71L578.09,57.29L579.01,58.55L579.93,60.18L582.69,60.72L583.61,60.5L584.53,58.68L586.36,62.58L589.12,60.61L590.04,57.65L590.96,57.88L591.88,58.5L592.8,61.95L597.39,63.88L598.31,61.98L599.23,64.66L601.99,61.76L602.91,60.97L603.83,61.72L604.75,62.26L605.67,60.25L608.42,59.49L609.34,57.47L611.18,60.8L612.1,58.26L615.78,59.99L616.69,63L617.61,64.49L618.53,63.4L622.21,62.25L623.13,64.4L624.97,56.45L627.72,57.49L628.64,56.16L629.56,57.59L634.16,58.9L635.08,57.67L635.99,56.76L637.83,57.24L641.51,59.23L642.43,55.26L644.27,55.32L647.02,57.13L648.86,59.44L649.78,58.43L650.7,59.06L653.46,57.92L654.38,56.99L655.29,57.7L657.13,61.52L659.89,62.82L660.81,62.81L661.73,61.48L662.65,63.4L663.57,63.22L667.24,64.4L668.16,65.55L669.08,63.38L670,63.47" style="vector-effect: non-scaling-stroke; fill: none; stroke: rgb(0, 204, 150); stroke-opacity: 1; stroke-width: 2px; opacity: 1;"/></g><g class="points"/><g class="text"/></g></g></g><g class="overplot"/><path class="xlines-above crisp" style="fill: none;"/><path class="ylines-above crisp" style="fill: none;"/><g class="overlines-above"/><g class="xaxislayer-above"/><g class="yaxislayer-above"/><g class="overaxes-above"/></g><rect class="rangeslider-mask-min" x="0" y="0" shape-rendering="crispEdges" height="68.85" width="0" style="fill: rgb(0, 0, 0); fill-opacity: 0.4;"/><rect class="rangeslider-mask-max" y="0" shape-rendering="crispEdges" height="68.85" x="670" width="0" style="fill: rgb(0, 0, 0); fill-opacity: 0.4;"/><g class="rangeslider-grabber-min" transform="translate(-2.5,0.5)"><rect class="rangeslider-handle-min" x="0" width="4" rx="1" fill="#fff" stroke="#444" stroke-width="1" shape-rendering="crispEdges" y="17" height="34"/><rect class="rangeslider-grabarea-min" width="10" x="0" y="0" fill="transparent" height="68.85"/></g><g class="rangeslider-grabber-max" transform="translate(668.5,0.5)"><rect class="rangeslider-handle-max" x="0" width="4" rx="1" fill="#fff" stroke="#444" stroke-width="1" shape-rendering="crispEdges" y="17" height="34"/><rect class="rangeslider-grabarea-max" width="10" x="0" y="0" fill="transparent" height="68.85"/></g></g><g class="g-ytitle" transform="translate(1.6904296875,0)"><text class="ytitle" transform="rotate(-90,12.309375000000003,239.5)" x="12.309375000000003" y="239.5" text-anchor="middle" style="font-family: 'Open Sans', verdana, arial, sans-serif; font-size: 14px; fill: rgb(42, 63, 95); opacity: 1; font-weight: normal; white-space: pre;">Wealth Index</text></g><g class="g-xtitle"><text class="xtitle" x="396" y="549.85" text-anchor="middle" style="font-family: 'Open Sans', verdana, arial, sans-serif; font-size: 14px; fill: rgb(42, 63, 95); opacity: 1; font-weight: normal; white-space: pre;">Date</text></g></g></svg>