<svg class="main-svg" xmlns="http://www.w3.org/2000/svg" xmlns:xlink="http://www.w3.org/1999/xlink" width="845" height="569" style=""><rect x="0" y="0" width="845" height="569" style="fill: rgb(255, 255, 255); fill-opacity: 1;"/><defs id="defs-038e57"><g class="clips"><clipPath id="clip038e57xyplot" class="plotclip"><rect width="671" height="359"/></clipPath><clipPath class="axesclip" id="clip038e57x"><rect x="60" y="0" width="671" height="569"/></clipPath><clipPath class="axesclip" id="clip038e57y"><rect x="0" y="60" width="845" height="359"/></clipPath><clipPath class="axesclip" id="clip038e57xy"><rect x="60" y="60" width="671" height="359"/></clipPath></g><g class="gradients"/><g class="patterns"/></defs><g class="bglayer"/><g class="layer-below"><g class="imagelayer"/><g class="shapelayer"/></g><g class="cartesianlayer"><g class="subplot xy"><g class="layer-subplot"><g class="shapelayer"/><g class="imagelayer"/></g><g class="gridlayer"><g class="x"><path class="xgrid crisp" transform="translate(143.76,0)" d="M0,60v359" style="stroke: rgb(211, 211, 211); stroke-opacity: 1; stroke-width: 1px;"/><path class="xgrid crisp" transform="translate(227.52,0)" d="M0,60v359" style="stroke: rgb(211, 211, 211); stroke-opacity: 1; stroke-width: 1px;"/><path class="xgrid crisp" transform="translate(312.2,0)" d="M0,60v359" style="stroke: rgb(211, 211, 211); stroke-opacity: 1; stroke-width: 1px;"/><path class="xgrid crisp" transform="translate(396.88,0)" d="M0,60v359" style="stroke: rgb(211, 211, 211); stroke-opacity: 1; stroke-width: 1px;"/><path class="xgrid crisp" transform="translate(479.72,0)" d="M0,60v359" style="stroke: rgb(211, 211, 211); stroke-opacity: 1; stroke-width: 1px;"/><path class="xgrid crisp" transform="translate(563.48,0)" d="M0,60v359" style="stroke: rgb(211, 211, 211); stroke-opacity: 1; stroke-width: 1px;"/><path class="xgrid crisp" transform="translate(648.16,0)" d="M0,60v359" style="stroke: rgb(211, 211, 211); stroke-opacity: 1; stroke-width: 1px;"/></g><g class="y"><path class="ygrid crisp" transform="translate(0,362.85)" d="M60,0h671" style="stroke: rgb(211, 211, 211); stroke-opacity: 1; stroke-width: 1px;"/><path class="ygrid crisp" transform="translate(0,322.32)" d="M60,0h671" style="stroke: rgb(211, 211, 211); stroke-opacity: 1; stroke-width: 1px;"/><path class="ygrid crisp" transform="translate(0,281.78)" d="M60,0h671" style="stroke: rgb(211, 211, 211); stroke-opacity: 1; stroke-width: 1px;"/><path class="ygrid crisp" transform="translate(0,241.25)" d="M60,0h671" style="stroke: rgb(211, 211, 211); stroke-opacity: 1; stroke-width: 1px;"/><path class="ygrid crisp" transform="translate(0,200.72)" d="M60,0h671" style="stroke: rgb(211, 211, 211); stroke-opacity: 1; stroke-width: 1px;"/><path class="ygrid crisp" transform="translate(0,160.18)" d="M60,0h671" style="stroke: rgb(211, 211, 211); stroke-opacity: 1; stroke-width: 1px;"/><path class="ygrid crisp" transform="translate(0,119.65)" d="M60,0h671" style="stroke: rgb(211, 211, 211); stroke-opacity: 1; stroke-width: 1px;"/><path class="ygrid crisp" transform="translate(0,79.11)" d="M60,0h671" style="stroke: rgb(211, 211, 211); stroke-opacity: 1; stroke-width: 1px;"/></g></g><g class="zerolinelayer"><path class="yzl zl crisp" transform="translate(0,403.38)" d="M60,0h671" style="stroke: rgb(211, 211, 211); stroke-opacity: 1; stroke-width: 2px;"/></g><path class="xlines-below"/><path class="ylines-below"/><g class="overlines-below"/><g class="xaxislayer-below"/><g class="yaxislayer-below"/><g class="overaxes-below"/><g class="plot" transform="translate(60,60)" clip-path="url(#clip038e57xyplot)"><g class="scatterlayer mlayer"><g class="trace scatter traceee33a5" style="stroke-miterlimit: 2; opacity: 1;"><g class="fills"/><g class="errorbars"/><g class="lines"><path class="js-line" d="M0,340.73L39.58,340.67L43.26,340.71L61.67,341.05L62.59,340.96L89.28,340.82L90.2,340.77L104.01,340.69L106.77,340.68L164.76,340.68L165.68,340.64L239.31,340.44L242.08,340.51L352.53,339.96L353.45,340.03L367.26,339.9L368.18,339.91L528.33,340.2L529.25,340.1L671,340.75" style="vector-effect: non-scaling-stroke; fill: none; stroke: rgb(99, 110, 250); stroke-opacity: 1; stroke-width: 2px; opacity: 1;"/></g><g class="points"/><g class="text"/></g><g class="trace scatter tracec9183a" style="stroke-miterlimit: 2; opacity: 1;"><g class="fills"/><g class="errorbars"/><g class="lines"><path class="js-line" d="M0,267.26L3.68,268.38L4.6,267.85L7.36,265.87L10.12,266.38L12.89,266.46L13.81,267.01L17.49,266.39L18.41,265.32L23.93,265.36L24.85,267.37L25.77,266.63L26.69,268.11L35.9,264.03L36.82,264.12L46.02,264.21L48.78,264.82L49.7,264.72L50.62,263.83L52.47,266.14L55.23,264.31L57.99,267.01L58.91,265.52L61.67,265.94L62.59,264.84L65.35,263.46L68.11,262.95L69.95,262.84L70.87,264.03L75.48,264.13L76.4,264.56L77.32,264.15L78.24,262.83L82.84,262.87L83.76,261.91L91.12,259.71L93.88,259.72L97.57,258.56L100.33,259.01L101.25,259.58L102.17,258.8L103.09,259.58L104.01,258.66L113.21,258.41L114.13,258.98L115.98,258.23L116.9,257.6L120.58,259.23L121.5,261.04L123.34,258.79L126.1,259.01L127.94,259.97L128.86,259.09L129.78,259.16L132.54,258.32L135.3,258.25L136.22,258.18L141.75,258.41L142.67,257.66L149.11,257.3L151.87,257.15L154.63,257.82L155.55,258.94L162,256.63L164.76,256.43L167.52,255.83L168.44,255.18L173.96,255.81L174.88,254.83L179.49,254.73L180.41,255.02L184.09,257.08L185.01,255.77L187.77,253.97L190.53,253.76L192.37,254.2L193.29,253.82L194.21,254.31L196.97,254.47L197.89,253.74L198.81,254.16L200.66,253.47L203.42,253.55L209.86,252.59L210.78,253.24L212.62,254.09L213.54,253.37L218.14,252.26L219.06,252.79L219.98,251.99L222.75,251.6L226.43,251.46L230.11,251.78L231.95,252.32L232.87,253.02L238.39,252.71L239.31,253.54L243,255.14L243.92,254.3L245.76,253.09L248.52,253.34L249.44,255.17L250.36,255.03L251.28,256.08L252.2,255.08L254.96,256.23L255.88,255.31L258.64,254.39L261.4,255L263.25,254.94L264.17,253.43L265.09,252.76L267.85,252.46L270.61,251.17L271.53,251.27L276.13,251.14L277.05,250.23L282.57,248.93L283.5,248.53L284.42,248.18L287.18,248.1L289.94,249.16L290.86,248.48L301.9,248.1L303.74,250.27L306.51,249.04L307.43,250.83L308.35,251.92L309.27,250.62L310.19,251.4L312.95,250.33L314.79,248.11L315.71,248.79L316.63,247.89L319.39,248.76L320.31,249.47L321.23,247.93L323.07,249.74L325.84,250.8L327.68,248.2L328.6,247.61L334.12,246.24L335.04,246.53L335.96,246.79L338.72,246.17L339.64,246.23L340.56,248.12L345.16,248.73L346.09,247.86L347.01,247.6L347.93,248.96L348.85,248.88L352.53,250.62L355.29,254.25L358.05,254L359.89,255.22L360.81,255.7L361.73,253.56L364.49,251.87L366.33,250.37L367.26,252.64L368.18,252.17L370.94,252.51L372.78,250.42L373.7,252.1L374.62,253.83L377.38,254.18L379.22,252.69L380.14,254.61L381.06,255.25L384.74,256.14L385.66,257.75L386.58,256.47L387.5,254.52L390.27,254.74L391.19,256.11L392.11,254.48L393.95,255.65L396.71,258.24L397.63,258.86L398.55,256.68L403.15,258.81L404.07,257L406.83,252.93L409.6,252.97L410.52,251.95L411.44,253.07L413.28,251.31L416.04,250.65L416.96,249.52L417.88,250.11L418.8,251.57L419.72,251.25L422.48,250.51L423.4,251.67L424.32,252.56L425.24,252.18L426.16,252.42L428.92,253.96L429.84,254.26L430.77,253.27L431.69,254.36L435.37,254.38L436.29,252.95L437.21,253L439.05,256.81L441.81,256.31L442.73,258.77L443.65,258.59L444.57,256.49L445.49,259.64L449.17,258.76L450.09,256.23L451.94,259.82L454.7,262.49L455.62,262.3L456.54,263.63L457.46,263.73L458.38,261.83L461.14,262.15L462.06,260.52L462.98,263.86L463.9,264.33L464.82,264.32L467.58,262.85L468.5,263.5L469.42,262.75L471.26,259.11L474.95,259.64L475.87,260.26L476.79,258.73L477.71,260.12L480.47,259.86L481.39,259.06L482.31,259.97L484.15,264.33L486.91,267.39L487.83,267.68L488.75,266.57L489.67,269.07L490.59,268.91L496.12,266.46L497.04,264.11L499.8,264.34L500.72,265.93L502.56,266.67L503.48,265.86L508.08,265.46L509,264.29L512.68,265.27L513.6,265.99L515.45,266.56L516.37,265.09L519.13,265.74L520.05,263.6L521.89,262.34L522.81,263.09L525.57,262.99L526.49,263.92L528.33,260.85L529.25,259.68L532.93,260.47L533.85,259.17L539.38,259.83L540.3,258.06L541.22,258.12L542.14,256.64L547.66,256.57L548.58,257.69L552.26,259.71L553.18,259.46L554.1,258.28L555.02,261.15L558.71,262.6L559.63,263.23L560.55,262.99L561.47,263.85L565.15,264.18L566.07,262.72L570.67,260.08L571.59,263.68L572.51,263.41L573.43,264.32L574.35,264.88L577.12,264.35L580.8,268.53L583.56,269.31L584.48,269.46L585.4,268.01L587.24,270.71L590,268.83L590.92,266.55L591.84,266.71L592.76,267.49L593.68,269.62L598.29,270.89L599.21,269.01L600.13,270.77L602.89,268.84L603.81,267.99L604.73,268.49L605.65,269.09L606.57,267.33L609.33,266.42L610.25,265.17L612.09,266.22L613.01,264.32L616.69,265.23L617.61,267.19L618.53,267.99L619.46,266.97L623.14,265.8L624.06,267.41L625.9,262.46L628.66,263.18L629.58,262.48L630.5,263.15L632.34,263.02L635.1,263.33L636.94,261.76L638.78,261.79L642.47,263.18L643.39,260.69L645.23,260.86L647.99,262.34L649.83,263.66L650.75,263.06L651.67,263.65L654.43,262.51L655.35,261.92L656.27,262.41L658.11,265.31L660.88,266.01L661.8,265.93L662.72,264.78L663.64,265.92L664.56,265.46L668.24,265.78L669.16,266.71L670.08,265.37L671,265.57" style="vector-effect: non-scaling-stroke; fill: none; stroke: rgb(239, 85, 59); stroke-opacity: 1; stroke-width: 2px; opacity: 1;"/></g><g class="points"/><g class="text"/></g><g class="trace scatter tracec6edce" style="stroke-miterlimit: 2; opacity: 1;"><g class="fills"/><g class="errorbars"/><g class="lines"><path class="js-line" d="M0,82.18L3.68,86.03L4.6,83.58L5.52,85.17L6.44,78.55L7.36,75.82L10.12,79.18L11.97,77.3L12.89,77.63L13.81,79.95L17.49,75.92L19.33,69.15L20.25,68.91L23.93,67.23L24.85,74.43L25.77,73.08L26.69,78.48L29.45,71.74L30.37,67.5L31.29,67.54L32.22,64.15L33.14,62.56L35.9,59.9L36.82,59.49L37.74,60.2L39.58,57.71L43.26,58.69L45.1,62.38L46.02,62.19L49.7,70.49L50.62,67.8L51.54,77.49L52.47,76.02L55.23,67.98L56.15,72.64L57.99,85.52L58.91,81.53L61.67,87.84L62.59,78.42L63.51,78.52L64.43,71.83L65.35,73.43L68.11,70.6L69.03,70.36L69.95,69.27L70.87,77.56L71.79,75.55L74.56,72.26L75.48,75.3L76.4,80.69L77.32,80.37L78.24,77.1L81,78.71L81.92,78.99L82.84,74.91L83.76,70.18L87.44,65.61L89.28,65.95L90.2,63.11L91.12,61.67L93.88,62.69L94.81,59.73L95.73,62.53L96.65,58.86L97.57,58.59L100.33,61.38L101.25,63.98L102.17,60.66L103.09,63.33L104.01,59.31L106.77,56.84L108.61,58.61L109.53,57.97L110.45,60.4L113.21,61.77L115.05,68.11L115.98,67.09L116.9,64.67L119.66,71.77L120.58,72.02L121.5,79.27L122.42,77.38L123.34,71.2L126.1,72.23L127.02,73.76L127.94,73.84L128.86,69.06L129.78,70.37L132.54,66.51L133.46,66.6L134.38,64.96L140.83,64.59L141.75,67.46L142.67,63.41L145.43,62.05L146.35,61.17L147.27,61.44L149.11,58.24L151.87,56.12L153.71,58.84L154.63,56.38L155.55,59.03L158.32,56.78L160.16,54.14L161.08,52.15L162,52.34L164.76,49.5L165.68,48.94L166.6,49.43L167.52,49.06L168.44,46.69L173.04,46.17L173.96,48.3L174.88,45.42L177.64,44.79L180.41,48.64L181.33,50.99L184.09,54.07L185.01,49.54L187.77,42.68L190.53,42.61L191.45,46.26L192.37,44.19L193.29,43.87L194.21,46.01L196.97,45.84L197.89,44.22L198.81,43.83L199.74,41.51L200.66,42.71L203.42,42.21L205.26,44.14L206.18,43.1L207.1,42.97L209.86,43.56L211.7,48.99L212.62,48.67L213.54,45.16L216.3,40.54L218.14,38.53L219.06,40.48L219.98,36.76L222.75,33.99L223.67,34.13L224.59,33.11L226.43,32.01L230.11,31.79L232.87,37.04L235.63,37.24L236.55,38.62L237.47,36.11L238.39,35.69L239.31,38.49L242.08,45.18L243,44.52L244.84,38.32L245.76,38.41L248.52,39.99L249.44,48.57L251.28,50.56L252.2,48.16L254.96,54.47L255.88,50.86L256.8,49.48L257.72,46.39L258.64,47.9L261.4,49.79L262.33,50.21L263.25,48.06L265.09,41.46L267.85,38.94L268.77,36.76L269.69,36.91L270.61,35.01L271.53,37.55L275.21,34.6L276.13,34.6L277.97,29.28L280.73,27.3L281.65,26.22L282.57,22.93L284.42,19.69L287.18,19.47L288.1,21.41L289.02,26.76L290.86,21.93L293.62,22.08L294.54,19.64L295.46,20.7L297.3,17.95L300.06,22.06L300.98,23.67L301.9,22.25L303.74,29.42L306.51,23.52L308.35,34.23L309.27,31.65L310.19,37.65L312.95,34.82L314.79,23.43L315.71,28.9L316.63,26.6L319.39,31.01L320.31,34.56L321.23,27.92L322.15,35.72L323.07,35.94L325.84,39.77L326.76,32.47L328.6,26.14L332.28,21.72L334.12,23.85L335.04,24.35L335.96,26.31L338.72,22.5L339.64,26.76L340.56,37.35L341.48,37.74L342.4,40.68L345.16,40.54L346.09,36.27L347.01,35.56L347.93,43.3L348.85,41.53L352.53,49.37L354.37,56.53L355.29,64.33L358.05,62.58L358.97,68.98L359.89,68.93L360.81,72.76L361.73,64.3L364.49,54.79L366.33,51.19L367.26,62.1L368.18,57.66L370.94,59.33L372.78,49.71L373.7,55.89L374.62,63.88L377.38,63.89L378.3,56.82L379.22,57.13L381.06,68.81L384.74,72.18L385.66,79.15L386.58,70.32L387.5,65.84L390.27,64.69L391.19,69.12L392.11,64.67L396.71,83.34L397.63,84.06L398.55,74.74L399.47,77.28L400.39,83.08L403.15,88.4L406.83,61.8L409.6,62.92L410.52,57.44L411.44,61.22L412.36,55.76L413.28,56.22L416.04,52.46L416.96,47.09L418.8,55.18L419.72,54.35L422.48,48.85L423.4,55.51L424.32,61.9L425.24,61.73L426.16,65.5L428.92,71.57L429.84,72.38L430.77,66.87L431.69,72.8L435.37,73.18L436.29,67.36L437.21,70.73L439.05,83.17L441.81,79.82L442.73,90.24L443.65,90.27L444.57,82.52L445.49,93.4L449.17,88.76L450.09,80.63L451.94,97.25L454.7,107.82L455.62,105.5L456.54,113.07L457.46,112.93L458.38,104.13L461.14,107.02L462.06,100.5L462.98,111.97L463.9,112.57L464.82,113.26L467.58,109.6L468.5,115.09L469.42,111.64L471.26,97.52L474.95,98.53L475.87,100.29L476.79,93.76L477.71,99.92L480.47,98.94L481.39,96.63L482.31,98.43L484.15,113.56L486.91,124.31L487.83,123.93L488.75,118.44L489.67,127.62L490.59,124.54L494.28,119.04L495.2,119.37L496.12,115.74L497.04,108.13L499.8,109.82L500.72,116.77L501.64,116.84L502.56,119.87L503.48,117.86L507.16,113.92L508.08,113.11L509,107.86L509.92,107.57L512.68,112.9L514.53,115.43L515.45,115.36L516.37,111.28L519.13,113.15L520.97,102.26L521.89,98.97L522.81,103.54L525.57,104.59L526.49,109.05L527.41,99.52L529.25,92.26L532.01,92.7L532.93,93.11L533.85,86.64L534.78,85.58L535.7,86.86L538.46,87.12L539.38,90.17L540.3,82.86L541.22,84.38L542.14,78.96L544.9,77.32L545.82,77.84L546.74,81.17L547.66,80.62L548.58,85.89L551.34,92.45L552.26,92.45L553.18,91.44L554.1,87.23L555.02,97.31L557.79,99.82L559.63,103.91L560.55,104.54L561.47,107.66L565.15,109.4L567.91,97.91L570.67,94.78L571.59,107.61L572.51,105.86L574.35,111.36L577.12,109.61L578.96,115.99L579.88,119.09L580.8,123.13L583.56,124.44L584.48,123.9L585.4,119.4L587.24,129.05L590,124.19L590.92,116.87L591.84,117.44L592.76,118.96L593.68,127.49L596.44,129.73L597.36,132.08L598.29,132.26L599.21,127.56L600.13,134.2L602.89,127.02L603.81,125.06L604.73,126.92L605.65,128.25L606.57,123.29L609.33,121.41L610.25,116.41L612.09,124.65L613.01,118.37L615.77,120.69L616.69,122.66L618.53,133.76L619.46,131.08L623.14,128.23L624.06,133.56L625.9,113.9L628.66,116.47L629.58,113.18L630.5,116.73L635.1,119.95L636.02,116.91L636.94,114.67L638.78,115.86L642.47,120.78L643.39,110.96L645.23,111.1L647.99,115.59L649.83,121.29L650.75,118.79L651.67,120.35L654.43,117.54L655.35,115.24L656.27,116.98L658.11,126.42L660.88,129.65L661.8,129.63L662.72,126.34L663.64,131.07L664.56,130.63L668.24,133.56L669.16,136.39L670.08,131.03L671,131.26" style="vector-effect: non-scaling-stroke; fill: none; stroke: rgb(0, 204, 150); stroke-opacity: 1; stroke-width: 2px; opacity: 1;"/></g><g class="points"/><g class="text"/></g></g></g><g class="overplot"/><path class="xlines-above crisp" d="M0,0" style="fill: none;"/><path class="ylines-above crisp" d="M0,0" style="fill: none;"/><g class="overlines-above"/><g class="xaxislayer-above"><g class="xtick"><text text-anchor="middle" x="0" y="432" transform="translate(60.92,0)" style="font-family: 'Open Sans', verdana, arial, sans-serif; font-size: 12px; fill: rgb(42, 63, 95); fill-opacity: 1; white-space: pre; opacity: 1;">Jan 2021</text></g><g class="xtick"><text text-anchor="middle" x="0" y="432" style="font-family: 'Open Sans', verdana, arial, sans-serif; font-size: 12px; fill: rgb(42, 63, 95); fill-opacity: 1; white-space: pre; opacity: 1;" transform="translate(143.76,0)">Apr 2021</text></g><g class="xtick"><text text-anchor="middle" x="0" y="432" style="font-family: 'Open Sans', verdana, arial, sans-serif; font-size: 12px; fill: rgb(42, 63, 95); fill-opacity: 1; white-space: pre; opacity: 1;" transform="translate(227.52,0)">Jul 2021</text></g><g class="xtick"><text text-anchor="middle" x="0" y="432" style="font-family: 'Open Sans', verdana, arial, sans-serif; font-size: 12px; fill: rgb(42, 63, 95); fill-opacity: 1; white-space: pre; opacity: 1;" transform="translate(312.2,0)">Oct 2021</text></g><g class="xtick"><text text-anchor="middle" x="0" y="432" style="font-family: 'Open Sans', verdana, arial, sans-serif; font-size: 12px; fill: rgb(42, 63, 95); fill-opacity: 1; white-space: pre; opacity: 1;" transform="translate(396.88,0)">Jan 2022</text></g><g class="xtick"><text text-anchor="middle" x="0" y="432" style="font-family: 'Open Sans', verdana, arial, sans-serif; font-size: 12px; fill: rgb(42, 63, 95); fill-opacity: 1; white-space: pre; opacity: 1;" transform="translate(479.72,0)">Apr 2022</text></g><g class="xtick"><text text-anchor="middle" x="0" y="432" style="font-family: 'Open Sans', verdana, arial, sans-serif; font-size: 12px; fill: rgb(42, 63, 95); fill-opacity: 1; white-space: pre; opacity: 1;" transform="translate(563.48,0)">Jul 2022</text></g><g class="xtick"><text text-anchor="middle" x="0" y="432" style="font-family: 'Open Sans', verdana, arial, sans-serif; font-size: 12px; fill: rgb(42, 63, 95); fill-opacity: 1; white-space: pre; opacity: 1;" transform="translate(648.16,0)">Oct 2022</text></g></g><g class="yaxislayer-above"><g class="ytick"><text text-anchor="end" x="59" y="4.199999999999999" transform="translate(0,403.38)" style="font-family: 'Open Sans', verdana, arial, sans-serif; font-size: 12px; fill: rgb(42, 63, 95); fill-opacity: 1; white-space: pre; opacity: 1;">0</text></g><g class="ytick"><text text-anchor="end" x="59" y="4.199999999999999" style="font-family: 'Open Sans', verdana, arial, sans-serif; font-size: 12px; fill: rgb(42, 63, 95); fill-opacity: 1; white-space: pre; opacity: 1;" transform="translate(0,362.85)">2k</text></g><g class="ytick"><text text-anchor="end" x="59" y="4.199999999999999" style="font-family: 'Open Sans', verdana, arial, sans-serif; font-size: 12px; fill: rgb(42, 63, 95); fill-opacity: 1; white-space: pre; opacity: 1;" transform="translate(0,322.32)">4k</text></g><g class="ytick"><text text-anchor="end" x="59" y="4.199999999999999" style="font-family: 'Open Sans', verdana, arial, sans-serif; font-size: 12px; fill: rgb(42, 63, 95); fill-opacity: 1; white-space: pre; opacity: 1;" transform="translate(0,281.78)">6k</text></g><g class="ytick"><text text-anchor="end" x="59" y="4.199999999999999" style="font-family: 'Open Sans', verdana, arial, sans-serif; font-size: 12px; fill: rgb(42, 63, 95); fill-opacity: 1; white-space: pre; opacity: 1;" transform="translate(0,241.25)">8k</text></g><g class="ytick"><text text-anchor="end" x="59" y="4.199999999999999" style="font-family: 'Open Sans', verdana, arial, sans-serif; font-size: 12px; fill: rgb(42, 63, 95); fill-opacity: 1; white-space: pre; opacity: 1;" transform="translate(0,200.72)">10k</text></g><g class="ytick"><text text-anchor="end" x="59" y="4.199999999999999" style="font-family: 'Open Sans', verdana, arial, sans-serif; font-size: 12px; fill: rgb(42, 63, 95); fill-opacity: 1; white-space: pre; opacity: 1;" transform="translate(0,160.18)">12k</text></g><g class="ytick"><text text-anchor="end" x="59" y="4.199999999999999" style="font-family: 'Open Sans', verdana, arial, sans-serif; font-size: 12px; fill: rgb(42, 63, 95); fill-opacity: 1; white-space: pre; opacity: 1;" transform="translate(0,119.65)">14k</text></g><g class="ytick"><text text-anchor="end" x="59" y="4.199999999999999" style="font-family: 'Open Sans', verdana, arial, sans-serif; font-size: 12px; fill: rgb(42, 63, 95); fill-opacity: 1; white-space: pre; opacity: 1;" transform="translate(0,79.11)">16k</text></g></g><g class="overaxes-above"/></g></g><g class="polarlayer"/><g class="ternarylayer"/><g class="geolayer"/><g class="funnelarealayer"/><g class="pielayer"/><g class="iciclelayer"/><g class="treemaplayer"/><g class="sunburstlayer"/><g class="glimages"/><defs id="topdefs-038e57"><g class="clips"/><clipPath id="legend038e57"><rect width="89" height="67" x="0" y="0"/></clipPath><clipPath id="rangesliderx-038e57"><rect x="0" y="0" width="671" height="68.85"/></clipPath></defs><g class="layer-above"><g class="imagelayer"/><g class="shapelayer"/></g><g class="infolayer"><g class="legend" pointer-events="all" transform="translate(744.42,60)"><rect class="bg" shape-rendering="crispEdges" width="89" height="67" x="0" y="0" style="stroke: rgb(68, 68, 68); stroke-opacity: 1; fill: rgb(255, 255, 255); fill-opacity: 1; stroke-width: 0px;"/><g class="scrollbox" transform="" clip-path="url(#legend038e57)"><g class="groups" transform=""><g class="traces" transform="translate(0,14.5)" style="opacity: 1;"><text class="legendtext" text-anchor="start" x="40" y="4.680000000000001" style="font-family: 'Open Sans', verdana, arial, sans-serif; font-size: 12px; fill: rgb(42, 63, 95); fill-opacity: 1; white-space: pre;">AAPL</text><g class="layers" style="opacity: 1;"><g class="legendfill"/><g class="legendlines"><path class="js-line" d="M5,0h30" style="fill: none; stroke: rgb(99, 110, 250); stroke-opacity: 1; stroke-width: 2px;"/></g><g class="legendsymbols"><g class="legendpoints"/></g></g><rect class="legendtoggle" x="0" y="-9.5" width="83.564453125" height="19" style="fill: rgb(0, 0, 0); fill-opacity: 0;"/></g></g><g class="groups" transform=""><g class="traces" transform="translate(0,33.5)" style="opacity: 1;"><text class="legendtext" text-anchor="start" x="40" y="4.680000000000001" style="font-family: 'Open Sans', verdana, arial, sans-serif; font-size: 12px; fill: rgb(42, 63, 95); fill-opacity: 1; white-space: pre;">^GSPC</text><g class="layers" style="opacity: 1;"><g class="legendfill"/><g class="legendlines"><path class="js-line" d="M5,0h30" style="fill: none; stroke: rgb(239, 85, 59); stroke-opacity: 1; stroke-width: 2px;"/></g><g class="legendsymbols"><g class="legendpoints"/></g></g><rect class="legendtoggle" x="0" y="-9.5" width="83.564453125" height="19" style="fill: rgb(0, 0, 0); fill-opacity: 0;"/></g></g><g class="groups" transform=""><g class="traces" transform="translate(0,52.5)" style="opacity: 1;"><text class="legendtext" text-anchor="start" x="40" y="4.680000000000001" style="font-family: 'Open Sans', verdana, arial, sans-serif; font-size: 12px; fill: rgb(42, 63, 95); fill-opacity: 1; white-space: pre;">^IXIC</text><g class="layers" style="opacity: 1;"><g class="legendfill"/><g class="legendlines"><path class="js-line" d="M5,0h30" style="fill: none; stroke: rgb(0, 204, 150); stroke-opacity: 1; stroke-width: 2px;"/></g><g class="legendsymbols"><g class="legendpoints"/></g></g><rect class="legendtoggle" x="0" y="-9.5" width="83.564453125" height="19" style="fill: rgb(0, 0, 0); fill-opacity: 0;"/></g></g></g><rect class="scrollbar" rx="20" ry="3" width="0" height="0" x="0" y="0" style="fill: rgb(128, 139, 164); fill-opacity: 1;"/></g><g class="rangeselector" transform="translate(50,32)" style="cursor: pointer; pointer-events: all;"><g class="button" transform=""><rect class="selector-rect" shape-rendering="crispEdges" rx="3" ry="3" x="0" y="0" width="30" height="19" style="stroke: rgb(68, 68, 68); stroke-opacity: 1; fill: rgb(238, 238, 238); fill-opacity: 1; stroke-width: 0px;"/><text class="selector-text" text-anchor="middle" x="15" y="12.5" style="font-family: 'Open Sans', verdana, arial, sans-serif; font-size: 12px; fill: rgb(42, 63, 95); fill-opacity: 1; white-space: pre;">1m</text></g><g class="button" transform="translate(35,0)"><rect class="selector-rect" shape-rendering="crispEdges" rx="3" ry="3" x="0" y="0" width="30" height="19" style="stroke: rgb(68, 68, 68); stroke-opacity: 1; fill: rgb(238, 238, 238); fill-opacity: 1; stroke-width: 0px;"/><text class="selector-text" text-anchor="middle" x="15" y="12.5" style="font-family: 'Open Sans', verdana, arial, sans-serif; font-size: 12px; fill: rgb(42, 63, 95); fill-opacity: 1; white-space: pre;">6m</text></g><g class="button" transform="translate(70,0)"><rect class="selector-rect" shape-rendering="crispEdges" rx="3" ry="3" x="0" y="0" width="35.03125" height="19" style="stroke: rgb(68, 68, 68); stroke-opacity: 1; fill: rgb(238, 238, 238); fill-opacity: 1; stroke-width: 0px;"/><text class="selector-text" text-anchor="middle" x="17.515625" y="12.5" style="font-family: 'Open Sans', verdana, arial, sans-serif; font-size: 12px; fill: rgb(42, 63, 95); fill-opacity: 1; white-space: pre;">YTD</text></g><g class="button" transform="translate(110.03125,0)"><rect class="selector-rect" shape-rendering="crispEdges" rx="3" ry="3" x="0" y="0" width="30" height="19" style="stroke: rgb(68, 68, 68); stroke-opacity: 1; fill: rgb(238, 238, 238); fill-opacity: 1; stroke-width: 0px;"/><text class="selector-text" text-anchor="middle" x="15" y="12.5" style="font-family: 'Open Sans', verdana, arial, sans-serif; font-size: 12px; fill: rgb(42, 63, 95); fill-opacity: 1; white-space: pre;">1y</text></g><g class="button" transform="translate(145.03125,0)"><rect class="selector-rect" shape-rendering="crispEdges" rx="3" ry="3" x="0" y="0" width="30" height="19" style="stroke: rgb(68, 68, 68); stroke-opacity: 1; fill: rgb(212, 212, 212); fill-opacity: 1; stroke-width: 0px;"/><text class="selector-text" text-anchor="middle" x="15" y="12.5" style="font-family: 'Open Sans', verdana, arial, sans-serif; font-size: 12px; fill: rgb(42, 63, 95); fill-opacity: 1; white-space: pre;">all</text></g></g><g class="g-gtitle"><text class="gtitle" x="42.25" y="30" text-anchor="start" dy="0em" style="font-family: 'Open Sans', verdana, arial, sans-serif; font-size: 17px; fill: rgb(42, 63, 95); opacity: 1; font-weight: normal; white-space: pre;"><tspan style="font-weight:bold">Adjusted Close</tspan></text></g><g class="rangeslider-container" pointer-events="all" transform="translate(60,450)"><rect class="rangeslider-bg" x="0" y="0" shape-rendering="crispEdges" width="671" height="68.85" transform="" fill="white" stroke="#444" stroke-width="0"/><g class="rangeslider-rangeplot xy" clip-path="url(#rangesliderx-038e57)"><g class="layer-subplot"><g class="shapelayer"/><g class="imagelayer"/></g><g class="gridlayer"><g class="x"/><g class="y"/></g><g class="zerolinelayer"/><path class="xlines-below"/><path class="ylines-below"/><g class="overlines-below"/><g class="xaxislayer-below"/><g class="yaxislayer-below"/><g class="overaxes-below"/><g class="plot"><g class="scatterlayer mlayer rangeplot"><g class="trace scatter traceee33a5" style="stroke-miterlimit: 2; opacity: 1;"><g class="fills"/><g class="errorbars"/><g class="lines"><path class="js-line" d="M0,65.49L256.8,65.45L257.72,65.44L314.79,65.32L315.71,65.32L348.85,65.33L352.53,65.34L418.8,65.32L419.72,65.32L592.76,65.43L593.68,65.45L671,65.49" style="vector-effect: non-scaling-stroke; fill: none; stroke: rgb(99, 110, 250); stroke-opacity: 1; stroke-width: 2px; opacity: 1;"/></g><g class="points"/><g class="text"/></g><g class="trace scatter tracec9183a" style="stroke-miterlimit: 2; opacity: 1;"><g class="fills"/><g class="errorbars"/><g class="lines"><path class="js-line" d="M0,51.37L10.12,51.2L11.05,51.19L25.77,51.25L26.69,51.53L43.26,50.68L44.18,50.68L57.99,51.32L58.91,51.03L65.35,50.64L68.11,50.54L83.76,50.34L87.44,50.11L103.09,49.89L104.01,49.72L239.31,48.73L242.08,49.02L263.25,49L264.17,48.71L271.53,48.29L274.29,48.21L301.9,47.68L303.74,48.1L309.27,48.17L310.19,48.32L322.15,47.81L323.07,48L327.68,47.7L328.6,47.59L339.64,47.33L340.56,47.69L353.45,48.34L354.37,48.54L355.29,48.87L358.05,48.82L360.81,49.15L361.73,48.74L368.18,48.47L370.94,48.53L373.7,48.45L374.62,48.79L384.74,49.23L385.66,49.54L387.5,48.92L390.27,48.96L393.03,49L393.95,49.14L400.39,49.62L403.15,49.74L406.83,48.61L409.6,48.62L413.28,48.3L416.04,48.18L417.88,48.07L418.8,48.35L426.16,48.52L428.92,48.81L449.17,49.73L450.09,49.25L451.94,49.94L454.7,50.45L462.98,50.71L463.9,50.8L470.34,50.19L471.26,49.8L483.23,50.35L484.15,50.8L490.59,51.68L494.28,51.33L508.08,51.02L509,50.8L520.97,50.57L521.89,50.42L526.49,50.72L527.41,50.33L532.01,49.96L532.93,50.06L535.7,49.85L538.46,49.87L541.22,49.61L542.14,49.33L548.58,49.53L551.34,49.88L566.99,50.39L567.91,50.15L572.51,50.63L573.43,50.8L587.24,52.03L590,51.67L591.84,51.26L592.76,51.41L593.68,51.82L596.44,51.93L600.13,52.04L602.89,51.67L610.25,50.97L611.17,51.08L619.46,51.31L622.22,51.17L624.98,50.59L625.9,50.44L636.94,50.31L638.78,50.32L649.83,50.67L650.75,50.56L654.43,50.45L655.35,50.34L664.56,51.02L668.24,51.08L671,51.04" style="vector-effect: non-scaling-stroke; fill: none; stroke: rgb(239, 85, 59); stroke-opacity: 1; stroke-width: 2px; opacity: 1;"/></g><g class="points"/><g class="text"/></g><g class="trace scatter tracec6edce" style="stroke-miterlimit: 2; opacity: 1;"><g class="fills"/><g class="errorbars"/><g class="lines"><path class="js-line" d="M0,15.79L5.52,16.37L6.44,15.1L7.36,14.57L10.12,15.22L12.89,14.92L13.81,15.37L17.49,14.59L18.41,13.58L23.01,12.88L23.93,12.92L24.85,14.31L25.77,14.05L26.69,15.08L29.45,13.79L31.29,12.98L32.22,12.33L36.82,11.43L37.74,11.57L39.58,11.09L43.26,11.28L49.7,13.55L50.62,13.03L51.54,14.89L52.47,14.61L55.23,13.07L56.15,13.96L57.99,16.44L58.91,15.67L61.67,16.88L62.59,15.07L63.51,15.09L64.43,13.81L65.35,14.11L68.11,13.57L69.95,13.31L70.87,14.91L74.56,13.89L75.48,14.47L77.32,15.45L78.24,14.82L81.92,15.18L82.84,14.4L83.76,13.49L87.44,12.61L90.2,12.13L91.12,11.85L95.73,12.02L96.65,11.31L100.33,11.8L101.25,12.3L102.17,11.66L103.09,12.17L104.01,11.4L106.77,10.92L113.21,11.87L114.13,12.89L115.98,12.89L116.9,12.43L120.58,13.84L121.5,15.24L122.42,14.87L123.34,13.68L127.94,14.19L128.86,13.27L129.78,13.52L132.54,12.78L141.75,12.97L142.67,12.19L154.63,10.84L155.55,11.35L173.04,8.87L173.96,9.28L174.88,8.73L177.64,8.61L184.09,10.39L185.01,9.52L187.77,8.2L190.53,8.19L191.45,8.89L192.37,8.49L204.34,8.39L205.26,8.48L207.1,8.26L209.86,8.37L212.62,9.35L213.54,8.68L218.14,7.41L219.06,7.78L219.98,7.06L222.75,6.53L231.95,6.6L232.87,7.12L239.31,7.4L242.08,8.68L243.92,7.97L244.84,7.37L248.52,7.69L249.44,9.33L252.2,9.26L254.96,10.47L257.72,8.92L258.64,9.21L263.25,9.24L264.17,8.26L270.61,6.73L271.53,7.22L281.65,5.04L282.57,4.41L284.42,3.78L287.18,3.74L289.94,4.83L290.86,4.22L296.38,3.7L297.3,3.45L301.9,4.28L303.74,5.65L306.51,4.52L307.43,5.47L308.35,6.58L309.27,6.08L310.19,7.24L312.95,6.69L314.79,4.5L315.71,5.55L316.63,5.11L319.39,5.96L320.31,6.64L321.23,5.37L322.15,6.87L323.07,6.91L325.84,7.64L326.76,6.24L328.6,5.02L332.28,4.18L335.96,5.06L338.72,4.33L339.64,5.14L340.56,7.18L345.16,7.79L346.09,6.97L347.01,6.84L347.93,8.32L348.85,7.98L352.53,9.49L354.37,10.86L355.29,12.36L358.05,12.03L358.97,13.26L360.81,13.99L361.73,12.36L366.33,9.84L367.26,11.94L368.18,11.08L370.94,11.4L372.78,9.55L373.7,10.74L374.62,12.28L377.38,12.28L378.3,10.92L379.22,10.98L381.06,13.22L384.74,13.87L385.66,15.21L386.58,13.51L387.5,12.65L390.27,12.43L391.19,13.29L392.11,12.43L396.71,16.02L397.63,16.16L398.55,14.36L399.47,14.85L400.39,15.97L403.15,16.99L406.83,11.88L409.6,12.09L410.52,11.04L411.44,11.77L413.28,10.8L416.04,10.08L416.96,9.05L417.88,9.74L419.72,10.45L422.48,9.39L424.32,11.9L425.24,11.86L426.16,12.59L428.92,13.75L429.84,13.91L430.77,12.85L431.69,13.99L435.37,14.07L436.29,12.95L437.21,13.59L439.05,15.99L441.81,15.34L442.73,17.34L443.65,17.35L444.57,15.86L445.49,17.95L449.17,17.06L450.09,15.5L451.94,18.69L454.7,20.72L455.62,20.28L456.54,21.73L457.46,21.71L458.38,20.01L461.14,20.57L462.06,19.32L462.98,21.52L463.9,21.64L464.82,21.77L467.58,21.07L468.5,22.12L469.42,21.46L471.26,18.74L474.95,18.94L475.87,19.28L476.79,18.02L477.71,19.21L480.47,19.02L482.31,18.92L483.23,20.21L484.15,21.83L486.91,23.89L487.83,23.82L488.75,22.76L489.67,24.53L490.59,23.94L496.12,22.25L497.04,20.78L499.8,21.11L500.72,22.44L503.48,22.65L507.16,21.9L508.08,21.74L509,20.73L509.92,20.68L512.68,21.7L515.45,22.17L516.37,21.39L519.13,21.75L520.05,20.37L521.89,19.02L522.81,19.9L525.57,20.1L526.49,20.96L528.33,18.62L529.25,17.73L532.93,17.9L533.85,16.65L535.7,16.69L538.46,16.74L539.38,17.33L540.3,15.93L541.22,16.22L542.14,15.18L545.82,14.96L546.74,15.6L547.66,15.49L548.58,16.51L552.26,17.77L553.18,17.57L554.1,16.76L555.02,18.7L560.55,20.09L561.47,20.69L565.15,21.03L566.07,20.07L570.67,18.22L571.59,20.68L572.51,20.35L573.43,21L574.35,21.4L577.12,21.07L579.88,22.89L580.8,23.66L584.48,23.81L585.4,22.95L587.24,24.8L590,23.87L590.92,22.46L591.84,22.57L592.76,22.86L593.68,24.5L598.29,25.42L599.21,24.52L600.13,25.79L602.89,24.41L604.73,24.39L605.65,24.65L606.57,23.7L609.33,23.33L610.25,22.37L611.17,23.26L612.09,23.96L613.01,22.75L616.69,23.58L617.61,25L618.53,25.71L619.46,25.19L623.14,24.65L624.06,25.67L625.9,21.89L628.66,22.39L629.58,21.75L630.5,22.43L635.1,23.05L636.02,22.47L636.94,22.04L638.78,22.27L642.47,23.21L643.39,21.33L645.23,21.35L647.99,22.22L649.83,23.31L650.75,22.83L651.67,23.13L654.43,22.59L656.27,22.48L657.19,23.89L660.88,24.92L661.8,24.91L662.72,24.28L663.64,25.19L664.56,25.11L668.24,25.67L669.16,26.21L670.08,25.18L671,25.23" style="vector-effect: non-scaling-stroke; fill: none; stroke: rgb(0, 204, 150); stroke-opacity: 1; stroke-width: 2px; opacity: 1;"/></g><g class="points"/><g class="text"/></g></g></g><g class="overplot"/><path class="xlines-above crisp" style="fill: none;"/><path class="ylines-above crisp" style="fill: none;"/><g class="overlines-above"/><g class="xaxislayer-above"/><g class="yaxislayer-above"/><g class="overaxes-above"/></g><rect class="rangeslider-mask-min" x="0" y="0" shape-rendering="crispEdges" height="68.85" width="0" style="fill: rgb(0, 0, 0); fill-opacity: 0.4;"/><rect class="rangeslider-mask-max" y="0" shape-rendering="crispEdges" height="68.85" x="671" width="0" style="fill: rgb(0, 0, 0); fill-opacity: 0.4;"/><g class="rangeslider-grabber-min" transform="translate(-2.5,0.5)"><rect class="rangeslider-handle-min" x="0" width="4" rx="1" fill="#fff" stroke="#444" stroke-width="1" shape-rendering="crispEdges" y="17" height="34"/><rect class="rangeslider-grabarea-min" width="10" x="0" y="0" fill="transparent" height="68.85"/></g><g class="rangeslider-grabber-max" transform="translate(669.5,0.5)"><rect class="rangeslider-handle-max" x="0" width="4" rx="1" fill="#fff" stroke="#444" stroke-width="1" shape-rendering="crispEdges" y="17" height="34"/><rect class="rangeslider-grabarea-max" width="10" x="0" y="0" fill="transparent" height="68.85"/></g></g><g class="g-ytitle" transform="translate(2.1591796875,0)"><text class="ytitle" transform="rotate(-90,11.840625000000003,239.5)" x="11.840625000000003" y="239.5" text-anchor="middle" style="font-family: 'Open Sans', verdana, arial, sans-serif; font-size: 14px; fill: rgb(42, 63, 95); opacity: 1; font-weight: normal; white-space: pre;">Adjusted Close</text></g><g class="g-xtitle"><text class="xtitle" x="395.5" y="549.85" text-anchor="middle" style="font-family: 'Open Sans', verdana, arial, sans-serif; font-size: 14px; fill: rgb(42, 63, 95); opacity: 1; font-weight: normal; white-space: pre;">Date</text></g></g></svg>