<svg xmlns="http://www.w3.org/2000/svg" xmlns:xlink="http://www.w3.org/1999/xlink" width="600" height="400" viewBox="0 0 2400 1600">
<defs>
  <clipPath id="clip400">
    <rect x="0" y="0" width="2400" height="1600"></rect>
  </clipPath>
</defs>
<path clip-path="url(#clip400)" d="M0 1600 L2400 1600 L2400 0 L0 0  Z" fill="#ffffff" fill-rule="evenodd" fill-opacity="1"></path>
<defs>
  <clipPath id="clip401">
    <rect x="480" y="0" width="1681" height="1600"></rect>
  </clipPath>
</defs>
<path clip-path="url(#clip400)" d="M202.227 1486.45 L2352.76 1486.45 L2352.76 47.2441 L202.227 47.2441  Z" fill="#ffffff" fill-rule="evenodd" fill-opacity="1"></path>
<defs>
  <clipPath id="clip402">
    <rect x="202" y="47" width="2152" height="1440"></rect>
  </clipPath>
</defs>
<polyline clip-path="url(#clip402)" style="stroke:#000000; stroke-linecap:round; stroke-linejoin:round; stroke-width:2; stroke-opacity:0.1; fill:none" points="517.452,1486.45 517.452,47.2441 "></polyline>
<polyline clip-path="url(#clip402)" style="stroke:#000000; stroke-linecap:round; stroke-linejoin:round; stroke-width:2; stroke-opacity:0.1; fill:none" points="1024.14,1486.45 1024.14,47.2441 "></polyline>
<polyline clip-path="url(#clip402)" style="stroke:#000000; stroke-linecap:round; stroke-linejoin:round; stroke-width:2; stroke-opacity:0.1; fill:none" points="1530.84,1486.45 1530.84,47.2441 "></polyline>
<polyline clip-path="url(#clip402)" style="stroke:#000000; stroke-linecap:round; stroke-linejoin:round; stroke-width:2; stroke-opacity:0.1; fill:none" points="2037.53,1486.45 2037.53,47.2441 "></polyline>
<polyline clip-path="url(#clip400)" style="stroke:#000000; stroke-linecap:round; stroke-linejoin:round; stroke-width:4; stroke-opacity:1; fill:none" points="202.227,1486.45 2352.76,1486.45 "></polyline>
<polyline clip-path="url(#clip400)" style="stroke:#000000; stroke-linecap:round; stroke-linejoin:round; stroke-width:4; stroke-opacity:1; fill:none" points="517.452,1486.45 517.452,1467.55 "></polyline>
<polyline clip-path="url(#clip400)" style="stroke:#000000; stroke-linecap:round; stroke-linejoin:round; stroke-width:4; stroke-opacity:1; fill:none" points="1024.14,1486.45 1024.14,1467.55 "></polyline>
<polyline clip-path="url(#clip400)" style="stroke:#000000; stroke-linecap:round; stroke-linejoin:round; stroke-width:4; stroke-opacity:1; fill:none" points="1530.84,1486.45 1530.84,1467.55 "></polyline>
<polyline clip-path="url(#clip400)" style="stroke:#000000; stroke-linecap:round; stroke-linejoin:round; stroke-width:4; stroke-opacity:1; fill:none" points="2037.53,1486.45 2037.53,1467.55 "></polyline>
<path clip-path="url(#clip400)" d="M326.7 1534.82 L326.7 1536.9 L307.117 1536.9 Q307.395 1541.3 309.756 1543.62 Q312.14 1545.91 316.376 1545.91 Q318.83 1545.91 321.122 1545.31 Q323.436 1544.7 325.705 1543.5 L325.705 1547.53 Q323.413 1548.5 321.006 1549.01 Q318.598 1549.52 316.122 1549.52 Q309.918 1549.52 306.284 1545.91 Q302.673 1542.3 302.673 1536.14 Q302.673 1529.77 306.099 1526.05 Q309.548 1522.3 315.381 1522.3 Q320.612 1522.3 323.645 1525.68 Q326.7 1529.03 326.7 1534.82 M322.441 1533.57 Q322.395 1530.07 320.473 1527.99 Q318.575 1525.91 315.427 1525.91 Q311.862 1525.91 309.71 1527.92 Q307.58 1529.94 307.256 1533.59 L322.441 1533.57 Z" fill="#000000" fill-rule="nonzero" fill-opacity="1"></path><path clip-path="url(#clip400)" d="M355.242 1533.2 L355.242 1548.85 L350.983 1548.85 L350.983 1533.34 Q350.983 1529.66 349.547 1527.83 Q348.112 1526 345.242 1526 Q341.793 1526 339.802 1528.2 Q337.811 1530.4 337.811 1534.2 L337.811 1548.85 L333.529 1548.85 L333.529 1522.92 L337.811 1522.92 L337.811 1526.95 Q339.339 1524.61 341.399 1523.45 Q343.483 1522.3 346.191 1522.3 Q350.658 1522.3 352.95 1525.07 Q355.242 1527.83 355.242 1533.2 Z" fill="#000000" fill-rule="nonzero" fill-opacity="1"></path><path clip-path="url(#clip400)" d="M360.682 1522.92 L365.195 1522.92 L373.297 1544.68 L381.399 1522.92 L385.913 1522.92 L376.191 1548.85 L370.404 1548.85 L360.682 1522.92 Z" fill="#000000" fill-rule="nonzero" fill-opacity="1"></path><path clip-path="url(#clip400)" d="M391.793 1522.92 L396.052 1522.92 L396.052 1548.85 L391.793 1548.85 L391.793 1522.92 M391.793 1512.83 L396.052 1512.83 L396.052 1518.22 L391.793 1518.22 L391.793 1512.83 Z" fill="#000000" fill-rule="nonzero" fill-opacity="1"></path><path clip-path="url(#clip400)" d="M419.987 1526.9 Q419.269 1526.49 418.413 1526.3 Q417.579 1526.09 416.561 1526.09 Q412.95 1526.09 411.005 1528.45 Q409.084 1530.79 409.084 1535.19 L409.084 1548.85 L404.802 1548.85 L404.802 1522.92 L409.084 1522.92 L409.084 1526.95 Q410.427 1524.59 412.579 1523.45 Q414.732 1522.3 417.811 1522.3 Q418.251 1522.3 418.783 1522.37 Q419.316 1522.41 419.964 1522.53 L419.987 1526.9 Z" fill="#000000" fill-rule="nonzero" fill-opacity="1"></path><path clip-path="url(#clip400)" d="M433.459 1525.91 Q430.033 1525.91 428.042 1528.59 Q426.052 1531.26 426.052 1535.91 Q426.052 1540.56 428.019 1543.25 Q430.01 1545.91 433.459 1545.91 Q436.862 1545.91 438.852 1543.22 Q440.843 1540.54 440.843 1535.91 Q440.843 1531.3 438.852 1528.62 Q436.862 1525.91 433.459 1525.91 M433.459 1522.3 Q439.014 1522.3 442.186 1525.91 Q445.357 1529.52 445.357 1535.91 Q445.357 1542.27 442.186 1545.91 Q439.014 1549.52 433.459 1549.52 Q427.88 1549.52 424.709 1545.91 Q421.561 1542.27 421.561 1535.91 Q421.561 1529.52 424.709 1525.91 Q427.88 1522.3 433.459 1522.3 Z" fill="#000000" fill-rule="nonzero" fill-opacity="1"></path><path clip-path="url(#clip400)" d="M473.968 1533.2 L473.968 1548.85 L469.709 1548.85 L469.709 1533.34 Q469.709 1529.66 468.274 1527.83 Q466.838 1526 463.968 1526 Q460.519 1526 458.528 1528.2 Q456.538 1530.4 456.538 1534.2 L456.538 1548.85 L452.255 1548.85 L452.255 1522.92 L456.538 1522.92 L456.538 1526.95 Q458.065 1524.61 460.125 1523.45 Q462.209 1522.3 464.917 1522.3 Q469.385 1522.3 471.676 1525.07 Q473.968 1527.83 473.968 1533.2 Z" fill="#000000" fill-rule="nonzero" fill-opacity="1"></path><path clip-path="url(#clip400)" d="M502.648 1527.9 Q504.246 1525.03 506.468 1523.66 Q508.69 1522.3 511.699 1522.3 Q515.75 1522.3 517.949 1525.14 Q520.148 1527.97 520.148 1533.2 L520.148 1548.85 L515.866 1548.85 L515.866 1533.34 Q515.866 1529.61 514.546 1527.81 Q513.227 1526 510.519 1526 Q507.209 1526 505.287 1528.2 Q503.366 1530.4 503.366 1534.2 L503.366 1548.85 L499.084 1548.85 L499.084 1533.34 Q499.084 1529.59 497.764 1527.81 Q496.445 1526 493.69 1526 Q490.426 1526 488.505 1528.22 Q486.584 1530.42 486.584 1534.2 L486.584 1548.85 L482.301 1548.85 L482.301 1522.92 L486.584 1522.92 L486.584 1526.95 Q488.042 1524.57 490.079 1523.43 Q492.116 1522.3 494.917 1522.3 Q497.741 1522.3 499.709 1523.73 Q501.699 1525.17 502.648 1527.9 Z" fill="#000000" fill-rule="nonzero" fill-opacity="1"></path><path clip-path="url(#clip400)" d="M550.819 1534.82 L550.819 1536.9 L531.236 1536.9 Q531.514 1541.3 533.875 1543.62 Q536.259 1545.91 540.495 1545.91 Q542.949 1545.91 545.241 1545.31 Q547.556 1544.7 549.824 1543.5 L549.824 1547.53 Q547.532 1548.5 545.125 1549.01 Q542.718 1549.52 540.241 1549.52 Q534.037 1549.52 530.403 1545.91 Q526.792 1542.3 526.792 1536.14 Q526.792 1529.77 530.218 1526.05 Q533.667 1522.3 539.5 1522.3 Q544.732 1522.3 547.764 1525.68 Q550.819 1529.03 550.819 1534.82 M546.56 1533.57 Q546.514 1530.07 544.593 1527.99 Q542.694 1525.91 539.546 1525.91 Q535.982 1525.91 533.829 1527.92 Q531.699 1529.94 531.375 1533.59 L546.56 1533.57 Z" fill="#000000" fill-rule="nonzero" fill-opacity="1"></path><path clip-path="url(#clip400)" d="M579.361 1533.2 L579.361 1548.85 L575.102 1548.85 L575.102 1533.34 Q575.102 1529.66 573.667 1527.83 Q572.231 1526 569.361 1526 Q565.912 1526 563.921 1528.2 Q561.931 1530.4 561.931 1534.2 L561.931 1548.85 L557.648 1548.85 L557.648 1522.92 L561.931 1522.92 L561.931 1526.95 Q563.458 1524.61 565.518 1523.45 Q567.602 1522.3 570.31 1522.3 Q574.778 1522.3 577.069 1525.07 Q579.361 1527.83 579.361 1533.2 Z" fill="#000000" fill-rule="nonzero" fill-opacity="1"></path><path clip-path="url(#clip400)" d="M592.069 1515.56 L592.069 1522.92 L600.842 1522.92 L600.842 1526.23 L592.069 1526.23 L592.069 1540.31 Q592.069 1543.48 592.926 1544.38 Q593.805 1545.28 596.467 1545.28 L600.842 1545.28 L600.842 1548.85 L596.467 1548.85 Q591.537 1548.85 589.662 1547.02 Q587.787 1545.17 587.787 1540.31 L587.787 1526.23 L584.662 1526.23 L584.662 1522.92 L587.787 1522.92 L587.787 1515.56 L592.069 1515.56 Z" fill="#000000" fill-rule="nonzero" fill-opacity="1"></path><path clip-path="url(#clip400)" d="M627.347 1515.42 L627.347 1519.98 Q624.685 1518.71 622.324 1518.08 Q619.963 1517.46 617.764 1517.46 Q613.944 1517.46 611.861 1518.94 Q609.801 1520.42 609.801 1523.15 Q609.801 1525.45 611.166 1526.63 Q612.555 1527.78 616.398 1528.5 L619.222 1529.08 Q624.453 1530.07 626.93 1532.6 Q629.43 1535.1 629.43 1539.31 Q629.43 1544.33 626.051 1546.93 Q622.694 1549.52 616.189 1549.52 Q613.736 1549.52 610.958 1548.96 Q608.203 1548.41 605.24 1547.32 L605.24 1542.51 Q608.088 1544.1 610.819 1544.91 Q613.551 1545.72 616.189 1545.72 Q620.194 1545.72 622.37 1544.15 Q624.546 1542.57 624.546 1539.66 Q624.546 1537.11 622.972 1535.68 Q621.421 1534.24 617.856 1533.52 L615.009 1532.97 Q609.777 1531.93 607.44 1529.7 Q605.102 1527.48 605.102 1523.52 Q605.102 1518.94 608.319 1516.3 Q611.56 1513.66 617.231 1513.66 Q619.662 1513.66 622.185 1514.1 Q624.708 1514.54 627.347 1515.42 Z" fill="#000000" fill-rule="nonzero" fill-opacity="1"></path><path clip-path="url(#clip400)" d="M655.194 1523.92 L655.194 1527.9 Q653.388 1526.9 651.56 1526.42 Q649.754 1525.91 647.902 1525.91 Q643.759 1525.91 641.467 1528.55 Q639.175 1531.16 639.175 1535.91 Q639.175 1540.65 641.467 1543.29 Q643.759 1545.91 647.902 1545.91 Q649.754 1545.91 651.56 1545.42 Q653.388 1544.91 655.194 1543.92 L655.194 1547.85 Q653.411 1548.69 651.49 1549.1 Q649.592 1549.52 647.439 1549.52 Q641.583 1549.52 638.134 1545.84 Q634.685 1542.16 634.685 1535.91 Q634.685 1529.57 638.157 1525.93 Q641.652 1522.3 647.717 1522.3 Q649.685 1522.3 651.56 1522.71 Q653.435 1523.11 655.194 1523.92 Z" fill="#000000" fill-rule="nonzero" fill-opacity="1"></path><path clip-path="url(#clip400)" d="M672.648 1525.91 Q669.222 1525.91 667.231 1528.59 Q665.24 1531.26 665.24 1535.91 Q665.24 1540.56 667.208 1543.25 Q669.198 1545.91 672.648 1545.91 Q676.05 1545.91 678.041 1543.22 Q680.032 1540.54 680.032 1535.91 Q680.032 1531.3 678.041 1528.62 Q676.05 1525.91 672.648 1525.91 M672.648 1522.3 Q678.203 1522.3 681.374 1525.91 Q684.546 1529.52 684.546 1535.91 Q684.546 1542.27 681.374 1545.91 Q678.203 1549.52 672.648 1549.52 Q667.069 1549.52 663.898 1545.91 Q660.749 1542.27 660.749 1535.91 Q660.749 1529.52 663.898 1525.91 Q667.069 1522.3 672.648 1522.3 Z" fill="#000000" fill-rule="nonzero" fill-opacity="1"></path><path clip-path="url(#clip400)" d="M706.629 1526.9 Q705.911 1526.49 705.055 1526.3 Q704.221 1526.09 703.203 1526.09 Q699.592 1526.09 697.647 1528.45 Q695.726 1530.79 695.726 1535.19 L695.726 1548.85 L691.444 1548.85 L691.444 1522.92 L695.726 1522.92 L695.726 1526.95 Q697.069 1524.59 699.221 1523.45 Q701.374 1522.3 704.453 1522.3 Q704.893 1522.3 705.425 1522.37 Q705.958 1522.41 706.606 1522.53 L706.629 1526.9 Z" fill="#000000" fill-rule="nonzero" fill-opacity="1"></path><path clip-path="url(#clip400)" d="M732.231 1534.82 L732.231 1536.9 L712.647 1536.9 Q712.925 1541.3 715.286 1543.62 Q717.67 1545.91 721.906 1545.91 Q724.36 1545.91 726.652 1545.31 Q728.967 1544.7 731.235 1543.5 L731.235 1547.53 Q728.943 1548.5 726.536 1549.01 Q724.129 1549.52 721.652 1549.52 Q715.448 1549.52 711.814 1545.91 Q708.203 1542.3 708.203 1536.14 Q708.203 1529.77 711.629 1526.05 Q715.078 1522.3 720.911 1522.3 Q726.143 1522.3 729.175 1525.68 Q732.231 1529.03 732.231 1534.82 M727.971 1533.57 Q727.925 1530.07 726.004 1527.99 Q724.106 1525.91 720.957 1525.91 Q717.393 1525.91 715.24 1527.92 Q713.11 1529.94 712.786 1533.59 L727.971 1533.57 Z" fill="#000000" fill-rule="nonzero" fill-opacity="1"></path><path clip-path="url(#clip400)" d="M942.375 1534.82 L942.375 1536.9 L922.791 1536.9 Q923.069 1541.3 925.43 1543.62 Q927.814 1545.91 932.051 1545.91 Q934.504 1545.91 936.796 1545.31 Q939.111 1544.7 941.379 1543.5 L941.379 1547.53 Q939.088 1548.5 936.68 1549.01 Q934.273 1549.52 931.796 1549.52 Q925.592 1549.52 921.958 1545.91 Q918.347 1542.3 918.347 1536.14 Q918.347 1529.77 921.773 1526.05 Q925.222 1522.3 931.055 1522.3 Q936.287 1522.3 939.319 1525.68 Q942.375 1529.03 942.375 1534.82 M938.115 1533.57 Q938.069 1530.07 936.148 1527.99 Q934.25 1525.91 931.102 1525.91 Q927.537 1525.91 925.384 1527.92 Q923.254 1529.94 922.93 1533.59 L938.115 1533.57 Z" fill="#000000" fill-rule="nonzero" fill-opacity="1"></path><path clip-path="url(#clip400)" d="M965.893 1523.69 L965.893 1527.71 Q964.087 1526.79 962.143 1526.32 Q960.199 1525.86 958.115 1525.86 Q954.944 1525.86 953.347 1526.83 Q951.773 1527.81 951.773 1529.75 Q951.773 1531.23 952.907 1532.09 Q954.041 1532.92 957.467 1533.69 L958.925 1534.01 Q963.462 1534.98 965.361 1536.76 Q967.282 1538.52 967.282 1541.7 Q967.282 1545.31 964.412 1547.41 Q961.564 1549.52 956.564 1549.52 Q954.481 1549.52 952.212 1549.1 Q949.967 1548.71 947.467 1547.9 L947.467 1543.5 Q949.828 1544.73 952.12 1545.35 Q954.412 1545.95 956.657 1545.95 Q959.666 1545.95 961.287 1544.94 Q962.907 1543.89 962.907 1542.02 Q962.907 1540.28 961.726 1539.36 Q960.569 1538.43 956.611 1537.57 L955.129 1537.23 Q951.171 1536.39 949.412 1534.68 Q947.652 1532.95 947.652 1529.94 Q947.652 1526.28 950.245 1524.29 Q952.837 1522.3 957.606 1522.3 Q959.967 1522.3 962.05 1522.64 Q964.134 1522.99 965.893 1523.69 Z" fill="#000000" fill-rule="nonzero" fill-opacity="1"></path><path clip-path="url(#clip400)" d="M991.124 1535.58 Q991.124 1530.95 989.203 1528.41 Q987.305 1525.86 983.856 1525.86 Q980.43 1525.86 978.509 1528.41 Q976.611 1530.95 976.611 1535.58 Q976.611 1540.19 978.509 1542.74 Q980.43 1545.28 983.856 1545.28 Q987.305 1545.28 989.203 1542.74 Q991.124 1540.19 991.124 1535.58 M995.384 1545.63 Q995.384 1552.25 992.444 1555.47 Q989.504 1558.71 983.439 1558.71 Q981.194 1558.71 979.203 1558.36 Q977.212 1558.04 975.337 1557.34 L975.337 1553.2 Q977.212 1554.22 979.041 1554.7 Q980.87 1555.19 982.768 1555.19 Q986.958 1555.19 989.041 1552.99 Q991.124 1550.82 991.124 1546.39 L991.124 1544.29 Q989.805 1546.58 987.745 1547.71 Q985.685 1548.85 982.814 1548.85 Q978.046 1548.85 975.129 1545.21 Q972.212 1541.58 972.212 1535.58 Q972.212 1529.57 975.129 1525.93 Q978.046 1522.3 982.814 1522.3 Q985.685 1522.3 987.745 1523.43 Q989.805 1524.57 991.124 1526.86 L991.124 1522.92 L995.384 1522.92 L995.384 1545.63 Z" fill="#000000" fill-rule="nonzero" fill-opacity="1"></path><path clip-path="url(#clip400)" d="M1025.06 1515.42 L1025.06 1519.98 Q1022.4 1518.71 1020.04 1518.08 Q1017.68 1517.46 1015.48 1517.46 Q1011.66 1517.46 1009.57 1518.94 Q1007.51 1520.42 1007.51 1523.15 Q1007.51 1525.45 1008.88 1526.63 Q1010.27 1527.78 1014.11 1528.5 L1016.93 1529.08 Q1022.17 1530.07 1024.64 1532.6 Q1027.14 1535.1 1027.14 1539.31 Q1027.14 1544.33 1023.76 1546.93 Q1020.41 1549.52 1013.9 1549.52 Q1011.45 1549.52 1008.67 1548.96 Q1005.92 1548.41 1002.95 1547.32 L1002.95 1542.51 Q1005.8 1544.1 1008.53 1544.91 Q1011.26 1545.72 1013.9 1545.72 Q1017.91 1545.72 1020.08 1544.15 Q1022.26 1542.57 1022.26 1539.66 Q1022.26 1537.11 1020.68 1535.68 Q1019.13 1534.24 1015.57 1533.52 L1012.72 1532.97 Q1007.49 1531.93 1005.15 1529.7 Q1002.81 1527.48 1002.81 1523.52 Q1002.81 1518.94 1006.03 1516.3 Q1009.27 1513.66 1014.94 1513.66 Q1017.37 1513.66 1019.9 1514.1 Q1022.42 1514.54 1025.06 1515.42 Z" fill="#000000" fill-rule="nonzero" fill-opacity="1"></path><path clip-path="url(#clip400)" d="M1052.91 1523.92 L1052.91 1527.9 Q1051.1 1526.9 1049.27 1526.42 Q1047.47 1525.91 1045.61 1525.91 Q1041.47 1525.91 1039.18 1528.55 Q1036.89 1531.16 1036.89 1535.91 Q1036.89 1540.65 1039.18 1543.29 Q1041.47 1545.91 1045.61 1545.91 Q1047.47 1545.91 1049.27 1545.42 Q1051.1 1544.91 1052.91 1543.92 L1052.91 1547.85 Q1051.12 1548.69 1049.2 1549.1 Q1047.3 1549.52 1045.15 1549.52 Q1039.3 1549.52 1035.85 1545.84 Q1032.4 1542.16 1032.4 1535.91 Q1032.4 1529.57 1035.87 1525.93 Q1039.36 1522.3 1045.43 1522.3 Q1047.4 1522.3 1049.27 1522.71 Q1051.15 1523.11 1052.91 1523.92 Z" fill="#000000" fill-rule="nonzero" fill-opacity="1"></path><path clip-path="url(#clip400)" d="M1070.36 1525.91 Q1066.93 1525.91 1064.94 1528.59 Q1062.95 1531.26 1062.95 1535.91 Q1062.95 1540.56 1064.92 1543.25 Q1066.91 1545.91 1070.36 1545.91 Q1073.76 1545.91 1075.75 1543.22 Q1077.74 1540.54 1077.74 1535.91 Q1077.74 1531.3 1075.75 1528.62 Q1073.76 1525.91 1070.36 1525.91 M1070.36 1522.3 Q1075.92 1522.3 1079.09 1525.91 Q1082.26 1529.52 1082.26 1535.91 Q1082.26 1542.27 1079.09 1545.91 Q1075.92 1549.52 1070.36 1549.52 Q1064.78 1549.52 1061.61 1545.91 Q1058.46 1542.27 1058.46 1535.91 Q1058.46 1529.52 1061.61 1525.91 Q1064.78 1522.3 1070.36 1522.3 Z" fill="#000000" fill-rule="nonzero" fill-opacity="1"></path><path clip-path="url(#clip400)" d="M1104.34 1526.9 Q1103.62 1526.49 1102.77 1526.3 Q1101.93 1526.09 1100.92 1526.09 Q1097.3 1526.09 1095.36 1528.45 Q1093.44 1530.79 1093.44 1535.19 L1093.44 1548.85 L1089.16 1548.85 L1089.16 1522.92 L1093.44 1522.92 L1093.44 1526.95 Q1094.78 1524.59 1096.93 1523.45 Q1099.09 1522.3 1102.17 1522.3 Q1102.61 1522.3 1103.14 1522.37 Q1103.67 1522.41 1104.32 1522.53 L1104.34 1526.9 Z" fill="#000000" fill-rule="nonzero" fill-opacity="1"></path><path clip-path="url(#clip400)" d="M1129.94 1534.82 L1129.94 1536.9 L1110.36 1536.9 Q1110.64 1541.3 1113 1543.62 Q1115.38 1545.91 1119.62 1545.91 Q1122.07 1545.91 1124.36 1545.31 Q1126.68 1544.7 1128.95 1543.5 L1128.95 1547.53 Q1126.66 1548.5 1124.25 1549.01 Q1121.84 1549.52 1119.36 1549.52 Q1113.16 1549.52 1109.53 1545.91 Q1105.92 1542.3 1105.92 1536.14 Q1105.92 1529.77 1109.34 1526.05 Q1112.79 1522.3 1118.62 1522.3 Q1123.86 1522.3 1126.89 1525.68 Q1129.94 1529.03 1129.94 1534.82 M1125.68 1533.57 Q1125.64 1530.07 1123.72 1527.99 Q1121.82 1525.91 1118.67 1525.91 Q1115.11 1525.91 1112.95 1527.92 Q1110.82 1529.94 1110.5 1533.59 L1125.68 1533.57 Z" fill="#000000" fill-rule="nonzero" fill-opacity="1"></path><path clip-path="url(#clip400)" d="M1346.26 1535.58 Q1346.26 1530.95 1344.33 1528.41 Q1342.44 1525.86 1338.99 1525.86 Q1335.56 1525.86 1333.64 1528.41 Q1331.74 1530.95 1331.74 1535.58 Q1331.74 1540.19 1333.64 1542.74 Q1335.56 1545.28 1338.99 1545.28 Q1342.44 1545.28 1344.33 1542.74 Q1346.26 1540.19 1346.26 1535.58 M1350.52 1545.63 Q1350.52 1552.25 1347.58 1555.47 Q1344.64 1558.71 1338.57 1558.71 Q1336.33 1558.71 1334.33 1558.36 Q1332.34 1558.04 1330.47 1557.34 L1330.47 1553.2 Q1332.34 1554.22 1334.17 1554.7 Q1336 1555.19 1337.9 1555.19 Q1342.09 1555.19 1344.17 1552.99 Q1346.26 1550.82 1346.26 1546.39 L1346.26 1544.29 Q1344.94 1546.58 1342.88 1547.71 Q1340.82 1548.85 1337.95 1548.85 Q1333.18 1548.85 1330.26 1545.21 Q1327.34 1541.58 1327.34 1535.58 Q1327.34 1529.57 1330.26 1525.93 Q1333.18 1522.3 1337.95 1522.3 Q1340.82 1522.3 1342.88 1523.43 Q1344.94 1524.57 1346.26 1526.86 L1346.26 1522.92 L1350.52 1522.92 L1350.52 1545.63 Z" fill="#000000" fill-rule="nonzero" fill-opacity="1"></path><path clip-path="url(#clip400)" d="M1369.33 1525.91 Q1365.91 1525.91 1363.92 1528.59 Q1361.93 1531.26 1361.93 1535.91 Q1361.93 1540.56 1363.89 1543.25 Q1365.89 1545.91 1369.33 1545.91 Q1372.74 1545.91 1374.73 1543.22 Q1376.72 1540.54 1376.72 1535.91 Q1376.72 1531.3 1374.73 1528.62 Q1372.74 1525.91 1369.33 1525.91 M1369.33 1522.3 Q1374.89 1522.3 1378.06 1525.91 Q1381.23 1529.52 1381.23 1535.91 Q1381.23 1542.27 1378.06 1545.91 Q1374.89 1549.52 1369.33 1549.52 Q1363.76 1549.52 1360.58 1545.91 Q1357.44 1542.27 1357.44 1535.91 Q1357.44 1529.52 1360.58 1525.91 Q1363.76 1522.3 1369.33 1522.3 Z" fill="#000000" fill-rule="nonzero" fill-opacity="1"></path><path clip-path="url(#clip400)" d="M1385.24 1522.92 L1389.75 1522.92 L1397.85 1544.68 L1405.95 1522.92 L1410.47 1522.92 L1400.75 1548.85 L1394.96 1548.85 L1385.24 1522.92 Z" fill="#000000" fill-rule="nonzero" fill-opacity="1"></path><path clip-path="url(#clip400)" d="M1438.52 1534.82 L1438.52 1536.9 L1418.94 1536.9 Q1419.22 1541.3 1421.58 1543.62 Q1423.96 1545.91 1428.2 1545.91 Q1430.65 1545.91 1432.95 1545.31 Q1435.26 1544.7 1437.53 1543.5 L1437.53 1547.53 Q1435.24 1548.5 1432.83 1549.01 Q1430.42 1549.52 1427.95 1549.52 Q1421.74 1549.52 1418.11 1545.91 Q1414.5 1542.3 1414.5 1536.14 Q1414.5 1529.77 1417.92 1526.05 Q1421.37 1522.3 1427.2 1522.3 Q1432.44 1522.3 1435.47 1525.68 Q1438.52 1529.03 1438.52 1534.82 M1434.26 1533.57 Q1434.22 1530.07 1432.3 1527.99 Q1430.4 1525.91 1427.25 1525.91 Q1423.69 1525.91 1421.53 1527.92 Q1419.4 1529.94 1419.08 1533.59 L1434.26 1533.57 Z" fill="#000000" fill-rule="nonzero" fill-opacity="1"></path><path clip-path="url(#clip400)" d="M1460.54 1526.9 Q1459.82 1526.49 1458.96 1526.3 Q1458.13 1526.09 1457.11 1526.09 Q1453.5 1526.09 1451.56 1528.45 Q1449.64 1530.79 1449.64 1535.19 L1449.64 1548.85 L1445.35 1548.85 L1445.35 1522.92 L1449.64 1522.92 L1449.64 1526.95 Q1450.98 1524.59 1453.13 1523.45 Q1455.28 1522.3 1458.36 1522.3 Q1458.8 1522.3 1459.33 1522.37 Q1459.87 1522.41 1460.51 1522.53 L1460.54 1526.9 Z" fill="#000000" fill-rule="nonzero" fill-opacity="1"></path><path clip-path="url(#clip400)" d="M1485.72 1533.2 L1485.72 1548.85 L1481.46 1548.85 L1481.46 1533.34 Q1481.46 1529.66 1480.03 1527.83 Q1478.59 1526 1475.72 1526 Q1472.27 1526 1470.28 1528.2 Q1468.29 1530.4 1468.29 1534.2 L1468.29 1548.85 L1464.01 1548.85 L1464.01 1522.92 L1468.29 1522.92 L1468.29 1526.95 Q1469.82 1524.61 1471.88 1523.45 Q1473.96 1522.3 1476.67 1522.3 Q1481.14 1522.3 1483.43 1525.07 Q1485.72 1527.83 1485.72 1533.2 Z" fill="#000000" fill-rule="nonzero" fill-opacity="1"></path><path clip-path="url(#clip400)" d="M1506 1535.82 Q1500.84 1535.82 1498.85 1537 Q1496.86 1538.18 1496.86 1541.02 Q1496.86 1543.29 1498.34 1544.63 Q1499.84 1545.95 1502.41 1545.95 Q1505.95 1545.95 1508.08 1543.45 Q1510.24 1540.93 1510.24 1536.76 L1510.24 1535.82 L1506 1535.82 M1514.5 1534.06 L1514.5 1548.85 L1510.24 1548.85 L1510.24 1544.91 Q1508.78 1547.27 1506.6 1548.41 Q1504.43 1549.52 1501.28 1549.52 Q1497.3 1549.52 1494.94 1547.3 Q1492.6 1545.05 1492.6 1541.3 Q1492.6 1536.93 1495.51 1534.7 Q1498.45 1532.48 1504.26 1532.48 L1510.24 1532.48 L1510.24 1532.07 Q1510.24 1529.13 1508.29 1527.53 Q1506.37 1525.91 1502.88 1525.91 Q1500.65 1525.91 1498.55 1526.44 Q1496.44 1526.97 1494.5 1528.04 L1494.5 1524.1 Q1496.83 1523.2 1499.03 1522.76 Q1501.23 1522.3 1503.32 1522.3 Q1508.94 1522.3 1511.72 1525.21 Q1514.5 1528.13 1514.5 1534.06 Z" fill="#000000" fill-rule="nonzero" fill-opacity="1"></path><path clip-path="url(#clip400)" d="M1544.82 1533.2 L1544.82 1548.85 L1540.56 1548.85 L1540.56 1533.34 Q1540.56 1529.66 1539.13 1527.83 Q1537.69 1526 1534.82 1526 Q1531.37 1526 1529.38 1528.2 Q1527.39 1530.4 1527.39 1534.2 L1527.39 1548.85 L1523.11 1548.85 L1523.11 1522.92 L1527.39 1522.92 L1527.39 1526.95 Q1528.92 1524.61 1530.98 1523.45 Q1533.06 1522.3 1535.77 1522.3 Q1540.24 1522.3 1542.53 1525.07 Q1544.82 1527.83 1544.82 1533.2 Z" fill="#000000" fill-rule="nonzero" fill-opacity="1"></path><path clip-path="url(#clip400)" d="M1571.97 1523.92 L1571.97 1527.9 Q1570.17 1526.9 1568.34 1526.42 Q1566.53 1525.91 1564.68 1525.91 Q1560.54 1525.91 1558.25 1528.55 Q1555.95 1531.16 1555.95 1535.91 Q1555.95 1540.65 1558.25 1543.29 Q1560.54 1545.91 1564.68 1545.91 Q1566.53 1545.91 1568.34 1545.42 Q1570.17 1544.91 1571.97 1543.92 L1571.97 1547.85 Q1570.19 1548.69 1568.27 1549.1 Q1566.37 1549.52 1564.22 1549.52 Q1558.36 1549.52 1554.91 1545.84 Q1551.46 1542.16 1551.46 1535.91 Q1551.46 1529.57 1554.94 1525.93 Q1558.43 1522.3 1564.5 1522.3 Q1566.46 1522.3 1568.34 1522.71 Q1570.21 1523.11 1571.97 1523.92 Z" fill="#000000" fill-rule="nonzero" fill-opacity="1"></path><path clip-path="url(#clip400)" d="M1601.56 1534.82 L1601.56 1536.9 L1581.97 1536.9 Q1582.25 1541.3 1584.61 1543.62 Q1587 1545.91 1591.23 1545.91 Q1593.69 1545.91 1595.98 1545.31 Q1598.29 1544.7 1600.56 1543.5 L1600.56 1547.53 Q1598.27 1548.5 1595.86 1549.01 Q1593.45 1549.52 1590.98 1549.52 Q1584.77 1549.52 1581.14 1545.91 Q1577.53 1542.3 1577.53 1536.14 Q1577.53 1529.77 1580.95 1526.05 Q1584.4 1522.3 1590.24 1522.3 Q1595.47 1522.3 1598.5 1525.68 Q1601.56 1529.03 1601.56 1534.82 M1597.3 1533.57 Q1597.25 1530.07 1595.33 1527.99 Q1593.43 1525.91 1590.28 1525.91 Q1586.72 1525.91 1584.56 1527.92 Q1582.44 1529.94 1582.11 1533.59 L1597.3 1533.57 Z" fill="#000000" fill-rule="nonzero" fill-opacity="1"></path><path clip-path="url(#clip400)" d="M1629.45 1515.42 L1629.45 1519.98 Q1626.79 1518.71 1624.43 1518.08 Q1622.06 1517.46 1619.87 1517.46 Q1616.05 1517.46 1613.96 1518.94 Q1611.9 1520.42 1611.9 1523.15 Q1611.9 1525.45 1613.27 1526.63 Q1614.66 1527.78 1618.5 1528.5 L1621.32 1529.08 Q1626.56 1530.07 1629.03 1532.6 Q1631.53 1535.1 1631.53 1539.31 Q1631.53 1544.33 1628.15 1546.93 Q1624.8 1549.52 1618.29 1549.52 Q1615.84 1549.52 1613.06 1548.96 Q1610.31 1548.41 1607.34 1547.32 L1607.34 1542.51 Q1610.19 1544.1 1612.92 1544.91 Q1615.65 1545.72 1618.29 1545.72 Q1622.3 1545.72 1624.47 1544.15 Q1626.65 1542.57 1626.65 1539.66 Q1626.65 1537.11 1625.07 1535.68 Q1623.52 1534.24 1619.96 1533.52 L1617.11 1532.97 Q1611.88 1531.93 1609.54 1529.7 Q1607.2 1527.48 1607.2 1523.52 Q1607.2 1518.94 1610.42 1516.3 Q1613.66 1513.66 1619.33 1513.66 Q1621.76 1513.66 1624.29 1514.1 Q1626.81 1514.54 1629.45 1515.42 Z" fill="#000000" fill-rule="nonzero" fill-opacity="1"></path><path clip-path="url(#clip400)" d="M1657.3 1523.92 L1657.3 1527.9 Q1655.49 1526.9 1653.66 1526.42 Q1651.86 1525.91 1650 1525.91 Q1645.86 1525.91 1643.57 1528.55 Q1641.28 1531.16 1641.28 1535.91 Q1641.28 1540.65 1643.57 1543.29 Q1645.86 1545.91 1650 1545.91 Q1651.86 1545.91 1653.66 1545.42 Q1655.49 1544.91 1657.3 1543.92 L1657.3 1547.85 Q1655.51 1548.69 1653.59 1549.1 Q1651.69 1549.52 1649.54 1549.52 Q1643.69 1549.52 1640.24 1545.84 Q1636.79 1542.16 1636.79 1535.91 Q1636.79 1529.57 1640.26 1525.93 Q1643.75 1522.3 1649.82 1522.3 Q1651.79 1522.3 1653.66 1522.71 Q1655.54 1523.11 1657.3 1523.92 Z" fill="#000000" fill-rule="nonzero" fill-opacity="1"></path><path clip-path="url(#clip400)" d="M1674.75 1525.91 Q1671.32 1525.91 1669.33 1528.59 Q1667.34 1531.26 1667.34 1535.91 Q1667.34 1540.56 1669.31 1543.25 Q1671.3 1545.91 1674.75 1545.91 Q1678.15 1545.91 1680.14 1543.22 Q1682.13 1540.54 1682.13 1535.91 Q1682.13 1531.3 1680.14 1528.62 Q1678.15 1525.91 1674.75 1525.91 M1674.75 1522.3 Q1680.31 1522.3 1683.48 1525.91 Q1686.65 1529.52 1686.65 1535.91 Q1686.65 1542.27 1683.48 1545.91 Q1680.31 1549.52 1674.75 1549.52 Q1669.17 1549.52 1666 1545.91 Q1662.85 1542.27 1662.85 1535.91 Q1662.85 1529.52 1666 1525.91 Q1669.17 1522.3 1674.75 1522.3 Z" fill="#000000" fill-rule="nonzero" fill-opacity="1"></path><path clip-path="url(#clip400)" d="M1708.73 1526.9 Q1708.01 1526.49 1707.16 1526.3 Q1706.32 1526.09 1705.31 1526.09 Q1701.69 1526.09 1699.75 1528.45 Q1697.83 1530.79 1697.83 1535.19 L1697.83 1548.85 L1693.55 1548.85 L1693.55 1522.92 L1697.83 1522.92 L1697.83 1526.95 Q1699.17 1524.59 1701.32 1523.45 Q1703.48 1522.3 1706.56 1522.3 Q1706.99 1522.3 1707.53 1522.37 Q1708.06 1522.41 1708.71 1522.53 L1708.73 1526.9 Z" fill="#000000" fill-rule="nonzero" fill-opacity="1"></path><path clip-path="url(#clip400)" d="M1734.33 1534.82 L1734.33 1536.9 L1714.75 1536.9 Q1715.03 1541.3 1717.39 1543.62 Q1719.77 1545.91 1724.01 1545.91 Q1726.46 1545.91 1728.75 1545.31 Q1731.07 1544.7 1733.34 1543.5 L1733.34 1547.53 Q1731.05 1548.5 1728.64 1549.01 Q1726.23 1549.52 1723.75 1549.52 Q1717.55 1549.52 1713.92 1545.91 Q1710.31 1542.3 1710.31 1536.14 Q1710.31 1529.77 1713.73 1526.05 Q1717.18 1522.3 1723.01 1522.3 Q1728.24 1522.3 1731.28 1525.68 Q1734.33 1529.03 1734.33 1534.82 M1730.07 1533.57 Q1730.03 1530.07 1728.11 1527.99 Q1726.21 1525.91 1723.06 1525.91 Q1719.49 1525.91 1717.34 1527.92 Q1715.21 1529.94 1714.89 1533.59 L1730.07 1533.57 Z" fill="#000000" fill-rule="nonzero" fill-opacity="1"></path><path clip-path="url(#clip400)" d="M1924.53 1523.69 L1924.53 1527.71 Q1922.73 1526.79 1920.78 1526.32 Q1918.84 1525.86 1916.76 1525.86 Q1913.59 1525.86 1911.99 1526.83 Q1910.41 1527.81 1910.41 1529.75 Q1910.41 1531.23 1911.55 1532.09 Q1912.68 1532.92 1916.11 1533.69 L1917.57 1534.01 Q1922.1 1534.98 1924 1536.76 Q1925.92 1538.52 1925.92 1541.7 Q1925.92 1545.31 1923.05 1547.41 Q1920.21 1549.52 1915.21 1549.52 Q1913.12 1549.52 1910.85 1549.1 Q1908.61 1548.71 1906.11 1547.9 L1906.11 1543.5 Q1908.47 1544.73 1910.76 1545.35 Q1913.05 1545.95 1915.3 1545.95 Q1918.31 1545.95 1919.93 1544.94 Q1921.55 1543.89 1921.55 1542.02 Q1921.55 1540.28 1920.37 1539.36 Q1919.21 1538.43 1915.25 1537.57 L1913.77 1537.23 Q1909.81 1536.39 1908.05 1534.68 Q1906.29 1532.95 1906.29 1529.94 Q1906.29 1526.28 1908.89 1524.29 Q1911.48 1522.3 1916.25 1522.3 Q1918.61 1522.3 1920.69 1522.64 Q1922.78 1522.99 1924.53 1523.69 Z" fill="#000000" fill-rule="nonzero" fill-opacity="1"></path><path clip-path="url(#clip400)" d="M1942.75 1525.91 Q1939.33 1525.91 1937.34 1528.59 Q1935.34 1531.26 1935.34 1535.91 Q1935.34 1540.56 1937.31 1543.25 Q1939.3 1545.91 1942.75 1545.91 Q1946.15 1545.91 1948.15 1543.22 Q1950.14 1540.54 1950.14 1535.91 Q1950.14 1531.3 1948.15 1528.62 Q1946.15 1525.91 1942.75 1525.91 M1942.75 1522.3 Q1948.31 1522.3 1951.48 1525.91 Q1954.65 1529.52 1954.65 1535.91 Q1954.65 1542.27 1951.48 1545.91 Q1948.31 1549.52 1942.75 1549.52 Q1937.17 1549.52 1934 1545.91 Q1930.85 1542.27 1930.85 1535.91 Q1930.85 1529.52 1934 1525.91 Q1937.17 1522.3 1942.75 1522.3 Z" fill="#000000" fill-rule="nonzero" fill-opacity="1"></path><path clip-path="url(#clip400)" d="M1980.37 1523.92 L1980.37 1527.9 Q1978.56 1526.9 1976.73 1526.42 Q1974.93 1525.91 1973.08 1525.91 Q1968.93 1525.91 1966.64 1528.55 Q1964.35 1531.16 1964.35 1535.91 Q1964.35 1540.65 1966.64 1543.29 Q1968.93 1545.91 1973.08 1545.91 Q1974.93 1545.91 1976.73 1545.42 Q1978.56 1544.91 1980.37 1543.92 L1980.37 1547.85 Q1978.59 1548.69 1976.66 1549.1 Q1974.77 1549.52 1972.61 1549.52 Q1966.76 1549.52 1963.31 1545.84 Q1959.86 1542.16 1959.86 1535.91 Q1959.86 1529.57 1963.33 1525.93 Q1966.83 1522.3 1972.89 1522.3 Q1974.86 1522.3 1976.73 1522.71 Q1978.61 1523.11 1980.37 1523.92 Z" fill="#000000" fill-rule="nonzero" fill-opacity="1"></path><path clip-path="url(#clip400)" d="M1987.78 1522.92 L1992.03 1522.92 L1992.03 1548.85 L1987.78 1548.85 L1987.78 1522.92 M1987.78 1512.83 L1992.03 1512.83 L1992.03 1518.22 L1987.78 1518.22 L1987.78 1512.83 Z" fill="#000000" fill-rule="nonzero" fill-opacity="1"></path><path clip-path="url(#clip400)" d="M2012.73 1535.82 Q2007.57 1535.82 2005.58 1537 Q2003.59 1538.18 2003.59 1541.02 Q2003.59 1543.29 2005.07 1544.63 Q2006.57 1545.95 2009.14 1545.95 Q2012.68 1545.95 2014.81 1543.45 Q2016.96 1540.93 2016.96 1536.76 L2016.96 1535.82 L2012.73 1535.82 M2021.22 1534.06 L2021.22 1548.85 L2016.96 1548.85 L2016.96 1544.91 Q2015.51 1547.27 2013.33 1548.41 Q2011.15 1549.52 2008.01 1549.52 Q2004.03 1549.52 2001.66 1547.3 Q1999.33 1545.05 1999.33 1541.3 Q1999.33 1536.93 2002.24 1534.7 Q2005.18 1532.48 2010.99 1532.48 L2016.96 1532.48 L2016.96 1532.07 Q2016.96 1529.13 2015.02 1527.53 Q2013.1 1525.91 2009.6 1525.91 Q2007.38 1525.91 2005.28 1526.44 Q2003.17 1526.97 2001.22 1528.04 L2001.22 1524.1 Q2003.56 1523.2 2005.76 1522.76 Q2007.96 1522.3 2010.04 1522.3 Q2015.67 1522.3 2018.45 1525.21 Q2021.22 1528.13 2021.22 1534.06 Z" fill="#000000" fill-rule="nonzero" fill-opacity="1"></path><path clip-path="url(#clip400)" d="M2030 1512.83 L2034.26 1512.83 L2034.26 1548.85 L2030 1548.85 L2030 1512.83 Z" fill="#000000" fill-rule="nonzero" fill-opacity="1"></path><path clip-path="url(#clip400)" d="M2064.07 1515.42 L2064.07 1519.98 Q2061.41 1518.71 2059.05 1518.08 Q2056.69 1517.46 2054.49 1517.46 Q2050.67 1517.46 2048.58 1518.94 Q2046.52 1520.42 2046.52 1523.15 Q2046.52 1525.45 2047.89 1526.63 Q2049.28 1527.78 2053.12 1528.5 L2055.95 1529.08 Q2061.18 1530.07 2063.65 1532.6 Q2066.15 1535.1 2066.15 1539.31 Q2066.15 1544.33 2062.77 1546.93 Q2059.42 1549.52 2052.91 1549.52 Q2050.46 1549.52 2047.68 1548.96 Q2044.93 1548.41 2041.96 1547.32 L2041.96 1542.51 Q2044.81 1544.1 2047.54 1544.91 Q2050.27 1545.72 2052.91 1545.72 Q2056.92 1545.72 2059.09 1544.15 Q2061.27 1542.57 2061.27 1539.66 Q2061.27 1537.11 2059.7 1535.68 Q2058.15 1534.24 2054.58 1533.52 L2051.73 1532.97 Q2046.5 1531.93 2044.16 1529.7 Q2041.83 1527.48 2041.83 1523.52 Q2041.83 1518.94 2045.04 1516.3 Q2048.28 1513.66 2053.96 1513.66 Q2056.39 1513.66 2058.91 1514.1 Q2061.43 1514.54 2064.07 1515.42 Z" fill="#000000" fill-rule="nonzero" fill-opacity="1"></path><path clip-path="url(#clip400)" d="M2091.92 1523.92 L2091.92 1527.9 Q2090.11 1526.9 2088.28 1526.42 Q2086.48 1525.91 2084.63 1525.91 Q2080.48 1525.91 2078.19 1528.55 Q2075.9 1531.16 2075.9 1535.91 Q2075.9 1540.65 2078.19 1543.29 Q2080.48 1545.91 2084.63 1545.91 Q2086.48 1545.91 2088.28 1545.42 Q2090.11 1544.91 2091.92 1543.92 L2091.92 1547.85 Q2090.14 1548.69 2088.21 1549.1 Q2086.32 1549.52 2084.16 1549.52 Q2078.31 1549.52 2074.86 1545.84 Q2071.41 1542.16 2071.41 1535.91 Q2071.41 1529.57 2074.88 1525.93 Q2078.38 1522.3 2084.44 1522.3 Q2086.41 1522.3 2088.28 1522.71 Q2090.16 1523.11 2091.92 1523.92 Z" fill="#000000" fill-rule="nonzero" fill-opacity="1"></path><path clip-path="url(#clip400)" d="M2109.37 1525.91 Q2105.95 1525.91 2103.96 1528.59 Q2101.96 1531.26 2101.96 1535.91 Q2101.96 1540.56 2103.93 1543.25 Q2105.92 1545.91 2109.37 1545.91 Q2112.77 1545.91 2114.77 1543.22 Q2116.76 1540.54 2116.76 1535.91 Q2116.76 1531.3 2114.77 1528.62 Q2112.77 1525.91 2109.37 1525.91 M2109.37 1522.3 Q2114.93 1522.3 2118.1 1525.91 Q2121.27 1529.52 2121.27 1535.91 Q2121.27 1542.27 2118.1 1545.91 Q2114.93 1549.52 2109.37 1549.52 Q2103.79 1549.52 2100.62 1545.91 Q2097.47 1542.27 2097.47 1535.91 Q2097.47 1529.52 2100.62 1525.91 Q2103.79 1522.3 2109.37 1522.3 Z" fill="#000000" fill-rule="nonzero" fill-opacity="1"></path><path clip-path="url(#clip400)" d="M2143.35 1526.9 Q2142.64 1526.49 2141.78 1526.3 Q2140.95 1526.09 2139.93 1526.09 Q2136.32 1526.09 2134.37 1528.45 Q2132.45 1530.79 2132.45 1535.19 L2132.45 1548.85 L2128.17 1548.85 L2128.17 1522.92 L2132.45 1522.92 L2132.45 1526.95 Q2133.79 1524.59 2135.95 1523.45 Q2138.1 1522.3 2141.18 1522.3 Q2141.62 1522.3 2142.15 1522.37 Q2142.68 1522.41 2143.33 1522.53 L2143.35 1526.9 Z" fill="#000000" fill-rule="nonzero" fill-opacity="1"></path><path clip-path="url(#clip400)" d="M2168.95 1534.82 L2168.95 1536.9 L2149.37 1536.9 Q2149.65 1541.3 2152.01 1543.62 Q2154.39 1545.91 2158.63 1545.91 Q2161.08 1545.91 2163.38 1545.31 Q2165.69 1544.7 2167.96 1543.5 L2167.96 1547.53 Q2165.67 1548.5 2163.26 1549.01 Q2160.85 1549.52 2158.38 1549.52 Q2152.17 1549.52 2148.54 1545.91 Q2144.93 1542.3 2144.93 1536.14 Q2144.93 1529.77 2148.35 1526.05 Q2151.8 1522.3 2157.64 1522.3 Q2162.87 1522.3 2165.9 1525.68 Q2168.95 1529.03 2168.95 1534.82 M2164.7 1533.57 Q2164.65 1530.07 2162.73 1527.99 Q2160.83 1525.91 2157.68 1525.91 Q2154.12 1525.91 2151.96 1527.92 Q2149.83 1529.94 2149.51 1533.59 L2164.7 1533.57 Z" fill="#000000" fill-rule="nonzero" fill-opacity="1"></path><polyline clip-path="url(#clip402)" style="stroke:#000000; stroke-linecap:round; stroke-linejoin:round; stroke-width:2; stroke-opacity:0.1; fill:none" points="202.227,1486.45 2352.76,1486.45 "></polyline>
<polyline clip-path="url(#clip402)" style="stroke:#000000; stroke-linecap:round; stroke-linejoin:round; stroke-width:2; stroke-opacity:0.1; fill:none" points="202.227,1068.56 2352.76,1068.56 "></polyline>
<polyline clip-path="url(#clip402)" style="stroke:#000000; stroke-linecap:round; stroke-linejoin:round; stroke-width:2; stroke-opacity:0.1; fill:none" points="202.227,650.673 2352.76,650.673 "></polyline>
<polyline clip-path="url(#clip402)" style="stroke:#000000; stroke-linecap:round; stroke-linejoin:round; stroke-width:2; stroke-opacity:0.1; fill:none" points="202.227,232.786 2352.76,232.786 "></polyline>
<polyline clip-path="url(#clip400)" style="stroke:#000000; stroke-linecap:round; stroke-linejoin:round; stroke-width:4; stroke-opacity:1; fill:none" points="202.227,1486.45 202.227,47.2441 "></polyline>
<polyline clip-path="url(#clip400)" style="stroke:#000000; stroke-linecap:round; stroke-linejoin:round; stroke-width:4; stroke-opacity:1; fill:none" points="202.227,1486.45 221.125,1486.45 "></polyline>
<polyline clip-path="url(#clip400)" style="stroke:#000000; stroke-linecap:round; stroke-linejoin:round; stroke-width:4; stroke-opacity:1; fill:none" points="202.227,1068.56 221.125,1068.56 "></polyline>
<polyline clip-path="url(#clip400)" style="stroke:#000000; stroke-linecap:round; stroke-linejoin:round; stroke-width:4; stroke-opacity:1; fill:none" points="202.227,650.673 221.125,650.673 "></polyline>
<polyline clip-path="url(#clip400)" style="stroke:#000000; stroke-linecap:round; stroke-linejoin:round; stroke-width:4; stroke-opacity:1; fill:none" points="202.227,232.786 221.125,232.786 "></polyline>
<path clip-path="url(#clip400)" d="M154.283 1472.25 Q150.672 1472.25 148.843 1475.81 Q147.038 1479.35 147.038 1486.48 Q147.038 1493.59 148.843 1497.15 Q150.672 1500.7 154.283 1500.7 Q157.917 1500.7 159.723 1497.15 Q161.552 1493.59 161.552 1486.48 Q161.552 1479.35 159.723 1475.81 Q157.917 1472.25 154.283 1472.25 M154.283 1468.54 Q160.093 1468.54 163.149 1473.15 Q166.227 1477.73 166.227 1486.48 Q166.227 1495.21 163.149 1499.82 Q160.093 1504.4 154.283 1504.4 Q148.473 1504.4 145.394 1499.82 Q142.339 1495.21 142.339 1486.48 Q142.339 1477.73 145.394 1473.15 Q148.473 1468.54 154.283 1468.54 Z" fill="#000000" fill-rule="nonzero" fill-opacity="1"></path><path clip-path="url(#clip400)" d="M145.325 1051.28 L163.681 1051.28 L163.681 1055.22 L149.607 1055.22 L149.607 1063.69 Q150.626 1063.34 151.644 1063.18 Q152.663 1062.99 153.681 1062.99 Q159.468 1062.99 162.848 1066.16 Q166.227 1069.34 166.227 1074.75 Q166.227 1080.33 162.755 1083.43 Q159.283 1086.51 152.964 1086.51 Q150.788 1086.51 148.519 1086.14 Q146.274 1085.77 143.866 1085.03 L143.866 1080.33 Q145.95 1081.47 148.172 1082.02 Q150.394 1082.58 152.871 1082.58 Q156.876 1082.58 159.214 1080.47 Q161.552 1078.36 161.552 1074.75 Q161.552 1071.14 159.214 1069.04 Q156.876 1066.93 152.871 1066.93 Q150.996 1066.93 149.121 1067.35 Q147.269 1067.76 145.325 1068.64 L145.325 1051.28 Z" fill="#000000" fill-rule="nonzero" fill-opacity="1"></path><path clip-path="url(#clip400)" d="M114.931 664.018 L122.57 664.018 L122.57 637.653 L114.26 639.319 L114.26 635.06 L122.524 633.393 L127.2 633.393 L127.2 664.018 L134.839 664.018 L134.839 667.953 L114.931 667.953 L114.931 664.018 Z" fill="#000000" fill-rule="nonzero" fill-opacity="1"></path><path clip-path="url(#clip400)" d="M154.283 636.472 Q150.672 636.472 148.843 640.037 Q147.038 643.578 147.038 650.708 Q147.038 657.814 148.843 661.379 Q150.672 664.921 154.283 664.921 Q157.917 664.921 159.723 661.379 Q161.552 657.814 161.552 650.708 Q161.552 643.578 159.723 640.037 Q157.917 636.472 154.283 636.472 M154.283 632.768 Q160.093 632.768 163.149 637.375 Q166.227 641.958 166.227 650.708 Q166.227 659.435 163.149 664.041 Q160.093 668.625 154.283 668.625 Q148.473 668.625 145.394 664.041 Q142.339 659.435 142.339 650.708 Q142.339 641.958 145.394 637.375 Q148.473 632.768 154.283 632.768 Z" fill="#000000" fill-rule="nonzero" fill-opacity="1"></path><path clip-path="url(#clip400)" d="M115.927 246.131 L123.566 246.131 L123.566 219.765 L115.256 221.432 L115.256 217.173 L123.519 215.506 L128.195 215.506 L128.195 246.131 L135.834 246.131 L135.834 250.066 L115.927 250.066 L115.927 246.131 Z" fill="#000000" fill-rule="nonzero" fill-opacity="1"></path><path clip-path="url(#clip400)" d="M145.325 215.506 L163.681 215.506 L163.681 219.441 L149.607 219.441 L149.607 227.913 Q150.626 227.566 151.644 227.404 Q152.663 227.219 153.681 227.219 Q159.468 227.219 162.848 230.39 Q166.227 233.562 166.227 238.978 Q166.227 244.557 162.755 247.659 Q159.283 250.737 152.964 250.737 Q150.788 250.737 148.519 250.367 Q146.274 249.997 143.866 249.256 L143.866 244.557 Q145.95 245.691 148.172 246.247 Q150.394 246.802 152.871 246.802 Q156.876 246.802 159.214 244.696 Q161.552 242.589 161.552 238.978 Q161.552 235.367 159.214 233.261 Q156.876 231.154 152.871 231.154 Q150.996 231.154 149.121 231.571 Q147.269 231.987 145.325 232.867 L145.325 215.506 Z" fill="#000000" fill-rule="nonzero" fill-opacity="1"></path><path clip-path="url(#clip400)" d="M18.0438 840.784 L24.314 840.784 Q22.5634 844.444 21.704 847.69 Q20.8447 850.937 20.8447 853.961 Q20.8447 859.212 22.8817 862.077 Q24.9187 864.91 28.6745 864.91 Q31.8255 864.91 33.4488 863.032 Q35.0402 861.122 36.0269 855.839 L36.8226 851.955 Q38.1912 844.762 41.6605 841.357 Q45.098 837.919 50.8908 837.919 Q57.7976 837.919 61.3624 842.566 Q64.9272 847.181 64.9272 856.125 Q64.9272 859.499 64.1633 863.318 Q63.3994 867.106 61.9035 871.18 L55.2831 871.18 Q57.4793 867.265 58.5933 863.509 Q59.7073 859.753 59.7073 856.125 Q59.7073 850.619 57.543 847.627 Q55.3786 844.635 51.3682 844.635 Q47.8671 844.635 45.8937 846.799 Q43.9204 848.932 42.9337 853.833 L42.1698 857.748 Q40.7375 864.942 37.682 868.156 Q34.6264 871.371 29.1837 871.371 Q22.8817 871.371 19.2532 866.947 Q15.6248 862.491 15.6248 854.693 Q15.6248 851.351 16.2295 847.881 Q16.8343 844.412 18.0438 840.784 Z" fill="#000000" fill-rule="nonzero" fill-opacity="1"></path><path clip-path="url(#clip400)" d="M29.7248 802.494 L35.1993 802.494 Q33.8307 804.977 33.1623 807.491 Q32.4621 809.974 32.4621 812.52 Q32.4621 818.217 36.0905 821.368 Q39.6872 824.519 46.212 824.519 Q52.7369 824.519 56.3653 821.368 Q59.9619 818.217 59.9619 812.52 Q59.9619 809.974 59.2935 807.491 Q58.5933 804.977 57.2247 802.494 L62.6355 802.494 Q63.7814 804.945 64.3543 807.587 Q64.9272 810.196 64.9272 813.156 Q64.9272 821.209 59.8664 825.952 Q54.8057 830.694 46.212 830.694 Q37.491 830.694 32.4939 825.92 Q27.4968 821.114 27.4968 812.775 Q27.4968 810.069 28.0697 807.491 Q28.6108 804.913 29.7248 802.494 Z" fill="#000000" fill-rule="nonzero" fill-opacity="1"></path><path clip-path="url(#clip400)" d="M32.4621 778.495 Q32.4621 783.206 36.1542 785.943 Q39.8145 788.68 46.212 788.68 Q52.6095 788.68 56.3017 785.975 Q59.9619 783.238 59.9619 778.495 Q59.9619 773.816 56.2698 771.079 Q52.5777 768.342 46.212 768.342 Q39.8781 768.342 36.186 771.079 Q32.4621 773.816 32.4621 778.495 M27.4968 778.495 Q27.4968 770.856 32.4621 766.496 Q37.4273 762.135 46.212 762.135 Q54.9649 762.135 59.9619 766.496 Q64.9272 770.856 64.9272 778.495 Q64.9272 786.166 59.9619 790.526 Q54.9649 794.855 46.212 794.855 Q37.4273 794.855 32.4621 790.526 Q27.4968 786.166 27.4968 778.495 Z" fill="#000000" fill-rule="nonzero" fill-opacity="1"></path><path clip-path="url(#clip400)" d="M33.8307 731.771 Q33.2578 732.758 33.0032 733.935 Q32.7167 735.081 32.7167 736.482 Q32.7167 741.447 35.9632 744.12 Q39.1779 746.762 45.2253 746.762 L64.0042 746.762 L64.0042 752.65 L28.3562 752.65 L28.3562 746.762 L33.8944 746.762 Q30.6479 744.916 29.0883 741.956 Q27.4968 738.996 27.4968 734.763 Q27.4968 734.158 27.5923 733.426 Q27.656 732.694 27.8151 731.803 L33.8307 731.771 Z" fill="#000000" fill-rule="nonzero" fill-opacity="1"></path><path clip-path="url(#clip400)" d="M44.7161 696.569 L47.5806 696.569 L47.5806 723.496 Q53.6281 723.114 56.8109 719.867 Q59.9619 716.589 59.9619 710.764 Q59.9619 707.39 59.1344 704.239 Q58.3069 701.056 56.6518 697.937 L62.1899 697.937 Q63.5267 701.088 64.227 704.398 Q64.9272 707.709 64.9272 711.114 Q64.9272 719.644 59.9619 724.641 Q54.9967 729.607 46.5303 729.607 Q37.7774 729.607 32.6531 724.896 Q27.4968 720.154 27.4968 712.133 Q27.4968 704.939 32.1438 700.77 Q36.7589 696.569 44.7161 696.569 M42.9973 702.425 Q38.1912 702.489 35.3266 705.13 Q32.4621 707.74 32.4621 712.069 Q32.4621 716.971 35.2312 719.931 Q38.0002 722.859 43.0292 723.305 L42.9973 702.425 Z" fill="#000000" fill-rule="nonzero" fill-opacity="1"></path><path clip-path="url(#clip400)" d="M29.4065 664.231 L34.9447 664.231 Q33.6716 666.713 33.035 669.387 Q32.3984 672.061 32.3984 674.925 Q32.3984 679.286 33.7352 681.482 Q35.072 683.646 37.7456 683.646 Q39.7826 683.646 40.9603 682.087 Q42.1061 680.527 43.1565 675.816 L43.6021 673.811 Q44.9389 667.573 47.3897 664.963 Q49.8086 662.321 54.1691 662.321 Q59.1344 662.321 62.0308 666.268 Q64.9272 670.183 64.9272 677.058 Q64.9272 679.922 64.3543 683.041 Q63.8132 686.129 62.6992 689.566 L56.6518 689.566 Q58.3387 686.32 59.198 683.169 Q60.0256 680.018 60.0256 676.93 Q60.0256 672.793 58.6251 670.565 Q57.1929 668.337 54.6147 668.337 Q52.2276 668.337 50.9545 669.96 Q49.6813 671.551 48.5037 676.994 L48.0262 679.031 Q46.8804 684.474 44.5251 686.893 Q42.138 689.312 38.0002 689.312 Q32.9713 689.312 30.2341 685.747 Q27.4968 682.182 27.4968 675.625 Q27.4968 672.379 27.9743 669.514 Q28.4517 666.65 29.4065 664.231 Z" fill="#000000" fill-rule="nonzero" fill-opacity="1"></path><path clip-path="url(#clip402)" d="M314.774 1448 L314.774 1486.45 L517.452 1486.45 L517.452 1448 L314.774 1448 L314.774 1448  Z" fill="#009af9" fill-rule="evenodd" fill-opacity="1"></path>
<polyline clip-path="url(#clip402)" style="stroke:#000000; stroke-linecap:round; stroke-linejoin:round; stroke-width:4; stroke-opacity:1; fill:none" points="314.774,1448 314.774,1486.45 517.452,1486.45 517.452,1448 314.774,1448 "></polyline>
<path clip-path="url(#clip402)" d="M821.468 47.2441 L821.468 1486.45 L1024.14 1486.45 L1024.14 47.2441 L821.468 47.2441 L821.468 47.2441  Z" fill="#009af9" fill-rule="evenodd" fill-opacity="1"></path>
<polyline clip-path="url(#clip402)" style="stroke:#000000; stroke-linecap:round; stroke-linejoin:round; stroke-width:4; stroke-opacity:1; fill:none" points="821.468,47.2441 821.468,1486.45 1024.14,1486.45 1024.14,47.2441 821.468,47.2441 "></polyline>
<path clip-path="url(#clip402)" d="M1328.16 703.327 L1328.16 1486.45 L1530.84 1486.45 L1530.84 703.327 L1328.16 703.327 L1328.16 703.327  Z" fill="#009af9" fill-rule="evenodd" fill-opacity="1"></path>
<polyline clip-path="url(#clip402)" style="stroke:#000000; stroke-linecap:round; stroke-linejoin:round; stroke-width:4; stroke-opacity:1; fill:none" points="1328.16,703.327 1328.16,1486.45 1530.84,1486.45 1530.84,703.327 1328.16,703.327 "></polyline>
<path clip-path="url(#clip402)" d="M1834.85 868.81 L1834.85 1486.45 L2037.53 1486.45 L2037.53 868.81 L1834.85 868.81 L1834.85 868.81  Z" fill="#009af9" fill-rule="evenodd" fill-opacity="1"></path>
<polyline clip-path="url(#clip402)" style="stroke:#000000; stroke-linecap:round; stroke-linejoin:round; stroke-width:4; stroke-opacity:1; fill:none" points="1834.85,868.81 1834.85,1486.45 2037.53,1486.45 2037.53,868.81 1834.85,868.81 "></polyline>
<circle clip-path="url(#clip402)" style="fill:#009af9; stroke:none; fill-opacity:0" cx="416.113" cy="1448" r="2"></circle>
<circle clip-path="url(#clip402)" style="fill:#009af9; stroke:none; fill-opacity:0" cx="922.806" cy="47.2441" r="2"></circle>
<circle clip-path="url(#clip402)" style="fill:#009af9; stroke:none; fill-opacity:0" cx="1429.5" cy="703.327" r="2"></circle>
<circle clip-path="url(#clip402)" style="fill:#009af9; stroke:none; fill-opacity:0" cx="1936.19" cy="868.81" r="2"></circle>
<path clip-path="url(#clip402)" d="M517.452 1230.8 L517.452 1486.45 L720.129 1486.45 L720.129 1230.8 L517.452 1230.8 L517.452 1230.8  Z" fill="#e26f46" fill-rule="evenodd" fill-opacity="1"></path>
<polyline clip-path="url(#clip402)" style="stroke:#000000; stroke-linecap:round; stroke-linejoin:round; stroke-width:4; stroke-opacity:1; fill:none" points="517.452,1230.8 517.452,1486.45 720.129,1486.45 720.129,1230.8 517.452,1230.8 "></polyline>
<path clip-path="url(#clip402)" d="M1024.14 185.512 L1024.14 1486.45 L1226.82 1486.45 L1226.82 185.512 L1024.14 185.512 L1024.14 185.512  Z" fill="#e26f46" fill-rule="evenodd" fill-opacity="1"></path>
<polyline clip-path="url(#clip402)" style="stroke:#000000; stroke-linecap:round; stroke-linejoin:round; stroke-width:4; stroke-opacity:1; fill:none" points="1024.14,185.512 1024.14,1486.45 1226.82,1486.45 1226.82,185.512 1024.14,185.512 "></polyline>
<path clip-path="url(#clip402)" d="M1530.84 907.387 L1530.84 1486.45 L1733.52 1486.45 L1733.52 907.387 L1530.84 907.387 L1530.84 907.387  Z" fill="#e26f46" fill-rule="evenodd" fill-opacity="1"></path>
<polyline clip-path="url(#clip402)" style="stroke:#000000; stroke-linecap:round; stroke-linejoin:round; stroke-width:4; stroke-opacity:1; fill:none" points="1530.84,907.387 1530.84,1486.45 1733.52,1486.45 1733.52,907.387 1530.84,907.387 "></polyline>
<path clip-path="url(#clip402)" d="M2037.53 1023.69 L2037.53 1486.45 L2240.21 1486.45 L2240.21 1023.69 L2037.53 1023.69 L2037.53 1023.69  Z" fill="#e26f46" fill-rule="evenodd" fill-opacity="1"></path>
<polyline clip-path="url(#clip402)" style="stroke:#000000; stroke-linecap:round; stroke-linejoin:round; stroke-width:4; stroke-opacity:1; fill:none" points="2037.53,1023.69 2037.53,1486.45 2240.21,1486.45 2240.21,1023.69 2037.53,1023.69 "></polyline>
<circle clip-path="url(#clip402)" style="fill:#e26f46; stroke:none; fill-opacity:0" cx="618.79" cy="1230.8" r="2"></circle>
<circle clip-path="url(#clip402)" style="fill:#e26f46; stroke:none; fill-opacity:0" cx="1125.48" cy="185.512" r="2"></circle>
<circle clip-path="url(#clip402)" style="fill:#e26f46; stroke:none; fill-opacity:0" cx="1632.18" cy="907.387" r="2"></circle>
<circle clip-path="url(#clip402)" style="fill:#e26f46; stroke:none; fill-opacity:0" cx="2138.87" cy="1023.69" r="2"></circle>
<path clip-path="url(#clip400)" d="M1558.89 250.738 L2281.07 250.738 L2281.07 95.2176 L1558.89 95.2176  Z" fill="#ffffff" fill-rule="evenodd" fill-opacity="1"></path>
<polyline clip-path="url(#clip400)" style="stroke:#000000; stroke-linecap:round; stroke-linejoin:round; stroke-width:4; stroke-opacity:1; fill:none" points="1558.89,250.738 2281.07,250.738 2281.07,95.2176 1558.89,95.2176 1558.89,250.738 "></polyline>
<path clip-path="url(#clip400)" d="M1582.79 167.794 L1726.16 167.794 L1726.16 126.322 L1582.79 126.322 L1582.79 167.794  Z" fill="#009af9" fill-rule="evenodd" fill-opacity="1"></path>
<polyline clip-path="url(#clip400)" style="stroke:#000000; stroke-linecap:round; stroke-linejoin:round; stroke-width:4; stroke-opacity:1; fill:none" points="1582.79,167.794 1726.16,167.794 1726.16,126.322 1582.79,126.322 1582.79,167.794 "></polyline>
<path clip-path="url(#clip400)" d="M1765.88 134.384 L1759.54 151.583 L1772.25 151.583 L1765.88 134.384 M1763.24 129.778 L1768.55 129.778 L1781.72 164.338 L1776.86 164.338 L1773.71 155.472 L1758.13 155.472 L1754.98 164.338 L1750.05 164.338 L1763.24 129.778 Z" fill="#000000" fill-rule="nonzero" fill-opacity="1"></path><path clip-path="url(#clip400)" d="M1799.63 134.384 L1793.29 151.583 L1806 151.583 L1799.63 134.384 M1796.99 129.778 L1802.3 129.778 L1815.47 164.338 L1810.61 164.338 L1807.46 155.472 L1791.88 155.472 L1788.73 164.338 L1783.8 164.338 L1796.99 129.778 Z" fill="#000000" fill-rule="nonzero" fill-opacity="1"></path><path clip-path="url(#clip400)" d="M1825.19 133.62 L1825.19 146.606 L1831.07 146.606 Q1834.33 146.606 1836.11 144.916 Q1837.9 143.227 1837.9 140.102 Q1837.9 137 1836.11 135.31 Q1834.33 133.62 1831.07 133.62 L1825.19 133.62 M1820.51 129.778 L1831.07 129.778 Q1836.88 129.778 1839.84 132.416 Q1842.83 135.032 1842.83 140.102 Q1842.83 145.217 1839.84 147.833 Q1836.88 150.449 1831.07 150.449 L1825.19 150.449 L1825.19 164.338 L1820.51 164.338 L1820.51 129.778 Z" fill="#000000" fill-rule="nonzero" fill-opacity="1"></path><path clip-path="url(#clip400)" d="M1849.1 129.778 L1853.78 129.778 L1853.78 160.402 L1870.6 160.402 L1870.6 164.338 L1849.1 164.338 L1849.1 129.778 Z" fill="#000000" fill-rule="nonzero" fill-opacity="1"></path><path clip-path="url(#clip400)" d="M1582.79 219.634 L1726.16 219.634 L1726.16 178.162 L1582.79 178.162 L1582.79 219.634  Z" fill="#e26f46" fill-rule="evenodd" fill-opacity="1"></path>
<polyline clip-path="url(#clip400)" style="stroke:#000000; stroke-linecap:round; stroke-linejoin:round; stroke-width:4; stroke-opacity:1; fill:none" points="1582.79,219.634 1726.16,219.634 1726.16,178.162 1582.79,178.162 1582.79,219.634 "></polyline>
<path clip-path="url(#clip400)" d="M1750.05 181.618 L1779.29 181.618 L1779.29 185.553 L1767.02 185.553 L1767.02 216.178 L1762.32 216.178 L1762.32 185.553 L1750.05 185.553 L1750.05 181.618 Z" fill="#000000" fill-rule="nonzero" fill-opacity="1"></path><path clip-path="url(#clip400)" d="M1797.73 202.15 L1797.73 204.233 L1778.15 204.233 Q1778.43 208.631 1780.79 210.946 Q1783.17 213.238 1787.41 213.238 Q1789.86 213.238 1792.16 212.636 Q1794.47 212.034 1796.74 210.83 L1796.74 214.858 Q1794.45 215.83 1792.04 216.34 Q1789.63 216.849 1787.16 216.849 Q1780.95 216.849 1777.32 213.238 Q1773.71 209.627 1773.71 203.469 Q1773.71 197.104 1777.13 193.377 Q1780.58 189.627 1786.42 189.627 Q1791.65 189.627 1794.68 193.006 Q1797.73 196.363 1797.73 202.15 M1793.48 200.9 Q1793.43 197.405 1791.51 195.321 Q1789.61 193.238 1786.46 193.238 Q1782.9 193.238 1780.74 195.252 Q1778.61 197.266 1778.29 200.923 L1793.48 200.9 Z" fill="#000000" fill-rule="nonzero" fill-opacity="1"></path><path clip-path="url(#clip400)" d="M1823.38 191.247 L1823.38 195.229 Q1821.58 194.233 1819.75 193.747 Q1817.94 193.238 1816.09 193.238 Q1811.95 193.238 1809.66 195.877 Q1807.36 198.492 1807.36 203.238 Q1807.36 207.983 1809.66 210.622 Q1811.95 213.238 1816.09 213.238 Q1817.94 213.238 1819.75 212.752 Q1821.58 212.242 1823.38 211.247 L1823.38 215.182 Q1821.6 216.016 1819.68 216.432 Q1817.78 216.849 1815.63 216.849 Q1809.77 216.849 1806.32 213.168 Q1802.87 209.488 1802.87 203.238 Q1802.87 196.895 1806.35 193.261 Q1809.84 189.627 1815.91 189.627 Q1817.87 189.627 1819.75 190.043 Q1821.62 190.437 1823.38 191.247 Z" fill="#000000" fill-rule="nonzero" fill-opacity="1"></path><path clip-path="url(#clip400)" d="M1852.34 200.529 L1852.34 216.178 L1848.08 216.178 L1848.08 200.668 Q1848.08 196.988 1846.65 195.159 Q1845.21 193.33 1842.34 193.33 Q1838.89 193.33 1836.9 195.53 Q1834.91 197.729 1834.91 201.525 L1834.91 216.178 L1830.63 216.178 L1830.63 180.159 L1834.91 180.159 L1834.91 194.28 Q1836.44 191.942 1838.5 190.784 Q1840.58 189.627 1843.29 189.627 Q1847.76 189.627 1850.05 192.405 Q1852.34 195.159 1852.34 200.529 Z" fill="#000000" fill-rule="nonzero" fill-opacity="1"></path><path clip-path="url(#clip400)" d="M1882.39 200.529 L1882.39 216.178 L1878.13 216.178 L1878.13 200.668 Q1878.13 196.988 1876.69 195.159 Q1875.26 193.33 1872.39 193.33 Q1868.94 193.33 1866.95 195.53 Q1864.96 197.729 1864.96 201.525 L1864.96 216.178 L1860.67 216.178 L1860.67 190.252 L1864.96 190.252 L1864.96 194.28 Q1866.48 191.942 1868.54 190.784 Q1870.63 189.627 1873.34 189.627 Q1877.8 189.627 1880.1 192.405 Q1882.39 195.159 1882.39 200.529 Z" fill="#000000" fill-rule="nonzero" fill-opacity="1"></path><path clip-path="url(#clip400)" d="M1900.93 193.238 Q1897.5 193.238 1895.51 195.923 Q1893.52 198.585 1893.52 203.238 Q1893.52 207.891 1895.49 210.576 Q1897.48 213.238 1900.93 213.238 Q1904.33 213.238 1906.32 210.553 Q1908.31 207.867 1908.31 203.238 Q1908.31 198.631 1906.32 195.946 Q1904.33 193.238 1900.93 193.238 M1900.93 189.627 Q1906.48 189.627 1909.66 193.238 Q1912.83 196.849 1912.83 203.238 Q1912.83 209.604 1909.66 213.238 Q1906.48 216.849 1900.93 216.849 Q1895.35 216.849 1892.18 213.238 Q1889.03 209.604 1889.03 203.238 Q1889.03 196.849 1892.18 193.238 Q1895.35 189.627 1900.93 189.627 Z" fill="#000000" fill-rule="nonzero" fill-opacity="1"></path><path clip-path="url(#clip400)" d="M1919.89 180.159 L1924.15 180.159 L1924.15 216.178 L1919.89 216.178 L1919.89 180.159 Z" fill="#000000" fill-rule="nonzero" fill-opacity="1"></path><path clip-path="url(#clip400)" d="M1943.1 193.238 Q1939.68 193.238 1937.69 195.923 Q1935.7 198.585 1935.7 203.238 Q1935.7 207.891 1937.66 210.576 Q1939.66 213.238 1943.1 213.238 Q1946.51 213.238 1948.5 210.553 Q1950.49 207.867 1950.49 203.238 Q1950.49 198.631 1948.5 195.946 Q1946.51 193.238 1943.1 193.238 M1943.1 189.627 Q1948.66 189.627 1951.83 193.238 Q1955 196.849 1955 203.238 Q1955 209.604 1951.83 213.238 Q1948.66 216.849 1943.1 216.849 Q1937.53 216.849 1934.35 213.238 Q1931.21 209.604 1931.21 203.238 Q1931.21 196.849 1934.35 193.238 Q1937.53 189.627 1943.1 189.627 Z" fill="#000000" fill-rule="nonzero" fill-opacity="1"></path><path clip-path="url(#clip400)" d="M1979.12 202.914 Q1979.12 198.284 1977.2 195.738 Q1975.3 193.192 1971.85 193.192 Q1968.43 193.192 1966.51 195.738 Q1964.61 198.284 1964.61 202.914 Q1964.61 207.52 1966.51 210.066 Q1968.43 212.613 1971.85 212.613 Q1975.3 212.613 1977.2 210.066 Q1979.12 207.52 1979.12 202.914 M1983.38 212.96 Q1983.38 219.58 1980.44 222.798 Q1977.5 226.039 1971.44 226.039 Q1969.19 226.039 1967.2 225.691 Q1965.21 225.367 1963.34 224.673 L1963.34 220.529 Q1965.21 221.548 1967.04 222.034 Q1968.87 222.52 1970.77 222.52 Q1974.96 222.52 1977.04 220.321 Q1979.12 218.145 1979.12 213.724 L1979.12 211.617 Q1977.8 213.909 1975.74 215.043 Q1973.68 216.178 1970.81 216.178 Q1966.04 216.178 1963.13 212.543 Q1960.21 208.909 1960.21 202.914 Q1960.21 196.895 1963.13 193.261 Q1966.04 189.627 1970.81 189.627 Q1973.68 189.627 1975.74 190.761 Q1977.8 191.895 1979.12 194.187 L1979.12 190.252 L1983.38 190.252 L1983.38 212.96 Z" fill="#000000" fill-rule="nonzero" fill-opacity="1"></path><path clip-path="url(#clip400)" d="M2002.94 218.585 Q2001.14 223.215 1999.42 224.627 Q1997.71 226.039 1994.84 226.039 L1991.44 226.039 L1991.44 222.474 L1993.94 222.474 Q1995.7 222.474 1996.67 221.64 Q1997.64 220.807 1998.82 217.705 L1999.59 215.761 L1989.1 190.252 L1993.61 190.252 L2001.72 210.529 L2009.82 190.252 L2014.33 190.252 L2002.94 218.585 Z" fill="#000000" fill-rule="nonzero" fill-opacity="1"></path><path clip-path="url(#clip400)" d="M2035.47 181.618 L2040.14 181.618 L2040.14 195.784 L2057.13 195.784 L2057.13 181.618 L2061.81 181.618 L2061.81 216.178 L2057.13 216.178 L2057.13 199.719 L2040.14 199.719 L2040.14 216.178 L2035.47 216.178 L2035.47 181.618 Z" fill="#000000" fill-rule="nonzero" fill-opacity="1"></path><path clip-path="url(#clip400)" d="M2082.71 203.145 Q2077.55 203.145 2075.56 204.326 Q2073.57 205.506 2073.57 208.354 Q2073.57 210.622 2075.05 211.965 Q2076.55 213.284 2079.12 213.284 Q2082.66 213.284 2084.79 210.784 Q2086.95 208.261 2086.95 204.094 L2086.95 203.145 L2082.71 203.145 M2091.21 201.386 L2091.21 216.178 L2086.95 216.178 L2086.95 212.242 Q2085.49 214.603 2083.31 215.738 Q2081.14 216.849 2077.99 216.849 Q2074.01 216.849 2071.65 214.627 Q2069.31 212.381 2069.31 208.631 Q2069.31 204.256 2072.22 202.034 Q2075.16 199.812 2080.97 199.812 L2086.95 199.812 L2086.95 199.395 Q2086.95 196.455 2085 194.858 Q2083.08 193.238 2079.59 193.238 Q2077.36 193.238 2075.26 193.77 Q2073.15 194.303 2071.21 195.367 L2071.21 191.432 Q2073.54 190.53 2075.74 190.09 Q2077.94 189.627 2080.03 189.627 Q2085.65 189.627 2088.43 192.543 Q2091.21 195.46 2091.21 201.386 Z" fill="#000000" fill-rule="nonzero" fill-opacity="1"></path><path clip-path="url(#clip400)" d="M2115 194.233 Q2114.28 193.817 2113.43 193.631 Q2112.59 193.423 2111.58 193.423 Q2107.96 193.423 2106.02 195.784 Q2104.1 198.122 2104.1 202.52 L2104.1 216.178 L2099.82 216.178 L2099.82 190.252 L2104.1 190.252 L2104.1 194.28 Q2105.44 191.918 2107.59 190.784 Q2109.75 189.627 2112.83 189.627 Q2113.27 189.627 2113.8 189.696 Q2114.33 189.743 2114.98 189.858 L2115 194.233 Z" fill="#000000" fill-rule="nonzero" fill-opacity="1"></path><path clip-path="url(#clip400)" d="M2135.7 194.187 L2135.7 180.159 L2139.96 180.159 L2139.96 216.178 L2135.7 216.178 L2135.7 212.289 Q2134.35 214.603 2132.29 215.738 Q2130.26 216.849 2127.39 216.849 Q2122.69 216.849 2119.72 213.099 Q2116.78 209.349 2116.78 203.238 Q2116.78 197.127 2119.72 193.377 Q2122.69 189.627 2127.39 189.627 Q2130.26 189.627 2132.29 190.761 Q2134.35 191.872 2135.7 194.187 M2121.18 203.238 Q2121.18 207.937 2123.1 210.622 Q2125.05 213.284 2128.43 213.284 Q2131.81 213.284 2133.75 210.622 Q2135.7 207.937 2135.7 203.238 Q2135.7 198.539 2133.75 195.877 Q2131.81 193.192 2128.43 193.192 Q2125.05 193.192 2123.1 195.877 Q2121.18 198.539 2121.18 203.238 Z" fill="#000000" fill-rule="nonzero" fill-opacity="1"></path><path clip-path="url(#clip400)" d="M2146.25 190.252 L2150.51 190.252 L2155.83 210.483 L2161.14 190.252 L2166.16 190.252 L2171.48 210.483 L2176.78 190.252 L2181.04 190.252 L2174.26 216.178 L2169.24 216.178 L2163.66 194.928 L2158.06 216.178 L2153.03 216.178 L2146.25 190.252 Z" fill="#000000" fill-rule="nonzero" fill-opacity="1"></path><path clip-path="url(#clip400)" d="M2199.28 203.145 Q2194.12 203.145 2192.13 204.326 Q2190.14 205.506 2190.14 208.354 Q2190.14 210.622 2191.62 211.965 Q2193.13 213.284 2195.7 213.284 Q2199.24 213.284 2201.37 210.784 Q2203.52 208.261 2203.52 204.094 L2203.52 203.145 L2199.28 203.145 M2207.78 201.386 L2207.78 216.178 L2203.52 216.178 L2203.52 212.242 Q2202.06 214.603 2199.89 215.738 Q2197.71 216.849 2194.56 216.849 Q2190.58 216.849 2188.22 214.627 Q2185.88 212.381 2185.88 208.631 Q2185.88 204.256 2188.8 202.034 Q2191.74 199.812 2197.55 199.812 L2203.52 199.812 L2203.52 199.395 Q2203.52 196.455 2201.58 194.858 Q2199.65 193.238 2196.16 193.238 Q2193.94 193.238 2191.83 193.77 Q2189.72 194.303 2187.78 195.367 L2187.78 191.432 Q2190.12 190.53 2192.32 190.09 Q2194.52 189.627 2196.6 189.627 Q2202.22 189.627 2205 192.543 Q2207.78 195.46 2207.78 201.386 Z" fill="#000000" fill-rule="nonzero" fill-opacity="1"></path><path clip-path="url(#clip400)" d="M2231.58 194.233 Q2230.86 193.817 2230 193.631 Q2229.17 193.423 2228.15 193.423 Q2224.54 193.423 2222.59 195.784 Q2220.67 198.122 2220.67 202.52 L2220.67 216.178 L2216.39 216.178 L2216.39 190.252 L2220.67 190.252 L2220.67 194.28 Q2222.02 191.918 2224.17 190.784 Q2226.32 189.627 2229.4 189.627 Q2229.84 189.627 2230.37 189.696 Q2230.9 189.743 2231.55 189.858 L2231.58 194.233 Z" fill="#000000" fill-rule="nonzero" fill-opacity="1"></path><path clip-path="url(#clip400)" d="M2257.18 202.15 L2257.18 204.233 L2237.59 204.233 Q2237.87 208.631 2240.23 210.946 Q2242.62 213.238 2246.85 213.238 Q2249.31 213.238 2251.6 212.636 Q2253.91 212.034 2256.18 210.83 L2256.18 214.858 Q2253.89 215.83 2251.48 216.34 Q2249.08 216.849 2246.6 216.849 Q2240.39 216.849 2236.76 213.238 Q2233.15 209.627 2233.15 203.469 Q2233.15 197.104 2236.58 193.377 Q2240.02 189.627 2245.86 189.627 Q2251.09 189.627 2254.12 193.006 Q2257.18 196.363 2257.18 202.15 M2252.92 200.9 Q2252.87 197.405 2250.95 195.321 Q2249.05 193.238 2245.9 193.238 Q2242.34 193.238 2240.19 195.252 Q2238.06 197.266 2237.73 200.923 L2252.92 200.9 Z" fill="#000000" fill-rule="nonzero" fill-opacity="1"></path></svg>