<svg xmlns="http://www.w3.org/2000/svg" xmlns:xlink="http://www.w3.org/1999/xlink" width="1200" height="1200" viewBox="0 0 4800 4800">
<defs>
  <clipPath id="clip240">
    <rect x="0" y="0" width="4800" height="4800"></rect>
  </clipPath>
</defs>
<path clip-path="url(#clip240)" d="M0 4800 L4800 4800 L4800 0 L0 0  Z" fill="#ffffff" fill-rule="evenodd" fill-opacity="1"></path>
<defs>
  <clipPath id="clip241">
    <rect x="960" y="480" width="3361" height="3361"></rect>
  </clipPath>
</defs>
<path clip-path="url(#clip240)" d="M415.727 4550.14 L4752.76 4550.14 L4752.76 47.2441 L415.727 47.2441  Z" fill="#ffffff" fill-rule="evenodd" fill-opacity="1"></path>
<defs>
  <clipPath id="clip242">
    <rect x="415" y="47" width="4338" height="4504"></rect>
  </clipPath>
</defs>
<polyline clip-path="url(#clip242)" style="stroke:#000000; stroke-linecap:round; stroke-linejoin:round; stroke-width:2; stroke-opacity:0.1; fill:none" points="1353.63,4550.14 1353.63,47.2441 "></polyline>
<polyline clip-path="url(#clip242)" style="stroke:#000000; stroke-linecap:round; stroke-linejoin:round; stroke-width:2; stroke-opacity:0.1; fill:none" points="3399.4,4550.14 3399.4,47.2441 "></polyline>
<polyline clip-path="url(#clip240)" style="stroke:#000000; stroke-linecap:round; stroke-linejoin:round; stroke-width:4; stroke-opacity:1; fill:none" points="415.727,4550.14 4752.76,4550.14 "></polyline>
<polyline clip-path="url(#clip240)" style="stroke:#000000; stroke-linecap:round; stroke-linejoin:round; stroke-width:4; stroke-opacity:1; fill:none" points="1353.63,4550.14 1353.63,4531.24 "></polyline>
<polyline clip-path="url(#clip240)" style="stroke:#000000; stroke-linecap:round; stroke-linejoin:round; stroke-width:4; stroke-opacity:1; fill:none" points="3399.4,4550.14 3399.4,4531.24 "></polyline>
<path clip-path="url(#clip240)" d="M1225.42 4627.8 L1241.74 4627.8 L1241.74 4631.74 L1219.8 4631.74 L1219.8 4627.8 Q1222.46 4625.05 1227.04 4620.42 Q1231.65 4615.77 1232.83 4614.43 Q1235.08 4611.9 1235.95 4610.17 Q1236.86 4608.41 1236.86 4606.72 Q1236.86 4603.96 1234.91 4602.23 Q1232.99 4600.49 1229.89 4600.49 Q1227.69 4600.49 1225.24 4601.25 Q1222.81 4602.02 1220.03 4603.57 L1220.03 4598.85 Q1222.85 4597.71 1225.31 4597.13 Q1227.76 4596.55 1229.8 4596.55 Q1235.17 4596.55 1238.36 4599.24 Q1241.56 4601.93 1241.56 4606.42 Q1241.56 4608.55 1240.75 4610.47 Q1239.96 4612.36 1237.85 4614.96 Q1237.27 4615.63 1234.17 4618.85 Q1231.07 4622.04 1225.42 4627.8 Z" fill="#000000" fill-rule="nonzero" fill-opacity="1"></path><path clip-path="url(#clip240)" d="M1261.56 4600.26 Q1257.95 4600.26 1256.12 4603.82 Q1254.31 4607.36 1254.31 4614.49 Q1254.31 4621.6 1256.12 4625.17 Q1257.95 4628.71 1261.56 4628.71 Q1265.19 4628.71 1267 4625.17 Q1268.83 4621.6 1268.83 4614.49 Q1268.83 4607.36 1267 4603.82 Q1265.19 4600.26 1261.56 4600.26 M1261.56 4596.55 Q1267.37 4596.55 1270.42 4601.16 Q1273.5 4605.74 1273.5 4614.49 Q1273.5 4623.22 1270.42 4627.83 Q1267.37 4632.41 1261.56 4632.41 Q1255.75 4632.41 1252.67 4627.83 Q1249.61 4623.22 1249.61 4614.49 Q1249.61 4605.74 1252.67 4601.16 Q1255.75 4596.55 1261.56 4596.55 Z" fill="#000000" fill-rule="nonzero" fill-opacity="1"></path><path clip-path="url(#clip240)" d="M1285.75 4627.8 L1302.07 4627.8 L1302.07 4631.74 L1280.12 4631.74 L1280.12 4627.8 Q1282.78 4625.05 1287.37 4620.42 Q1291.97 4615.77 1293.15 4614.43 Q1295.4 4611.9 1296.28 4610.17 Q1297.18 4608.41 1297.18 4606.72 Q1297.18 4603.96 1295.24 4602.23 Q1293.32 4600.49 1290.21 4600.49 Q1288.01 4600.49 1285.56 4601.25 Q1283.13 4602.02 1280.35 4603.57 L1280.35 4598.85 Q1283.18 4597.71 1285.63 4597.13 Q1288.08 4596.55 1290.12 4596.55 Q1295.49 4596.55 1298.69 4599.24 Q1301.88 4601.93 1301.88 4606.42 Q1301.88 4608.55 1301.07 4610.47 Q1300.28 4612.36 1298.18 4614.96 Q1297.6 4615.63 1294.5 4618.85 Q1291.39 4622.04 1285.75 4627.8 Z" fill="#000000" fill-rule="nonzero" fill-opacity="1"></path><path clip-path="url(#clip240)" d="M1326.05 4613.11 Q1329.4 4613.82 1331.28 4616.09 Q1333.18 4618.36 1333.18 4621.69 Q1333.18 4626.81 1329.66 4629.61 Q1326.14 4632.41 1319.66 4632.41 Q1317.48 4632.41 1315.17 4631.97 Q1312.88 4631.55 1310.42 4630.7 L1310.42 4626.18 Q1312.37 4627.32 1314.68 4627.9 Q1317 4628.48 1319.52 4628.48 Q1323.92 4628.48 1326.21 4626.74 Q1328.52 4625 1328.52 4621.69 Q1328.52 4618.64 1326.37 4616.93 Q1324.24 4615.19 1320.42 4615.19 L1316.39 4615.19 L1316.39 4611.35 L1320.61 4611.35 Q1324.06 4611.35 1325.89 4609.98 Q1327.71 4608.59 1327.71 4606 Q1327.71 4603.34 1325.82 4601.93 Q1323.94 4600.49 1320.42 4600.49 Q1318.5 4600.49 1316.3 4600.91 Q1314.1 4601.32 1311.46 4602.2 L1311.46 4598.04 Q1314.13 4597.3 1316.44 4596.93 Q1318.78 4596.55 1320.84 4596.55 Q1326.16 4596.55 1329.26 4598.99 Q1332.37 4601.39 1332.37 4605.51 Q1332.37 4608.38 1330.72 4610.37 Q1329.08 4612.34 1326.05 4613.11 Z" fill="#000000" fill-rule="nonzero" fill-opacity="1"></path><path clip-path="url(#clip240)" d="M1339.29 4616.86 L1351.76 4616.86 L1351.76 4620.65 L1339.29 4620.65 L1339.29 4616.86 Z" fill="#000000" fill-rule="nonzero" fill-opacity="1"></path><path clip-path="url(#clip240)" d="M1369.15 4600.26 Q1365.54 4600.26 1363.71 4603.82 Q1361.9 4607.36 1361.9 4614.49 Q1361.9 4621.6 1363.71 4625.17 Q1365.54 4628.71 1369.15 4628.71 Q1372.78 4628.71 1374.59 4625.17 Q1376.42 4621.6 1376.42 4614.49 Q1376.42 4607.36 1374.59 4603.82 Q1372.78 4600.26 1369.15 4600.26 M1369.15 4596.55 Q1374.96 4596.55 1378.01 4601.16 Q1381.09 4605.74 1381.09 4614.49 Q1381.09 4623.22 1378.01 4627.83 Q1374.96 4632.41 1369.15 4632.41 Q1363.34 4632.41 1360.26 4627.83 Q1357.2 4623.22 1357.2 4614.49 Q1357.2 4605.74 1360.26 4601.16 Q1363.34 4596.55 1369.15 4596.55 Z" fill="#000000" fill-rule="nonzero" fill-opacity="1"></path><path clip-path="url(#clip240)" d="M1390.12 4627.8 L1397.76 4627.8 L1397.76 4601.44 L1389.45 4603.11 L1389.45 4598.85 L1397.71 4597.18 L1402.39 4597.18 L1402.39 4627.8 L1410.03 4627.8 L1410.03 4631.74 L1390.12 4631.74 L1390.12 4627.8 Z" fill="#000000" fill-rule="nonzero" fill-opacity="1"></path><path clip-path="url(#clip240)" d="M1416.72 4616.86 L1429.19 4616.86 L1429.19 4620.65 L1416.72 4620.65 L1416.72 4616.86 Z" fill="#000000" fill-rule="nonzero" fill-opacity="1"></path><path clip-path="url(#clip240)" d="M1446.58 4600.26 Q1442.97 4600.26 1441.14 4603.82 Q1439.33 4607.36 1439.33 4614.49 Q1439.33 4621.6 1441.14 4625.17 Q1442.97 4628.71 1446.58 4628.71 Q1450.21 4628.71 1452.02 4625.17 Q1453.85 4621.6 1453.85 4614.49 Q1453.85 4607.36 1452.02 4603.82 Q1450.21 4600.26 1446.58 4600.26 M1446.58 4596.55 Q1452.39 4596.55 1455.44 4601.16 Q1458.52 4605.74 1458.52 4614.49 Q1458.52 4623.22 1455.44 4627.83 Q1452.39 4632.41 1446.58 4632.41 Q1440.77 4632.41 1437.69 4627.83 Q1434.63 4623.22 1434.63 4614.49 Q1434.63 4605.74 1437.69 4601.16 Q1440.77 4596.55 1446.58 4596.55 Z" fill="#000000" fill-rule="nonzero" fill-opacity="1"></path><path clip-path="url(#clip240)" d="M1467.55 4627.8 L1475.19 4627.8 L1475.19 4601.44 L1466.88 4603.11 L1466.88 4598.85 L1475.14 4597.18 L1479.82 4597.18 L1479.82 4627.8 L1487.46 4627.8 L1487.46 4631.74 L1467.55 4631.74 L1467.55 4627.8 Z" fill="#000000" fill-rule="nonzero" fill-opacity="1"></path><path clip-path="url(#clip240)" d="M3271.19 4627.8 L3287.51 4627.8 L3287.51 4631.74 L3265.57 4631.74 L3265.57 4627.8 Q3268.23 4625.05 3272.81 4620.42 Q3277.42 4615.77 3278.6 4614.43 Q3280.84 4611.9 3281.72 4610.17 Q3282.63 4608.41 3282.63 4606.72 Q3282.63 4603.96 3280.68 4602.23 Q3278.76 4600.49 3275.66 4600.49 Q3273.46 4600.49 3271.01 4601.25 Q3268.58 4602.02 3265.8 4603.57 L3265.8 4598.85 Q3268.62 4597.71 3271.08 4597.13 Q3273.53 4596.55 3275.57 4596.55 Q3280.94 4596.55 3284.13 4599.24 Q3287.33 4601.93 3287.33 4606.42 Q3287.33 4608.55 3286.51 4610.47 Q3285.73 4612.36 3283.62 4614.96 Q3283.04 4615.63 3279.94 4618.85 Q3276.84 4622.04 3271.19 4627.8 Z" fill="#000000" fill-rule="nonzero" fill-opacity="1"></path><path clip-path="url(#clip240)" d="M3307.32 4600.26 Q3303.71 4600.26 3301.89 4603.82 Q3300.08 4607.36 3300.08 4614.49 Q3300.08 4621.6 3301.89 4625.17 Q3303.71 4628.71 3307.32 4628.71 Q3310.96 4628.71 3312.76 4625.17 Q3314.59 4621.6 3314.59 4614.49 Q3314.59 4607.36 3312.76 4603.82 Q3310.96 4600.26 3307.32 4600.26 M3307.32 4596.55 Q3313.14 4596.55 3316.19 4601.16 Q3319.27 4605.74 3319.27 4614.49 Q3319.27 4623.22 3316.19 4627.83 Q3313.14 4632.41 3307.32 4632.41 Q3301.51 4632.41 3298.44 4627.83 Q3295.38 4623.22 3295.38 4614.49 Q3295.38 4605.74 3298.44 4601.16 Q3301.51 4596.55 3307.32 4596.55 Z" fill="#000000" fill-rule="nonzero" fill-opacity="1"></path><path clip-path="url(#clip240)" d="M3331.51 4627.8 L3347.83 4627.8 L3347.83 4631.74 L3325.89 4631.74 L3325.89 4627.8 Q3328.55 4625.05 3333.13 4620.42 Q3337.74 4615.77 3338.92 4614.43 Q3341.17 4611.9 3342.05 4610.17 Q3342.95 4608.41 3342.95 4606.72 Q3342.95 4603.96 3341.01 4602.23 Q3339.08 4600.49 3335.98 4600.49 Q3333.78 4600.49 3331.33 4601.25 Q3328.9 4602.02 3326.12 4603.57 L3326.12 4598.85 Q3328.95 4597.71 3331.4 4597.13 Q3333.85 4596.55 3335.89 4596.55 Q3341.26 4596.55 3344.45 4599.24 Q3347.65 4601.93 3347.65 4606.42 Q3347.65 4608.55 3346.84 4610.47 Q3346.05 4612.36 3343.95 4614.96 Q3343.37 4615.63 3340.26 4618.85 Q3337.16 4622.04 3331.51 4627.8 Z" fill="#000000" fill-rule="nonzero" fill-opacity="1"></path><path clip-path="url(#clip240)" d="M3370.5 4601.25 L3358.69 4619.7 L3370.5 4619.7 L3370.5 4601.25 M3369.27 4597.18 L3375.15 4597.18 L3375.15 4619.7 L3380.08 4619.7 L3380.08 4623.59 L3375.15 4623.59 L3375.15 4631.74 L3370.5 4631.74 L3370.5 4623.59 L3354.89 4623.59 L3354.89 4619.08 L3369.27 4597.18 Z" fill="#000000" fill-rule="nonzero" fill-opacity="1"></path><path clip-path="url(#clip240)" d="M3385.06 4616.86 L3397.53 4616.86 L3397.53 4620.65 L3385.06 4620.65 L3385.06 4616.86 Z" fill="#000000" fill-rule="nonzero" fill-opacity="1"></path><path clip-path="url(#clip240)" d="M3414.92 4600.26 Q3411.31 4600.26 3409.48 4603.82 Q3407.67 4607.36 3407.67 4614.49 Q3407.67 4621.6 3409.48 4625.17 Q3411.31 4628.71 3414.92 4628.71 Q3418.55 4628.71 3420.36 4625.17 Q3422.19 4621.6 3422.19 4614.49 Q3422.19 4607.36 3420.36 4603.82 Q3418.55 4600.26 3414.92 4600.26 M3414.92 4596.55 Q3420.73 4596.55 3423.78 4601.16 Q3426.86 4605.74 3426.86 4614.49 Q3426.86 4623.22 3423.78 4627.83 Q3420.73 4632.41 3414.92 4632.41 Q3409.11 4632.41 3406.03 4627.83 Q3402.97 4623.22 3402.97 4614.49 Q3402.97 4605.74 3406.03 4601.16 Q3409.11 4596.55 3414.92 4596.55 Z" fill="#000000" fill-rule="nonzero" fill-opacity="1"></path><path clip-path="url(#clip240)" d="M3435.89 4627.8 L3443.53 4627.8 L3443.53 4601.44 L3435.22 4603.11 L3435.22 4598.85 L3443.48 4597.18 L3448.16 4597.18 L3448.16 4627.8 L3455.8 4627.8 L3455.8 4631.74 L3435.89 4631.74 L3435.89 4627.8 Z" fill="#000000" fill-rule="nonzero" fill-opacity="1"></path><path clip-path="url(#clip240)" d="M3462.49 4616.86 L3474.96 4616.86 L3474.96 4620.65 L3462.49 4620.65 L3462.49 4616.86 Z" fill="#000000" fill-rule="nonzero" fill-opacity="1"></path><path clip-path="url(#clip240)" d="M3492.35 4600.26 Q3488.74 4600.26 3486.91 4603.82 Q3485.1 4607.36 3485.1 4614.49 Q3485.1 4621.6 3486.91 4625.17 Q3488.74 4628.71 3492.35 4628.71 Q3495.98 4628.71 3497.79 4625.17 Q3499.62 4621.6 3499.62 4614.49 Q3499.62 4607.36 3497.79 4603.82 Q3495.98 4600.26 3492.35 4600.26 M3492.35 4596.55 Q3498.16 4596.55 3501.21 4601.16 Q3504.29 4605.74 3504.29 4614.49 Q3504.29 4623.22 3501.21 4627.83 Q3498.16 4632.41 3492.35 4632.41 Q3486.54 4632.41 3483.46 4627.83 Q3480.4 4623.22 3480.4 4614.49 Q3480.4 4605.74 3483.46 4601.16 Q3486.54 4596.55 3492.35 4596.55 Z" fill="#000000" fill-rule="nonzero" fill-opacity="1"></path><path clip-path="url(#clip240)" d="M3513.32 4627.8 L3520.96 4627.8 L3520.96 4601.44 L3512.65 4603.11 L3512.65 4598.85 L3520.91 4597.18 L3525.59 4597.18 L3525.59 4627.8 L3533.23 4627.8 L3533.23 4631.74 L3513.32 4631.74 L3513.32 4627.8 Z" fill="#000000" fill-rule="nonzero" fill-opacity="1"></path><path clip-path="url(#clip240)" d="M2498.78 4683.48 L2505.21 4683.48 L2505.21 4731 L2498.78 4731 L2498.78 4683.48 Z" fill="#000000" fill-rule="nonzero" fill-opacity="1"></path><path clip-path="url(#clip240)" d="M2547.38 4709.49 L2547.38 4731 L2541.53 4731 L2541.53 4709.68 Q2541.53 4704.62 2539.55 4702.1 Q2537.58 4699.59 2533.63 4699.59 Q2528.89 4699.59 2526.15 4702.61 Q2523.42 4705.64 2523.42 4710.86 L2523.42 4731 L2517.53 4731 L2517.53 4695.36 L2523.42 4695.36 L2523.42 4700.89 Q2525.52 4697.68 2528.35 4696.09 Q2531.22 4694.5 2534.94 4694.5 Q2541.08 4694.5 2544.23 4698.32 Q2547.38 4702.1 2547.38 4709.49 Z" fill="#000000" fill-rule="nonzero" fill-opacity="1"></path><path clip-path="url(#clip240)" d="M2582.52 4700.77 L2582.52 4681.48 L2588.38 4681.48 L2588.38 4731 L2582.52 4731 L2582.52 4725.66 Q2580.68 4728.84 2577.84 4730.4 Q2575.04 4731.93 2571.1 4731.93 Q2564.64 4731.93 2560.56 4726.77 Q2556.52 4721.61 2556.52 4713.21 Q2556.52 4704.81 2560.56 4699.65 Q2564.64 4694.5 2571.1 4694.5 Q2575.04 4694.5 2577.84 4696.06 Q2580.68 4697.58 2582.52 4700.77 M2562.57 4713.21 Q2562.57 4719.67 2565.21 4723.36 Q2567.88 4727.03 2572.53 4727.03 Q2577.18 4727.03 2579.85 4723.36 Q2582.52 4719.67 2582.52 4713.21 Q2582.52 4706.75 2579.85 4703.09 Q2577.18 4699.4 2572.53 4699.4 Q2567.88 4699.4 2565.21 4703.09 Q2562.57 4706.75 2562.57 4713.21 Z" fill="#000000" fill-rule="nonzero" fill-opacity="1"></path><path clip-path="url(#clip240)" d="M2630.93 4711.72 L2630.93 4714.58 L2604.01 4714.58 Q2604.39 4720.63 2607.64 4723.81 Q2610.91 4726.96 2616.74 4726.96 Q2620.11 4726.96 2623.26 4726.13 Q2626.45 4725.31 2629.57 4723.65 L2629.57 4729.19 Q2626.41 4730.53 2623.1 4731.23 Q2619.79 4731.93 2616.39 4731.93 Q2607.86 4731.93 2602.86 4726.96 Q2597.9 4722 2597.9 4713.53 Q2597.9 4704.78 2602.61 4699.65 Q2607.35 4694.5 2615.37 4694.5 Q2622.56 4694.5 2626.73 4699.14 Q2630.93 4703.76 2630.93 4711.72 M2625.08 4710 Q2625.01 4705.19 2622.37 4702.33 Q2619.76 4699.46 2615.43 4699.46 Q2610.53 4699.46 2607.57 4702.23 Q2604.64 4705 2604.2 4710.03 L2625.08 4710 Z" fill="#000000" fill-rule="nonzero" fill-opacity="1"></path><path clip-path="url(#clip240)" d="M2669.03 4695.36 L2656.14 4712.7 L2669.7 4731 L2662.79 4731 L2652.42 4717 L2642.04 4731 L2635.14 4731 L2648.98 4712.35 L2636.31 4695.36 L2643.22 4695.36 L2652.67 4708.06 L2662.13 4695.36 L2669.03 4695.36 Z" fill="#000000" fill-rule="nonzero" fill-opacity="1"></path><polyline clip-path="url(#clip242)" style="stroke:#000000; stroke-linecap:round; stroke-linejoin:round; stroke-width:2; stroke-opacity:0.1; fill:none" points="415.727,4451.14 4752.76,4451.14 "></polyline>
<polyline clip-path="url(#clip242)" style="stroke:#000000; stroke-linecap:round; stroke-linejoin:round; stroke-width:2; stroke-opacity:0.1; fill:none" points="415.727,3304.48 4752.76,3304.48 "></polyline>
<polyline clip-path="url(#clip242)" style="stroke:#000000; stroke-linecap:round; stroke-linejoin:round; stroke-width:2; stroke-opacity:0.1; fill:none" points="415.727,2157.82 4752.76,2157.82 "></polyline>
<polyline clip-path="url(#clip242)" style="stroke:#000000; stroke-linecap:round; stroke-linejoin:round; stroke-width:2; stroke-opacity:0.1; fill:none" points="415.727,1011.16 4752.76,1011.16 "></polyline>
<polyline clip-path="url(#clip240)" style="stroke:#000000; stroke-linecap:round; stroke-linejoin:round; stroke-width:4; stroke-opacity:1; fill:none" points="415.727,4550.14 415.727,47.2441 "></polyline>
<polyline clip-path="url(#clip240)" style="stroke:#000000; stroke-linecap:round; stroke-linejoin:round; stroke-width:4; stroke-opacity:1; fill:none" points="415.727,4451.14 434.625,4451.14 "></polyline>
<polyline clip-path="url(#clip240)" style="stroke:#000000; stroke-linecap:round; stroke-linejoin:round; stroke-width:4; stroke-opacity:1; fill:none" points="415.727,3304.48 434.625,3304.48 "></polyline>
<polyline clip-path="url(#clip240)" style="stroke:#000000; stroke-linecap:round; stroke-linejoin:round; stroke-width:4; stroke-opacity:1; fill:none" points="415.727,2157.82 434.625,2157.82 "></polyline>
<polyline clip-path="url(#clip240)" style="stroke:#000000; stroke-linecap:round; stroke-linejoin:round; stroke-width:4; stroke-opacity:1; fill:none" points="415.727,1011.16 434.625,1011.16 "></polyline>
<path clip-path="url(#clip240)" d="M331.783 4436.93 Q328.172 4436.93 326.343 4440.5 Q324.538 4444.04 324.538 4451.17 Q324.538 4458.28 326.343 4461.84 Q328.172 4465.38 331.783 4465.38 Q335.417 4465.38 337.223 4461.84 Q339.051 4458.28 339.051 4451.17 Q339.051 4444.04 337.223 4440.5 Q335.417 4436.93 331.783 4436.93 M331.783 4433.23 Q337.593 4433.23 340.649 4437.84 Q343.727 4442.42 343.727 4451.17 Q343.727 4459.9 340.649 4464.5 Q337.593 4469.09 331.783 4469.09 Q325.973 4469.09 322.894 4464.5 Q319.839 4459.9 319.839 4451.17 Q319.839 4442.42 322.894 4437.84 Q325.973 4433.23 331.783 4433.23 Z" fill="#000000" fill-rule="nonzero" fill-opacity="1"></path><path clip-path="url(#clip240)" d="M127.902 3293.65 L146.259 3293.65 L146.259 3297.58 L132.185 3297.58 L132.185 3306.05 Q133.203 3305.71 134.222 3305.54 Q135.24 3305.36 136.259 3305.36 Q142.046 3305.36 145.425 3308.53 Q148.805 3311.7 148.805 3317.12 Q148.805 3322.7 145.333 3325.8 Q141.861 3328.88 135.541 3328.88 Q133.365 3328.88 131.097 3328.51 Q128.851 3328.14 126.444 3327.39 L126.444 3322.7 Q128.527 3323.83 130.75 3324.39 Q132.972 3324.94 135.449 3324.94 Q139.453 3324.94 141.791 3322.83 Q144.129 3320.73 144.129 3317.12 Q144.129 3313.51 141.791 3311.4 Q139.453 3309.29 135.449 3309.29 Q133.574 3309.29 131.699 3309.71 Q129.847 3310.13 127.902 3311.01 L127.902 3293.65 Z" fill="#000000" fill-rule="nonzero" fill-opacity="1"></path><path clip-path="url(#clip240)" d="M158.018 3322.33 L162.902 3322.33 L162.902 3328.21 L158.018 3328.21 L158.018 3322.33 Z" fill="#000000" fill-rule="nonzero" fill-opacity="1"></path><path clip-path="url(#clip240)" d="M183.087 3296.72 Q179.476 3296.72 177.647 3300.29 Q175.842 3303.83 175.842 3310.96 Q175.842 3318.07 177.647 3321.63 Q179.476 3325.17 183.087 3325.17 Q186.722 3325.17 188.527 3321.63 Q190.356 3318.07 190.356 3310.96 Q190.356 3303.83 188.527 3300.29 Q186.722 3296.72 183.087 3296.72 M183.087 3293.02 Q188.897 3293.02 191.953 3297.63 Q195.032 3302.21 195.032 3310.96 Q195.032 3319.69 191.953 3324.29 Q188.897 3328.88 183.087 3328.88 Q177.277 3328.88 174.198 3324.29 Q171.143 3319.69 171.143 3310.96 Q171.143 3302.21 174.198 3297.63 Q177.277 3293.02 183.087 3293.02 Z" fill="#000000" fill-rule="nonzero" fill-opacity="1"></path><path clip-path="url(#clip240)" d="M213.249 3296.72 Q209.638 3296.72 207.809 3300.29 Q206.004 3303.83 206.004 3310.96 Q206.004 3318.07 207.809 3321.63 Q209.638 3325.17 213.249 3325.17 Q216.883 3325.17 218.689 3321.63 Q220.518 3318.07 220.518 3310.96 Q220.518 3303.83 218.689 3300.29 Q216.883 3296.72 213.249 3296.72 M213.249 3293.02 Q219.059 3293.02 222.115 3297.63 Q225.194 3302.21 225.194 3310.96 Q225.194 3319.69 222.115 3324.29 Q219.059 3328.88 213.249 3328.88 Q207.439 3328.88 204.36 3324.29 Q201.305 3319.69 201.305 3310.96 Q201.305 3302.21 204.36 3297.63 Q207.439 3293.02 213.249 3293.02 Z" fill="#000000" fill-rule="nonzero" fill-opacity="1"></path><path clip-path="url(#clip240)" d="M261.582 3302.74 L251.004 3313.37 L261.582 3323.95 L258.828 3326.75 L248.203 3316.12 L237.578 3326.75 L234.846 3323.95 L245.402 3313.37 L234.846 3302.74 L237.578 3299.94 L248.203 3310.57 L258.828 3299.94 L261.582 3302.74 Z" fill="#000000" fill-rule="nonzero" fill-opacity="1"></path><path clip-path="url(#clip240)" d="M273.943 3324.27 L281.582 3324.27 L281.582 3297.9 L273.272 3299.57 L273.272 3295.31 L281.536 3293.65 L286.212 3293.65 L286.212 3324.27 L293.851 3324.27 L293.851 3328.21 L273.943 3328.21 L273.943 3324.27 Z" fill="#000000" fill-rule="nonzero" fill-opacity="1"></path><path clip-path="url(#clip240)" d="M313.295 3296.72 Q309.684 3296.72 307.855 3300.29 Q306.05 3303.83 306.05 3310.96 Q306.05 3318.07 307.855 3321.63 Q309.684 3325.17 313.295 3325.17 Q316.929 3325.17 318.735 3321.63 Q320.563 3318.07 320.563 3310.96 Q320.563 3303.83 318.735 3300.29 Q316.929 3296.72 313.295 3296.72 M313.295 3293.02 Q319.105 3293.02 322.161 3297.63 Q325.239 3302.21 325.239 3310.96 Q325.239 3319.69 322.161 3324.29 Q319.105 3328.88 313.295 3328.88 Q307.485 3328.88 304.406 3324.29 Q301.351 3319.69 301.351 3310.96 Q301.351 3302.21 304.406 3297.63 Q307.485 3293.02 313.295 3293.02 Z" fill="#000000" fill-rule="nonzero" fill-opacity="1"></path><path clip-path="url(#clip240)" d="M337.935 3285.65 Q340.662 3286.24 342.185 3288.08 Q343.727 3289.92 343.727 3292.63 Q343.727 3296.79 340.869 3299.06 Q338.01 3301.34 332.744 3301.34 Q330.976 3301.34 329.095 3300.98 Q327.233 3300.64 325.239 3299.95 L325.239 3296.28 Q326.819 3297.2 328.7 3297.67 Q330.581 3298.14 332.631 3298.14 Q336.204 3298.14 338.066 3296.73 Q339.947 3295.32 339.947 3292.63 Q339.947 3290.15 338.198 3288.76 Q336.468 3287.35 333.364 3287.35 L330.092 3287.35 L330.092 3284.23 L333.515 3284.23 Q336.317 3284.23 337.803 3283.12 Q339.289 3281.99 339.289 3279.88 Q339.289 3277.72 337.746 3276.57 Q336.223 3275.4 333.364 3275.4 Q331.803 3275.4 330.016 3275.74 Q328.23 3276.08 326.086 3276.8 L326.086 3273.41 Q328.249 3272.81 330.129 3272.51 Q332.029 3272.21 333.703 3272.21 Q338.029 3272.21 340.549 3274.18 Q343.069 3276.14 343.069 3279.49 Q343.069 3281.82 341.734 3283.44 Q340.398 3285.03 337.935 3285.65 Z" fill="#000000" fill-rule="nonzero" fill-opacity="1"></path><path clip-path="url(#clip240)" d="M126.691 2177.61 L134.33 2177.61 L134.33 2151.25 L126.02 2152.91 L126.02 2148.65 L134.284 2146.99 L138.96 2146.99 L138.96 2177.61 L146.599 2177.61 L146.599 2181.55 L126.691 2181.55 L126.691 2177.61 Z" fill="#000000" fill-rule="nonzero" fill-opacity="1"></path><path clip-path="url(#clip240)" d="M156.043 2175.67 L160.927 2175.67 L160.927 2181.55 L156.043 2181.55 L156.043 2175.67 Z" fill="#000000" fill-rule="nonzero" fill-opacity="1"></path><path clip-path="url(#clip240)" d="M181.112 2150.07 Q177.501 2150.07 175.673 2153.63 Q173.867 2157.17 173.867 2164.3 Q173.867 2171.41 175.673 2174.97 Q177.501 2178.51 181.112 2178.51 Q184.747 2178.51 186.552 2174.97 Q188.381 2171.41 188.381 2164.3 Q188.381 2157.17 186.552 2153.63 Q184.747 2150.07 181.112 2150.07 M181.112 2146.36 Q186.923 2146.36 189.978 2150.97 Q193.057 2155.55 193.057 2164.3 Q193.057 2173.03 189.978 2177.63 Q186.923 2182.22 181.112 2182.22 Q175.302 2182.22 172.224 2177.63 Q169.168 2173.03 169.168 2164.3 Q169.168 2155.55 172.224 2150.97 Q175.302 2146.36 181.112 2146.36 Z" fill="#000000" fill-rule="nonzero" fill-opacity="1"></path><path clip-path="url(#clip240)" d="M211.274 2150.07 Q207.663 2150.07 205.835 2153.63 Q204.029 2157.17 204.029 2164.3 Q204.029 2171.41 205.835 2174.97 Q207.663 2178.51 211.274 2178.51 Q214.909 2178.51 216.714 2174.97 Q218.543 2171.41 218.543 2164.3 Q218.543 2157.17 216.714 2153.63 Q214.909 2150.07 211.274 2150.07 M211.274 2146.36 Q217.084 2146.36 220.14 2150.97 Q223.219 2155.55 223.219 2164.3 Q223.219 2173.03 220.14 2177.63 Q217.084 2182.22 211.274 2182.22 Q205.464 2182.22 202.385 2177.63 Q199.33 2173.03 199.33 2164.3 Q199.33 2155.55 202.385 2150.97 Q205.464 2146.36 211.274 2146.36 Z" fill="#000000" fill-rule="nonzero" fill-opacity="1"></path><path clip-path="url(#clip240)" d="M259.607 2156.08 L249.029 2166.71 L259.607 2177.29 L256.853 2180.09 L246.228 2169.46 L235.603 2180.09 L232.871 2177.29 L243.427 2166.71 L232.871 2156.08 L235.603 2153.28 L246.228 2163.91 L256.853 2153.28 L259.607 2156.08 Z" fill="#000000" fill-rule="nonzero" fill-opacity="1"></path><path clip-path="url(#clip240)" d="M271.968 2177.61 L279.607 2177.61 L279.607 2151.25 L271.297 2152.91 L271.297 2148.65 L279.561 2146.99 L284.237 2146.99 L284.237 2177.61 L291.876 2177.61 L291.876 2181.55 L271.968 2181.55 L271.968 2177.61 Z" fill="#000000" fill-rule="nonzero" fill-opacity="1"></path><path clip-path="url(#clip240)" d="M311.32 2150.07 Q307.709 2150.07 305.88 2153.63 Q304.075 2157.17 304.075 2164.3 Q304.075 2171.41 305.88 2174.97 Q307.709 2178.51 311.32 2178.51 Q314.954 2178.51 316.76 2174.97 Q318.589 2171.41 318.589 2164.3 Q318.589 2157.17 316.76 2153.63 Q314.954 2150.07 311.32 2150.07 M311.32 2146.36 Q317.13 2146.36 320.186 2150.97 Q323.264 2155.55 323.264 2164.3 Q323.264 2173.03 320.186 2177.63 Q317.13 2182.22 311.32 2182.22 Q305.51 2182.22 302.431 2177.63 Q299.376 2173.03 299.376 2164.3 Q299.376 2155.55 302.431 2150.97 Q305.51 2146.36 311.32 2146.36 Z" fill="#000000" fill-rule="nonzero" fill-opacity="1"></path><path clip-path="url(#clip240)" d="M335.941 2129.37 L326.349 2144.36 L335.941 2144.36 L335.941 2129.37 M334.944 2126.06 L339.721 2126.06 L339.721 2144.36 L343.727 2144.36 L343.727 2147.52 L339.721 2147.52 L339.721 2154.14 L335.941 2154.14 L335.941 2147.52 L323.264 2147.52 L323.264 2143.85 L334.944 2126.06 Z" fill="#000000" fill-rule="nonzero" fill-opacity="1"></path><path clip-path="url(#clip240)" d="M126.691 1030.95 L134.33 1030.95 L134.33 1004.59 L126.02 1006.25 L126.02 1001.99 L134.284 1000.33 L138.96 1000.33 L138.96 1030.95 L146.599 1030.95 L146.599 1034.89 L126.691 1034.89 L126.691 1030.95 Z" fill="#000000" fill-rule="nonzero" fill-opacity="1"></path><path clip-path="url(#clip240)" d="M156.043 1029.01 L160.927 1029.01 L160.927 1034.89 L156.043 1034.89 L156.043 1029.01 Z" fill="#000000" fill-rule="nonzero" fill-opacity="1"></path><path clip-path="url(#clip240)" d="M171.159 1000.33 L189.515 1000.33 L189.515 1004.26 L175.441 1004.26 L175.441 1012.74 Q176.46 1012.39 177.478 1012.23 Q178.497 1012.04 179.515 1012.04 Q185.302 1012.04 188.682 1015.21 Q192.061 1018.38 192.061 1023.8 Q192.061 1029.38 188.589 1032.48 Q185.117 1035.56 178.798 1035.56 Q176.622 1035.56 174.353 1035.19 Q172.108 1034.82 169.7 1034.08 L169.7 1029.38 Q171.784 1030.51 174.006 1031.07 Q176.228 1031.62 178.705 1031.62 Q182.71 1031.62 185.048 1029.52 Q187.386 1027.41 187.386 1023.8 Q187.386 1020.19 185.048 1018.08 Q182.71 1015.98 178.705 1015.98 Q176.83 1015.98 174.955 1016.39 Q173.103 1016.81 171.159 1017.69 L171.159 1000.33 Z" fill="#000000" fill-rule="nonzero" fill-opacity="1"></path><path clip-path="url(#clip240)" d="M211.274 1003.41 Q207.663 1003.41 205.835 1006.97 Q204.029 1010.51 204.029 1017.64 Q204.029 1024.75 205.835 1028.31 Q207.663 1031.86 211.274 1031.86 Q214.909 1031.86 216.714 1028.31 Q218.543 1024.75 218.543 1017.64 Q218.543 1010.51 216.714 1006.97 Q214.909 1003.41 211.274 1003.41 M211.274 999.703 Q217.084 999.703 220.14 1004.31 Q223.219 1008.89 223.219 1017.64 Q223.219 1026.37 220.14 1030.98 Q217.084 1035.56 211.274 1035.56 Q205.464 1035.56 202.385 1030.98 Q199.33 1026.37 199.33 1017.64 Q199.33 1008.89 202.385 1004.31 Q205.464 999.703 211.274 999.703 Z" fill="#000000" fill-rule="nonzero" fill-opacity="1"></path><path clip-path="url(#clip240)" d="M259.607 1009.43 L249.029 1020.05 L259.607 1030.63 L256.853 1033.43 L246.228 1022.8 L235.603 1033.43 L232.871 1030.63 L243.427 1020.05 L232.871 1009.43 L235.603 1006.62 L246.228 1017.25 L256.853 1006.62 L259.607 1009.43 Z" fill="#000000" fill-rule="nonzero" fill-opacity="1"></path><path clip-path="url(#clip240)" d="M271.968 1030.95 L279.607 1030.95 L279.607 1004.59 L271.297 1006.25 L271.297 1001.99 L279.561 1000.33 L284.237 1000.33 L284.237 1030.95 L291.876 1030.95 L291.876 1034.89 L271.968 1034.89 L271.968 1030.95 Z" fill="#000000" fill-rule="nonzero" fill-opacity="1"></path><path clip-path="url(#clip240)" d="M311.32 1003.41 Q307.709 1003.41 305.88 1006.97 Q304.075 1010.51 304.075 1017.64 Q304.075 1024.75 305.88 1028.31 Q307.709 1031.86 311.32 1031.86 Q314.954 1031.86 316.76 1028.31 Q318.589 1024.75 318.589 1017.64 Q318.589 1010.51 316.76 1006.97 Q314.954 1003.41 311.32 1003.41 M311.32 999.703 Q317.13 999.703 320.186 1004.31 Q323.264 1008.89 323.264 1017.64 Q323.264 1026.37 320.186 1030.98 Q317.13 1035.56 311.32 1035.56 Q305.51 1035.56 302.431 1030.98 Q299.376 1026.37 299.376 1017.64 Q299.376 1008.89 302.431 1004.31 Q305.51 999.703 311.32 999.703 Z" fill="#000000" fill-rule="nonzero" fill-opacity="1"></path><path clip-path="url(#clip240)" d="M335.941 982.708 L326.349 997.698 L335.941 997.698 L335.941 982.708 M334.944 979.398 L339.721 979.398 L339.721 997.698 L343.727 997.698 L343.727 1000.86 L339.721 1000.86 L339.721 1007.48 L335.941 1007.48 L335.941 1000.86 L323.264 1000.86 L323.264 997.19 L334.944 979.398 Z" fill="#000000" fill-rule="nonzero" fill-opacity="1"></path><path clip-path="url(#clip240)" d="M-1.42196 2552.32 L22.2266 2561.04 L22.2266 2543.56 L-1.42196 2552.32 M-7.75584 2555.95 L-7.75584 2548.66 L39.7642 2530.55 L39.7642 2537.23 L27.5738 2541.56 L27.5738 2562.98 L39.7642 2567.31 L39.7642 2574.09 L-7.75584 2555.95 Z" fill="#000000" fill-rule="nonzero" fill-opacity="1"></path><path clip-path="url(#clip240)" d="M-1.42196 2505.91 L22.2266 2514.63 L22.2266 2497.16 L-1.42196 2505.91 M-7.75584 2509.54 L-7.75584 2502.25 L39.7642 2484.14 L39.7642 2490.82 L27.5738 2495.15 L27.5738 2516.57 L39.7642 2520.9 L39.7642 2527.68 L-7.75584 2509.54 Z" fill="#000000" fill-rule="nonzero" fill-opacity="1"></path><path clip-path="url(#clip240)" d="M-2.47231 2470.77 L15.3835 2470.77 L15.3835 2462.69 Q15.3835 2458.2 13.06 2455.75 Q10.7365 2453.3 6.43968 2453.3 Q2.17466 2453.3 -0.148823 2455.75 Q-2.47231 2458.2 -2.47231 2462.69 L-2.47231 2470.77 M-7.75584 2477.2 L-7.75584 2462.69 Q-7.75584 2454.7 -4.12739 2450.63 Q-0.530765 2446.52 6.43968 2446.52 Q13.4738 2446.52 17.0704 2450.63 Q20.667 2454.7 20.667 2462.69 L20.667 2470.77 L39.7642 2470.77 L39.7642 2477.2 L-7.75584 2477.2 Z" fill="#000000" fill-rule="nonzero" fill-opacity="1"></path><path clip-path="url(#clip240)" d="M-7.75584 2437.89 L-7.75584 2431.46 L34.3533 2431.46 L34.3533 2408.33 L39.7642 2408.33 L39.7642 2437.89 L-7.75584 2437.89 Z" fill="#000000" fill-rule="nonzero" fill-opacity="1"></path><path clip-path="url(#clip240)" d="M31.6797 2400.34 L31.6797 2393.62 L37.1542 2393.62 L47.3393 2398.84 L47.3393 2402.95 L37.1542 2400.34 L31.6797 2400.34 Z" fill="#000000" fill-rule="nonzero" fill-opacity="1"></path><path clip-path="url(#clip240)" d="M32.9847 2327.74 L20.2214 2327.74 L20.2214 2338.24 L14.9379 2338.24 L14.9379 2321.37 L35.34 2321.37 Q37.9818 2325.09 39.3504 2329.58 Q40.6872 2334.07 40.6872 2339.16 Q40.6872 2350.3 34.1942 2356.6 Q27.6693 2362.87 16.0519 2362.87 Q4.40266 2362.87 -2.09036 2356.6 Q-8.61521 2350.3 -8.61521 2339.16 Q-8.61521 2334.51 -7.46939 2330.35 Q-6.32356 2326.14 -4.09556 2322.61 L2.74757 2322.61 Q-0.276137 2326.18 -1.80391 2330.19 Q-3.33168 2334.2 -3.33168 2338.62 Q-3.33168 2347.34 1.53809 2351.73 Q6.40785 2356.09 16.0519 2356.09 Q25.6641 2356.09 30.5339 2351.73 Q35.4036 2347.34 35.4036 2338.62 Q35.4036 2335.22 34.8307 2332.54 Q34.226 2329.87 32.9847 2327.74 Z" fill="#000000" fill-rule="nonzero" fill-opacity="1"></path><path clip-path="url(#clip240)" d="M-6.19624 2281.14 L0.0739766 2281.14 Q-1.67659 2284.8 -2.53596 2288.05 Q-3.39533 2291.29 -3.39533 2294.32 Q-3.39533 2299.57 -1.35831 2302.43 Q0.678719 2305.26 4.43449 2305.26 Q7.58551 2305.26 9.20877 2303.39 Q10.8002 2301.48 11.7869 2296.19 L12.5826 2292.31 Q13.9512 2285.12 17.4205 2281.71 Q20.858 2278.27 26.6508 2278.27 Q33.5576 2278.27 37.1224 2282.92 Q40.6872 2287.54 40.6872 2296.48 Q40.6872 2299.85 39.9233 2303.67 Q39.1594 2307.46 37.6635 2311.53 L31.0431 2311.53 Q33.2393 2307.62 34.3533 2303.86 Q35.4673 2300.11 35.4673 2296.48 Q35.4673 2290.97 33.303 2287.98 Q31.1386 2284.99 27.1282 2284.99 Q23.6271 2284.99 21.6537 2287.15 Q19.6804 2289.29 18.6937 2294.19 L17.9298 2298.1 Q16.4975 2305.3 13.442 2308.51 Q10.3864 2311.73 4.94374 2311.73 Q-1.35831 2311.73 -4.98676 2307.3 Q-8.61521 2302.85 -8.61521 2295.05 Q-8.61521 2291.71 -8.01047 2288.24 Q-7.40573 2284.77 -6.19624 2281.14 Z" fill="#000000" fill-rule="nonzero" fill-opacity="1"></path><path clip-path="url(#clip240)" d="M-2.47231 2261.82 L15.3835 2261.82 L15.3835 2253.73 Q15.3835 2249.25 13.06 2246.8 Q10.7365 2244.34 6.43968 2244.34 Q2.17466 2244.34 -0.148823 2246.8 Q-2.47231 2249.25 -2.47231 2253.73 L-2.47231 2261.82 M-7.75584 2268.25 L-7.75584 2253.73 Q-7.75584 2245.75 -4.12739 2241.67 Q-0.530765 2237.57 6.43968 2237.57 Q13.4738 2237.57 17.0704 2241.67 Q20.667 2245.75 20.667 2253.73 L20.667 2261.82 L39.7642 2261.82 L39.7642 2268.25 L-7.75584 2268.25 Z" fill="#000000" fill-rule="nonzero" fill-opacity="1"></path><path clip-path="url(#clip240)" d="M-4.09556 2193.36 L2.68392 2193.36 Q-0.339794 2196.6 -1.83574 2200.29 Q-3.33168 2203.95 -3.33168 2208.09 Q-3.33168 2216.24 1.6654 2220.57 Q6.63065 2224.9 16.0519 2224.9 Q25.4413 2224.9 30.4384 2220.57 Q35.4036 2216.24 35.4036 2208.09 Q35.4036 2203.95 33.9077 2200.29 Q32.4118 2196.6 29.3881 2193.36 L36.1039 2193.36 Q38.3955 2196.73 39.5414 2200.52 Q40.6872 2204.27 40.6872 2208.47 Q40.6872 2219.26 34.0987 2225.47 Q27.4783 2231.68 16.0519 2231.68 Q4.59363 2231.68 -1.99488 2225.47 Q-8.61521 2219.26 -8.61521 2208.47 Q-8.61521 2204.21 -7.46939 2200.45 Q-6.35539 2196.67 -4.09556 2193.36 Z" fill="#000000" fill-rule="nonzero" fill-opacity="1"></path><path clip-path="url(#clip240)" d="M31.6797 2182.18 L31.6797 2175.47 L37.1542 2175.47 L47.3393 2180.69 L47.3393 2184.79 L37.1542 2182.18 L31.6797 2182.18 Z" fill="#000000" fill-rule="nonzero" fill-opacity="1"></path><path clip-path="url(#clip240)" d="M-7.75584 2141.98 L-7.75584 2135.55 L39.7642 2135.55 L39.7642 2141.98 L-7.75584 2141.98 Z" fill="#000000" fill-rule="nonzero" fill-opacity="1"></path><path clip-path="url(#clip240)" d="M-7.75584 2125.05 L-7.75584 2118.14 L9.90899 2106.34 L-7.75584 2094.46 L-7.75584 2087.56 L15.0652 2102.84 L39.7642 2086.54 L39.7642 2093.45 L19.553 2106.81 L39.7642 2120.28 L39.7642 2127.22 L14.3968 2110.25 L-7.75584 2125.05 Z" fill="#000000" fill-rule="nonzero" fill-opacity="1"></path><path clip-path="url(#clip240)" d="M-7.75584 2078.1 L-7.75584 2071.67 L39.7642 2071.67 L39.7642 2078.1 L-7.75584 2078.1 Z" fill="#000000" fill-rule="nonzero" fill-opacity="1"></path><path clip-path="url(#clip240)" d="M-4.09556 2023.3 L2.68392 2023.3 Q-0.339794 2026.54 -1.83574 2030.23 Q-3.33168 2033.89 -3.33168 2038.03 Q-3.33168 2046.18 1.6654 2050.51 Q6.63065 2054.84 16.0519 2054.84 Q25.4413 2054.84 30.4384 2050.51 Q35.4036 2046.18 35.4036 2038.03 Q35.4036 2033.89 33.9077 2030.23 Q32.4118 2026.54 29.3881 2023.3 L36.1039 2023.3 Q38.3955 2026.67 39.5414 2030.46 Q40.6872 2034.21 40.6872 2038.41 Q40.6872 2049.2 34.0987 2055.41 Q27.4783 2061.62 16.0519 2061.62 Q4.59363 2061.62 -1.99488 2055.41 Q-8.61521 2049.2 -8.61521 2038.41 Q-8.61521 2034.15 -7.46939 2030.39 Q-6.35539 2026.61 -4.09556 2023.3 Z" fill="#000000" fill-rule="nonzero" fill-opacity="1"></path><polyline clip-path="url(#clip242)" style="stroke:#009af9; stroke-linecap:round; stroke-linejoin:round; stroke-width:4; stroke-opacity:1; fill:none" points="538.473,4413.7 544.078,4413.69 549.683,4412.7 555.288,4412.88 560.893,4412.06 577.707,4411.81 583.312,4411.84 588.917,4411.5 594.522,4411.59 600.127,4412.19 616.941,4413.08 622.546,4413.16 628.151,4413.09 633.756,4412.53 639.361,4413.98 656.175,4414.49 661.78,4415.05 667.385,4415.43 672.99,4415.27 678.595,4415.75 701.014,4416.05 706.619,4415.72 712.224,4416.06 717.828,4415.4 734.643,4414.02 740.248,4416.2 745.853,4415.87 751.458,4416.54 757.062,4416.92 773.877,4416.06 779.482,4415.51 785.087,4416.23 790.691,4416.45 796.296,4416.98 813.111,4416.9 818.716,4416.67 824.32,4417.11 829.925,4418.78 835.53,4419.75 852.345,4418.79 857.95,4417.96 863.554,4417.89 869.159,4418.11 874.764,4419.32 891.579,4419.25 897.183,4419.58 902.788,4419.72 908.393,4418.67 913.998,4419.71 930.813,4418.8 936.417,4418.49 942.022,4418.47 947.627,4418.58 953.232,4417.69 970.046,4417.2 975.651,4416.54 981.256,4417.22 986.861,4418.25 992.466,4415.77 1009.28,4416.32 1014.89,4416.93 1020.49,4418.2 1026.09,4419.6 1031.7,4419.66 1048.75,4419.54 1054.35,4419.41 1059.96,4420.46 1065.56,4417.73 1071.17,4417.09 1087.98,4417.41 1093.59,4417.01 1099.19,4417.29 1104.8,4416.85 1110.4,4416.72 1127.22,4417.47 1132.82,4416.98 1138.43,4416.77 1149.63,4417.45 1166.45,4418.33 1172.05,4419.03 1177.66,4417.47 1183.26,4417.4 1188.87,4417.52 1205.68,4417.78 1211.29,4418.63 1216.89,4419.08 1222.5,4418.69 1228.1,4418.8 1244.92,4418.27 1250.52,4418.05 1256.13,4418.56 1261.73,4420.09 1267.34,4420.54 1284.15,4421.03 1289.76,4421.04 1295.36,4420.33 1300.97,4421.06 1306.57,4421.14 1328.99,4421.56 1334.59,4422.47 1340.2,4421.66 1345.8,4421.58 1368.22,4422.69 1373.83,4422.39 1379.43,4422.7 1385.04,4421.65 1401.85,4421.53 1407.46,4421.4 1413.06,4420.77 1418.67,4420.79 1424.27,4420.48 1446.69,4420.22 1452.3,4420.38 1457.9,4420.37 1463.51,4419.78 1480.32,4419.04 1485.93,4418.72 1491.53,4418.87 1497.14,4418.39 1502.74,4417.94 1519.55,4418.61 1525.16,4418.32 1530.76,4418.06 1536.37,4416.83 1541.97,4415.99 1558.79,4416.62 1564.39,4415.96 1570,4416.58 1575.6,4416.82 1581.21,4416.74 1598.02,4416.09 1603.63,4416.24 1609.23,4415.75 1614.84,4416.12 1620.44,4416.38 1642.86,4417.31 1648.47,4417.21 1654.07,4417.1 1659.68,4417.71 1676.49,4417.44 1682.1,4417.56 1687.7,4418.03 1693.3,4417.9 1698.91,4416.73 1715.72,4416.09 1721.33,4416.6 1726.93,4416.31 1732.54,4416.83 1738.14,4417.31 1754.72,4416.86 1760.33,4416.38 1765.93,4416.28 1771.54,4415.63 1777.14,4415.83 1793.96,4415.28 1799.56,4414.85 1805.17,4415.18 1810.77,4414.93 1816.38,4414.63 1833.19,4415.08 1838.8,4415.22 1844.4,4414.51 1850.01,4414.15 1855.61,4413.57 1872.43,4413.28 1878.03,4413.4 1883.64,4413.83 1889.24,4413.63 1911.66,4414.22 1917.27,4414.51 1922.87,4414.66 1928.47,4413.42 1934.08,4413.5 1950.89,4413.5 1956.5,4413.21 1962.1,4412.95 1967.71,4413.17 1973.31,4413.54 1990.13,4413.47 1995.73,4413.83 2001.34,4413.83 2006.94,4412.77 2012.55,4412.48 2029.36,4412.5 2034.97,4412.74 2040.57,4412.99 2046.18,4413.37 2051.78,4411.6 2068.6,4411.61 2074.2,4412.01 2079.81,4411.6 2085.41,4411.56 2091.02,4411.77 2107.83,4411.88 2113.43,4411.88 2119.04,4411.74 2124.64,4411.2 2130.25,4411.18 2147.06,4411.4 2152.67,4412 2158.27,4411.94 2163.88,4411.67 2169.48,4411.12 2191.9,4410.69 2197.51,4410.7 2203.11,4410.05 2208.72,4409.86 2225.53,4410.17 2231.14,4410.25 2236.74,4410.57 2242.35,4409.94 2247.95,4409.86 2264.77,4409.21 2270.37,4409.32 2275.98,4409.17 2281.58,4408.7 2287.18,4408.95 2309.6,4408.93 2315.21,4409.17 2320.81,4408.48 2326.42,4408.55 2343.23,4408.87 2348.84,4408.24 2354.44,4407.96 2360.05,4407.89 2365.65,4406.89 2382.47,4407.23 2393.68,4407.49 2399.28,4407.38 2404.89,4407.64 2421.7,4408.11 2427.31,4408.23 2432.91,4407.85 2438.52,4407.67 2444.12,4407.64 2460.94,4406.88 2466.54,4406.94 2472.14,4406.63 2477.75,4407.08 2483.35,4407.35 2500.17,4407.17 2505.77,4406.97 2511.38,4406.77 2516.98,4407.06 2522.59,4406.46 2539.4,4406.32 2545.01,4406.51 2550.61,4407.2 2556.22,4407.53 2561.82,4409.62 2578.64,4410.34 2584.24,4410.12 2589.85,4410.49 2595.45,4410.54 2601.06,4410.52 2617.87,4410.14 2623.48,4410.6 2629.08,4410.8 2634.69,4411.39 2640.29,4411.28 2657.1,4410.97 2662.71,4410.65 2668.31,4409.76 2673.92,4410.85 2679.52,4410.34 2696.34,4409.98 2701.94,4409.08 2707.55,4408.27 2713.15,4408.22 2718.76,4407.86 2741.18,4407.8 2746.78,4409.35 2752.39,4410.58 2757.99,4410.43 2774.81,4410.17 2780.41,4410.86 2786.02,4411.34 2791.62,4410.99 2797.23,4411.16 2814.04,4410.48 2819.65,4410.23 2825.25,4411.05 2830.85,4411.41 2836.46,4411.21 2853.27,4410.91 2858.88,4411.86 2864.48,4412.21 2870.09,4412.15 2875.69,4412.03 2892.51,4411.45 2898.11,4411.76 2903.72,4411.47 2909.32,4411.18 2914.93,4410.59 2931.74,4410.25 2937.35,4410.39 2942.95,4410.06 2948.56,4409.86 2954.16,4410.28 2970.98,4410.31 2976.58,4410.67 2982.19,4410.97 2987.79,4411.06 2993.4,4411.65 3010.21,4411.62 3015.81,4411.52 3021.42,4412.05 3027.02,4413.01 3032.63,4412.71 3049.44,4412.24 3055.05,4412.13 3060.65,4411.4 3066.26,4410.57 3071.86,4410.78 3088.91,4410.19 3094.52,4409.6 3100.12,4409.36 3105.73,4409.47 3111.33,4408.5 3128.15,4408.87 3133.75,4408.26 3139.35,4408.13 3144.96,4407.74 3150.56,4407.75 3167.38,4407.35 3172.98,4407.53 3178.59,4407.38 3189.8,4407.68 3206.61,4407.73 3212.22,4407.59 3217.82,4407.82 3223.43,4407.69 3229.03,4407.39 3245.85,4407.81 3251.45,4406.9 3257.06,4407.15 3262.66,4406.7 3268.27,4406.37 3285.08,4406.95 3290.69,4406.6 3296.29,4405.86 3301.9,4405.82 3307.5,4405.95 3324.31,4406.33 3329.92,4406.09 3335.52,4406.57 3341.13,4406.61 3346.73,4406.85 3369.15,4406.98 3374.76,4406.96 3380.36,4406.86 3385.97,4407.1 3408.39,4408.67 3413.99,4408.99 3419.6,4409.53 3425.2,4409.7 3442.02,4408.69 3447.62,4408.79 3453.23,4408.55 3458.83,4408.69 3464.44,4408.61 3486.86,4409.13 3492.46,4409.35 3498.06,4407.99 3503.67,4407.32 3520.48,4406.79 3526.09,4406.49 3531.69,4406.65 3537.3,4406.72 3542.9,4407.12 3559.72,4407.28 3565.32,4408.13 3570.93,4408.96 3576.53,4408.4 3582.14,4408.63 3598.95,4408.21 3604.56,4407.84 3610.16,4407.81 3615.77,4408.06 3621.37,4407.89 3638.19,4408.27 3643.79,4408.76 3649.4,4408.96 3655,4409.03 3660.61,4409.38 3683.02,4409.56 3688.63,4409.38 3694.23,4408.91 3699.84,4409.34 3716.65,4409.65 3722.26,4409.31 3727.86,4409.59 3733.47,4409.74 3739.07,4409.99 3755.89,4411.03 3761.49,4412.18 3767.1,4412.4 3772.7,4412.43 3778.31,4412.04 3794.89,4411.57 3800.49,4411.46 3806.1,4411.94 3811.7,4411.52 3817.31,4411.6 3834.12,4411.35 3839.73,4410.81 3845.33,4410.22 3850.94,4411.89 3856.54,4411.68 3873.36,4412.01 3878.96,4412.27 3884.57,4411.44 3890.17,4411.86 3912.59,4412.2 3918.19,4412.47 3923.8,4412.28 3929.4,4412.47 3935.01,4412.3 3951.82,4412.56 3957.43,4412.28 3963.03,4412.71 3968.64,4411.05 3974.24,4410.7 3991.06,4411.59 3996.66,4412.34 4002.27,4412.66 4007.87,4412.88 4013.48,4413.35 4030.29,4413.16 4035.9,4412.91 4041.5,4412.43 4047.11,4412.23 4052.71,4412.36 4069.53,4411.4 4075.13,4412.13 4080.74,4412.36 4086.34,4411.51 4091.94,4409.14 4108.76,4409.52 4114.36,4409.36 4119.97,4409.28 4125.57,4408.87 4131.18,4409.16 4147.99,4408.42 4153.6,4408.15 4159.2,4407.63 4164.81,4407.6 4170.41,4407.59 4187.23,4407.32 4192.83,4407.02 4198.44,4407.36 4204.04,4408.28 4209.65,4407.57 4232.07,4407.57 4237.67,4407.5 4243.28,4407.27 4248.88,4407.05 4265.69,4406.64 4271.3,4406.57 4276.9,4406.22 4282.51,4406.54 4288.11,4405.98 4304.93,4406.85 4310.53,4403.63 4316.14,4402.27 4321.74,4402 4327.35,4402.41 4344.16,4401.45 4349.77,4401.99 4360.98,4403.05 4366.58,4403.55 4383.4,4403.4 4389,4403.19 4394.61,4402.23 4400.21,4402.04 4405.82,4402.83 4422.63,4401.43 4428.24,4400.62 4433.84,4400.33 4445.05,4399.23 4461.86,4398.89 4467.47,4398.69 4473.07,4397.71 4478.68,4398.95 4484.28,4398.27 4501.1,4397.38 4506.7,4397.28 4512.31,4398.65 4517.91,4399.72 4523.52,4399.69 4540.33,4399.78 4545.94,4399.53 4551.54,4401.02 4557.15,4401.26 4562.75,4401.15 4579.57,4401.09 4585.17,4400.96 4590.78,4400.21 4596.38,4401.06 4601.99,4400.72 4618.8,4403.14 4624.4,4403.61 4630.01,4403.02 "></polyline>
<polyline clip-path="url(#clip242)" style="stroke:#e26f46; stroke-linecap:round; stroke-linejoin:round; stroke-width:4; stroke-opacity:1; fill:none" points="538.473,3501.69 544.078,3505.72 549.683,3485.59 555.288,3486.28 560.893,3469.56 577.707,3465.67 583.312,3463.82 588.917,3470.96 594.522,3468.74 600.127,3481.41 616.941,3502.16 622.546,3504.29 628.151,3501.53 633.756,3488.14 639.361,3520.59 656.175,3526.79 661.78,3536.98 667.385,3544.13 672.99,3541.41 678.595,3551.18 701.014,3554.86 706.619,3538.43 712.224,3532.39 717.828,3518.36 734.643,3508.49 740.248,3549.25 745.853,3546.19 751.458,3556.43 757.062,3562.86 773.877,3556.77 779.482,3566.85 785.087,3581.99 790.691,3589.31 796.296,3604.16 813.111,3612.92 818.716,3614.7 824.32,3598.24 829.925,3616.26 835.53,3628.84 852.345,3607.56 857.95,3581.76 863.554,3583.51 869.159,3592.4 874.764,3616.45 891.579,3622.7 897.183,3628.1 902.788,3630.81 908.393,3609.51 913.998,3629.42 930.813,3607.67 936.417,3598.03 942.022,3603.72 947.627,3610.46 953.232,3590.51 970.046,3580.29 975.651,3566.12 981.256,3572.66 986.861,3578 992.466,3556.5 1009.28,3563.17 1014.89,3566.81 1020.49,3588.92 1026.09,3598.05 1031.7,3586.43 1048.75,3578.12 1054.35,3573.23 1059.96,3591.47 1065.56,3543.82 1071.17,3535.43 1087.98,3543.61 1093.59,3535.71 1099.19,3543.26 1104.8,3546.06 1110.4,3541.76 1127.22,3545.29 1132.82,3532.99 1138.43,3527.56 1149.63,3527.82 1166.45,3542.08 1172.05,3543.53 1177.66,3515.44 1183.26,3516.25 1188.87,3517.37 1205.68,3534.08 1211.29,3547.28 1216.89,3548.96 1222.5,3542.18 1228.1,3548.86 1244.92,3535.97 1250.52,3529.3 1256.13,3534.88 1261.73,3557.72 1267.34,3567.67 1284.15,3575.63 1289.76,3574.72 1295.36,3561.69 1300.97,3574.54 1306.57,3569.4 1328.99,3572.97 1334.59,3583.52 1340.2,3568.37 1345.8,3570.62 1368.22,3574.14 1373.83,3567.53 1379.43,3577.82 1385.04,3557.87 1401.85,3558.56 1407.46,3552.33 1413.06,3540.78 1418.67,3537.67 1424.27,3534.02 1446.69,3535.88 1452.3,3550.12 1457.9,3557.01 1463.51,3540.09 1480.32,3529.27 1485.93,3529.92 1491.53,3530.09 1497.14,3519.95 1502.74,3517.63 1519.55,3529.73 1525.16,3516.24 1530.76,3506.47 1536.37,3492.58 1541.97,3502.51 1558.79,3508.34 1564.39,3496.2 1570,3506.78 1575.6,3515.12 1581.21,3513.06 1598.02,3502.32 1603.63,3502.59 1609.23,3499.96 1614.84,3513.08 1620.44,3515.67 1642.86,3534.42 1648.47,3535.86 1654.07,3530.98 1659.68,3540.68 1676.49,3537.88 1682.1,3540.65 1687.7,3544.96 1693.3,3538.09 1698.91,3523.34 1715.72,3522.71 1721.33,3536.94 1726.93,3535.64 1732.54,3552.54 1738.14,3565.55 1754.72,3566.89 1760.33,3552.32 1765.93,3558.59 1771.54,3542.92 1777.14,3552.93 1793.96,3544.92 1799.56,3533.15 1805.17,3548.26 1810.77,3545.57 1816.38,3540.46 1833.19,3538.96 1838.8,3540.4 1844.4,3527.43 1850.01,3522.15 1855.61,3508.74 1872.43,3505.26 1878.03,3510.74 1883.64,3513.08 1889.24,3509.72 1911.66,3508.79 1917.27,3508.83 1922.87,3512.72 1928.47,3500.28 1934.08,3502.24 1950.89,3499.11 1956.5,3498.29 1962.1,3498.37 1967.71,3504.04 1973.31,3503.19 1990.13,3502.38 1995.73,3517.38 2001.34,3520.97 2006.94,3502.77 2012.55,3494.94 2029.36,3495.31 2034.97,3506.39 2040.57,3513 2046.18,3519.77 2051.78,3502.56 2068.6,3502.13 2074.2,3506.48 2079.81,3502.24 2085.41,3503.85 2091.02,3505.35 2107.83,3502.56 2113.43,3508.61 2119.04,3497.4 2124.64,3488.39 2130.25,3489.78 2147.06,3489.63 2152.67,3500.42 2158.27,3507.38 2163.88,3499.12 2169.48,3486.69 2191.9,3486.68 2197.51,3492.57 2203.11,3483.12 2208.72,3469.05 2225.53,3471.02 2231.14,3468.71 2236.74,3472.46 2242.35,3466.4 2247.95,3465.27 2264.77,3456.08 2270.37,3449.18 2275.98,3448.36 2281.58,3436.15 2287.18,3439.88 2309.6,3444.67 2315.21,3449.94 2320.81,3446.23 2326.42,3453.93 2343.23,3458.4 2348.84,3447.03 2354.44,3447.38 2360.05,3442.89 2365.65,3430.52 2382.47,3429.33 2393.68,3431.34 2399.28,3439.42 2404.89,3442.32 2421.7,3439.89 2427.31,3433.07 2432.91,3425.53 2438.52,3416.84 2444.12,3417.9 2460.94,3413.92 2466.54,3406.53 2472.14,3404.07 2477.75,3411.15 2483.35,3410.81 2500.17,3406.61 2505.77,3403.67 2511.38,3403.84 2516.98,3410.56 2522.59,3400.29 2539.4,3398.74 2545.01,3401.55 2550.61,3416.07 2556.22,3418.71 2561.82,3424.18 2578.64,3414.91 2584.24,3419.29 2589.85,3426.55 2595.45,3426.29 2601.06,3427.39 2617.87,3421.5 2623.48,3433.39 2629.08,3441.08 2634.69,3448.87 2640.29,3449.02 2657.1,3442.13 2662.71,3444.93 2668.31,3433.82 2673.92,3447.51 2679.52,3440.77 2696.34,3434.44 2701.94,3419.69 2707.55,3415.73 2713.15,3417.39 2718.76,3415.53 2741.18,3419.87 2746.78,3427.06 2752.39,3430.35 2757.99,3428.89 2774.81,3422.02 2780.41,3427.88 2786.02,3426.61 2791.62,3417.97 2797.23,3430.54 2814.04,3429.8 2819.65,3432 2825.25,3441.57 2830.85,3458.13 2836.46,3460.41 2853.27,3456.42 2858.88,3471.08 2864.48,3470.86 2870.09,3465.08 2875.69,3467.75 2892.51,3467.67 2898.11,3481.19 2903.72,3473.32 2909.32,3474.6 2914.93,3463.06 2931.74,3456.83 2937.35,3451.65 2942.95,3447.36 2948.56,3453.63 2954.16,3458.64 2970.98,3448.12 2976.58,3448.22 2982.19,3461.66 2987.79,3470.06 2993.4,3482.4 3010.21,3484.04 3015.81,3477.01 3021.42,3490.98 3027.02,3502.34 3032.63,3506.89 3049.44,3495.55 3055.05,3489.36 3060.65,3479.26 3066.26,3460.93 3071.86,3451.63 3088.91,3449.88 3094.52,3447.03 3100.12,3446.03 3105.73,3454.15 3111.33,3438.58 3128.15,3439.43 3133.75,3420.13 3139.35,3418.48 3144.96,3417.25 3150.56,3415.93 3167.38,3408.28 3172.98,3410.39 3178.59,3406.16 3189.8,3405.53 3206.61,3407.58 3212.22,3406.56 3217.82,3407.54 3223.43,3403.59 3229.03,3397.44 3245.85,3403.14 3251.45,3403.74 3257.06,3407.83 3262.66,3399.51 3268.27,3395.21 3285.08,3391.06 3290.69,3386.19 3296.29,3371.65 3301.9,3368.79 3307.5,3368.88 3324.31,3363.98 3329.92,3357.6 3335.52,3373.66 3341.13,3362.56 3346.73,3360.75 3369.15,3356.13 3374.76,3354.57 3380.36,3354.16 3385.97,3357.26 3408.39,3363.45 3413.99,3372.17 3419.6,3375.87 3425.2,3373.91 3442.02,3358.71 3447.62,3360.32 3453.23,3354.14 3458.83,3354.88 3464.44,3354.05 3486.86,3358.15 3492.46,3364.28 3498.06,3354.71 3503.67,3341.21 3520.48,3338.78 3526.09,3335.53 3531.69,3334.62 3537.3,3328.75 3542.9,3329.48 3559.72,3321.01 3565.32,3321.68 3570.93,3339.87 3576.53,3325.99 3582.14,3313.97 3598.95,3317.59 3604.56,3314.97 3610.16,3305.61 3615.77,3304.96 3621.37,3298.38 3638.19,3299.47 3643.79,3315.22 3649.4,3304.34 3655,3297.66 3660.61,3303.2 3683.02,3310.09 3688.63,3308.65 3694.23,3284.52 3699.84,3284.11 3716.65,3288.53 3722.26,3286.55 3727.86,3288.48 3733.47,3282.4 3739.07,3273.04 3755.89,3274.45 3761.49,3286.44 3767.1,3280.45 3772.7,3268.39 3778.31,3276.11 3794.89,3277.43 3800.49,3264.28 3806.1,3266.57 3811.7,3269.97 3817.31,3277.63 3834.12,3270.21 3839.73,3263.54 3845.33,3252.97 3850.94,3249.09 3856.54,3250.77 3873.36,3254.44 3878.96,3257.79 3884.57,3247.49 3890.17,3246.15 3912.59,3248.57 3918.19,3257.28 3923.8,3255.98 3929.4,3270.72 3935.01,3257.62 3951.82,3258.06 3957.43,3256.34 3963.03,3267.64 3968.64,3258.83 3974.24,3276.18 3991.06,3290.3 3996.66,3292.69 4002.27,3299.38 4007.87,3301.93 4013.48,3311.99 4030.29,3302.05 4035.9,3288.3 4041.5,3288.05 4047.11,3293.37 4052.71,3281.55 4069.53,3277.84 4075.13,3296.29 4080.74,3300.26 4086.34,3289.75 4091.94,3275.17 4108.76,3263.03 4114.36,3261.43 4119.97,3261.44 4125.57,3255.38 4131.18,3253.41 4147.99,3253.7 4153.6,3247.91 4159.2,3233.81 4164.81,3236.34 4170.41,3234.93 4187.23,3233.81 4192.83,3230.77 4198.44,3234.07 4204.04,3243.05 4209.65,3234.6 4232.07,3234.29 4237.67,3243.26 4243.28,3250.47 4248.88,3240.84 4265.69,3239.48 4271.3,3237.66 4276.9,3223.29 4282.51,3223.53 4288.11,3224.9 4304.93,3221.74 4310.53,3218.4 4316.14,3207.92 4321.74,3205.01 4327.35,3205.5 4344.16,3195.95 4349.77,3192.79 4360.98,3195.96 4366.58,3197.93 4383.4,3201.77 4389,3196.85 4394.61,3194.88 4400.21,3193.74 4405.82,3198.87 4422.63,3195.52 4428.24,3187.75 4433.84,3181.32 4445.05,3174.4 4461.86,3173.1 4467.47,3172.16 4473.07,3159.1 4478.68,3170.42 4484.28,3163.36 4501.1,3159.72 4506.7,3151.47 4512.31,3169.57 4517.91,3179.59 4523.52,3188.67 4540.33,3175.04 4545.94,3177.03 4551.54,3206.52 4557.15,3212.92 4562.75,3199.19 4579.57,3198.17 4585.17,3204.39 4590.78,3184.7 4596.38,3202.04 4601.99,3225 4618.8,3261.75 4624.4,3249.43 4630.01,3258.73 "></polyline>
<polyline clip-path="url(#clip242)" style="stroke:#3da44d; stroke-linecap:round; stroke-linejoin:round; stroke-width:4; stroke-opacity:1; fill:none" points="538.473,1551.36 544.078,1585.88 549.683,1503.12 555.288,1520.3 560.893,1459 577.707,1440.46 583.312,1446.31 588.917,1484.01 594.522,1477.77 600.127,1537.43 616.941,1611.65 622.546,1611.71 628.151,1600.19 633.756,1552.55 639.361,1666.66 656.175,1695.1 661.78,1725.96 667.385,1741.31 672.99,1748.43 678.595,1783.81 701.014,1803.52 706.619,1746.88 712.224,1730.77 717.828,1673.4 734.643,1638.06 740.248,1783.19 745.853,1763.44 751.458,1801.81 757.062,1825.65 773.877,1805.79 779.482,1831.01 785.087,1877.99 790.691,1913.17 796.296,1958.78 813.111,1973.68 818.716,1967.59 824.32,1916.64 829.925,1988.68 835.53,2025.81 852.345,1970.82 857.95,1888.03 863.554,1894.4 869.159,1911.68 874.764,2008.2 891.579,2033.5 897.183,2060.08 902.788,2062.16 908.393,2008.95 913.998,2084.11 930.813,2002.84 936.417,1980.68 942.022,2001.76 947.627,2016.82 953.232,1960.66 970.046,1939.36 975.651,1882.82 981.256,1935.14 986.861,1976.03 992.466,1904.99 1009.28,1931.2 1014.89,1953.52 1020.49,2037.47 1026.09,2079.17 1031.7,2048.83 1048.75,2028.36 1054.35,2016.5 1059.96,2076.83 1065.56,1902.31 1071.17,1854.34 1087.98,1883.49 1093.59,1846.29 1099.19,1886.37 1104.8,1895.24 1110.4,1894.99 1127.22,1922.87 1132.82,1888.49 1138.43,1863.05 1149.63,1876.58 1166.45,1917.14 1172.05,1932.21 1177.66,1821.16 1183.26,1817.85 1188.87,1822.65 1205.68,1873.46 1211.29,1925.07 1216.89,1937.99 1222.5,1909.68 1228.1,1927.43 1244.92,1895.52 1250.52,1869.59 1256.13,1889.3 1261.73,1971.94 1267.34,1996.05 1284.15,2032.6 1289.76,2032.35 1295.36,1995.14 1300.97,2048.63 1306.57,2043.64 1328.99,2076.81 1334.59,2108.9 1340.2,2048.18 1345.8,2050.84 1368.22,2069.07 1373.83,2052.61 1379.43,2087.82 1385.04,2027.26 1401.85,2012.04 1407.46,1987.51 1413.06,1944.16 1418.67,1928.24 1424.27,1910.33 1446.69,1906.68 1452.3,1938.35 1457.9,1962.37 1463.51,1896.28 1480.32,1844.92 1485.93,1851.83 1491.53,1856.62 1497.14,1810.98 1502.74,1785.91 1519.55,1838.17 1525.16,1794.43 1530.76,1741.28 1536.37,1653.1 1541.97,1697.56 1558.79,1724.97 1564.39,1673.06 1570,1719.68 1575.6,1747.41 1581.21,1763.8 1598.02,1723.97 1603.63,1708.29 1609.23,1682.97 1614.84,1732.22 1620.44,1747.94 1642.86,1815.59 1648.47,1812.2 1654.07,1793.09 1659.68,1837.91 1676.49,1821.39 1682.1,1824.02 1687.7,1841.46 1693.3,1822.31 1698.91,1770.48 1715.72,1773.52 1721.33,1806.87 1726.93,1796.39 1732.54,1850.89 1738.14,1896.64 1754.72,1885.18 1760.33,1830.3 1765.93,1828.95 1771.54,1763.99 1777.14,1783.89 1793.96,1773.56 1799.56,1731.24 1805.17,1774.84 1810.77,1747.91 1816.38,1739.53 1833.19,1752.17 1838.8,1764.27 1844.4,1716.07 1850.01,1696.07 1855.61,1648.26 1872.43,1655.71 1878.03,1670.18 1883.64,1699.88 1889.24,1678.98 1911.66,1679.81 1917.27,1691.84 1922.87,1715.36 1928.47,1661.02 1934.08,1670.84 1950.89,1662.99 1956.5,1663.97 1962.1,1663.1 1967.71,1685.5 1973.31,1682.54 1990.13,1690.62 1995.73,1745.21 2001.34,1732.56 2006.94,1666.54 2012.55,1647.19 2029.36,1650.4 2034.97,1680.69 2040.57,1693.35 2046.18,1706.86 2051.78,1645.17 2068.6,1640.24 2074.2,1657.98 2079.81,1628.88 2085.41,1623.82 2091.02,1633.86 2107.83,1615.4 2113.43,1620.48 2119.04,1584.36 2124.64,1541.18 2130.25,1548.28 2147.06,1533.86 2152.67,1570.67 2158.27,1588.12 2163.88,1539.06 2169.48,1475.4 2191.9,1465.83 2197.51,1484.66 2203.11,1446.67 2208.72,1414.61 2225.53,1417.21 2231.14,1406.43 2236.74,1445.77 2242.35,1415.12 2247.95,1410.39 2264.77,1363.89 2270.37,1338.34 2275.98,1326.15 2281.58,1290.3 2287.18,1311.68 2309.6,1316.79 2315.21,1354.65 2320.81,1325.2 2326.42,1356.87 2343.23,1392.82 2348.84,1342.39 2354.44,1334.12 2360.05,1334.21 2365.65,1289.13 2382.47,1282.51 2393.68,1288.27 2399.28,1314.1 2404.89,1318.3 2421.7,1312.62 2427.31,1295.37 2432.91,1259.08 2438.52,1208.71 2444.12,1214.42 2460.94,1184.32 2466.54,1159.39 2472.14,1158.39 2477.75,1225.97 2483.35,1232.97 2500.17,1226.99 2505.77,1207.34 2511.38,1211.3 2516.98,1229 2522.59,1167.87 2539.4,1161.14 2545.01,1175.38 2550.61,1246.58 2556.22,1249.73 2561.82,1261.31 2578.64,1241.78 2584.24,1267.02 2589.85,1304.24 2595.45,1300.58 2601.06,1321.94 2617.87,1289.03 2623.48,1325.1 2629.08,1360.98 2634.69,1397.14 2640.29,1403.14 2657.1,1355.71 2662.71,1353.81 2668.31,1304.47 2673.92,1363.42 2679.52,1334.37 2696.34,1308.12 2701.94,1253.39 2707.55,1236.06 2713.15,1232.47 2718.76,1233.2 2741.18,1235.69 2746.78,1269.74 2752.39,1298.09 2757.99,1295.18 2774.81,1259.32 2780.41,1292.41 2786.02,1283.24 2791.62,1257.45 2797.23,1307.38 2814.04,1306.94 2819.65,1314.29 2825.25,1362.24 2830.85,1418.46 2836.46,1421.25 2853.27,1407.6 2858.88,1455.24 2864.48,1448.53 2870.09,1423.66 2875.69,1419.53 2892.51,1399.24 2898.11,1456.19 2903.72,1415.7 2909.32,1419.41 2914.93,1370.9 2931.74,1358.77 2937.35,1340.75 2942.95,1318.54 2948.56,1338.14 2954.16,1376.43 2970.98,1339.57 2976.58,1347.42 2982.19,1397.74 2987.79,1427.13 2993.4,1473.54 3010.21,1465.62 3015.81,1437.75 3021.42,1510.82 3027.02,1562.56 3032.63,1551.69 3049.44,1518.1 3055.05,1503.94 3060.65,1455.73 3066.26,1402.36 3071.86,1360.14 3088.91,1350.85 3094.52,1323.08 3100.12,1320.66 3105.73,1350.24 3111.33,1286.79 3128.15,1293.76 3133.75,1218.85 3139.35,1216.68 3144.96,1214.42 3150.56,1211.72 3167.38,1175.24 3172.98,1194.63 3178.59,1179.52 3189.8,1182.96 3206.61,1185.22 3212.22,1175.88 3217.82,1181.21 3223.43,1188.61 3229.03,1170.54 3245.85,1197.95 3251.45,1187.77 3257.06,1206.85 3262.66,1162.52 3268.27,1147.85 3285.08,1141.31 3290.69,1118.17 3296.29,1072.17 3301.9,1065.84 3307.5,1053.83 3324.31,1032.99 3329.92,1010.42 3335.52,1062.09 3341.13,1019.45 3346.73,1012.77 3369.15,994.059 3374.76,988.415 3380.36,989.342 3385.97,1008.56 3408.39,1064.84 3413.99,1104.68 3419.6,1123.46 3425.2,1120.31 3442.02,1046.99 3447.62,1043.79 3453.23,1018.12 3458.83,1018 3464.44,1017.41 3486.86,1023.92 3492.46,1044.27 3498.06,998.398 3503.67,939.845 3520.48,928.534 3526.09,913.479 3531.69,900.641 3537.3,894.087 3542.9,906.732 3559.72,867.131 3565.32,894.224 3570.93,973.548 3576.53,928.225 3582.14,866.922 3598.95,874.093 3604.56,871.497 3610.16,837.639 3615.77,829.137 3621.37,783.971 3638.19,795.004 3643.79,860.811 3649.4,814.13 3655,803.347 3660.61,833.279 3683.02,866.502 3688.63,877.948 3694.23,772.284 3699.84,782.558 3716.65,787.275 3722.26,773.733 3727.86,793.813 3733.47,760.748 3739.07,718.776 3755.89,734.24 3761.49,795.683 3767.1,774.595 3772.7,719.134 3778.31,762.31 3794.89,777.41 3800.49,720.909 3806.1,741.06 3811.7,752.353 3817.31,787.982 3834.12,758.104 3839.73,743.578 3845.33,697.111 3850.94,689.674 3856.54,683.487 3873.36,693.657 3878.96,709.429 3884.57,690.206 3890.17,694.806 3912.59,690.823 3918.19,726.686 3923.8,718.198 3929.4,770.573 3935.01,724.835 3951.82,723.588 3957.43,711.506 3963.03,742.76 3968.64,680.418 3974.24,741.675 3991.06,808.197 3996.66,812.731 4002.27,854.442 4007.87,873.217 4013.48,946.487 4030.29,907.661 4035.9,851.399 4041.5,847.704 4047.11,870.864 4052.71,798.363 4069.53,785.709 4075.13,860.301 4080.74,872.304 4086.34,818.302 4091.94,745.977 4108.76,701.735 4114.36,705.562 4119.97,712.396 4125.57,702.42 4131.18,703.656 4147.99,692.793 4153.6,664.599 4159.2,611.575 4164.81,621.682 4170.41,624.514 4187.23,599.54 4192.83,590.883 4198.44,598.01 4204.04,613.034 4209.65,570.662 4232.07,547.938 4237.67,570.71 4243.28,612.793 4248.88,613.265 4265.69,591.788 4271.3,585.28 4276.9,509.405 4282.51,512.795 4288.11,521.966 4304.93,508.344 4310.53,473.71 4316.14,412.962 4321.74,399.404 4327.35,394.515 4344.16,355.955 4349.77,354.76 4360.98,387.013 4366.58,394.405 4383.4,438.56 4389,387.917 4394.61,367.848 4400.21,355.574 4405.82,384.489 4422.63,350.845 4428.24,316.57 4433.84,279.982 4445.05,242.266 4461.86,230.575 4467.47,224.716 4473.07,174.685 4478.68,258.17 4484.28,231.788 4501.1,214.79 4506.7,206.357 4512.31,323.872 4517.91,352.698 4523.52,385.787 4540.33,321.429 4545.94,323.773 4551.54,473.971 4557.15,510.823 4562.75,470.423 4579.57,467.598 4585.17,518.689 4590.78,415.035 4596.38,507.972 4601.99,603.83 4618.8,735.944 4624.4,697.698 4630.01,736.923 "></polyline>
<path clip-path="url(#clip240)" d="M560.295 404.701 L1117.28 404.701 L1117.28 197.341 L560.295 197.341  Z" fill="#ffffff" fill-rule="evenodd" fill-opacity="1"></path>
<polyline clip-path="url(#clip240)" style="stroke:#000000; stroke-linecap:round; stroke-linejoin:round; stroke-width:4; stroke-opacity:1; fill:none" points="560.295,404.701 1117.28,404.701 1117.28,197.341 560.295,197.341 560.295,404.701 "></polyline>
<polyline clip-path="url(#clip240)" style="stroke:#009af9; stroke-linecap:round; stroke-linejoin:round; stroke-width:4; stroke-opacity:1; fill:none" points="608.484,249.181 897.619,249.181 "></polyline>
<path clip-path="url(#clip240)" d="M961.642 236.507 L955.299 253.706 L968.008 253.706 L961.642 236.507 M959.003 231.901 L964.304 231.901 L977.475 266.461 L972.614 266.461 L969.466 257.595 L953.887 257.595 L950.739 266.461 L945.809 266.461 L959.003 231.901 Z" fill="#000000" fill-rule="nonzero" fill-opacity="1"></path><path clip-path="url(#clip240)" d="M995.392 236.507 L989.049 253.706 L1001.76 253.706 L995.392 236.507 M992.753 231.901 L998.054 231.901 L1011.22 266.461 L1006.36 266.461 L1003.22 257.595 L987.637 257.595 L984.489 266.461 L979.558 266.461 L992.753 231.901 Z" fill="#000000" fill-rule="nonzero" fill-opacity="1"></path><path clip-path="url(#clip240)" d="M1020.95 235.743 L1020.95 248.729 L1026.83 248.729 Q1030.09 248.729 1031.87 247.039 Q1033.66 245.35 1033.66 242.225 Q1033.66 239.123 1031.87 237.433 Q1030.09 235.743 1026.83 235.743 L1020.95 235.743 M1016.27 231.901 L1026.83 231.901 Q1032.64 231.901 1035.6 234.539 Q1038.59 237.155 1038.59 242.225 Q1038.59 247.34 1035.6 249.956 Q1032.64 252.572 1026.83 252.572 L1020.95 252.572 L1020.95 266.461 L1016.27 266.461 L1016.27 231.901 Z" fill="#000000" fill-rule="nonzero" fill-opacity="1"></path><path clip-path="url(#clip240)" d="M1044.86 231.901 L1049.53 231.901 L1049.53 262.525 L1066.36 262.525 L1066.36 266.461 L1044.86 266.461 L1044.86 231.901 Z" fill="#000000" fill-rule="nonzero" fill-opacity="1"></path><polyline clip-path="url(#clip240)" style="stroke:#e26f46; stroke-linecap:round; stroke-linejoin:round; stroke-width:4; stroke-opacity:1; fill:none" points="608.484,301.021 897.619,301.021 "></polyline>
<path clip-path="url(#clip240)" d="M971.364 313.37 L971.364 304.088 L963.725 304.088 L963.725 300.245 L975.994 300.245 L975.994 315.083 Q973.285 317.004 970.021 318 Q966.758 318.972 963.054 318.972 Q954.952 318.972 950.369 314.25 Q945.809 309.504 945.809 301.055 Q945.809 292.583 950.369 287.861 Q954.952 283.116 963.054 283.116 Q966.433 283.116 969.466 283.949 Q972.521 284.782 975.091 286.403 L975.091 291.379 Q972.498 289.18 969.582 288.069 Q966.665 286.958 963.447 286.958 Q957.105 286.958 953.91 290.5 Q950.739 294.041 950.739 301.055 Q950.739 308.046 953.91 311.588 Q957.105 315.129 963.447 315.129 Q965.924 315.129 967.869 314.713 Q969.813 314.273 971.364 313.37 Z" fill="#000000" fill-rule="nonzero" fill-opacity="1"></path><path clip-path="url(#clip240)" d="M1005.25 284.875 L1005.25 289.435 Q1002.59 288.162 1000.23 287.537 Q997.869 286.912 995.669 286.912 Q991.85 286.912 989.767 288.393 Q987.707 289.875 987.707 292.606 Q987.707 294.898 989.072 296.079 Q990.461 297.236 994.304 297.954 L997.128 298.532 Q1002.36 299.528 1004.84 302.051 Q1007.34 304.551 1007.34 308.764 Q1007.34 313.787 1003.96 316.379 Q1000.6 318.972 994.095 318.972 Q991.642 318.972 988.864 318.416 Q986.109 317.861 983.146 316.773 L983.146 311.958 Q985.994 313.555 988.725 314.365 Q991.456 315.176 994.095 315.176 Q998.1 315.176 1000.28 313.602 Q1002.45 312.028 1002.45 309.111 Q1002.45 306.565 1000.88 305.129 Q999.327 303.694 995.762 302.977 L992.915 302.421 Q987.683 301.379 985.345 299.157 Q983.007 296.935 983.007 292.977 Q983.007 288.393 986.225 285.754 Q989.466 283.116 995.137 283.116 Q997.568 283.116 1000.09 283.555 Q1002.61 283.995 1005.25 284.875 Z" fill="#000000" fill-rule="nonzero" fill-opacity="1"></path><path clip-path="url(#clip240)" d="M1019.3 287.583 L1019.3 300.569 L1025.18 300.569 Q1028.45 300.569 1030.23 298.879 Q1032.01 297.19 1032.01 294.065 Q1032.01 290.963 1030.23 289.273 Q1028.45 287.583 1025.18 287.583 L1019.3 287.583 M1014.63 283.741 L1025.18 283.741 Q1030.99 283.741 1033.96 286.379 Q1036.94 288.995 1036.94 294.065 Q1036.94 299.18 1033.96 301.796 Q1030.99 304.412 1025.18 304.412 L1019.3 304.412 L1019.3 318.301 L1014.63 318.301 L1014.63 283.741 Z" fill="#000000" fill-rule="nonzero" fill-opacity="1"></path><path clip-path="url(#clip240)" d="M1069.09 286.403 L1069.09 291.333 Q1066.73 289.134 1064.05 288.046 Q1061.39 286.958 1058.38 286.958 Q1052.45 286.958 1049.3 290.592 Q1046.16 294.204 1046.16 301.055 Q1046.16 307.884 1049.3 311.518 Q1052.45 315.129 1058.38 315.129 Q1061.39 315.129 1064.05 314.041 Q1066.73 312.953 1069.09 310.754 L1069.09 315.639 Q1066.64 317.305 1063.89 318.139 Q1061.16 318.972 1058.1 318.972 Q1050.25 318.972 1045.74 314.18 Q1041.22 309.365 1041.22 301.055 Q1041.22 292.722 1045.74 287.93 Q1050.25 283.116 1058.1 283.116 Q1061.2 283.116 1063.93 283.949 Q1066.69 284.759 1069.09 286.403 Z" fill="#000000" fill-rule="nonzero" fill-opacity="1"></path><polyline clip-path="url(#clip240)" style="stroke:#3da44d; stroke-linecap:round; stroke-linejoin:round; stroke-width:4; stroke-opacity:1; fill:none" points="608.484,352.861 897.619,352.861 "></polyline>
<path clip-path="url(#clip240)" d="M945.809 335.581 L950.484 335.581 L950.484 370.141 L945.809 370.141 L945.809 335.581 Z" fill="#000000" fill-rule="nonzero" fill-opacity="1"></path><path clip-path="url(#clip240)" d="M958.123 335.581 L963.146 335.581 L971.734 348.428 L980.369 335.581 L985.392 335.581 L974.281 352.178 L986.132 370.141 L981.109 370.141 L971.387 355.442 L961.596 370.141 L956.549 370.141 L968.887 351.692 L958.123 335.581 Z" fill="#000000" fill-rule="nonzero" fill-opacity="1"></path><path clip-path="url(#clip240)" d="M992.267 335.581 L996.943 335.581 L996.943 370.141 L992.267 370.141 L992.267 335.581 Z" fill="#000000" fill-rule="nonzero" fill-opacity="1"></path><path clip-path="url(#clip240)" d="M1032.13 338.243 L1032.13 343.173 Q1029.77 340.974 1027.08 339.886 Q1024.42 338.798 1021.41 338.798 Q1015.48 338.798 1012.34 342.432 Q1009.19 346.044 1009.19 352.895 Q1009.19 359.724 1012.34 363.358 Q1015.48 366.969 1021.41 366.969 Q1024.42 366.969 1027.08 365.881 Q1029.77 364.793 1032.13 362.594 L1032.13 367.479 Q1029.67 369.145 1026.92 369.979 Q1024.19 370.812 1021.13 370.812 Q1013.29 370.812 1008.77 366.02 Q1004.26 361.205 1004.26 352.895 Q1004.26 344.562 1008.77 339.77 Q1013.29 334.956 1021.13 334.956 Q1024.23 334.956 1026.97 335.789 Q1029.72 336.599 1032.13 338.243 Z" fill="#000000" fill-rule="nonzero" fill-opacity="1"></path></svg>